<svg width="96" height="86" viewBox="0 0 96 86" fill="none" xmlns="http://www.w3.org/2000/svg">
<path fill-rule="evenodd" clip-rule="evenodd" d="M95.5427 74.5115L80.4287 59.4186L80.9927 58.8563C81.6031 58.2467 81.6031 57.2584 80.9927 56.6496C80.3823 56.0402 79.3927 56.0402 78.7823 56.6496L78.2192 57.212L73.8873 52.8859C76.6437 48.2503 78.229 42.8434 78.229 37.0732C78.229 19.9396 64.2706 6 47.1142 6C29.9575 6 16 19.9396 16 37.0732C16 54.2067 29.9575 68.1454 47.1142 68.1454C52.8929 68.1454 58.3079 66.5624 62.9498 63.8096L67.2808 68.1357L66.7373 68.6787C66.1269 69.2881 66.1269 70.2763 66.7373 70.8851C67.0425 71.1899 67.4421 71.3426 67.8417 71.3426C68.2421 71.3426 68.6417 71.1899 68.9469 70.8851L69.4904 70.3423L84.6044 85.4351C84.9096 85.7399 85.3092 85.8926 85.7087 85.8926C86.109 85.8926 86.5085 85.7399 86.8138 85.4351L95.5427 76.7187C95.8356 76.4262 96 76.0288 96 75.6152C96 75.2014 95.8356 74.804 95.5427 74.5115ZM19.125 37.0733C19.125 21.6602 31.6812 9.12085 47.1142 9.12085C62.5479 9.12085 75.104 21.6602 75.104 37.0733C75.104 52.4855 62.5479 65.0247 47.1142 65.0247C31.6812 65.0247 19.125 52.4855 19.125 37.0733ZM65.6045 62.0479C68.0857 60.211 70.2837 58.0152 72.123 55.5381L76.0097 59.4187L69.4903 65.9293L65.6045 62.0479ZM85.7088 82.1251L71.7007 68.1358L78.2192 61.626L92.2282 75.6153L85.7088 82.1251Z" fill="#1B55A3"/>
<path fill-rule="evenodd" clip-rule="evenodd" d="M63.1492 21.0594C56.3263 14.2457 45.9104 12.487 37.2304 16.6845C36.4542 17.06 36.1294 17.9931 36.5054 18.7683C36.8813 19.5446 37.8165 19.8687 38.5919 19.4932C46.0765 15.8751 55.0569 17.3908 60.9398 23.2658C68.3763 30.6933 68.5569 42.6629 61.4834 50.312V49.1215C61.4834 44.6011 57.8011 40.9235 53.2746 40.9235H52.8506C53.5456 39.8558 53.9509 38.5829 53.9509 37.2177V35.2972C53.9509 31.5328 50.8836 28.4705 47.1142 28.4705C43.3446 28.4705 40.2781 31.5328 40.2781 35.2972V37.2177C40.2781 38.5829 40.6833 39.8558 41.3775 40.9235H40.9544C36.4281 40.9235 32.7456 44.6011 32.7456 49.1215V50.3136C27.3158 44.4394 26.0025 35.7994 29.5115 28.5614C29.8875 27.7862 29.5629 26.8531 28.7856 26.4778C28.0094 26.1022 27.075 26.4266 26.699 27.2018C22.4958 35.8701 24.2569 46.272 31.0798 53.0866C35.5004 57.5013 41.3077 59.7085 47.1142 59.7085C52.9215 59.7085 58.7288 57.5013 63.1492 53.0866C71.9913 44.2566 71.9913 29.8894 63.1492 21.0594ZM43.4033 37.2177V35.2972C43.4033 33.2541 45.0683 31.5913 47.1144 31.5913C49.161 31.5913 50.826 33.2541 50.826 35.2972V37.2177C50.826 39.2608 49.161 40.9236 47.1144 40.9236C45.0683 40.9236 43.4033 39.2608 43.4033 37.2177ZM47.114 56.5894C43.1719 56.5886 39.229 55.4079 35.8696 53.0477V49.1216C35.8696 46.3226 38.1507 44.0444 40.9542 44.0444H53.2744C56.078 44.0444 58.3582 46.3226 58.3582 49.1216V53.0477C54.9996 55.4085 51.0575 56.5894 47.114 56.5894Z" fill="#D8D8D8"/>
<g filter="url(#filter0_d_3843:514)">
<path fill-rule="evenodd" clip-rule="evenodd" d="M32.1841 23.7229C32.5949 23.7229 32.9978 23.5562 33.2882 23.266C33.5797 22.9751 33.7466 22.5744 33.7466 22.1625C33.7466 21.752 33.5797 21.3496 33.2882 21.0596C32.9978 20.7693 32.5949 20.6021 32.1841 20.6021C31.773 20.6021 31.3701 20.7693 31.0797 21.0596C30.7891 21.3496 30.6216 21.752 30.6216 22.1625C30.6216 22.5744 30.7882 22.9768 31.0797 23.266C31.3701 23.5562 31.773 23.7229 32.1841 23.7229Z" fill="#1B55A3"/>
</g>
<defs>
<filter id="filter0_d_3843:514" x="0.621582" y="0.602051" width="71.125" height="71.1208" filterUnits="userSpaceOnUse" color-interpolation-filters="sRGB">
<feFlood flood-opacity="0" result="BackgroundImageFix"/>
<feColorMatrix in="SourceAlpha" type="matrix" values="0 0 0 0 0 0 0 0 0 0 0 0 0 0 0 0 0 0 127 0" result="hardAlpha"/>
<feOffset dx="4" dy="14"/>
<feGaussianBlur stdDeviation="17"/>
<feComposite in2="hardAlpha" operator="out"/>
<feColorMatrix type="matrix" values="0 0 0 0 0.0470588 0 0 0 0 0.305883 0 0 0 0 0.72549 0 0 0 0.18 0"/>
<feBlend mode="normal" in2="BackgroundImageFix" result="effect1_dropShadow_3843:514"/>
<feBlend mode="normal" in="SourceGraphic" in2="effect1_dropShadow_3843:514" result="shape"/>
</filter>
</defs>
</svg>
