<svg width="80" height="81" viewBox="0 0 80 81" fill="none" xmlns="http://www.w3.org/2000/svg">
<path fill-rule="evenodd" clip-rule="evenodd" d="M79.5427 69.1222L64.4287 54.0293L64.9927 53.467C65.6031 52.8574 65.6031 51.8691 64.9927 51.2604C64.3823 50.651 63.3927 50.651 62.7823 51.2604L62.2192 51.8227L57.8873 47.4967C60.6437 42.861 62.229 37.4541 62.229 31.684C62.229 14.5503 48.2706 0.610718 31.1142 0.610718C13.9575 0.610718 0 14.5503 0 31.684C0 48.8174 13.9575 62.7562 31.1142 62.7562C36.8929 62.7562 42.3079 61.1731 46.9498 58.4203L51.2808 62.7464L50.7373 63.2894C50.1269 63.8988 50.1269 64.887 50.7373 65.4958C51.0425 65.8006 51.4421 65.9533 51.8417 65.9533C52.2421 65.9533 52.6417 65.8006 52.9469 65.4958L53.4904 64.953L68.6044 80.0458C68.9096 80.3506 69.3092 80.5033 69.7087 80.5033C70.109 80.5033 70.5085 80.3506 70.8138 80.0458L79.5427 71.3294C79.8356 71.0369 80 70.6395 80 70.2259C80 69.8121 79.8356 69.4147 79.5427 69.1222ZM3.125 31.684C3.125 16.271 15.6812 3.73157 31.1142 3.73157C46.5479 3.73157 59.104 16.271 59.104 31.684C59.104 47.0962 46.5479 59.6354 31.1142 59.6354C15.6812 59.6354 3.125 47.0962 3.125 31.684ZM49.6045 56.6585C52.0857 54.8216 54.2837 52.6258 56.123 50.1487L60.0097 54.0293L53.4903 60.5399L49.6045 56.6585ZM69.7088 76.7358L55.7007 62.7465L62.2192 56.2367L76.2282 70.226L69.7088 76.7358Z" fill="#0257D6"/>
<path fill-rule="evenodd" clip-rule="evenodd" d="M47.1492 15.6703C40.3263 8.8565 29.9104 7.09782 21.2304 11.2953C20.4542 11.6708 20.1294 12.604 20.5054 13.3792C20.8813 14.1554 21.8165 14.4796 22.5919 14.104C30.0765 10.486 39.0569 12.0016 44.9398 17.8767C52.3763 25.3042 52.5569 37.2737 45.4834 44.9228V43.7323C45.4834 39.2119 41.8011 35.5344 37.2746 35.5344H36.8506C37.5456 34.4667 37.9509 33.1938 37.9509 31.8285V29.908C37.9509 26.1437 34.8836 23.0813 31.1142 23.0813C27.3446 23.0813 24.2781 26.1437 24.2781 29.908V31.8285C24.2781 33.1938 24.6833 34.4667 25.3775 35.5344H24.9544C20.4281 35.5344 16.7456 39.2119 16.7456 43.7323V44.9245C11.3158 39.0503 10.0025 30.4102 13.5115 23.1723C13.8875 22.397 13.5629 21.4639 12.7856 21.0886C12.0094 20.7131 11.075 21.0374 10.699 21.8126C6.49585 30.481 8.25689 40.8828 15.0798 47.6974C19.5004 52.1121 25.3077 54.3193 31.1142 54.3193C36.9215 54.3193 42.7288 52.1121 47.1492 47.6974C55.9913 38.8674 55.9913 24.5003 47.1492 15.6703ZM27.4033 31.8287V29.9081C27.4033 27.865 29.0683 26.2023 31.1144 26.2023C33.161 26.2023 34.826 27.865 34.826 29.9081V31.8287C34.826 33.8718 33.161 35.5345 31.1144 35.5345C29.0683 35.5345 27.4033 33.8718 27.4033 31.8287ZM31.114 51.2003C27.1719 51.1995 23.229 50.0187 19.8696 47.6586V43.7324C19.8696 40.9335 22.1507 38.6553 24.9542 38.6553H37.2744C40.078 38.6553 42.3582 40.9335 42.3582 43.7324V47.6586C38.9996 50.0194 35.0575 51.2003 31.114 51.2003Z" fill="#D8D8D8"/>
<path fill-rule="evenodd" clip-rule="evenodd" d="M16.1841 18.3335C16.5949 18.3335 16.9978 18.1668 17.2882 17.8766C17.5797 17.5857 17.7466 17.185 17.7466 16.773C17.7466 16.3626 17.5797 15.9602 17.2882 15.6702C16.9978 15.3799 16.5949 15.2126 16.1841 15.2126C15.773 15.2126 15.3701 15.3799 15.0797 15.6702C14.7891 15.9602 14.6216 16.3626 14.6216 16.773C14.6216 17.185 14.7882 17.5874 15.0797 17.8766C15.3701 18.1668 15.773 18.3335 16.1841 18.3335Z" fill="#0257D6"/>
</svg>
