<svg width="90" height="82" viewBox="0 0 90 82" fill="none" xmlns="http://www.w3.org/2000/svg">
<g clip-path="url(#clip0_3843:540)">
<path fill-rule="evenodd" clip-rule="evenodd" d="M80.8384 0.676025C81.1485 0.676025 81.4458 0.799444 81.6646 1.01903L89.6549 9.03439C89.8729 9.25308 89.9953 9.54927 89.9953 9.85806V31.5094C89.9953 32.1537 89.473 32.676 88.8287 32.676H79.3168V32.7594C79.3168 36.3952 76.3693 39.3427 72.7334 39.3427H68.6547C66.4455 39.3427 64.6547 41.1336 64.6547 43.3427V45.5088L67.742 42.4215L69.5874 44.2669L64.1603 49.6941C63.7047 50.1497 62.966 50.1497 62.5104 49.6941L57.0833 44.2669L58.9287 42.4215L62.016 45.5088V43.2594C62.016 39.6235 64.9635 36.676 68.5993 36.676H72.6547C74.8417 36.676 76.6188 34.9208 76.6541 32.7422L76.6547 32.676H67.162C66.5177 32.676 65.9953 32.1537 65.9953 31.5094V1.84269C65.9953 1.19836 66.5177 0.676025 67.162 0.676025H80.8384ZM79.3707 3.3659H68.6561V29.9854H87.3462V11.3555H80.5374C79.8931 11.3555 79.3707 10.8332 79.3707 10.1889V3.3659ZM84.662 24.676V27.3427H71.3287V24.676H84.662ZM84.662 19.3427V22.0094H71.3287V19.3427H84.662ZM84.662 14.0094V16.676H71.3287V14.0094H84.662ZM76.662 8.67603V11.3427H71.3287V8.67603H76.662ZM82.0025 5.11594V8.69551H85.5821L82.0025 5.11594Z" fill="#D8D8D8"/>
<path fill-rule="evenodd" clip-rule="evenodd" d="M9.15696 0.676025C8.84691 0.676025 8.54961 0.799444 8.33071 1.01903L0.340427 9.03439C0.122425 9.25308 1.14441e-05 9.54927 1.14441e-05 9.85806V31.5094C1.14441e-05 32.1537 0.522346 32.676 1.16668 32.676H10.6786V32.7594C10.6786 36.3952 13.626 39.3427 17.2619 39.3427H21.3407C23.5498 39.3427 25.3407 41.1336 25.3407 43.3427V45.5088L22.2534 42.4215L20.4079 44.2669L25.8351 49.6941C26.2907 50.1497 27.0294 50.1497 27.485 49.6941L32.9121 44.2669L31.0667 42.4215L27.9793 45.5088V43.2594C27.9793 39.6235 25.0319 36.676 21.396 36.676H17.3407C15.1536 36.676 13.3765 34.9208 13.3412 32.7422L13.3407 32.676H22.8333C23.4777 32.676 24 32.1537 24 31.5094V1.84269C24 1.19836 23.4777 0.676025 22.8333 0.676025H9.15696ZM10.6246 3.3659H21.3392V29.9854H2.6492V11.3555H9.45795C10.1023 11.3555 10.6246 10.8332 10.6246 10.1889V3.3659ZM5.33335 24.676V27.3427H18.6667V24.676H5.33335ZM5.33335 19.3427V22.0094H18.6667V19.3427H5.33335ZM5.33335 14.0094V16.676H18.6667V14.0094H5.33335ZM13.3333 8.67603V11.3427H18.6667V8.67603H13.3333ZM7.99282 5.11594V8.69551H4.41325L7.99282 5.11594Z" fill="#D8D8D8"/>
<path fill-rule="evenodd" clip-rule="evenodd" d="M34.1666 32.676C33.5223 32.676 33 32.1537 33 31.5094V1.84269C33 1.19836 33.5223 0.676025 34.1666 0.676025H47.843C48.1531 0.676025 48.4504 0.799444 48.6693 1.01903L56.6595 9.03439C56.8775 9.25308 57 9.54927 57 9.85806V31.5094C57 32.1537 56.4776 32.676 55.8333 32.676H46.326L46.3259 48.7806L76.2757 57.673L76.4353 57.6249L76.4669 57.7297L77.2592 57.965C77.9387 58.1668 78.4078 58.785 78.4217 59.4911V59.5228V69.7087C78.4217 70.4148 77.966 71.0388 77.2963 71.255L77.2662 71.2644L45.4761 80.858C45.1829 80.9465 44.8709 80.9502 44.5762 80.8693L44.5378 80.8582L12.6975 71.2646C12.0211 71.0608 11.5551 70.4441 11.5413 69.7402V69.7087V59.5228C11.5413 58.8139 12.0007 58.188 12.6741 57.9742L12.7044 57.9649L43.6872 48.7801L43.6873 32.676H34.1666ZM75.3384 61.1757L46.5231 69.8582V77.3213L75.3384 68.6254V61.1757ZM14.6245 61.3687V68.6249L43.4398 77.307V69.858L14.6245 61.3687ZM43.6872 51.9961L18.7819 59.3792L44.9893 67.1001L70.8993 59.293L46.3259 51.9969L46.326 58.8421L49.4133 55.7548L51.2587 57.6003L45.8316 63.0274C45.376 63.483 44.6373 63.483 44.1817 63.0274L38.7545 57.6003L40.6 55.7548L43.6873 58.8421L43.6872 51.9961ZM46.3754 3.3659H35.6607V29.9854H54.3508V11.3555H47.542C46.8977 11.3555 46.3754 10.8332 46.3754 10.1889V3.3659ZM51.6666 24.676V27.3427H38.3333V24.676H51.6666ZM51.6666 19.3427V22.0094H38.3333V19.3427H51.6666ZM51.6666 14.0094V16.676H38.3333V14.0094H51.6666ZM43.6666 8.67603V11.3427H38.3333V8.67603H43.6666ZM49.0072 5.11594V8.69551H52.5867L49.0072 5.11594Z" fill="#0257D6"/>
</g>
<defs>
<clipPath id="clip0_3843:540">
<rect width="90" height="80.3333" fill="white" transform="translate(0 0.676025)"/>
</clipPath>
</defs>
</svg>
