<svg width="90" height="58" viewBox="0 0 90 58" fill="none" xmlns="http://www.w3.org/2000/svg">
<g clip-path="url(#clip0_3843:529)">
<path fill-rule="evenodd" clip-rule="evenodd" d="M65.8861 0.702881L65.886 6.83744L76.5477 6.8375C79.6652 6.8375 82.1984 9.33946 82.2487 12.445L82.2495 12.5393V14.0772C82.2495 14.7445 81.8356 15.3151 81.2505 15.5463L83.7078 24.9687C87.1722 25.4898 89.8372 28.4519 89.8955 32.0476L89.8965 32.168V47.2033C89.8965 48.0119 89.2529 48.6702 88.45 48.6938L88.4053 48.6945L83.8593 48.6945L83.8584 48.8078C83.7786 53.7289 79.7646 57.6935 74.8246 57.6935C69.8467 57.6935 65.809 53.6679 65.7895 48.6946L34.3856 48.6945L34.3848 48.8078C34.305 53.7289 30.2909 57.6935 25.3509 57.6935C20.373 57.6935 16.3354 53.6679 16.3159 48.6946L8.79367 48.6945C7.21376 48.6945 5.92947 47.4288 5.89893 45.8561L5.89877 42.7811L1.49123 42.7812C0.667645 42.7812 0 42.1136 0 41.29C0 40.4814 0.643588 39.8231 1.44646 39.7994L1.49123 39.7988H14.8246C15.6481 39.7988 16.3158 40.4664 16.3158 41.29C16.3158 42.0986 15.6722 42.7569 14.8693 42.7806L14.8246 42.7812L8.88123 42.7811V45.7119L16.8072 45.7119C18.0289 42.1687 21.3926 39.6234 25.3509 39.6234C29.3091 39.6234 32.6728 42.1687 33.8946 45.7119L62.9035 45.712L62.9037 35.3446C62.9037 34.521 63.5713 33.8534 64.3949 33.8534C65.2035 33.8534 65.8618 34.497 65.8854 35.2999L65.8861 35.3446L65.886 45.712L66.2808 45.712C67.5025 42.1688 70.8663 39.6234 74.8246 39.6234C78.7829 39.6234 82.1466 42.1688 83.3683 45.712L86.9139 45.712V39.956L85.5167 39.9562C83.0707 39.9562 81.0831 37.9931 81.0436 35.5565L81.043 35.4825V32.5001C81.043 31.5955 81.7637 30.8592 82.6622 30.8341L82.7097 30.8334L86.7028 30.8335C86.1484 29.1344 84.5639 27.9008 82.6869 27.8704L82.6158 27.8698L82.5627 27.8699C82.5441 27.8702 82.5257 27.8703 82.5072 27.8699L65.886 27.8697L65.8861 29.2725C65.8861 30.0961 65.2185 30.7637 64.3949 30.7637C63.5863 30.7637 62.928 30.1201 62.9043 29.3172L62.9037 29.2725L62.9035 3.68528H8.88123L8.88139 29.2725C8.88139 30.0811 8.2378 30.7394 7.43492 30.763L7.39016 30.7637C6.58155 30.7637 5.92326 30.1201 5.89959 29.3172L5.89893 29.2725V0.702881H65.8861ZM71.7547 48.6945H68.5967L68.5973 48.7614C68.6523 52.1536 71.4193 54.8865 74.8246 54.8865C78.2522 54.8865 81.0331 52.1176 81.0525 48.6946L77.8945 48.6946C77.8752 50.3735 76.5081 51.7286 74.8246 51.7286C73.129 51.7286 71.7544 50.354 71.7544 48.6584L71.7547 48.6945ZM22.2811 48.6945H19.123L19.1236 48.7614C19.1786 52.1536 21.9456 54.8865 25.3509 54.8865C28.7785 54.8865 31.5594 52.1176 31.5788 48.6946L28.4208 48.6946C28.4015 50.3735 27.0344 51.7286 25.3509 51.7286C23.6553 51.7286 22.2807 50.354 22.2807 48.6584L22.2811 48.6945ZM74.8246 42.4304C72.4508 42.4304 70.3872 43.7584 69.3362 45.712C69.3362 45.712 73.6677 45.712 73.9589 45.712C74.25 45.712 74.5239 45.712 74.8246 45.712C75.1252 45.712 75.3486 45.712 75.6903 45.712C76.0319 45.712 80.313 45.712 80.313 45.712C79.262 43.7584 77.1984 42.4304 74.8246 42.4304ZM25.3509 42.4304C22.9772 42.4304 20.9136 43.7583 19.8626 45.7118C19.8626 45.7118 24.1947 45.7119 24.4855 45.7119C24.7764 45.7119 25.012 45.7118 25.3125 45.7118C25.613 45.7118 25.875 45.7118 26.2162 45.7119C26.5574 45.7119 30.8392 45.7118 30.8392 45.7118C29.7882 43.7583 27.7246 42.4304 25.3509 42.4304ZM86.9139 33.8159L84.0254 33.8158L84.0255 35.4825C84.0255 36.2911 84.6691 36.9494 85.472 36.973L85.5167 36.9737L86.9139 36.9736V33.8159ZM78.1967 15.656H65.886V24.8873H80.6042L78.1967 15.656ZM76.5477 9.81995L65.886 9.8199V12.6736L79.267 12.6737L79.267 12.5393C79.267 11.056 78.0794 9.85006 76.6032 9.82051L76.5477 9.81995Z" fill="#0257D6"/>
<path fill-rule="evenodd" clip-rule="evenodd" d="M58.4069 39.7827C59.2304 39.7827 59.8981 40.4504 59.8981 41.2739C59.8981 42.0825 59.2545 42.7408 58.4516 42.7645L58.4069 42.7652H37.4309C36.6073 42.7652 35.9397 42.0975 35.9397 41.2739C35.9397 40.4653 36.5833 39.807 37.3862 39.7834L37.4309 39.7827H58.4069Z" fill="#D8D8D8"/>
<path fill-rule="evenodd" clip-rule="evenodd" d="M22.3684 33.8339C23.192 33.8339 23.8596 34.5015 23.8596 35.3251C23.8596 36.1337 23.216 36.792 22.4131 36.8157L22.3684 36.8163H4.47365C3.65007 36.8163 2.98242 36.1487 2.98242 35.3251C2.98242 34.5165 3.62601 33.8582 4.42888 33.8345L4.47365 33.8339H22.3684Z" fill="#D8D8D8"/>
</g>
<defs>
<clipPath id="clip0_3843:529">
<rect width="90" height="57.0175" fill="white" transform="translate(0 0.676025)"/>
</clipPath>
</defs>
</svg>
