<svg width="180" height="68" viewBox="0 0 180 68" fill="none" xmlns="http://www.w3.org/2000/svg">
<path fill-rule="evenodd" clip-rule="evenodd" d="M65.9578 25.9614C76.2926 25.9614 84.8382 36.3249 84.8382 46.6811C84.8382 57.0372 77.5786 68 65.9578 68H51.8532V25.9614H65.9578ZM104.734 25.9614L121.707 68H111.522L108.152 59.8428H91.9161L88.6445 68H78.6978L95.8641 25.9614H104.734ZM163.027 25.9614L180 68H169.815L166.445 59.8428H150.209L146.938 68H136.991L154.157 25.9614H163.027ZM143.896 25.9614V34.4685H133.815V68H124.472V34.4685H114.75V25.9614H143.896ZM33.1542 7.06348C37.7821 7.06348 41.5338 10.8186 41.5338 15.4507C41.5338 20.0828 37.7821 23.8379 33.1542 23.8379C31.7366 23.8379 30.4012 23.4855 29.2306 22.8636L20.2099 32.2131C21.7006 34.1287 22.5886 36.5374 22.5886 39.1536C22.5886 40.7922 22.2402 42.3494 21.6137 43.755L29.8385 48.5076C31.3105 47.2241 33.2346 46.4469 35.3402 46.4469C39.9681 46.4469 43.7198 50.2019 43.7198 54.8341C43.7198 59.4662 39.9681 63.2213 35.3402 63.2213C30.7122 63.2213 26.9605 59.4662 26.9605 54.8341C26.9605 53.7651 27.1603 52.7428 27.5246 51.8026L19.349 47.078C17.2999 49.1643 14.4481 50.4581 11.2943 50.4581C5.05662 50.4581 0 45.3969 0 39.1536C0 32.9104 5.05662 27.8492 11.2943 27.8492C13.47 27.8492 15.502 28.4649 17.2259 29.5318L26.2393 20.1894C25.3152 18.8412 24.7745 17.2092 24.7745 15.4507C24.7745 10.8186 28.5262 7.06348 33.1542 7.06348ZM65.4873 34.4685H61.0007V59.8428H65.4873C68.3457 59.8428 74.7878 55.3548 74.7878 46.9807C74.7878 38.6067 68.4923 34.4685 65.4873 34.4685ZM100.448 38.6067L95.8881 51.5018H105.008L100.448 38.6067ZM158.741 38.6067L154.181 51.5018H163.301L158.741 38.6067ZM72.1239 2.52892V6.06942H75.6346V7.50691H72.1239V15.5196L72.1259 15.628C72.1446 16.126 72.2947 16.5158 72.576 16.7974C72.8774 17.0991 73.2941 17.2499 73.826 17.2499C74.1274 17.2499 74.4333 17.21 74.7436 17.1301C75.0539 17.0503 75.3509 16.9482 75.6346 16.824L75.7675 18.2615L75.6356 18.3066C75.3664 18.3957 75.0646 18.4783 74.7303 18.5543C74.3402 18.643 73.9945 18.6874 73.693 18.6874C73.1256 18.6874 72.638 18.6031 72.2302 18.4345C71.8224 18.2659 71.4944 18.0397 71.2462 17.7557C70.9979 17.4718 70.8162 17.139 70.701 16.7574C70.5857 16.3759 70.5281 15.9633 70.5281 15.5196V7.50691H67.8685V6.06942H70.5281V2.52892H72.1239ZM151.431 5.74997C152.371 5.74997 153.2 5.91413 153.918 6.24245C154.636 6.57076 155.239 7.00556 155.726 7.54684C156.214 8.08812 156.582 8.70482 156.83 9.39695C157.078 10.0891 157.202 10.7901 157.202 11.4999V12.618H146.883L146.885 12.7123C146.896 13.0342 146.962 13.4331 147.082 13.9091C147.215 14.4326 147.459 14.9428 147.814 15.4397C148.169 15.9367 148.643 16.3626 149.237 16.7175C149.831 17.0725 150.598 17.2499 151.537 17.2499C152.353 17.2499 153.142 17.0547 153.904 16.6643C154.667 16.2738 155.252 15.7414 155.66 15.0671L156.83 16.052L156.736 16.1911C156.132 17.0594 155.397 17.6874 154.529 18.0751C153.616 18.4833 152.61 18.6874 151.511 18.6874C150.571 18.6874 149.72 18.5277 148.958 18.2083C148.195 17.8888 147.539 17.4407 146.989 16.8639C146.44 16.2872 146.019 15.6039 145.726 14.8142C145.434 14.0244 145.287 13.1504 145.287 12.1921C145.287 11.2692 145.438 10.4174 145.739 9.63653C146.041 8.85567 146.466 8.17685 147.016 7.60008C147.566 7.02331 148.213 6.57076 148.958 6.24245C149.702 5.91413 150.527 5.74997 151.431 5.74997ZM112.305 5.74997C113.245 5.74997 114.109 5.90969 114.898 6.22914C115.687 6.54858 116.37 6.99669 116.946 7.57346C117.523 8.15023 117.97 8.83349 118.289 9.62322C118.609 10.413 118.768 11.2781 118.768 12.2187C118.768 13.1593 118.609 14.0244 118.289 14.8142C117.97 15.6039 117.523 16.2872 116.946 16.8639C116.37 17.4407 115.687 17.8888 114.898 18.2083C114.109 18.5277 113.245 18.6874 112.305 18.6874C111.366 18.6874 110.497 18.5277 109.699 18.2083C108.901 17.8888 108.218 17.4407 107.651 16.8639C107.084 16.2872 106.64 15.6039 106.321 14.8142C106.002 14.0244 105.842 13.1593 105.842 12.2187C105.842 11.2781 106.002 10.413 106.321 9.62322C106.64 8.83349 107.084 8.15023 107.651 7.57346C108.218 6.99669 108.901 6.54858 109.699 6.22914C110.497 5.90969 111.366 5.74997 112.305 5.74997ZM172.107 2.52892V6.06942H175.618V7.50691H172.107V15.5196C172.107 16.0698 172.258 16.4957 172.559 16.7974C172.86 17.0991 173.277 17.2499 173.809 17.2499C174.11 17.2499 174.416 17.21 174.727 17.1301C175.037 17.0503 175.334 16.9482 175.618 16.824L175.751 18.2615C175.449 18.368 175.103 18.4656 174.713 18.5543C174.323 18.643 173.977 18.6874 173.676 18.6874C173.109 18.6874 172.621 18.6031 172.213 18.4345C171.805 18.2659 171.477 18.0397 171.229 17.7557C170.981 17.4718 170.799 17.139 170.684 16.7574C170.569 16.3759 170.511 15.9633 170.511 15.5196V7.50691L168.353 7.07616L167.851 6.06942H170.511V2.52892H172.107ZM164.562 5.74997C165.466 5.74997 166.304 5.93632 167.075 6.309C167.846 6.68168 168.533 7.20521 169.136 7.87959L167.859 8.83792L167.743 8.71157C167.314 8.25674 166.847 7.89512 166.343 7.6267C165.794 7.33388 165.2 7.18747 164.562 7.18747C163.817 7.18747 163.143 7.32057 162.54 7.58677C161.937 7.85297 161.423 8.21235 160.998 8.66489C160.572 9.11744 160.248 9.64984 160.027 10.2621C159.805 10.8744 159.694 11.5266 159.694 12.2187C159.694 12.9108 159.805 13.563 160.027 14.1753C160.248 14.7875 160.572 15.32 160.998 15.7725C161.423 16.225 161.937 16.5844 162.54 16.8506C163.143 17.1168 163.817 17.2499 164.562 17.2499C165.235 17.2499 165.851 17.0946 166.41 16.7841C166.968 16.4735 167.452 16.0609 167.859 15.5462L169.083 16.5578L168.969 16.692C168.394 17.3518 167.75 17.8439 167.035 18.1683C166.273 18.5144 165.448 18.6874 164.562 18.6874C163.622 18.6874 162.753 18.5277 161.955 18.2083C161.157 17.8888 160.475 17.4407 159.907 16.8639C159.34 16.2872 158.896 15.6039 158.577 14.8142C158.258 14.0244 158.099 13.1593 158.099 12.2187C158.099 11.2781 158.258 10.413 158.577 9.62322C158.896 8.83349 159.34 8.15023 159.907 7.57346C160.475 6.99669 161.157 6.54858 161.955 6.22914C162.753 5.90969 163.622 5.74997 164.562 5.74997ZM101.489 5.74997C102.393 5.74997 103.231 5.93632 104.002 6.309C104.773 6.68168 105.46 7.20521 106.063 7.87959L104.787 8.83792L104.67 8.71157C104.241 8.25674 103.774 7.89512 103.271 7.6267C102.721 7.33388 102.127 7.18747 101.489 7.18747C100.744 7.18747 100.07 7.32057 99.4674 7.58677C98.8645 7.85297 98.3503 8.21235 97.9248 8.66489C97.4992 9.11744 97.1757 9.64984 96.954 10.2621C96.7324 10.8744 96.6216 11.5266 96.6216 12.2187C96.6216 12.9108 96.7324 13.563 96.954 14.1753C97.1757 14.7875 97.4992 15.32 97.9248 15.7725C98.3503 16.225 98.8645 16.5844 99.4674 16.8506C100.07 17.1168 100.744 17.2499 101.489 17.2499C102.162 17.2499 102.779 17.0946 103.337 16.7841C103.896 16.4735 104.379 16.0609 104.787 15.5462L106.01 16.5578L105.896 16.692C105.322 17.3518 104.677 17.8439 103.962 18.1683C103.2 18.5144 102.375 18.6874 101.489 18.6874C100.549 18.6874 99.6801 18.5277 98.8823 18.2083C98.0844 17.8888 97.4017 17.4407 96.8343 16.8639C96.267 16.2872 95.8237 15.6039 95.5045 14.8142C95.1854 14.0244 95.0258 13.1593 95.0258 12.2187C95.0258 11.2781 95.1854 10.413 95.5045 9.62322C95.8237 8.83349 96.267 8.15023 96.8343 7.57346C97.4017 6.99669 98.0844 6.54858 98.8823 6.22914C99.6801 5.90969 100.549 5.74997 101.489 5.74997ZM81.9565 5.74997C82.8962 5.74997 83.7251 5.91413 84.4432 6.24245C85.1613 6.57076 85.7642 7.00556 86.2517 7.54684C86.7393 8.08812 87.1073 8.70482 87.3555 9.39695C87.6037 10.0891 87.7278 10.7901 87.7278 11.4999V12.618H77.4085L77.4102 12.7123C77.4211 13.0342 77.4871 13.4331 77.608 13.9091C77.741 14.4326 77.9848 14.9428 78.3394 15.4397C78.694 15.9367 79.1683 16.3626 79.7623 16.7175C80.3562 17.0725 81.1231 17.2499 82.0628 17.2499C82.8785 17.2499 83.6675 17.0547 84.4299 16.6643C85.1923 16.2738 85.7775 15.7414 86.1853 15.0671L87.3555 16.052L87.2613 16.1911C86.6579 17.0594 85.9224 17.6874 85.0549 18.0751C84.1418 18.4833 83.1356 18.6874 82.0362 18.6874C81.0965 18.6874 80.2454 18.5277 79.483 18.2083C78.7206 17.8888 78.0645 17.4407 77.5149 16.8639C76.9652 16.2872 76.5441 15.6039 76.2516 14.8142C75.959 14.0244 75.8127 13.1504 75.8127 12.1921C75.8127 11.2692 75.9634 10.4174 76.2649 9.63653C76.5663 8.85567 76.9918 8.17685 77.5415 7.60008C78.0911 7.02331 78.7383 6.57076 79.483 6.24245C80.2277 5.91413 81.0522 5.74997 81.9565 5.74997ZM126.207 5.74997C127.165 5.74997 127.945 5.90082 128.548 6.20252C129.15 6.50421 129.625 6.89908 129.971 7.38712C130.316 7.87516 130.556 8.43862 130.689 9.07751C130.822 9.71639 130.888 10.373 130.888 11.0474V18.368H129.292V11.1273L129.29 10.9151C129.279 10.4925 129.235 10.0796 129.159 9.67646C129.071 9.20617 128.916 8.78468 128.694 8.412C128.472 8.03932 128.162 7.74206 127.763 7.52022C127.364 7.29838 126.845 7.18747 126.207 7.18747C125.622 7.18747 125.068 7.28951 124.545 7.4936C124.022 7.69769 123.57 8.00826 123.188 8.42531C122.807 8.84236 122.506 9.36589 122.284 9.9959C122.063 10.6259 121.952 11.3668 121.952 12.2187V18.368H120.356V9.53005L120.355 9.42819C120.353 9.21848 120.345 8.97293 120.329 8.69151C120.312 8.36319 120.298 8.03044 120.29 7.69325C120.281 7.35606 120.267 7.04106 120.25 6.74823C120.232 6.45541 120.223 6.22914 120.223 6.06942H121.819L121.831 6.41215C121.843 6.75156 121.852 7.08099 121.859 7.40043C121.868 7.82635 121.89 8.10143 121.925 8.22566H122.005L122.063 8.10762C122.387 7.48322 122.9 6.94136 123.601 6.48203C124.345 5.99399 125.214 5.74997 126.207 5.74997ZM54.2672 6.06942V18.368H52.6714V6.06942H54.2672ZM139.019 5.74997C139.976 5.74997 140.756 5.90082 141.359 6.20252C141.962 6.50421 142.436 6.89908 142.782 7.38712C143.128 7.87516 143.367 8.43862 143.5 9.07751C143.633 9.71639 143.699 10.373 143.699 11.0474V18.368H142.104V11.1273L142.101 10.9151C142.09 10.4925 142.047 10.0796 141.971 9.67646C141.882 9.20617 141.727 8.78468 141.505 8.412C141.284 8.03932 140.973 7.74206 140.574 7.52022C140.175 7.29838 139.657 7.18747 139.019 7.18747C138.433 7.18747 137.879 7.28951 137.356 7.4936C136.833 7.69769 136.381 8.00826 136 8.42531C135.619 8.84236 135.317 9.36589 135.096 9.9959C134.874 10.6259 134.763 11.3668 134.763 12.2187V18.368H133.167V9.53005L133.167 9.42819C133.165 9.21848 133.156 8.97293 133.141 8.69151C133.123 8.36319 133.11 8.03044 133.101 7.69325C133.092 7.35606 133.079 7.04106 133.061 6.74823C133.043 6.45541 133.034 6.22914 133.034 6.06942H134.63L134.643 6.41215C134.654 6.75156 134.663 7.08099 134.67 7.40043C134.679 7.82635 134.701 8.10143 134.737 8.22566H134.816L134.875 8.10762C135.199 7.48322 135.711 6.94136 136.412 6.48203C137.157 5.99399 138.026 5.74997 139.019 5.74997ZM62.6636 5.74997C63.6211 5.74997 64.4012 5.90082 65.0041 6.20252C65.6069 6.50421 66.0812 6.89908 66.427 7.38712C66.7727 7.87516 67.0121 8.43862 67.1451 9.07751C67.278 9.71639 67.3445 10.373 67.3445 11.0474V18.368H65.7488V11.1273L65.746 10.9151C65.7352 10.4925 65.6918 10.0796 65.6158 9.67646C65.5271 9.20617 65.372 8.78468 65.1503 8.412C64.9287 8.03932 64.6184 7.74206 64.2195 7.52022C63.8205 7.29838 63.3019 7.18747 62.6636 7.18747C62.0785 7.18747 61.5244 7.28951 61.0013 7.4936C60.4783 7.69769 60.0261 8.00826 59.6449 8.42531C59.2637 8.84236 58.9623 9.36589 58.7407 9.9959C58.519 10.6259 58.4082 11.3668 58.4082 12.2187V18.368H56.8124V9.53005L56.8119 9.42819C56.8097 9.21848 56.801 8.97293 56.7858 8.69151C56.7681 8.36319 56.7548 8.03044 56.7459 7.69325C56.7371 7.35606 56.7238 7.04106 56.7061 6.74823C56.6883 6.45541 56.6795 6.22914 56.6795 6.06942H58.2752L58.2877 6.41215C58.2993 6.75156 58.3085 7.08099 58.3151 7.40043C58.324 7.82635 58.3461 8.10143 58.3816 8.22566H58.4614L58.5199 8.10762C58.8439 7.48322 59.3563 6.94136 60.0572 6.48203C60.8019 5.99399 61.6707 5.74997 62.6636 5.74997ZM94.7944 5.74997C94.954 5.74997 95.1092 5.76328 95.2599 5.7899C95.4106 5.81652 95.5657 5.84758 95.7253 5.88307L95.5391 7.45367L95.4335 7.42113C95.2586 7.37184 95.0899 7.34719 94.9274 7.34719C94.2359 7.34719 93.6375 7.45811 93.1322 7.67994C92.6268 7.90178 92.2102 8.20791 91.8821 8.59834C91.5541 8.98877 91.3103 9.44575 91.1507 9.96928C90.9912 10.4928 90.9114 11.0563 90.9114 11.6597V18.368H89.3156V9.53005L89.3151 9.42819C89.3129 9.21848 89.3042 8.97293 89.289 8.69151C89.2713 8.36319 89.258 8.03044 89.2491 7.69325C89.2402 7.35606 89.227 7.04106 89.2092 6.74823C89.1915 6.45541 89.1826 6.22914 89.1826 6.06942H90.7784L90.7909 6.41215C90.8025 6.75156 90.8116 7.08099 90.8183 7.40043C90.8272 7.82635 90.8493 8.10143 90.8848 8.22566C91.2926 7.49804 91.8157 6.90352 92.454 6.4421C93.0923 5.98068 93.8724 5.74997 94.7944 5.74997ZM112.305 7.18747C111.561 7.18747 110.887 7.32057 110.284 7.58677C109.681 7.85297 109.167 8.21235 108.741 8.66489C108.316 9.11744 107.992 9.64984 107.771 10.2621C107.549 10.8744 107.438 11.5266 107.438 12.2187C107.438 12.9108 107.549 13.563 107.771 14.1753C107.992 14.7875 108.316 15.32 108.741 15.7725C109.167 16.225 109.681 16.5844 110.284 16.8506C110.887 17.1168 111.561 17.2499 112.305 17.2499C113.05 17.2499 113.724 17.1168 114.327 16.8506C114.929 16.5844 115.444 16.225 115.869 15.7725C116.295 15.32 116.618 14.7875 116.84 14.1753C117.062 13.563 117.172 12.9108 117.172 12.2187C117.172 11.5266 117.062 10.8744 116.84 10.2621C116.618 9.64984 116.295 9.11744 115.869 8.66489C115.444 8.21235 114.929 7.85297 114.327 7.58677C113.724 7.32057 113.05 7.18747 112.305 7.18747ZM81.8767 7.18747C81.0079 7.18747 80.2853 7.36494 79.7091 7.71987C79.1328 8.07481 78.6763 8.48299 78.3394 8.9444C78.0025 9.40582 77.7631 9.85393 77.6213 10.2887C77.4794 10.7235 77.4085 11.0208 77.4085 11.1805H86.1321C86.1321 10.6304 86.0212 10.1157 85.7996 9.63653C85.578 9.15737 85.2765 8.73588 84.8953 8.37207C84.5141 8.00826 84.062 7.71987 83.5389 7.50691C83.0159 7.29395 82.4618 7.18747 81.8767 7.18747ZM151.351 7.18747C150.482 7.18747 149.76 7.36494 149.184 7.71987C148.607 8.07481 148.151 8.48299 147.814 8.9444C147.477 9.40582 147.238 9.85393 147.096 10.2887C146.954 10.7235 146.883 11.0208 146.883 11.1805H155.607C155.607 10.6304 155.496 10.1157 155.274 9.63653C155.052 9.15737 154.751 8.73588 154.37 8.37207C153.989 8.00826 153.536 7.71987 153.013 7.50691C152.49 7.29395 151.936 7.18747 151.351 7.18747ZM53.4693 0C53.8062 0 54.0899 0.115354 54.3204 0.346063C54.5509 0.576772 54.6661 0.860721 54.6661 1.19791C54.6661 1.5351 54.5509 1.81905 54.3204 2.04976C54.0899 2.28047 53.8062 2.39582 53.4693 2.39582C53.1324 2.39582 52.8487 2.28047 52.6182 2.04976C52.3877 1.81905 52.2725 1.5351 52.2725 1.19791C52.2725 0.860721 52.3877 0.576772 52.6182 0.346063C52.8487 0.115354 53.1324 0 53.4693 0Z" fill="#07349D"/>
</svg>
