<svg width="77" height="90" viewBox="0 0 77 90" fill="none" xmlns="http://www.w3.org/2000/svg">
<path fill-rule="evenodd" clip-rule="evenodd" d="M3.93851 48.5152C5.88003 48.5152 7.45417 50.0894 7.45417 52.0309C7.45417 69.0906 21.3331 82.9687 38.3922 82.9687C43.5824 82.9687 48.7141 81.6598 53.2342 79.1836C54.9371 78.2507 57.0742 78.8747 58.0062 80.5776C58.9392 82.2805 58.3154 84.4167 56.6134 85.3497C51.0608 88.3925 44.7599 90 38.3922 90C28.2504 90 18.7153 86.051 11.544 78.8798C4.37203 71.7076 0.422852 62.1736 0.422852 52.0318C0.422852 50.0894 1.99699 48.5152 3.93851 48.5152ZM28.5103 1.04178C29.8768 -0.337459 32.1024 -0.348665 33.4826 1.01695C34.8618 2.38322 34.873 4.60885 33.5074 5.98919L25.5139 14.0625H38.3922C48.534 14.0625 58.0691 18.0114 65.2401 25.1827C72.4114 32.3549 76.3615 41.8889 76.3615 52.0318C76.3615 58.5935 74.6593 65.0626 71.4389 70.7395C70.7918 71.8803 69.6022 72.5206 68.3783 72.5206C67.7903 72.5206 67.1946 72.3738 66.6471 72.0631C64.9578 71.1042 64.3656 68.9594 65.3234 67.2702C67.9448 62.6491 69.3302 57.3797 69.3302 52.0318C69.3302 34.9718 55.4512 21.0938 38.3922 21.0938H25.4306L33.3298 29.1851C34.686 30.5746 34.6592 32.8003 33.2696 34.1564C32.5856 34.8242 31.6999 35.1564 30.814 35.1564C29.8999 35.1564 28.9867 34.8026 28.2983 34.0964L19.4234 25.0058C15.4158 20.9006 15.4391 14.2444 19.4757 10.1673L28.5103 1.04178ZM39.0499 36.6947C40.9982 36.6947 42.5903 38.248 42.6529 40.1814L42.6543 40.2401L42.6548 40.2996V40.9048L42.6559 40.9334C42.666 41.0661 42.7455 41.1851 42.8672 41.2517L42.8939 41.2652L42.9329 41.2818L42.9611 41.2924C43.0934 41.3371 43.2354 41.3145 43.3396 41.2331L43.3614 41.2147L43.3741 41.2025L43.8021 40.7748L43.855 40.7231C44.5295 40.075 45.4128 39.719 46.3513 39.719C47.2738 39.719 48.1437 40.0633 48.8138 40.6911L48.8677 40.7426L49.7499 41.6245L49.7947 41.6701C51.1265 43.0493 51.1403 45.2375 49.8361 46.6334L49.7916 46.6801L49.7499 46.7225L49.3218 47.1506L49.3024 47.1716C49.2161 47.2724 49.188 47.413 49.227 47.5465L49.2364 47.575L49.2538 47.6185L49.266 47.6453C49.3268 47.7674 49.4431 47.8514 49.5745 47.8672L49.6029 47.8696L49.6199 47.87H50.2252L50.2841 47.8704C52.2053 47.9014 53.7665 49.4431 53.8282 51.3572L53.8296 51.4153L53.8301 51.4749V52.6765L53.8296 52.7354C53.7987 54.657 52.2566 56.2178 50.3428 56.2795L50.2847 56.2809L50.2252 56.2814H49.6199L49.5913 56.2825C49.4586 56.2925 49.3394 56.3721 49.2729 56.4938L49.2595 56.5205L49.2523 56.5369L49.2432 56.5589L49.2326 56.5872C49.1876 56.72 49.2099 56.862 49.2913 56.9662L49.3097 56.988L49.3218 57.0007L49.7499 57.4287L49.8016 57.4815C50.4498 58.1558 50.8057 59.0394 50.8057 59.9779C50.8057 60.9004 50.4615 61.7703 49.8336 62.4401L49.7821 62.494L49.7499 62.5266L48.9003 63.3765L48.8475 63.4282C48.173 64.0764 47.2894 64.4323 46.3513 64.4323C45.4283 64.4323 44.5585 64.0881 43.8886 63.4602L43.8347 63.4086L43.3741 62.9484L43.3531 62.929C43.2523 62.8424 43.1117 62.8145 42.9782 62.8536L42.9497 62.863L42.9089 62.8795L42.8816 62.8918C42.7573 62.9533 42.6734 63.0696 42.6575 63.2009L42.6552 63.2292L42.6548 63.2462V63.8518L42.6543 63.9107C42.6234 65.8319 41.0814 67.3931 39.1675 67.4548L39.1094 67.4562L39.0499 67.4567H37.8483L37.7893 67.4562C35.8677 67.4252 34.3069 65.8832 34.2453 63.9694L34.2438 63.9113L34.2434 63.8518V63.2462L34.2423 63.2177C34.2322 63.0852 34.1527 62.966 34.0309 62.8995L34.0042 62.8861L33.9653 62.8695L33.937 62.8589C33.8046 62.8142 33.6625 62.8365 33.5582 62.9179L33.5365 62.9363L33.5237 62.9484L33.0959 63.3765L33.0431 63.4282C32.3686 64.0764 31.485 64.4323 30.5469 64.4323C29.6243 64.4323 28.7545 64.0881 28.0844 63.4602L28.0305 63.4086L27.1482 62.5266L27.0965 62.4738C26.4484 61.7993 26.0924 60.916 26.0924 59.9779C26.0924 59.0549 26.4367 58.1851 27.0645 57.5149L27.116 57.461L27.5759 57.0007L27.5954 56.9797C27.682 56.8789 27.7099 56.7383 27.671 56.6048L27.6617 56.5763L27.6549 56.5589L27.6441 56.5328L27.6319 56.506C27.571 56.3837 27.4548 56.2999 27.3236 56.2841L27.2952 56.2818L27.2782 56.2814H26.673L26.6141 56.2809C24.6925 56.25 23.1316 54.708 23.07 52.7941L23.0686 52.736L23.0681 52.6765V51.4749L23.0686 51.4159C23.0995 49.4943 24.6412 47.9335 26.5553 47.8718L26.6135 47.8704L26.673 47.87H27.2782L27.3068 47.8689C27.4393 47.8588 27.5587 47.7793 27.6252 47.6575L27.6386 47.6308L27.6531 47.5968L27.6641 47.5678C27.7101 47.4316 27.6879 47.2892 27.6065 47.1848L27.5881 47.1631L27.5759 47.1503L27.1482 46.7225L27.1033 46.6769C25.7716 45.2977 25.7578 43.1095 27.062 41.7136L27.1065 41.6669L27.1482 41.6245L27.9979 40.7748L28.0507 40.7231C28.7252 40.075 29.6088 39.719 30.5469 39.719C31.4695 39.719 32.3393 40.0633 33.0095 40.6911L33.0634 40.7426L33.524 41.2028L33.545 41.2222C33.6456 41.3086 33.7864 41.3367 33.9199 41.2977L33.9484 41.2883L33.9658 41.2815L33.9893 41.2718L34.0165 41.2594C34.1406 41.1978 34.2247 41.0816 34.2406 40.9502L34.243 40.9218L34.2434 40.9048V40.2996L34.2438 40.2407C34.2748 38.3191 35.8165 36.7582 37.7306 36.6966L37.7887 36.6952L37.8483 36.6947H39.0499ZM39.0712 38.9238H37.8505L37.8115 38.9244C37.1903 38.9444 36.6873 39.4397 36.655 40.0578L36.6536 40.0974L36.6534 40.7239L36.6528 40.7827C36.6303 41.8593 35.9916 42.8199 35.0051 43.2656L34.951 43.2894L34.9016 43.3101L34.8456 43.3327C33.8355 43.7278 32.7031 43.5131 31.9186 42.7804L31.8754 42.7392L31.423 42.2875L31.3867 42.2526C31.1654 42.0485 30.8795 41.9368 30.5766 41.9368C30.2844 41.9368 30.0083 42.0408 29.7902 42.2314L29.7524 42.2659L29.7302 42.2875L28.8838 43.1339L28.8538 43.165C28.433 43.6166 28.4269 44.3166 28.8354 44.7757L28.8646 44.8073L28.8838 44.8269L29.3099 45.2531L29.3518 45.2959C30.0958 46.0725 30.3234 47.202 29.9421 48.2145L29.9203 48.2706L29.9009 48.3183L29.8776 48.3731C29.4414 49.3706 28.4879 50.0198 27.4139 50.0555L27.3552 50.0569L26.7172 50.0571L26.6783 50.0577C26.057 50.0777 25.554 50.573 25.5216 51.1911L25.5201 51.2307V52.4513L25.5208 52.4903C25.5407 53.1112 26.036 53.6145 26.6541 53.6468L26.6937 53.6482L27.3202 53.6484L27.379 53.6491C28.4554 53.6716 29.4159 54.3102 29.8619 55.2967L29.8858 55.3508L29.8994 55.3833L29.93 55.459C30.3236 56.4682 30.1086 57.5993 29.3767 58.3833L29.3355 58.4265L28.8838 58.8785L28.8489 58.9148C28.6449 59.1364 28.5331 59.422 28.5331 59.7252C28.5331 60.0174 28.6371 60.2936 28.8277 60.5116L28.8622 60.5495L28.8838 60.5716L29.7302 61.418L29.7665 61.4529C29.9878 61.657 30.2737 61.7687 30.5766 61.7687C30.8688 61.7687 31.1452 61.6647 31.3631 61.4741L31.4009 61.4396L31.423 61.418L31.8494 60.9916L31.8999 60.9424C32.4262 60.442 33.1131 60.1776 33.8155 60.1776C34.1373 60.1776 34.4623 60.233 34.7766 60.3468L34.8549 60.3764L34.9174 60.4018L34.972 60.425C35.967 60.8602 36.6161 61.8139 36.6518 62.8877L36.6532 62.9464L36.6534 62.9813V63.5846L36.654 63.6236C36.674 64.2445 37.1693 64.7478 37.7874 64.7803L37.827 64.7817H39.0476L39.0866 64.7811C39.7076 64.7611 40.2108 64.2655 40.2431 63.6477L40.2445 63.6081L40.2448 62.9813L40.2454 62.9225C40.2679 61.8462 40.9065 60.8856 41.893 60.4398L41.9471 60.416L41.9963 60.3954L42.0523 60.3728C43.0626 59.9778 44.195 60.1925 44.9793 60.9248L45.0225 60.966L45.4748 61.418L45.5112 61.4529C45.7327 61.657 46.0183 61.7687 46.3216 61.7687C46.6138 61.7687 46.8899 61.6647 47.1079 61.4741L47.1458 61.4396L47.1679 61.418L48.0144 60.5716L48.0492 60.5353C48.2533 60.3137 48.365 60.0281 48.365 59.7252C48.365 59.4327 48.261 59.1566 48.0705 58.9385L48.0359 58.9006L48.0144 58.8785L47.5879 58.4524L47.546 58.4096C46.8024 57.6333 46.575 56.5043 46.9552 55.4921L46.977 55.436L46.9908 55.402L47.0219 55.3287C47.4565 54.3347 48.4102 53.6858 49.4843 53.65L49.543 53.6487L49.5779 53.6484H50.1809L50.2199 53.6478C50.8408 53.6278 51.3441 53.1323 51.3766 52.5144L51.378 52.4748V51.2542L51.3774 51.2152C51.3574 50.594 50.8619 50.091 50.244 50.0587L50.2044 50.0573L49.5779 50.0571L49.5191 50.0565C48.4425 50.034 47.4819 49.3953 47.0361 48.4088L47.0123 48.3546L46.9896 48.3002L46.9668 48.2435C46.5742 47.238 46.789 46.1065 47.5211 45.3223L47.5623 45.2791L48.0144 44.8267L48.0444 44.7956C48.4649 44.3439 48.471 43.644 48.0627 43.1852L48.0335 43.1535L48.0144 43.1339L47.1679 42.2872L47.1316 42.2524C46.9101 42.0485 46.6244 41.9368 46.3216 41.9368C46.029 41.9368 45.7529 42.0408 45.5348 42.2312L45.4969 42.2656L45.4748 42.2872L45.0487 42.7136L45.0059 42.7555C44.2293 43.4995 43.0995 43.7269 42.0871 43.3458L42.0309 43.324L41.9969 43.3101L41.9262 43.2802C40.9311 42.8453 40.2821 41.8916 40.2463 40.8176L40.245 40.7589L40.2448 40.1209L40.2441 40.0819C40.2237 39.4475 39.7073 38.9363 39.0712 38.9238ZM38.672 44.9425C42.4822 44.9425 45.5823 48.0423 45.5823 51.8528C45.5823 52.513 45.4889 53.1666 45.3051 53.7955C45.1203 54.427 44.4586 54.7894 43.8271 54.6047C43.2158 54.4259 42.857 53.8006 43.0017 53.1881L43.0114 53.1499L43.0447 53.0315C43.1474 52.6492 43.1995 52.2531 43.1995 51.8528C43.1995 49.3561 41.1682 47.3253 38.672 47.3253C36.1754 47.3253 34.1445 49.3561 34.1445 51.8528C34.1445 54.349 36.1754 56.3802 38.672 56.3802C39.0838 56.3802 39.4901 56.3253 39.8821 56.2167L39.9798 56.1885L40.0776 56.1586C40.6937 55.9855 41.3409 56.3316 41.5353 56.9465C41.734 57.5737 41.3864 58.2432 40.759 58.4419C40.0859 58.6548 39.3837 58.7631 38.672 58.7631C34.8615 58.7631 31.7617 55.6629 31.7617 51.8528C31.7617 48.0423 34.8615 44.9425 38.672 44.9425Z" fill="#1B55A3"/>
</svg>
