<svg fill="#000000" xmlns="http://www.w3.org/2000/svg" viewBox="0 0 22 19.01"><g id="Layer_2" data-name="Layer 2"><g id="Investors"><path d="M19.31,16a2.51,2.51,0,0,1-.46,2.13A2.22,2.22,0,0,1,17.1,19H4.9a2.22,2.22,0,0,1-1.75-.88A2.51,2.51,0,0,1,2.69,16a9.34,9.34,0,0,1,4.47-6,.52.52,0,0,1,.71.2.54.54,0,0,1-.21.72,8.31,8.31,0,0,0-3.95,5.35A1.43,1.43,0,0,0,4,17.48,1.18,1.18,0,0,0,4.9,18H17.1a1.18,1.18,0,0,0,.93-.48,1.43,1.43,0,0,0,.26-1.23,8.31,8.31,0,0,0-3.95-5.35.54.54,0,0,1-.21-.72.52.52,0,0,1,.71-.2A9.34,9.34,0,0,1,19.31,16ZM11.08,6.64h-.16a.49.49,0,0,1-.47-.55.49.49,0,0,0-.53-.48.55.55,0,0,0-.52.56,1.52,1.52,0,0,0,1.08,1.45v.09a.52.52,0,0,0,1,0V7.62a1.52,1.52,0,0,0,.24-2.81l-1-.53a.47.47,0,0,1-.26-.42.47.47,0,0,1,.47-.48h.16a.47.47,0,0,1,.47.48v.08a.49.49,0,0,0,.53.48.55.55,0,0,0,.52-.56,1.51,1.51,0,0,0-1.08-1.45V2.32a.52.52,0,0,0-1,0v.09a1.52,1.52,0,0,0-.24,2.81l1,.52a.49.49,0,0,1,.26.43A.47.47,0,0,1,11.08,6.64ZM6,5a5,5,0,1,1,5,5A5,5,0,0,1,6,5ZM7,5a4,4,0,1,0,4-4A4,4,0,0,0,7,5ZM1.88,14.82a.76.76,0,0,1-.62-.36,1.12,1.12,0,0,1-.15-1,4.62,4.62,0,0,1,4.23-3.35.52.52,0,0,0,.52-.53A.52.52,0,0,0,5.34,9h0a2.55,2.55,0,0,1,0-5.1.53.53,0,0,0,.53-.53.52.52,0,0,0-.53-.52,3.6,3.6,0,0,0-2,6.6A6,6,0,0,0,.12,13.1a2.18,2.18,0,0,0,.29,2,1.8,1.8,0,0,0,1.47.78.52.52,0,1,0,0-1Zm20-1.72a6,6,0,0,0-3.2-3.61,3.6,3.6,0,0,0-2-6.6.52.52,0,0,0-.53.52.53.53,0,0,0,.53.53,2.55,2.55,0,1,1,0,5.1h0a.52.52,0,0,0-.52.52.52.52,0,0,0,.52.53,4.62,4.62,0,0,1,4.23,3.35,1.12,1.12,0,0,1-.15,1,.76.76,0,0,1-.62.36.52.52,0,1,0,0,1,1.8,1.8,0,0,0,1.47-.78A2.18,2.18,0,0,0,21.88,13.1ZM11,16.91a.52.52,0,0,0,.52-.52V13.46l.9-.89a.53.53,0,0,0,0-.74.51.51,0,0,0-.74,0L11,12.5l-.68-.67a.51.51,0,0,0-.74,0,.53.53,0,0,0,0,.74l.9.89v2.93A.52.52,0,0,0,11,16.91Z"/></g></g></svg>
