<svg width="90" height="90" viewBox="0 0 90 90" fill="none" xmlns="http://www.w3.org/2000/svg">
<path fill-rule="evenodd" clip-rule="evenodd" d="M54.8803 85.5047L53.5592 89.0277C53.3399 89.6125 52.7808 90 52.1562 90H37.001C36.3763 90 35.8172 89.6125 35.5979 89.0277L34.2768 85.5047H54.8803ZM58.0645 75.0156V81.0094C58.0645 81.8369 57.3936 82.5078 56.5661 82.5078H32.5911C31.7635 82.5078 31.0926 81.8369 31.0926 81.0094V75.0156H58.0645ZM44.5786 18.0749C59.4747 18.0749 71.5505 30.1507 71.5505 45.0468C71.5505 55.0302 66.1265 63.7467 58.0646 68.4103L58.0645 72.0187H31.0926L31.0927 68.4104C23.0307 63.7468 17.6067 55.0303 17.6067 45.0468C17.6067 30.1507 29.6824 18.0749 44.5786 18.0749ZM74.9869 60.9026L75.0268 60.9248L82.9649 65.5078C83.6396 65.8974 83.8721 66.7579 83.4842 67.4298C83.1039 68.0885 82.2684 68.3214 81.6 67.9632L81.5601 67.941L73.622 63.3579C72.9473 62.9684 72.7148 62.1079 73.1027 61.436C73.483 60.7773 74.3185 60.5444 74.9869 60.9026ZM16.0544 61.436C16.4347 62.0947 16.2187 62.9347 15.5743 63.3345L15.5351 63.3579L7.59705 67.941C6.92231 68.3305 6.06086 68.1017 5.67294 67.4298C5.29262 66.771 5.50865 65.931 6.15309 65.5313L6.19227 65.5078L14.1303 60.9248C14.8051 60.5352 15.6665 60.7641 16.0544 61.436ZM45.281 27.0656H43.8762L43.8066 27.0661C41.5375 27.103 39.6989 28.9419 39.6624 31.211L39.6618 31.2799V31.9875L39.6614 32.0073C39.6539 32.1745 39.5521 32.3248 39.3966 32.402L39.3648 32.4165L39.3373 32.4278L39.317 32.4357C39.1513 32.4967 38.9714 32.4667 38.8454 32.3585L38.8209 32.3358L38.2823 31.7979C37.4908 31.0257 36.4482 30.6012 35.3405 30.6012C34.2438 30.6012 33.2108 31.0173 32.4222 31.775L32.3605 31.8355L31.3672 32.8288L31.3184 32.8783C29.7416 34.5073 29.7403 37.1049 31.3147 38.7353L31.3672 38.7887L31.8672 39.2888L31.8815 39.3037C31.994 39.4273 32.028 39.6063 31.9703 39.7768L31.9575 39.8108L31.9405 39.8505C31.867 40.0104 31.7186 40.1162 31.5526 40.1288L31.5192 40.1301H30.8116L30.742 40.1307C28.473 40.1676 26.6344 42.0064 26.5978 44.2755L26.5973 44.3444V45.7492L26.5979 45.8188C26.6348 48.0875 28.4736 49.9264 30.7427 49.963L30.8116 49.9636H31.5192L31.539 49.964C31.7059 49.9715 31.8564 50.0729 31.9326 50.2261L31.9469 50.2574L31.9595 50.288L31.9674 50.3083C32.0282 50.4739 31.9984 50.6536 31.89 50.78L31.8672 50.8045L31.3296 51.3426C30.5574 52.1342 30.1329 53.1768 30.1329 54.2849C30.1329 55.3816 30.5491 56.4143 31.3067 57.2028L31.3672 57.2645L32.3986 58.2957C33.1901 59.068 34.2328 59.4924 35.3405 59.4924C36.4372 59.4924 37.4701 59.0763 38.2587 58.3186L38.3204 58.2581L38.8205 57.7577L38.8355 57.7435C38.959 57.631 39.1379 57.597 39.3037 57.653L39.3367 57.6654L39.3823 57.6848C39.5421 57.7584 39.648 57.9065 39.6606 58.0724L39.6618 58.1058V58.8138L39.6624 58.8833C39.6993 61.152 41.5381 62.991 43.8073 63.0275L43.8762 63.0281H45.281L45.3505 63.0275C47.6193 62.9906 49.4582 61.1514 49.4947 58.8826L49.4953 58.8138V58.1058L49.4957 58.086C49.5032 57.9192 49.6047 57.7686 49.7605 57.6915L49.7923 57.6771L49.84 57.6578C50.0057 57.5969 50.1854 57.6265 50.3117 57.735L50.3362 57.7577L50.8366 58.2581L50.8747 58.2957C51.6659 59.068 52.7085 59.4924 53.8167 59.4924C54.9134 59.4924 55.9463 59.0763 56.7349 58.3186L56.7966 58.2581L57.7898 57.2645L57.8274 57.2265C58.5997 56.4353 59.0242 55.3926 59.0242 54.2849C59.0242 53.1878 58.6081 52.1549 57.8503 51.3666L57.7898 51.3049L57.2894 50.8045L57.2752 50.7896C57.1627 50.666 57.1287 50.4874 57.1851 50.3211L57.1975 50.288L57.2081 50.2622L57.2165 50.2431C57.2901 50.0833 57.4383 49.9774 57.6045 49.9648L57.6379 49.9636H58.3455L58.4151 49.963C60.6837 49.9261 62.5227 48.0872 62.5593 45.8181L62.5598 45.7492V44.3444L62.5593 44.2748C62.5223 42.0058 60.6831 40.1672 58.4144 40.1306L58.3455 40.1301H57.6379L57.618 40.1297C57.4509 40.1221 57.3003 40.0205 57.2241 39.8674L57.2099 39.8361L57.1896 39.7853C57.1286 39.6196 57.1586 39.44 57.2668 39.3137L57.2894 39.2892L57.7898 38.7887L57.8386 38.7391C59.4155 37.1102 59.4167 34.5126 57.8423 32.8822L57.7898 32.8288L56.7585 31.7979C55.967 31.0257 54.9244 30.6012 53.8167 30.6012C52.7195 30.6012 51.687 31.0173 50.8983 31.775L50.8366 31.8355L50.3362 32.3355L50.3213 32.3497C50.1978 32.4622 50.0191 32.4965 49.8534 32.4405L49.8204 32.4281L49.7748 32.4088C49.615 32.335 49.5092 32.1871 49.4966 32.0209L49.4953 31.9875V31.2799L49.4947 31.2103C49.4574 28.9183 47.5817 27.0656 45.281 27.0656ZM45.3085 29.8751C46.055 29.8898 46.6611 30.4897 46.685 31.2341L46.6857 31.2799V31.9875L46.686 32.0285C46.702 33.3168 47.4699 34.4676 48.6588 34.9872L48.7418 35.0223L48.7817 35.0386C49.9865 35.521 51.3446 35.2607 52.2728 34.3714L52.323 34.3223L52.823 33.8219L52.849 33.7967C53.1113 33.5476 53.4532 33.4108 53.8167 33.4108C54.1721 33.4108 54.5072 33.5419 54.7672 33.7811L54.8098 33.8219L55.8031 34.8155L55.8256 34.8386C56.339 35.3757 56.3433 36.2231 55.8383 36.7655L55.8031 36.802L55.2726 37.3328C54.3748 38.2545 54.1046 39.6097 54.5738 40.8115L54.6006 40.8781L54.6273 40.9419C55.1374 42.1356 56.2826 42.9121 57.5689 42.9389L57.6379 42.9397L58.3731 42.9399C59.1196 42.9544 59.7256 43.5542 59.7495 44.2987L59.7503 44.3444V45.7768C59.7355 46.5233 59.1354 47.1293 58.3912 47.1533L58.3455 47.154H57.6379L57.5969 47.1543C56.3086 47.1702 55.1578 47.9381 54.6384 49.1258L54.602 49.2117L54.5858 49.2517C54.1044 50.456 54.3647 51.8132 55.2535 52.7411L55.3027 52.7913L55.8031 53.2913L55.8284 53.3173C56.0778 53.5796 56.2146 53.9214 56.2146 54.2849C56.2146 54.6403 56.0835 54.9755 55.844 55.2355L55.8031 55.2781L54.8098 56.2714L54.7839 56.2967C54.5217 56.5461 54.1797 56.6829 53.8167 56.6829C53.4608 56.6829 53.1257 56.5518 52.8657 56.3123L52.823 56.2714L52.2922 55.7409C51.3705 54.8428 50.0143 54.5727 48.8068 55.0448L48.7411 55.0713L48.6834 55.0955C47.4897 55.6056 46.7133 56.7508 46.6865 58.0368L46.6857 58.1058L46.6855 58.8414C46.671 59.5878 46.0709 60.1939 45.3267 60.2178L45.281 60.2185H43.8486C43.1018 60.2038 42.4961 59.6037 42.4721 58.8595L42.4714 58.8138V58.1058L42.4711 58.0648C42.4552 56.7768 41.6872 55.626 40.4983 55.106L40.4342 55.0788L40.3609 55.0491C39.9638 54.8921 39.5503 54.8158 39.1412 54.8158C38.3169 54.8158 37.5109 55.1261 36.8933 55.7132L36.8341 55.7709L36.3337 56.2714L36.3078 56.2967C36.0458 56.5461 35.7035 56.6829 35.3405 56.6829C34.9851 56.6829 34.6496 56.5518 34.3899 56.3123L34.3473 56.2714L33.354 55.2781L33.3287 55.2521C33.0793 54.9899 32.9425 54.648 32.9425 54.2849C32.9425 53.9291 33.0736 53.594 33.3131 53.3339L33.354 53.2913L33.8841 52.7608C34.7816 51.8394 35.0522 50.4848 34.5817 49.2786L34.5458 49.1898L34.5298 49.1517C34.0194 47.958 32.8742 47.1816 31.5882 47.1547L31.5192 47.154L30.784 47.1537C30.0372 47.1393 29.4315 46.5391 29.4076 45.795L29.4069 45.7492V44.3168C29.4216 43.57 30.0214 42.9643 30.7659 42.9404L30.8116 42.9397H31.5192L31.5602 42.9394C32.8486 42.9234 33.9991 42.1554 34.5202 40.9636L34.5476 40.8993L34.5704 40.8433C35.0531 39.6386 34.7924 38.2807 33.9032 37.3526L33.854 37.3024L33.354 36.8023L33.3315 36.7792C32.8178 36.2418 32.8135 35.3943 33.3188 34.852L33.354 34.8155L34.3473 33.8223L34.3732 33.797C34.6355 33.5476 34.9774 33.4108 35.3405 33.4108C35.6959 33.4108 36.0314 33.5419 36.2911 33.7814L36.3337 33.8223L36.8646 34.3524C37.7866 35.2509 39.1428 35.521 40.35 35.0488L40.4157 35.0223L40.4736 34.9981C41.6673 34.488 42.4438 33.3428 42.4707 32.0565L42.4714 31.9875L42.4717 31.2523C42.4861 30.5055 43.0859 29.8998 43.8304 29.8758L43.8762 29.8751H45.3085ZM44.5786 36.899C40.0857 36.899 36.4308 40.554 36.4308 45.0468C36.4308 49.5393 40.0857 53.1946 44.5786 53.1946C45.4177 53.1946 46.2457 53.067 47.0393 52.816C47.7791 52.5817 48.1889 51.7922 47.9547 51.0528C47.7255 50.3278 46.9623 49.9197 46.2359 50.1238L46.1206 50.159C45.6229 50.3091 45.1046 50.3851 44.5786 50.3851C41.6348 50.3851 39.2403 47.9901 39.2403 45.0468C39.2403 42.1031 41.6348 39.7086 44.5786 39.7086C47.5218 39.7086 49.9168 42.1031 49.9168 45.0468C49.9168 45.5188 49.8554 45.9859 49.7343 46.4366L49.6951 46.5762C49.4955 47.3125 49.9211 48.0764 50.6569 48.2916C51.4015 48.5093 52.1817 48.082 52.3995 47.3375C52.6163 46.5959 52.7264 45.8253 52.7264 45.0468C52.7264 40.554 49.071 36.899 44.5786 36.899ZM87.7464 43.5484C88.5255 43.5484 89.1571 44.1773 89.1571 44.9532C89.1571 45.7138 88.55 46.3332 87.7921 46.3572L87.7464 46.358H78.5803C77.8012 46.358 77.1696 45.729 77.1696 44.9532C77.1696 44.1925 77.7767 43.5731 78.5347 43.5491L78.5803 43.5484H87.7464ZM10.5768 43.5484C11.3559 43.5484 11.9875 44.1773 11.9875 44.9532C11.9875 45.7138 11.3804 46.3332 10.6224 46.3572L10.5768 46.358H1.41072C0.631601 46.358 0 45.729 0 44.9532C0 44.1925 0.607075 43.5731 1.36506 43.5491L1.41072 43.5484H10.5768ZM83.4842 22.4766C83.8645 23.1353 83.6485 23.9753 83.004 24.3751L82.9649 24.3985L75.0268 28.9816C74.3521 29.3711 73.4906 29.1422 73.1027 28.4703C72.7224 27.8116 72.9384 26.9716 73.5828 26.5719L73.622 26.5484L81.5601 21.9654C82.2348 21.5758 83.0963 21.8047 83.4842 22.4766ZM7.55715 21.9432L7.59705 21.9654L15.5351 26.5484C16.2098 26.938 16.4424 27.7984 16.0544 28.4703C15.6741 29.1291 14.8387 29.362 14.1702 29.0038L14.1303 28.9816L6.19227 24.3985C5.51753 24.009 5.28502 23.1485 5.67294 22.4766C6.05325 21.8179 6.88871 21.585 7.55715 21.9432ZM67.0551 6.04755C67.7139 6.42786 67.9468 7.26332 67.5886 7.93176L67.5664 7.97166L62.9833 15.9097C62.5938 16.5844 61.7333 16.817 61.0614 16.429C60.4027 16.0487 60.1698 15.2133 60.528 14.5448L60.5502 14.5049L65.1332 6.56687C65.5228 5.89214 66.3832 5.65963 67.0551 6.04755ZM24.0005 6.5277L24.0239 6.56687L28.607 14.5049C28.9965 15.1797 28.7676 16.0411 28.0957 16.429C27.437 16.8094 26.597 16.5933 26.1972 15.9489L26.1738 15.9097L21.5908 7.97166C21.2012 7.29692 21.4301 6.43547 22.102 6.04755C22.7607 5.66723 23.6007 5.88326 24.0005 6.5277ZM44.5786 0C45.3392 0 45.9586 0.607075 45.9826 1.36506L45.9833 1.41072V10.5768C45.9833 11.3559 45.3544 11.9875 44.5786 11.9875C43.8179 11.9875 43.1985 11.3804 43.1745 10.6224L43.1738 10.5768V1.41072C43.1738 0.631601 43.8027 0 44.5786 0Z" fill="#1B55A3"/>
</svg>
