<svg width="90" height="75" viewBox="0 0 90 75" fill="none" xmlns="http://www.w3.org/2000/svg">
<path d="M33.1433 62.368C34.8894 62.368 36.3049 63.7835 36.3049 65.5296C36.3049 66.2866 36.8153 67.1719 37.5723 67.1718L39.0168 67.1718C40.0008 67.1718 40.7984 67.9695 40.7984 68.9535V70.7048C40.7984 72.656 39.2167 74.2377 37.2655 74.2377H3.53295C1.58175 74.2377 0 72.656 0 70.7048V68.932C0 67.9599 0.788088 67.1718 1.76023 67.1718L3.16651 67.1718C3.9235 67.1719 4.43393 66.2866 4.43393 65.5296C4.43393 63.8029 5.81814 62.3995 7.53744 62.3685L7.59552 62.368H33.1433ZM24.45 20.2619C27.5772 15.3531 34.0917 13.9089 39.0005 17.0361L48.2451 22.9255C50.0936 24.1032 50.6374 26.5564 49.4597 28.4048L48.3884 30.0863C47.687 31.1873 48.0998 32.6537 49.2727 33.227L50.3423 33.7498C50.7605 33.9542 51.2656 33.8037 51.5037 33.4037L51.8277 32.8597C51.8721 32.7851 51.9649 32.7551 52.0446 32.7894L52.2012 32.8599L52.3152 32.9127L52.5005 33.0007L52.7031 33.0992L52.923 33.2081L53.3277 33.4131L53.686 33.5981L54.177 33.8555L54.6043 34.0825L55.1816 34.3924L55.8068 34.7315L56.3414 35.0238L57.3509 35.5802L58.2909 36.1026L59.6516 36.8644L60.9428 37.5922L62.3279 38.3772L63.1616 38.8514L65.38 40.1186L66.6169 40.8285L67.3612 41.2579L68.0804 41.6745L68.7752 42.0788L69.2252 42.3416L70.0947 42.8519L70.5146 43.0995L71.1265 43.4619L71.7175 43.8138L72.1003 44.0427L73.0198 44.5961L73.5468 44.9158L73.8884 45.124L74.3865 45.4292L74.8684 45.7263L75.3347 46.0155L75.7862 46.2975L76.2237 46.5724L76.7865 46.9288L77.3275 47.2744L77.72 47.527L78.1021 47.7746L78.5964 48.0973L79.1927 48.4902L79.7682 48.8731L80.4364 49.3221L80.9786 49.6895L81.617 50.1251L82.2534 50.5618L84.3488 52.004L84.9788 52.4353L85.4105 52.7295C85.4834 52.779 85.5566 52.8288 85.6304 52.8788C89.3198 55.3814 89.9506 58.4938 89.9971 60.2508L90 60.3981C90 60.422 90 60.4457 90 60.4691L89.999 60.6059C89.9983 60.6503 89.9972 60.6934 89.9959 60.7353L89.9912 60.8572L89.9853 60.9711L89.9783 61.0769L89.9669 61.2198L89.9552 61.3427L89.9337 61.547L89.9298 61.597C89.9296 61.6012 89.9295 61.605 89.9295 61.6084C89.9295 61.6854 89.7327 61.8682 89.3701 62.0781L89.2718 62.1334C87.9963 62.8312 84.9872 63.7445 81.3227 62.1463C78.9702 61.1202 75.686 59.2406 71.4701 56.5073L70.8464 56.1013C70.7414 56.0326 70.6358 55.9634 70.5296 55.8937L69.8861 55.4693C69.561 55.2541 69.2309 55.0343 68.8958 54.8099L68.2189 54.3551C67.8772 54.1246 67.5305 53.8896 67.1788 53.65L66.4687 53.1647C66.2298 53.0009 65.9886 52.8351 65.7453 52.6672L65.0086 52.1575L64.2586 51.6357L63.4953 51.1016C62.8537 50.6515 62.1982 50.1887 61.5289 49.7132L60.7191 49.1365C60.583 49.0394 60.4463 48.9417 60.3091 48.8436L59.4793 48.2486C59.3399 48.1484 59.2 48.0477 59.0595 47.9465L58.2097 47.3333C57.9242 47.1268 57.6366 46.9184 57.3466 46.7078L56.4703 46.0702L55.5806 45.4204L54.6777 44.7584L53.7614 44.0842L52.8318 43.3978L51.889 42.6992C51.7307 42.5818 51.5719 42.4638 51.4125 42.3454L50.4497 41.6285L49.4736 40.8995C49.3098 40.777 49.1454 40.654 48.9805 40.5304L47.9845 39.7831C47.7094 39.5763 47.6605 39.1828 47.8765 38.9149L47.9627 38.8079C48.2176 38.4918 48.1707 38.0294 47.8574 37.771L46.8246 36.9187C45.8535 36.1173 44.3999 36.3471 43.7234 37.4091L42.4868 39.3502C41.261 41.2744 38.7075 41.8405 36.7834 40.6147L27.6757 34.8125C22.7669 31.6852 21.3227 25.1707 24.45 20.2619ZM17.4154 32.194L38.1545 45.4062C39.8725 46.5008 40.378 48.7808 39.2835 50.4989L38.2454 52.1284C37.1508 53.8465 34.8708 54.352 33.1527 53.2574L12.4136 40.0452C10.6955 38.9507 10.19 36.6706 11.2846 34.9525L12.3227 33.323C13.4172 31.6049 15.6973 31.0994 17.4154 32.194ZM37.4387 0.578117L58.1778 13.7904C59.8959 14.8849 60.4014 17.165 59.3069 18.8831L58.2687 20.5126C57.1742 22.2307 54.8941 22.7361 53.176 21.6416L32.437 8.42934C30.7189 7.3348 30.2134 5.05472 31.3079 3.33664L32.346 1.70714C33.4406 -0.0109409 35.7207 -0.516422 37.4387 0.578117Z" fill="#1B55A3"/>
</svg>
