<svg width="80" height="80" viewBox="0 0 80 80" fill="none" xmlns="http://www.w3.org/2000/svg">
<path fill-rule="evenodd" clip-rule="evenodd" d="M79.5427 68.6035L64.4287 53.4904L64.9927 52.9273C65.6031 52.3169 65.6031 51.3273 64.9927 50.7177C64.3823 50.1075 63.3927 50.1075 62.7823 50.7177L62.2192 51.2808L57.8873 46.949C60.6437 42.3071 62.229 36.8929 62.229 31.115C62.229 13.9583 48.2706 0 31.1142 0C13.9575 0 0 13.9583 0 31.115C0 48.2715 13.9575 62.229 31.1142 62.229C36.8929 62.229 42.3079 60.6437 46.9498 57.8873L51.2808 62.2192L50.7373 62.7629C50.1269 63.3731 50.1269 64.3627 50.7373 64.9723C51.0425 65.2775 51.4421 65.4304 51.8417 65.4304C52.2421 65.4304 52.6417 65.2775 52.9469 64.9723L53.4904 64.4287L68.6044 79.5419C68.9096 79.8471 69.3092 80 69.7087 80C70.109 80 70.5085 79.8471 70.8138 79.5419L79.5427 70.8138C79.8356 70.5208 80 70.1229 80 69.7087C80 69.2944 79.8356 68.8965 79.5427 68.6035ZM3.125 31.115C3.125 15.6812 15.6812 3.125 31.1142 3.125C46.5479 3.125 59.104 15.6812 59.104 31.115C59.104 46.5479 46.5479 59.104 31.1142 59.104C15.6812 59.104 3.125 46.5479 3.125 31.115ZM49.6046 56.1231C52.0858 54.2838 54.2838 52.085 56.1231 49.6046L60.0098 53.4904L53.4904 60.0098L49.6046 56.1231ZM69.7088 76.2273L55.7006 62.2192L62.2192 55.7006L76.2281 69.7088L69.7088 76.2273ZM47.1492 15.0798C40.3263 8.25688 29.9104 6.49583 21.2304 10.699C20.4542 11.075 20.1294 12.0094 20.5054 12.7856C20.8813 13.5629 21.8165 13.8875 22.5919 13.5115C30.0765 9.88854 39.0569 11.4062 44.9398 17.2892C52.3762 24.7267 52.5569 36.7123 45.4833 44.3717V43.1796C45.4833 38.6531 41.801 34.9706 37.2746 34.9706H36.8506C37.5456 33.9015 37.9508 32.6269 37.9508 31.2598V29.3367C37.9508 25.5673 34.8835 22.5008 31.1142 22.5008C27.3446 22.5008 24.2781 25.5673 24.2781 29.3367V31.2598C24.2781 32.6269 24.6833 33.9015 25.3775 34.9706H24.9544C20.4281 34.9706 16.7456 38.6531 16.7456 43.1796V44.3733C11.3158 38.4912 10.0025 29.8396 13.5115 22.5919C13.8875 21.8156 13.5629 20.8813 12.7856 20.5054C12.0094 20.1294 11.075 20.4542 10.699 21.2304C6.49583 29.9104 8.25688 40.3262 15.0798 47.15C19.5004 51.5706 25.3077 53.7808 31.1142 53.7808C36.9215 53.7808 42.7288 51.5706 47.1492 47.15C55.9912 38.3081 55.9912 23.9217 47.1492 15.0798ZM27.4031 31.2598V29.3367C27.4031 27.2908 29.0681 25.6258 31.1142 25.6258C33.1608 25.6258 34.8258 27.2908 34.8258 29.3367V31.2598C34.8258 33.3056 33.1608 34.9706 31.1142 34.9706C29.0681 34.9706 27.4031 33.3056 27.4031 31.2598ZM31.1142 50.6575C27.1721 50.6567 23.2292 49.4744 19.8698 47.111V43.1796C19.8698 40.3769 22.1508 38.0956 24.9544 38.0956H37.2746C40.0781 38.0956 42.3583 40.3769 42.3583 43.1796V47.111C38.9998 49.475 35.0577 50.6575 31.1142 50.6575ZM17.2883 17.2892C16.9979 17.5798 16.595 17.7467 16.1842 17.7467C15.7731 17.7467 15.3702 17.5798 15.0798 17.2892C14.7883 16.9996 14.6217 16.5967 14.6217 16.1842C14.6217 15.7731 14.7892 15.3702 15.0798 15.0798C15.3702 14.7892 15.7731 14.6217 16.1842 14.6217C16.595 14.6217 16.9979 14.7892 17.2883 15.0798C17.5798 15.3702 17.7467 15.7731 17.7467 16.1842C17.7467 16.5967 17.5798 16.9979 17.2883 17.2892Z" fill="#8F9BB3"/>
</svg>
