<svg width="88" height="90" viewBox="0 0 88 90" fill="none" xmlns="http://www.w3.org/2000/svg">
<path fill-rule="evenodd" clip-rule="evenodd" d="M46.534 0.709925L83.379 18.9742C85.7023 20.1258 87.172 22.4948 87.172 25.0879V64.6751C87.172 67.2555 85.7164 69.6152 83.4104 70.7731L46.5655 89.2744C44.6353 90.2436 42.3601 90.2418 40.4315 89.2694L3.75162 70.7758C1.4511 69.6159 0 67.2592 0 64.6828V25.0802C0 22.4911 1.46528 20.1251 3.78313 18.9714L18.241 11.7748L59.7767 33.3076V52.2114C59.7767 53.7189 60.9987 54.9409 62.5062 54.9409C62.9505 54.9409 63.3882 54.8324 63.7811 54.6248L68.4418 52.1626C69.3365 51.6899 69.8962 50.7611 69.8962 49.7492V28.0948L28.5224 6.65755L40.4629 0.714852C42.3744 -0.236548 44.621 -0.238371 46.534 0.709925Z" fill="#1B55A3"/>
</svg>
