<svg width="41" height="41" viewBox="0 0 41 41" fill="none" xmlns="http://www.w3.org/2000/svg">
<path d="M39.5699 20.27C39.5699 31.1942 30.8183 40.04 20.035 40.04C9.25158 40.04 0.5 31.1942 0.5 20.27C0.5 9.34582 9.25158 0.5 20.035 0.5C30.8183 0.5 39.5699 9.34582 39.5699 20.27Z" stroke="#D1DDED"/>
<path d="M12.4424 17.3003C12.3307 16.8527 12.0116 15.8493 12.4424 14.7533C12.5062 14.6401 12.6786 14.3674 12.8573 14.1821C13.0807 13.9506 14.1178 12.9317 14.5486 12.6076C14.9795 12.2834 15.9368 12.2371 16.5432 12.7928C17.1495 13.3485 18.1707 14.3828 18.5377 14.707C18.9047 15.0311 19.2079 15.3553 19.2557 15.9728C19.3036 16.5902 19.0004 16.9144 18.6494 17.1923C18.2984 17.4701 17.8356 17.5473 17.6601 17.748C17.4846 17.9487 17.0857 18.3037 17.2453 19.1219C17.4048 19.94 18.2984 21.1595 19.0004 21.7615C19.7025 22.3636 21.0748 23.4287 22.064 23.2743C23.0533 23.1199 23.2608 22.379 23.3405 22.1937C23.4203 22.0085 23.4522 21.8233 23.9309 21.4991C24.4096 21.1749 25.3351 21.2675 25.734 21.6689C26.1329 22.0703 27.6647 23.5367 28.1753 24.0616C28.6859 24.5864 28.5902 25.5744 28.1753 26.0066C27.7604 26.4388 26.5158 27.612 26.4361 27.6892C26.3563 27.7664 25.4308 28.5691 23.3405 27.9208C21.2503 27.2724 18.809 25.8214 16.1124 23.0428C13.4158 20.2642 12.5541 17.748 12.4424 17.3003Z" fill="white"/>
</svg>
