<svg width="100" height="100" viewBox="0 0 100 100" fill="none" xmlns="http://www.w3.org/2000/svg">
<circle cx="50" cy="50" r="50" fill="#EFF8FF"/>
<path d="M30.5369 42.4835C30.2628 41.3505 29.4797 38.8109 30.5369 36.0368C30.6936 35.7503 31.1165 35.0601 31.555 34.5912C32.1032 34.0052 34.6484 31.4265 35.7057 30.606C36.7629 29.7855 39.1124 29.6683 40.6004 31.0748C42.0883 32.4814 44.5944 35.0991 45.495 35.9196C46.3956 36.7401 47.1396 37.5606 47.2571 39.1234C47.3746 40.6863 46.6306 41.5068 45.7691 42.21C44.9077 42.9133 43.7721 43.1087 43.3414 43.6166C42.9106 44.1245 41.9317 45.0232 42.3233 47.0939C42.7149 49.1647 44.9077 52.2513 46.6306 53.775C48.3535 55.2988 51.721 57.9947 54.1488 57.604C56.5766 57.2133 57.0856 55.3379 57.2814 54.869C57.4772 54.4002 57.5555 53.9313 58.7302 53.1108C59.9049 52.2904 62.1761 52.5248 63.155 53.5406C64.1339 54.5565 67.893 58.2682 69.1461 59.5966C70.3991 60.925 70.1642 63.4256 69.1461 64.5196C68.128 65.6135 65.0737 68.5829 64.8779 68.7783C64.6821 68.9737 62.411 71.0053 57.2814 69.3644C52.1518 67.7234 46.1607 64.0507 39.5431 57.0179C32.9255 49.9852 30.811 43.6166 30.5369 42.4835Z" fill="#006BF5"/>
</svg>
