<svg fill="#000000" xmlns="http://www.w3.org/2000/svg" viewBox="0 0 19.38 22"><g id="Layer_2" data-name="Layer 2"><g id="Person"><path d="M19.3,18.6a10.8,10.8,0,0,0-5.17-7,.52.52,0,1,0-.5.92,9.8,9.8,0,0,1,4.65,6.3A1.78,1.78,0,0,1,18,20.36a1.47,1.47,0,0,1-1.15.59H2.57a1.47,1.47,0,0,1-1.15-.59,1.78,1.78,0,0,1-.32-1.51,9.8,9.8,0,0,1,4.65-6.3.52.52,0,1,0-.5-.92,10.8,10.8,0,0,0-5.17,7A2.78,2.78,0,0,0,.6,21a2.5,2.5,0,0,0,2,1H16.81a2.5,2.5,0,0,0,2-1A2.78,2.78,0,0,0,19.3,18.6Z"/><path d="M9.69,11.52A5.76,5.76,0,1,0,3.93,5.76,5.76,5.76,0,0,0,9.69,11.52Zm0-10.47A4.72,4.72,0,1,1,5,5.76,4.71,4.71,0,0,1,9.69,1.05Z"/><path d="M9.69,18.86a.52.52,0,0,0,.52-.53V15.41l1.95-1.94a.54.54,0,0,0,0-.75.53.53,0,0,0-.74,0L9.69,14.45,8,12.72a.53.53,0,0,0-.75.75l2,1.94v2.92A.52.52,0,0,0,9.69,18.86Z"/></g></g></svg>
