<svg width="90" height="90" viewBox="0 0 90 90" fill="none" xmlns="http://www.w3.org/2000/svg">
<path fill-rule="evenodd" clip-rule="evenodd" d="M7.94133 74.1173C12.3267 74.1173 15.8827 77.6733 15.8827 82.0587C15.8827 86.445 12.3267 90 7.94133 90H0V82.0587C0 77.6733 3.555 74.1173 7.94133 74.1173ZM76.4466 53.7352L77.1377 57.1912C78.7034 65.0198 76.268 73.0645 70.6228 78.7087L59.448 89.8838L55.6448 74.6705C57.8465 72.4416 60.0341 70.2368 61.8485 68.4197L62.0882 68.1797C62.1277 68.1401 62.1671 68.1007 62.2063 68.0615L62.5535 67.7143C64.4139 65.8552 65.775 64.5131 66.1734 64.1573C69.0581 61.5792 72.7139 58.1287 76.4466 53.7352ZM16.3366 51.3905L38.6095 73.6634L34.4119 77.861L31.1379 74.588L20.7724 78.814C19.5858 74.1239 15.889 70.4224 11.2005 69.2304L15.4165 58.8656L12.139 55.5881L16.3366 51.3905ZM90 0V2.6468C90 16.0153 86.6885 28.407 80.1572 39.4777C74.4727 49.1145 67.4405 55.9249 62.6459 60.2088C62.1486 60.6533 60.6611 62.121 58.8225 63.9582L58.3686 64.412C55.3016 67.4814 51.4477 71.3827 49.5328 73.3273L47.6613 75.229L14.7647 42.3321L16.6781 40.4609C18.1627 39.0086 20.7143 36.5056 23.236 34.0173L23.5875 33.6703C25.0506 32.2258 26.4864 30.8031 27.6793 29.6115L28.0978 29.1929C29.3199 27.9691 30.2284 27.0443 30.552 26.6822C34.7801 21.9497 41.4989 15.0202 50.982 9.49852C61.8082 3.19617 74.0452 0 87.3532 0H90ZM38.9309 35.1874L35.1874 38.9302L51.0698 54.8126L54.8126 51.0691L38.9309 35.1874ZM60.8827 18.5295C55.0441 18.5295 50.2945 23.2791 50.2945 29.1173C50.2945 34.9559 55.0441 39.7055 60.8827 39.7055C66.7209 39.7055 71.4706 34.9559 71.4706 29.1173C71.4706 23.2791 66.7209 18.5295 60.8827 18.5295ZM60.8827 23.8238C63.8058 23.8238 66.1762 26.1942 66.1762 29.1173C66.1762 32.0416 63.8058 34.4119 60.8827 34.4119C57.9584 34.4119 55.5881 32.0416 55.5881 29.1173C55.5881 26.1942 57.9584 23.8238 60.8827 23.8238ZM11.3224 19.4348C16.9455 13.8117 24.9619 11.37 32.7649 12.9045L36.2393 13.5884C32.2146 17.0618 29.0222 20.4492 26.6044 23.1546C26.5972 23.1627 26.5895 23.1712 26.5813 23.1802L26.5271 23.2393C26.2189 23.5716 25.4823 24.3198 24.4559 25.3477L24.0445 25.7592C22.0594 27.7423 19.1871 30.5806 16.2448 33.4717L15.9293 33.7816L15.6135 34.0917C15.5082 34.1951 15.4029 34.2985 15.2977 34.4018L0.105234 30.6509L11.3224 19.4348Z" fill="#1B55A3"/>
</svg>
