<svg width="25" height="26" viewBox="0 0 25 26" fill="none" xmlns="http://www.w3.org/2000/svg">
<path d="M16.265 24.7441V20.4565C16.265 20.0277 15.8363 19.8562 15.4933 20.0277L13.6924 21.1425V19.5989C15.5361 18.527 17.5085 17.0692 19.0949 15.4828C23.3826 11.1951 24.7118 2.31963 24.9261 0.990452C24.969 0.947575 24.8833 0.861822 24.7975 0.861822C23.5112 1.03333 14.5929 2.40538 10.3052 6.69305C8.71875 8.27949 7.21807 10.2089 6.18903 12.0955H4.64547L6.01752 9.95168C6.10328 9.78017 5.97465 9.56579 5.80314 9.56579L0.829444 9.56579C0.657937 9.56579 0.572184 9.65154 0.572184 9.82305L0.572184 14.6252L0.572183 17.6266C0.572184 17.8839 0.915196 17.9696 1.04383 17.7552L3.14478 14.6252L5.11711 14.6252C5.03136 14.7967 4.98848 15.0111 4.90273 15.1826C4.68834 15.8258 4.60259 16.4261 4.55971 16.8977L4.55972 16.9835C4.73122 17.2407 5.67451 18.6985 6.40341 19.4274C7.13232 20.1563 8.59012 21.0996 8.84738 21.2711C8.84738 21.2711 8.89026 21.314 8.93314 21.2711C9.44766 21.2711 10.0479 21.0996 10.6482 20.9281C10.8197 20.8424 11.0341 20.7995 11.2056 20.7137L11.2056 22.6861L8.0756 24.787C7.86122 24.9156 7.94697 25.2587 8.20423 25.2587L15.7505 25.2587C16.0078 25.2587 16.265 25.0014 16.265 24.7441ZM18.4946 7.3362C19.6952 8.53675 19.6952 10.5091 18.4946 11.7096C18.0659 12.1384 17.5513 12.3956 16.994 12.5243C16.8653 12.3956 16.6938 12.3099 16.5223 12.3099L16.5223 11.1951C16.9082 11.1522 17.2083 11.0236 17.5085 10.7235C18.1516 10.0803 18.1516 9.05127 17.5085 8.40812C16.8653 7.76497 15.8363 7.76497 15.1931 8.40812C14.9359 8.66538 14.7644 9.00839 14.7215 9.30853L13.5209 9.30853C13.4781 9.1799 13.3923 9.00839 13.3066 8.92264C13.4352 8.36524 13.6924 7.85072 14.1212 7.42195C15.3218 6.13565 17.2941 6.13565 18.4946 7.3362ZM13.2637 10.1661C13.3923 10.0374 13.4781 9.86592 13.4781 9.69442L14.5929 9.69442C14.6357 10.0803 14.8072 10.4233 15.0645 10.6806C15.3218 10.9378 15.6648 11.1093 16.0507 11.1522L16.0507 12.267C15.8792 12.267 15.7077 12.3528 15.579 12.4814C15.0216 12.3528 14.5071 12.0955 14.0783 11.6667C13.6924 11.2809 13.3923 10.7235 13.2637 10.1661Z" fill="white"/>
<path d="M3.83057 18.3125L2.54427 21.0566L0.872076 24.6154C0.743446 24.8298 0.957829 25.0441 1.21509 24.9584L4.77386 23.2862L7.51796 21.9999C6.83194 21.5711 6.18879 21.0137 5.54564 20.3706C4.85961 19.6846 4.25933 18.9985 3.83057 18.3125Z" fill="white"/>
</svg>
