<svg width="50" height="66" viewBox="0 0 50 66" fill="none" xmlns="http://www.w3.org/2000/svg">
<path fill-rule="evenodd" clip-rule="evenodd" d="M25 32.5273C26.1528 32.5273 27.0882 33.462 27.0882 34.6148V63.6873C27.0882 64.8408 26.1528 65.7755 25 65.7755C23.8473 65.7755 22.9124 64.8408 22.9124 63.6873V34.6148C22.9124 33.462 23.8473 32.5273 25 32.5273ZM5.31781 36.1557C5.31781 36.1557 6.65336 47.7413 8.18555 52.3339C9.03994 54.8947 11.4281 56.6154 14.1271 56.6154H14.8069C13.6374 59.5188 11.6643 61.8632 9.25885 63.4946C8.21758 64.2005 6.79245 63.831 6.22445 62.7098L1.50525 53.3952C-1.50312 47.4588 0.114202 40.2453 5.31781 36.1557ZM44.6829 36.1557C49.8939 40.2513 51.4984 47.4682 48.4955 53.3952L43.7763 62.7103C43.2069 63.8338 41.7811 64.1991 40.7419 63.4946C38.255 61.8084 36.3273 59.4297 35.1938 56.6154H35.873C38.5727 56.6154 40.9601 54.8952 41.8145 52.3346C43.3474 47.7413 44.6829 36.1557 44.6829 36.1557ZM40.3772 37.5976C40.1177 42.26 39.2726 46.7596 37.8535 51.0124C37.5691 51.8649 36.7716 52.4397 35.873 52.4397H31.2641V37.5976H40.3772ZM18.7367 37.5976V52.4397H14.1271C13.2292 52.4397 12.431 51.8649 12.1466 51.0124C10.7282 46.7596 9.88303 42.26 9.62284 37.5976H18.7367ZM23.6993 0.45516C24.4601 -0.15172 25.5399 -0.15172 26.3015 0.45516C33.9184 6.52464 40.1606 18.2988 40.4529 33.4218H31.1485C30.5897 30.5373 28.0457 28.3514 25 28.3514C21.9543 28.3514 19.4103 30.5373 18.8516 33.4218H9.54713C9.83952 18.3029 16.0863 6.52122 23.6993 0.45516ZM28.308 16.9713C26.4814 15.1446 23.5192 15.1446 21.6921 16.9713C19.8653 18.7979 19.8653 21.76 21.6921 23.5873C23.5192 25.414 26.4814 25.414 28.308 23.5873C30.1353 21.76 30.1353 18.7979 28.308 16.9713Z" fill="#07409B"/>
</svg>
