<svg width="24" height="24" viewBox="0 0 24 24" fill="none" xmlns="http://www.w3.org/2000/svg">
<path fill-rule="evenodd" clip-rule="evenodd" d="M2.11769 19.7646C3.28713 19.7646 4.23537 20.7129 4.23537 21.8823C4.23537 23.052 3.28713 24 2.11769 24H0V21.8823C0 20.7129 0.948 19.7646 2.11769 19.7646ZM20.3857 14.3294L20.5701 15.251C20.9876 17.3386 20.3381 19.4839 18.8328 20.989L15.8528 23.969L14.8386 19.9121C15.4257 19.3178 16.0091 18.7298 16.4929 18.2452L16.5568 18.1813C16.5674 18.1707 16.5779 18.1602 16.5883 18.1497L16.6809 18.0572C17.177 17.5614 17.54 17.2035 17.6462 17.1086C18.4155 16.4211 19.3904 15.501 20.3857 14.3294ZM4.35644 13.7041L10.2959 19.6436L9.1765 20.7629L8.30344 19.8901L5.53931 21.0171C5.22287 19.7664 4.23706 18.7793 2.98681 18.4614L4.11106 15.6975L3.23706 14.8235L4.35644 13.7041ZM24 0V0.705813C24 4.27075 23.1169 7.57519 21.3752 10.5274C19.8594 13.0972 17.9841 14.9133 16.7056 16.0557C16.573 16.1742 16.1763 16.5656 15.686 17.0555L15.565 17.1765C14.7471 17.995 13.7194 19.0354 13.2087 19.5539L12.7097 20.0611L3.93725 11.2886L4.4475 10.7896C4.8434 10.4023 5.52381 9.73482 6.19626 9.07129L6.29 8.97876C6.68016 8.59356 7.06304 8.21416 7.38114 7.8964L7.49276 7.78476C7.81863 7.45843 8.06091 7.21181 8.14719 7.11525C9.27469 5.85325 11.0664 4.00537 13.5952 2.53294C16.4822 0.852313 19.7454 0 23.2942 0H24ZM10.3816 9.38331L9.38331 10.3814L13.6186 14.6167L14.6167 13.6184L10.3816 9.38331ZM16.2354 4.94119C14.6784 4.94119 13.4119 6.20775 13.4119 7.76463C13.4119 9.32156 14.6784 10.5881 16.2354 10.5881C17.7922 10.5881 19.0588 9.32156 19.0588 7.76463C19.0588 6.20775 17.7922 4.94119 16.2354 4.94119ZM16.2354 6.353C17.0149 6.353 17.647 6.98513 17.647 7.76463C17.647 8.54444 17.0149 9.1765 16.2354 9.1765C15.4556 9.1765 14.8235 8.54444 14.8235 7.76463C14.8235 6.98513 15.4556 6.353 16.2354 6.353ZM3.01931 5.18262C4.51881 3.68312 6.6565 3.032 8.73731 3.44119L9.66381 3.62356C8.59056 4.54981 7.73925 5.45312 7.0945 6.17456C7.09257 6.17672 7.09052 6.17899 7.08835 6.18139L7.07389 6.19714C6.99171 6.28577 6.79529 6.48528 6.52158 6.75938L6.41185 6.86913C5.88251 7.39794 5.11655 8.15484 4.33194 8.92579L4.24782 9.00843L4.16361 9.09113C4.13553 9.11869 4.10745 9.14626 4.07937 9.17381L0.0280625 8.17356L3.01931 5.18262Z" fill="white"/>
</svg>
