<svg width="90" height="90" viewBox="0 0 90 90" fill="none" xmlns="http://www.w3.org/2000/svg">
<path d="M58.0034 87.9056V72.1843C58.0034 70.6121 56.4313 69.9833 55.1736 70.6121L48.5706 74.6997V69.04C55.3308 65.1097 62.5626 59.7644 68.3795 53.9475C84.1009 38.2262 88.9745 5.68298 89.7606 0.809361C89.9178 0.652148 89.6033 0.337717 89.2889 0.337718C84.5725 0.966571 51.8721 5.9974 36.1508 21.7187C30.3339 27.5356 24.8314 34.6102 21.0583 41.5276H15.3986L20.4294 33.667C20.7439 33.0381 20.2722 32.252 19.6434 32.252L1.4066 32.2521C0.777748 32.2521 0.463323 32.5665 0.463325 33.1953L0.46332 50.8032L0.463318 61.8082C0.463318 62.7515 1.72103 63.0659 2.19267 62.2798L9.89612 50.8032L17.1279 50.8032C16.8135 51.4321 16.6563 52.2182 16.3419 52.847C15.5558 55.2052 15.2414 57.4062 15.0842 59.1355L15.0842 59.45C15.713 60.3933 19.1717 65.7385 21.8443 68.4111C24.517 71.0838 29.8622 74.5425 30.8055 75.1713C30.8055 75.1713 30.9627 75.3285 31.1199 75.1713C33.0065 75.1713 35.2075 74.5425 37.4085 73.9136C38.0373 73.5992 38.8234 73.442 39.4523 73.1275L39.4522 80.3594L27.9757 88.0628C27.1896 88.5345 27.504 89.7922 28.4473 89.7922L56.1169 89.7922C57.0602 89.7922 58.0034 88.8489 58.0034 87.9056ZM66.1785 24.0769C70.5805 28.4789 70.5805 35.7107 66.1785 40.1127C64.6064 41.6849 62.7198 42.6281 60.6761 43.0998C60.2044 42.6281 59.5756 42.3137 58.9467 42.3137L58.9467 38.2262C60.3616 38.0689 61.4621 37.5973 62.5626 36.4968C64.9208 34.1386 64.9208 30.3655 62.5626 28.0073C60.2044 25.6491 56.4313 25.6491 54.0731 28.0073C53.1298 28.9506 52.501 30.2083 52.3438 31.3088H47.9418C47.7846 30.8371 47.4701 30.2083 47.1557 29.8938C47.6273 27.8501 48.5706 25.9635 50.1428 24.3914C54.5447 19.675 61.7766 19.675 66.1785 24.0769ZM46.9985 34.453C47.4701 33.9814 47.7846 33.3525 47.7846 32.7237L51.8721 32.7237C52.0293 34.1386 52.6582 35.3963 53.6015 36.3396C54.5447 37.2829 55.8024 37.9117 57.2174 38.0689L57.2174 42.1565C56.5885 42.1565 55.9597 42.4709 55.488 42.9426C53.4442 42.4709 51.5577 41.5276 49.9855 39.9555C48.5706 38.5406 47.4701 36.4968 46.9985 34.453Z" fill="#1D56A3"/>
<path d="M12.4116 64.3237L7.69522 74.3854L1.5639 87.4341C1.09226 88.2202 1.87832 89.0062 2.8216 88.6918L15.8703 82.5605L25.932 77.8441C23.4166 76.272 21.0584 74.2282 18.7002 71.87C16.1847 69.3546 13.9838 66.8391 12.4116 64.3237Z" fill="#1D56A3"/>
</svg>
