<svg width="25" height="25" viewBox="0 0 25 25" fill="none" xmlns="http://www.w3.org/2000/svg">
<path fill-rule="evenodd" clip-rule="evenodd" d="M23.7086 21.9824C24.0992 22.3729 24.0992 23.0061 23.7086 23.3966L23.3966 23.7087C23.0061 24.0992 22.373 24.0992 21.9824 23.7088L17.5097 19.2371L19.2359 17.5097L23.7086 21.9824ZM9.7682 17.093C5.7298 17.093 2.44342 13.8078 2.44342 9.7682C2.44342 5.7298 5.7298 2.44342 9.7682 2.44342C13.8066 2.44342 17.093 5.7298 17.093 9.7682C17.093 13.8078 13.8066 17.093 9.7682 17.093ZM9.76638 0C4.3729 0 0 4.3729 0 9.76638C0 15.1599 4.3729 19.5328 9.76638 19.5328C15.1599 19.5328 19.5328 15.1599 19.5328 9.76638C19.5328 4.3729 15.1599 0 9.76638 0Z" fill="white"/>
</svg>
