<svg fill="#000000" xmlns="http://www.w3.org/2000/svg" viewBox="0 0 19.73 20.57"><g id="Layer_2" data-name="Layer 2"><g id="Startup"><path d="M19.56,11a1.28,1.28,0,0,0-1.13-.66H16.34a2.47,2.47,0,0,0-2.1,1.16l-1.19,1.92h-11l-1-1.63a.27.27,0,0,1,0-.3.27.27,0,0,1,.26-.15H3.62a1.1,1.1,0,0,1,.92.49l.29.44a.51.51,0,0,0,.7.14.5.5,0,0,0,.13-.7l-.29-.44a2.1,2.1,0,0,0-1.75-.93H1.3a1.29,1.29,0,0,0-1.1,2l1.09,1.74v4.47a2,2,0,0,0,2,2H16.4a2,2,0,0,0,2-2V14.06l1.09-1.74A1.3,1.3,0,0,0,19.56,11ZM2.29,18.53V14.42H12.83v5.15H3.33A1,1,0,0,1,2.29,18.53Zm16.39-6.74-1,1.63H15.45a.5.5,0,0,0-.5.5.51.51,0,0,0,.5.5h2v4.11a1,1,0,0,1-1,1H13.83V14.06l1.26-2a1.47,1.47,0,0,1,1.25-.69h2.09a.29.29,0,0,1,.26.15A.32.32,0,0,1,18.68,11.79ZM7.23,4.34,7,5.53a1,1,0,0,0,.4,1A1,1,0,0,0,8,6.69a.93.93,0,0,0,.46-.12L9.53,6l1.07.56a1,1,0,0,0,1-.07,1,1,0,0,0,.4-1l-.21-1.19.87-.84a1,1,0,0,0,.25-1,1,1,0,0,0-.8-.67L11,1.64,10.42.55h0A1,1,0,0,0,9.53,0h0a1,1,0,0,0-.89.55L8.11,1.63l-1.19.18a1,1,0,0,0-.8.67,1,1,0,0,0,.25,1ZM9.53,1l.53,1.08a1,1,0,0,0,.75.54L12,2.78l-.87.85a1,1,0,0,0-.28.88l.21,1.18L10,5.13a.94.94,0,0,0-.92,0L8,5.7l.2-1.19a1,1,0,0,0-.28-.88L7.06,2.8l1.2-.18A1,1,0,0,0,9,2.08L9.52,1m2.19,6.75a.5.5,0,0,1,.5.5v2.22a.5.5,0,0,1-1,0V8.25A.5.5,0,0,1,11.71,7.75Zm-4.43.37a.5.5,0,0,1,.5.5V9.73a.5.5,0,0,1-1,0V8.62A.5.5,0,0,1,7.28,8.12Zm2.22.37A.51.51,0,0,1,10,9v2.59a.51.51,0,0,1-.5.5.5.5,0,0,1-.5-.5V9A.5.5,0,0,1,9.5,8.49Z"/></g></g></svg>
