<svg width="88" height="87" viewBox="0 0 88 87" fill="none" xmlns="http://www.w3.org/2000/svg">
<path d="M1.61822 65.079C3.6339 63.0428 6.92125 63.0344 8.94724 65.0604L21.0875 77.2007C23.1062 79.2194 23.1062 82.4924 21.0875 84.5112C19.0688 86.5299 15.7957 86.5299 13.777 84.5112L1.63674 72.3709C-0.374756 70.3594 -0.383034 67.1007 1.61822 65.079ZM86.7588 47.5973L86.8315 47.6708C87.4791 48.3338 87.4728 49.3943 86.8175 50.0496L69.6674 67.1997C65.3819 71.4852 59.5695 73.8928 53.5089 73.8928H33.013C32.197 73.8928 31.4167 74.2272 30.8538 74.8179C29.6981 76.0309 27.7703 76.0542 26.5857 74.8696L15.5712 63.8551C12.0815 60.3654 12.0815 54.7076 15.5712 51.2179C17.8788 48.9103 21.0085 47.6139 24.2719 47.6139H48.2032C51.104 47.6139 53.4555 49.9655 53.4555 52.8662C53.4555 55.767 51.104 58.1185 48.2032 58.1185H32.3534C30.8664 58.1185 29.661 59.324 29.661 60.811C29.661 62.2979 30.8664 63.5034 32.3534 63.5034H53.3263C56.5897 63.5034 59.7195 62.207 62.0271 59.8994L74.3292 47.5973C77.7616 44.1649 83.3265 44.1649 86.7588 47.5973ZM48.2413 15.7812C52.6349 15.7812 55.6143 20.2514 53.9235 24.3066C51.8107 29.3742 44.6233 29.3506 42.5437 24.2694C40.8861 20.2191 43.865 15.7812 48.2413 15.7812ZM66.0168 15.7812C69.6655 15.7812 71.5078 20.179 68.9485 22.7796C65.7695 26.0099 60.4676 22.4765 62.2256 18.299C62.8676 16.7734 64.3616 15.7812 66.0168 15.7812ZM30.6391 15.7812C32.2931 15.7812 33.7839 16.7786 34.415 18.3074C36.1223 22.4432 30.8954 25.9192 27.7416 22.7455C25.1807 20.1684 27.0061 15.7812 30.6391 15.7812ZM33.1301 0C36.1946 0 38.0593 3.37488 36.4282 5.96925L34.91 8.38409C34.1337 9.61888 32.7774 10.3682 31.3189 10.3682C27.5041 10.3682 25.6281 5.72539 28.372 3.07522L30.4237 1.09359C31.15 0.392081 32.1204 0 33.1301 0ZM48.2229 0C49.4138 0 50.5216 0.610342 51.1579 1.61702L52.1708 3.21942C54.1318 6.32186 51.9025 10.3682 48.2323 10.3682C44.5797 10.3682 42.3474 6.35658 44.2729 3.25271L45.2722 1.64184C45.9055 0.620979 47.0215 0 48.2229 0ZM63.5781 0C64.62 0 65.6206 0.407117 66.3666 1.1345L68.2468 2.96802C71.0164 5.6687 69.1043 10.3682 65.236 10.3682C63.746 10.3682 62.3615 9.59908 61.5743 8.33397L60.1869 6.10412C58.5315 3.44361 60.4446 0 63.5781 0Z" fill="#1B55A3"/>
</svg>
