<svg width="90" height="79" viewBox="0 0 90 79" fill="none" xmlns="http://www.w3.org/2000/svg">
<path d="M8.49515 47.8653C13.1556 47.5057 17.1081 51.0855 18.8381 55.4278C20.4641 59.5091 23.0382 63.1724 26.3771 66.1203C26.4689 66.2008 26.4784 66.3404 26.3983 66.4325L20.9905 72.6538C17.912 76.1954 12.4671 76.6106 9.56101 72.9263C4.16831 66.0894 0.809233 57.7676 0.0522273 48.876C0.036248 48.6791 0.183349 48.5067 0.380317 48.4915L8.49515 47.8653ZM73.0646 47.239C73.0737 47.1164 73.1802 47.0242 73.3028 47.0328L81.5239 47.6098C86.2051 47.9383 89.8132 52.0386 88.6126 56.5752C86.3758 65.0271 81.7175 72.6469 75.1943 78.5261C75.0497 78.6555 74.8275 78.6426 74.6987 78.4975L71.6137 75.0209C70.9168 74.2355 71.1166 72.9847 71.8798 72.2635C74.1853 70.0849 75.0432 67.6792 74.4534 65.0464C74.2804 64.2741 73.897 63.5708 73.469 62.9051L72.4296 61.2887L71.1067 59.2345C70.5007 58.2948 70.4518 57.1095 70.8918 56.0816C72.0797 53.3067 72.8234 50.327 73.0646 47.239ZM44.6504 36.3537C47.7268 36.3537 50.4126 38.0264 51.8479 40.5119C51.9249 40.6452 52.0124 40.7724 52.1143 40.8878L52.27 41.0664L52.4282 41.25L52.5888 41.4386C52.6157 41.4704 52.6428 41.5025 52.67 41.5347L52.8341 41.7307L53.0007 41.9317L53.1697 42.1377L53.3411 42.3486L53.5149 42.5646L53.6911 42.7854L53.8697 43.0113L54.0507 43.2421L54.3267 43.5977L54.5137 43.841L54.7032 44.0893L54.895 44.3425L55.0892 44.6007L55.3851 44.9973L55.6864 45.4051L55.8903 45.6832L56.0965 45.9663L56.3052 46.2543L56.6227 46.6957L56.8374 46.9962L57.274 47.612L57.4959 47.9274L57.8332 48.4099L58.0612 48.7377L58.5746 49.4816L58.8844 49.9337L59.2036 50.4017L59.6437 51.0506L60.2171 51.9014L60.6946 52.614L61.4259 53.7116L61.9605 54.5185L62.5129 55.3555L63.4333 56.7573L64.2758 58.047L64.8988 59.0043L65.9322 60.5985L67.0108 62.2698L68.1346 64.018L69.007 65.3797L69.2475 65.7556C69.2797 65.806 69.2705 65.8725 69.2256 65.9121C69.1893 65.9442 69.1758 65.9948 69.1895 66.0413C69.4618 66.9651 69.2319 68.0051 68.501 68.7318C67.4547 69.7721 65.7725 69.7822 64.7138 68.7658L64.6682 68.7209C64.5775 68.6298 64.4778 68.5481 64.3706 68.4771L62.7076 67.3751L60.5925 65.9696L57.9109 64.1807L55.7762 62.7494L54.1071 61.6247L52.8351 60.7634L51.5206 59.8686L50.0804 58.8813L49.0985 58.2027L48.5033 57.7885L48.0178 57.4489L47.5379 57.1118L47.0638 56.7771C46.9853 56.7215 46.907 56.666 46.8289 56.6106L46.1328 56.1149L45.6759 55.7875L45.2247 55.4625L44.7792 55.14L44.3395 54.8198L43.9055 54.5021L43.4772 54.1868L43.0546 53.874L42.6378 53.5636C42.5688 53.512 42.5 53.4606 42.4315 53.4093L42.0233 53.1025L41.6207 52.7982L41.2239 52.4963L40.8328 52.1968C40.7681 52.1471 40.7037 52.0975 40.6395 52.0479L40.257 51.7521L39.8802 51.4587C37.7422 49.9563 36.3449 47.4709 36.3449 44.6592C36.3449 40.0722 40.0634 36.3537 44.6504 36.3537ZM10.7256 15.6765C10.8305 15.5548 11.0143 15.5415 11.1356 15.6468L17.3313 21.0225C20.8632 24.087 21.0922 29.4151 19.2116 33.6963C17.9557 36.5555 17.1769 39.6308 16.9325 42.8182C16.9251 42.9198 16.8369 42.9962 16.7353 42.9891L8.47326 42.4097C3.79361 42.0815 0.186374 37.9829 1.38582 33.4477C3.11783 26.8988 6.30837 20.8338 10.7256 15.6765ZM72.7337 21.0972C76.2851 18.0324 81.732 18.3984 84.0796 22.4597C87.3884 28.1839 89.4234 34.615 89.9653 41.3524C89.9777 41.5132 89.8571 41.6535 89.6963 41.6654L81.517 42.2702C76.8537 42.615 72.9124 39.0209 71.1952 34.6717C70.0629 31.8039 68.4598 29.1352 66.4408 26.7655C66.376 26.6899 66.3846 26.5763 66.4599 26.5112L72.7337 21.0972ZM41.6392 0.0208441C41.8021 0.00934323 41.9434 0.13242 41.9544 0.295419L42.5048 8.47498C42.8188 13.1403 39.1989 17.0575 34.8382 18.7452C31.8948 19.8844 29.1576 21.5181 26.7338 23.5877C26.6574 23.6533 26.5423 23.6448 26.4764 23.5686L21.0568 17.3028C17.9879 13.7548 18.3477 8.30735 22.4064 5.95511C28.2258 2.58236 34.7774 0.527629 41.6392 0.0208441ZM47.6512 8.48546C47.986 3.80642 52.0895 0.205078 56.6229 1.41093C62.9946 3.10575 68.9075 6.18219 73.9712 10.4282C74.0916 10.5299 74.1066 10.71 74.0046 10.8302L68.6912 17.0863C65.6642 20.6505 60.3386 20.9358 56.0374 19.1012C53.2671 17.9196 50.2993 17.1836 47.2272 16.9441C47.1276 16.9367 47.0528 16.8501 47.0599 16.7504L47.6512 8.48546Z" fill="#1B55A3"/>
</svg>
