<svg width="90" height="90" viewBox="0 0 90 90" fill="none" xmlns="http://www.w3.org/2000/svg">
<path d="M45 0C49.5974 0 54.0338 0.689423 58.2113 1.97052C61.2313 2.89661 61.8991 6.66194 59.6656 8.89559L59.5772 8.98797L59.5535 9.01382L59.4929 9.08147C58.7735 9.89983 58.3751 10.9534 58.3751 12.0462C58.3751 12.6732 57.7348 13.0982 57.1483 12.8763C53.3717 11.4474 49.2772 10.6653 45 10.6653C26.0375 10.6653 10.6653 26.0375 10.6653 45C10.6653 63.9625 26.0375 79.3347 45 79.3347C63.9625 79.3347 79.3347 63.9625 79.3347 45C79.3347 40.6945 78.5423 36.5742 77.0952 32.7768C76.8864 32.2288 77.2838 31.6301 77.8702 31.6301L77.9925 31.6275L78.026 31.6261C79.1609 31.5783 80.2362 31.102 81.0346 30.2922C83.2701 28.0248 87.0709 28.6798 88.0092 31.7226C89.3033 35.9195 90 40.3784 90 45C90 69.8528 69.8528 90 45 90C20.1472 90 0 69.8528 0 45C0 20.1472 20.1472 0 45 0ZM45 20.9563C45.7281 20.9563 46.4486 20.9887 47.1603 21.0521C51.4189 21.4313 52.3737 26.5253 49.349 29.5471L48.6042 30.2912C47.6637 31.2308 46.3294 31.6216 45 31.6216C37.6113 31.6216 31.6216 37.6113 31.6216 45C31.6216 52.3887 37.6113 58.3784 45 58.3784C52.3887 58.3784 58.3784 52.3887 58.3784 45C58.3784 43.679 58.7683 42.3537 59.7029 41.4201L60.4572 40.6665C63.482 37.6448 68.5751 38.6047 68.9501 42.8638C69.012 43.5676 69.0437 44.2801 69.0437 45C69.0437 58.2789 58.2789 69.0437 45 69.0437C31.7211 69.0437 20.9563 58.2789 20.9563 45C20.9563 31.7211 31.7211 20.9563 45 20.9563ZM73.5805 0.0216573C74.2888 0.0216573 74.8658 0.583883 74.8895 1.2864L74.8903 1.33143L74.8901 6.96373C74.8901 7.54126 75.5882 7.8307 75.9969 7.4226C77.8246 5.59675 80.7864 5.59825 82.6122 7.42595C84.4198 9.23538 84.4364 12.1563 82.6631 13.9862L82.6088 14.0413C82.1913 14.4584 82.4867 15.1722 83.0769 15.1722L88.3439 15.1723C88.6689 15.1723 88.9816 15.2931 89.2218 15.5101L89.2635 15.5494C89.7669 16.0457 89.7839 16.849 89.3104 17.366L89.2766 17.4016L78.7694 28.059C78.5362 28.2955 78.2225 28.4341 77.892 28.4481L77.8367 28.4492L72.7393 28.4492C69.8238 28.4491 67.0275 29.6066 64.9649 31.6671L48.306 48.3094C46.4783 50.1352 43.5165 50.1337 41.6906 48.306C39.8831 46.4966 39.8665 43.5756 41.6397 41.7458L41.694 41.6906L58.3302 25.0711C60.3955 23.0079 61.5559 20.2084 61.5559 17.2891L61.556 12.0462C61.556 11.7181 61.6791 11.4027 61.8997 11.1618L61.9396 11.12L72.6544 0.40528C72.9 0.159651 73.2331 0.0216573 73.5805 0.0216573Z" fill="#1B55A3"/>
</svg>
