<svg width="90" height="63" viewBox="0 0 90 63" fill="none" xmlns="http://www.w3.org/2000/svg">
<path d="M46.0446 0C48.3502 0 50.2193 1.8479 50.2193 4.12741V58.8721C50.2193 59.6648 49.9884 60.4408 49.5542 61.1073C48.3056 63.0236 45.7221 63.5763 43.7838 62.3419L24.1685 49.8496C22.4028 48.725 20.3529 48.1277 18.2596 48.1277H4.17475C1.8691 48.1277 0 46.2798 0 44.0003V19.1839C0 16.9044 1.8691 15.0564 4.17475 15.0564H18.2245C20.3398 15.0564 22.4103 14.4465 24.1878 13.2998L43.7631 0.670837C44.4417 0.233087 45.2344 0 46.0446 0ZM68.9714 1.28826C70.6816 1.92982 72.3317 2.71274 73.9057 3.62748C83.7942 9.37421 90 19.8663 90 31.4195C90 43.872 82.7874 55.0448 71.664 60.4002C70.3412 61.037 68.975 61.5848 67.5737 62.0391C65.2915 62.779 62.8348 61.5497 62.0864 59.2934C61.3456 57.0597 62.5568 54.6569 64.7955 53.8912L64.8636 53.8685C65.8886 53.5362 66.8881 53.1354 67.8561 52.6693C76.0158 48.7409 81.3026 40.5512 81.3026 31.4195C81.3026 22.9458 76.7554 15.2579 69.4983 11.0404C68.4131 10.4097 67.2792 9.86493 66.1062 9.41163L65.8859 9.32771C63.6404 8.48532 62.5107 6.00273 63.3628 3.78269C64.2149 1.56266 66.7259 0.445862 68.9714 1.28826ZM63.6032 16.0134C69.0907 19.2025 72.5363 25.0281 72.5363 31.4407C72.5363 38.3528 68.5322 44.5556 62.3584 47.528C60.1991 48.5675 57.5962 47.6797 56.5447 45.5449C55.5037 43.4314 56.3735 40.8881 58.4862 39.8287L58.5506 39.7971C61.7606 38.2517 63.8389 35.0321 63.8389 31.4407C63.8389 28.1409 62.0874 25.1467 59.2811 23.4766L59.1958 23.4264C57.1253 22.2231 56.4334 19.5882 57.6505 17.5412C58.8676 15.4941 61.5327 14.8102 63.6032 16.0134Z" fill="#1B55A3"/>
</svg>
