<svg width="148" height="148" viewBox="0 0 148 148" fill="none" xmlns="http://www.w3.org/2000/svg">
<g filter="url(#filter0_d_3843:514)">
<path fill-rule="evenodd" clip-rule="evenodd" d="M109.543 88.5115L94.4287 73.4186L94.9927 72.8563C95.6031 72.2467 95.6031 71.2584 94.9927 70.6496C94.3823 70.0402 93.3927 70.0402 92.7823 70.6496L92.2192 71.212L87.8873 66.8859C90.6437 62.2503 92.229 56.8434 92.229 51.0732C92.229 33.9396 78.2706 20 61.1142 20C43.9575 20 30 33.9396 30 51.0732C30 68.2067 43.9575 82.1454 61.1142 82.1454C66.8929 82.1454 72.3079 80.5624 76.9498 77.8096L81.2808 82.1357L80.7373 82.6787C80.1269 83.2881 80.1269 84.2763 80.7373 84.8851C81.0425 85.1899 81.4421 85.3426 81.8417 85.3426C82.2421 85.3426 82.6417 85.1899 82.9469 84.8851L83.4904 84.3423L98.6044 99.4351C98.9096 99.7399 99.3092 99.8926 99.7087 99.8926C100.109 99.8926 100.509 99.7399 100.814 99.4351L109.543 90.7187C109.836 90.4262 110 90.0288 110 89.6152C110 89.2014 109.836 88.804 109.543 88.5115ZM33.125 51.0733C33.125 35.6602 45.6812 23.1208 61.1142 23.1208C76.5479 23.1208 89.104 35.6602 89.104 51.0733C89.104 66.4855 76.5479 79.0247 61.1142 79.0247C45.6812 79.0247 33.125 66.4855 33.125 51.0733ZM79.6045 76.0479C82.0857 74.211 84.2837 72.0152 86.123 69.5381L90.0097 73.4187L83.4903 79.9293L79.6045 76.0479ZM99.7088 96.1251L85.7007 82.1358L92.2192 75.626L106.228 89.6153L99.7088 96.1251Z" fill="#1B55A3"/>
</g>
<path fill-rule="evenodd" clip-rule="evenodd" d="M77.1492 35.0594C70.3263 28.2457 59.9104 26.487 51.2304 30.6845C50.4542 31.06 50.1294 31.9931 50.5054 32.7683C50.8813 33.5446 51.8165 33.8687 52.5919 33.4932C60.0765 29.8751 69.0569 31.3908 74.9398 37.2658C82.3763 44.6933 82.5569 56.6629 75.4834 64.312V63.1215C75.4834 58.6011 71.8011 54.9235 67.2746 54.9235H66.8506C67.5456 53.8558 67.9509 52.5829 67.9509 51.2177V49.2972C67.9509 45.5328 64.8836 42.4705 61.1142 42.4705C57.3446 42.4705 54.2781 45.5328 54.2781 49.2972V51.2177C54.2781 52.5829 54.6833 53.8558 55.3775 54.9235H54.9544C50.4281 54.9235 46.7456 58.6011 46.7456 63.1215V64.3136C41.3158 58.4394 40.0025 49.7994 43.5115 42.5614C43.8875 41.7862 43.5629 40.8531 42.7856 40.4778C42.0094 40.1022 41.075 40.4266 40.699 41.2018C36.4958 49.8701 38.2569 60.272 45.0798 67.0866C49.5004 71.5013 55.3077 73.7085 61.1142 73.7085C66.9215 73.7085 72.7288 71.5013 77.1492 67.0866C85.9913 58.2566 85.9913 43.8894 77.1492 35.0594ZM57.4033 51.2177V49.2972C57.4033 47.2541 59.0683 45.5913 61.1144 45.5913C63.161 45.5913 64.826 47.2541 64.826 49.2972V51.2177C64.826 53.2608 63.161 54.9236 61.1144 54.9236C59.0683 54.9236 57.4033 53.2608 57.4033 51.2177ZM61.114 70.5894C57.1719 70.5886 53.229 69.4079 49.8696 67.0477V63.1216C49.8696 60.3226 52.1507 58.0444 54.9542 58.0444H67.2744C70.078 58.0444 72.3582 60.3226 72.3582 63.1216V67.0477C68.9996 69.4085 65.0575 70.5894 61.114 70.5894Z" fill="#D8D8D8"/>
<g filter="url(#filter1_d_3843:514)">
<path fill-rule="evenodd" clip-rule="evenodd" d="M46.1841 37.7229C46.5949 37.7229 46.9978 37.5562 47.2882 37.266C47.5797 36.9751 47.7466 36.5744 47.7466 36.1625C47.7466 35.752 47.5797 35.3496 47.2882 35.0596C46.9978 34.7693 46.5949 34.6021 46.1841 34.6021C45.773 34.6021 45.3701 34.7693 45.0797 35.0596C44.7891 35.3496 44.6216 35.752 44.6216 36.1625C44.6216 36.5744 44.7882 36.9768 45.0797 37.266C45.3701 37.5562 45.773 37.7229 46.1841 37.7229Z" fill="#1B55A3"/>
</g>
<defs>
<filter id="filter0_d_3843:514" x="0" y="0" width="148" height="147.893" filterUnits="userSpaceOnUse" color-interpolation-filters="sRGB">
<feFlood flood-opacity="0" result="BackgroundImageFix"/>
<feColorMatrix in="SourceAlpha" type="matrix" values="0 0 0 0 0 0 0 0 0 0 0 0 0 0 0 0 0 0 127 0" result="hardAlpha"/>
<feOffset dx="4" dy="14"/>
<feGaussianBlur stdDeviation="17"/>
<feComposite in2="hardAlpha" operator="out"/>
<feColorMatrix type="matrix" values="0 0 0 0 0.0470588 0 0 0 0 0.305883 0 0 0 0 0.72549 0 0 0 0.18 0"/>
<feBlend mode="normal" in2="BackgroundImageFix" result="effect1_dropShadow_3843:514"/>
<feBlend mode="normal" in="SourceGraphic" in2="effect1_dropShadow_3843:514" result="shape"/>
</filter>
<filter id="filter1_d_3843:514" x="14.6216" y="14.6021" width="71.125" height="71.1208" filterUnits="userSpaceOnUse" color-interpolation-filters="sRGB">
<feFlood flood-opacity="0" result="BackgroundImageFix"/>
<feColorMatrix in="SourceAlpha" type="matrix" values="0 0 0 0 0 0 0 0 0 0 0 0 0 0 0 0 0 0 127 0" result="hardAlpha"/>
<feOffset dx="4" dy="14"/>
<feGaussianBlur stdDeviation="17"/>
<feComposite in2="hardAlpha" operator="out"/>
<feColorMatrix type="matrix" values="0 0 0 0 0.0470588 0 0 0 0 0.305883 0 0 0 0 0.72549 0 0 0 0.18 0"/>
<feBlend mode="normal" in2="BackgroundImageFix" result="effect1_dropShadow_3843:514"/>
<feBlend mode="normal" in="SourceGraphic" in2="effect1_dropShadow_3843:514" result="shape"/>
</filter>
</defs>
</svg>
