<svg width="90" height="81" viewBox="0 0 90 81" fill="none" xmlns="http://www.w3.org/2000/svg">
<path fill-rule="evenodd" clip-rule="evenodd" d="M80.8384 0C81.1485 0 81.4458 0.123419 81.6646 0.343003L89.6549 8.35837C89.8729 8.57705 89.9953 8.87325 89.9953 9.18203V30.8333C89.9953 31.4777 89.473 32 88.8287 32H79.3168V32.0833C79.3168 35.7192 76.3693 38.6667 72.7334 38.6667H68.6547C66.4455 38.6667 64.6547 40.4575 64.6547 42.6667V44.8328L67.742 41.7455L69.5874 43.5909L64.1603 49.018C63.7047 49.4736 62.966 49.4736 62.5104 49.018L57.0833 43.5909L58.9287 41.7455L62.016 44.8328V42.5833C62.016 38.9475 64.9635 36 68.5993 36H72.6547C74.8417 36 76.6188 34.2448 76.6541 32.0662L76.6547 32H67.162C66.5177 32 65.9953 31.4777 65.9953 30.8333V1.16667C65.9953 0.522335 66.5177 0 67.162 0H80.8384ZM79.3707 2.68987H68.6561V29.3093H87.3462V10.6795H80.5374C79.8931 10.6795 79.3707 10.1572 79.3707 9.51285V2.68987ZM84.662 24V26.6667H71.3287V24H84.662ZM84.662 18.6667V21.3333H71.3287V18.6667H84.662ZM84.662 13.3333V16H71.3287V13.3333H84.662ZM76.662 8V10.6667H71.3287V8H76.662ZM82.0025 4.43992V8.01949H85.5821L82.0025 4.43992Z" fill="#D8D8D8"/>
<path fill-rule="evenodd" clip-rule="evenodd" d="M9.15696 0C8.84691 0 8.54961 0.123419 8.33071 0.343003L0.340428 8.35837C0.122426 8.57705 1.21342e-05 8.87325 1.21342e-05 9.18203V30.8333C1.21342e-05 31.4777 0.522347 32 1.16668 32H10.6786V32.0833C10.6786 35.7192 13.626 38.6667 17.2619 38.6667H21.3407C23.5498 38.6667 25.3407 40.4575 25.3407 42.6667V44.8328L22.2534 41.7455L20.4079 43.5909L25.8351 49.018C26.2907 49.4736 27.0294 49.4736 27.485 49.018L32.9121 43.5909L31.0667 41.7455L27.9793 44.8328V42.5833C27.9793 38.9475 25.0319 36 21.396 36H17.3407C15.1536 36 13.3765 34.2448 13.3412 32.0662L13.3407 32H22.8333C23.4777 32 24 31.4777 24 30.8333V1.16667C24 0.522335 23.4777 0 22.8333 0H9.15696ZM10.6246 2.68987H21.3392V29.3093H2.6492V10.6795H9.45795C10.1023 10.6795 10.6246 10.1572 10.6246 9.51285V2.68987ZM5.33335 24V26.6667H18.6667V24H5.33335ZM5.33335 18.6667V21.3333H18.6667V18.6667H5.33335ZM5.33335 13.3333V16H18.6667V13.3333H5.33335ZM13.3333 8V10.6667H18.6667V8H13.3333ZM7.99282 4.43992V8.01949H4.41325L7.99282 4.43992Z" fill="#D8D8D8"/>
<path fill-rule="evenodd" clip-rule="evenodd" d="M34.1666 32C33.5223 32 33 31.4777 33 30.8333V1.16667C33 0.522334 33.5223 0 34.1666 0H47.843C48.1531 0 48.4504 0.123419 48.6693 0.343003L56.6595 8.35837C56.8775 8.57705 57 8.87325 57 9.18203V30.8333C57 31.4777 56.4776 32 55.8333 32H46.326L46.3259 48.1046L76.2757 56.997L76.4353 56.9489L76.4669 57.0537L77.2592 57.289C77.9387 57.4907 78.4078 58.1089 78.4217 58.8151V58.8468V69.0327C78.4217 69.7388 77.966 70.3627 77.2963 70.579L77.2662 70.5884L45.4761 80.182C45.1829 80.2705 44.8709 80.2742 44.5762 80.1932L44.5378 80.1822L12.6975 70.5886C12.0211 70.3848 11.5551 69.768 11.5413 69.0642V69.0326V58.8468C11.5413 58.1378 12.0007 57.512 12.6741 57.2981L12.7044 57.2888L43.6872 48.1041L43.6873 32H34.1666ZM75.3384 60.4996L46.5231 69.1821V76.6452L75.3384 67.9494V60.4996ZM14.6245 60.6926V67.9489L43.4398 76.631V69.182L14.6245 60.6926ZM43.6872 51.3201L18.7819 58.7031L44.9893 66.4241L70.8993 58.617L46.3259 51.3209L46.326 58.1661L49.4133 55.0788L51.2587 56.9242L45.8316 62.3514C45.376 62.807 44.6373 62.807 44.1817 62.3514L38.7545 56.9242L40.6 55.0788L43.6873 58.1661L43.6872 51.3201ZM46.3754 2.68987H35.6607V29.3093H54.3508V10.6795H47.542C46.8977 10.6795 46.3754 10.1572 46.3754 9.51285V2.68987ZM51.6666 24V26.6667H38.3333V24H51.6666ZM51.6666 18.6667V21.3333H38.3333V18.6667H51.6666ZM51.6666 13.3333V16H38.3333V13.3333H51.6666ZM43.6666 8V10.6667H38.3333V8H43.6666ZM49.0072 4.43992V8.01949H52.5867L49.0072 4.43992Z" fill="#1B55A3"/>
</svg>
