<svg width="90" height="58" viewBox="0 0 90 58" fill="none" xmlns="http://www.w3.org/2000/svg">
<path fill-rule="evenodd" clip-rule="evenodd" d="M65.8861 0.0268555L65.886 6.16142L76.5477 6.16147C79.6652 6.16147 82.1984 8.66344 82.2487 11.7689L82.2495 11.8632V13.4012C82.2495 14.0685 81.8356 14.6391 81.2505 14.8702L83.7078 24.2927C87.1722 24.8138 89.8372 27.7759 89.8955 31.3716L89.8965 31.492V46.5272C89.8965 47.3359 89.2529 47.9941 88.45 48.0178L88.4053 48.0185L83.8593 48.0184L83.8584 48.1318C83.7786 53.0528 79.7646 57.0175 74.8246 57.0175C69.8467 57.0175 65.809 52.9919 65.7895 48.0186L34.3856 48.0184L34.3848 48.1318C34.305 53.0528 30.2909 57.0175 25.3509 57.0175C20.373 57.0175 16.3354 52.9919 16.3159 48.0186L8.79367 48.0185C7.21376 48.0185 5.92947 46.7528 5.89893 45.18L5.89877 42.1051L1.49123 42.1052C0.667645 42.1052 0 41.4376 0 40.614C0 39.8054 0.643588 39.1471 1.44646 39.1234L1.49123 39.1228H14.8246C15.6481 39.1228 16.3158 39.7904 16.3158 40.614C16.3158 41.4226 15.6722 42.0809 14.8693 42.1046L14.8246 42.1052L8.88123 42.1051V45.0359L16.8072 45.0358C18.0289 41.4927 21.3926 38.9473 25.3509 38.9473C29.3091 38.9473 32.6728 41.4927 33.8946 45.0358L62.9035 45.036L62.9037 34.6686C62.9037 33.845 63.5713 33.1774 64.3949 33.1774C65.2035 33.1774 65.8618 33.821 65.8854 34.6238L65.8861 34.6686L65.886 45.036L66.2808 45.036C67.5025 41.4927 70.8663 38.9473 74.8246 38.9473C78.7829 38.9473 82.1466 41.4927 83.3683 45.036L86.9139 45.036V39.28L85.5167 39.2801C83.0707 39.2801 81.0831 37.3171 81.0436 34.8804L81.043 34.8064V31.8241C81.043 30.9195 81.7637 30.1832 82.6622 30.1581L82.7097 30.1574L86.7028 30.1575C86.1484 28.4583 84.5639 27.2248 82.6869 27.1943L82.6158 27.1938L82.5627 27.1938C82.5441 27.1942 82.5257 27.1942 82.5072 27.1939L65.886 27.1937L65.8861 28.5964C65.8861 29.42 65.2185 30.0877 64.3949 30.0877C63.5863 30.0877 62.928 29.4441 62.9043 28.6412L62.9037 28.5964L62.9035 3.00926H8.88123L8.88139 28.5964C8.88139 29.4051 8.2378 30.0633 7.43492 30.087L7.39016 30.0877C6.58155 30.0877 5.92326 29.4441 5.89959 28.6412L5.89893 28.5964V0.0268555H65.8861ZM71.7547 48.0184H68.5967L68.5973 48.0854C68.6523 51.4776 71.4193 54.2105 74.8246 54.2105C78.2522 54.2105 81.0331 51.4416 81.0525 48.0186L77.8945 48.0186C77.8752 49.6975 76.5081 51.0526 74.8246 51.0526C73.129 51.0526 71.7544 49.678 71.7544 47.9824L71.7547 48.0184ZM22.2811 48.0184H19.123L19.1236 48.0854C19.1786 51.4776 21.9456 54.2105 25.3509 54.2105C28.7785 54.2105 31.5594 51.4416 31.5788 48.0186L28.4208 48.0186C28.4015 49.6975 27.0344 51.0526 25.3509 51.0526C23.6553 51.0526 22.2807 49.678 22.2807 47.9824L22.2811 48.0184ZM74.8246 41.7543C72.4508 41.7543 70.3872 43.0824 69.3362 45.036C69.3362 45.036 73.6677 45.036 73.9589 45.036C74.25 45.036 74.5239 45.036 74.8246 45.036C75.1252 45.036 75.3486 45.036 75.6903 45.036C76.0319 45.036 80.313 45.036 80.313 45.036C79.262 43.0824 77.1984 41.7543 74.8246 41.7543ZM25.3509 41.7543C22.9772 41.7543 20.9136 43.0823 19.8626 45.0358C19.8626 45.0358 24.1947 45.0359 24.4855 45.0359C24.7764 45.0359 25.012 45.0358 25.3125 45.0358C25.613 45.0358 25.875 45.0358 26.2162 45.0359C26.5574 45.0359 30.8392 45.0358 30.8392 45.0358C29.7882 43.0823 27.7246 41.7543 25.3509 41.7543ZM86.9139 33.1398L84.0254 33.1398L84.0255 34.8064C84.0255 35.6151 84.6691 36.2733 85.472 36.297L85.5167 36.2977L86.9139 36.2976V33.1398ZM78.1967 14.98H65.886V24.2112H80.6042L78.1967 14.98ZM76.5477 9.14393L65.886 9.14387V11.9976L79.267 11.9977L79.267 11.8632C79.267 10.3799 78.0794 9.17404 76.6032 9.14449L76.5477 9.14393Z" fill="#1B55A3"/>
<path fill-rule="evenodd" clip-rule="evenodd" d="M58.4069 39.1067C59.2304 39.1067 59.8981 39.7743 59.8981 40.5979C59.8981 41.4065 59.2545 42.0648 58.4516 42.0885L58.4069 42.0891H37.4309C36.6073 42.0891 35.9397 41.4215 35.9397 40.5979C35.9397 39.7893 36.5833 39.131 37.3862 39.1073L37.4309 39.1067H58.4069Z" fill="#D8D8D8"/>
<path fill-rule="evenodd" clip-rule="evenodd" d="M22.3684 33.158C23.192 33.158 23.8596 33.8256 23.8596 34.6492C23.8596 35.4578 23.216 36.1161 22.4131 36.1398L22.3684 36.1404H4.47365C3.65007 36.1404 2.98242 35.4728 2.98242 34.6492C2.98242 33.8406 3.62601 33.1823 4.42888 33.1586L4.47365 33.158H22.3684Z" fill="#D8D8D8"/>
</svg>
