<svg width="349" height="530" viewBox="0 0 349 530" fill="none" xmlns="http://www.w3.org/2000/svg">
<g opacity="0.33" filter="url(#filter0_f_4160:978)">
<path d="M78.813 343.809C122.102 318.855 192.044 318.855 235.06 343.809C273.066 365.852 277.286 400.003 247.895 424.86C271.601 423.397 296.176 427.899 314.278 438.415C346.052 456.857 345.891 486.747 313.908 505.189C281.924 523.631 230.228 523.631 198.454 505.189C173.17 490.525 168.129 468.61 183.235 450.972C146.79 456.23 106.69 450.634 78.3138 434.17C35.2824 409.216 35.5239 368.763 78.813 343.809Z" fill="#939393"/>
</g>
<path d="M214.703 257.258C229.471 267.5 246.091 274.575 258.427 288.29C281.457 313.919 281.988 355.16 263.903 384.471C245.817 413.782 212.191 431.404 177.937 435.424C142.007 439.652 104.307 429.748 76.1074 407.094C47.9244 384.455 29.9839 349.082 30 312.954C30.0161 276.826 48.5525 240.858 78.8452 221.13C106.497 203.122 146.227 197.993 173.959 218.589C187.986 229.008 197.327 244.379 211.321 254.814C212.449 255.65 213.576 256.47 214.703 257.258Z" fill="#BA68C8"/>
<path opacity="0.2" d="M214.703 257.258C229.471 267.5 246.091 274.575 258.427 288.29C281.457 313.919 281.988 355.16 263.903 384.471C245.817 413.782 212.191 431.404 177.937 435.424C142.007 439.652 104.307 429.748 76.1074 407.094C47.9244 384.455 29.9839 349.082 30 312.954C30.0161 276.826 48.5525 240.858 78.8452 221.13C106.497 203.122 146.227 197.993 173.959 218.589C187.986 229.008 197.327 244.379 211.321 254.814C212.449 255.65 213.576 256.47 214.703 257.258Z" fill="black"/>
<g filter="url(#filter1_d_4160:978)">
<path d="M214.703 257.258C229.471 267.5 246.091 274.575 258.427 288.29C281.457 313.919 281.988 355.16 263.903 384.471C245.817 413.782 212.191 431.404 177.937 435.424C142.007 439.652 104.307 429.748 76.1074 407.094C47.9244 384.455 29.9839 349.082 30 312.954C30.0161 276.826 48.5525 240.858 78.8452 221.13C106.497 203.122 146.227 197.993 173.959 218.589C187.986 229.008 197.327 244.379 211.321 254.814C212.449 255.65 213.576 256.47 214.703 257.258Z" fill="#1B55A3"/>
</g>
<path opacity="0.1" d="M208.696 407.415C208.664 407.174 208.632 406.933 208.6 406.675C206.248 390.259 193.429 377.477 177.115 374.358C162.911 371.64 149.174 366.415 136.789 358.938C127.98 353.616 119.654 347.088 109.766 344.21C100.635 341.541 89.281 341.959 80.6328 345.899C88.9428 337.184 103.179 333.357 114.565 337.297C106.69 325.254 99.7489 312.279 97.0434 298.162C94.3217 284.029 96.2542 268.529 104.79 256.953C112.037 247.113 123.825 240.745 136.049 240.102C148.272 239.443 160.673 244.524 168.918 253.528C177.373 262.757 182.124 275.748 187.68 286.955C191.658 295.01 195.78 303.242 202.351 309.384C212.272 318.646 226.524 321.974 236.799 330.833C248.459 340.866 253.483 356.929 253.531 372.3C253.564 382.67 251.615 392.88 249.022 402.961C237.218 414.425 222.627 423.075 206.877 428.687C209.228 421.966 209.663 414.506 208.696 407.415Z" fill="black"/>
<path d="M49.2933 308.002C49.9053 277.26 64.5283 247.354 88.4436 227.979C103.067 216.13 120.846 208.492 139.382 205.646C142.813 205.984 146.227 206.547 149.56 207.351C128.061 208.605 106.996 216.516 90.1989 230.134C66.9117 248.994 52.6592 278.128 52.0794 308.05C51.4191 341.67 67.8941 375.934 96.1415 399.714C118.285 418.349 147.692 430.697 180.014 435.151C179.322 435.247 178.629 435.344 177.953 435.424C175.054 435.762 172.123 436.003 169.208 436.164C140.494 430.6 114.485 418.783 94.3539 401.836C65.4462 377.525 48.6169 342.442 49.2933 308.002Z" fill="white"/>
<path d="M246.333 396.176C244.835 402.158 244.529 412.946 244.529 412.946L240.551 411.451C236.686 410.004 232.322 410.985 229.471 413.975L229.278 414.184C227.796 415.728 225.348 415.84 223.738 414.441C222.901 413.702 222.401 412.657 222.369 411.547L221.838 394.617L246.333 396.176Z" fill="#FFA8A7"/>
<path d="M230.937 459.14C239.215 467.967 254.433 475.7 265.497 468.16L264.257 470.973C253.193 478.514 237.958 470.78 229.697 461.953C221.419 453.126 226.798 447 219.341 439.17C214.494 434.379 212.9 429.62 212.9 429.62C213.238 428.783 213.544 427.674 213.93 426.42C214.913 428.623 217.103 432.948 220.565 436.356C228.038 444.187 222.675 450.296 230.937 459.14Z" fill="black"/>
<path d="M218.021 417.175C219.841 414.313 220.453 412.351 220.614 411.145C220.759 410.116 221.37 409.232 222.256 408.685L222.353 411.531C222.385 412.641 222.884 413.686 223.722 414.425C225.332 415.84 227.78 415.728 229.262 414.168L229.455 413.959C232.305 410.985 236.67 409.988 240.535 411.435L244.593 412.962C245.833 413.428 246.639 414.618 246.606 415.937C246.349 427.513 251.76 442.9 257.445 451.358C263.291 453.769 268.331 461.728 265.755 467.549L265.497 468.127C254.433 475.668 239.198 467.935 230.937 459.107C222.659 450.28 228.038 444.154 220.581 436.324C217.119 432.9 214.929 428.59 213.946 426.388C214.735 423.863 215.814 420.632 218.021 417.175Z" fill="#224B77"/>
<path d="M234.206 433.897C233.513 434.25 232.676 433.945 232.338 433.27C232 432.594 232.241 431.742 232.918 431.388C239.279 428.108 244.738 429.202 248.813 431.421C249.054 432.337 249.328 433.237 249.602 434.138C244.899 431.758 240.149 430.906 234.206 433.897Z" fill="white"/>
<path d="M232.177 427.626C231.484 427.98 230.647 427.674 230.309 426.999C229.971 426.324 230.212 425.471 230.889 425.118C237.218 421.854 243.015 422.851 247.428 425.246C247.589 426.195 247.782 427.144 248.008 428.092C243.144 425.568 238.297 424.539 232.177 427.626Z" fill="white"/>
<path d="M236.444 440.135C235.752 440.489 234.915 440.183 234.576 439.508C234.238 438.833 234.48 437.98 235.156 437.627C241.34 434.427 246.671 435.376 250.713 437.466C251.067 438.447 251.438 439.411 251.824 440.36C247.122 437.996 242.371 437.128 236.444 440.135Z" fill="white"/>
<path d="M257.445 451.374C263.291 453.786 268.332 461.744 265.755 467.565L265.497 468.144C254.595 475.572 239.666 468.176 231.307 459.51C238.281 445.891 252.839 449.284 257.445 451.374Z" fill="white"/>
<path d="M238.892 446.212C238.2 446.566 237.363 446.261 237.024 445.585C236.686 444.91 236.928 444.058 237.604 443.704C243.804 440.505 249.151 441.453 253.177 443.559C253.676 444.637 254.176 445.682 254.707 446.679C249.876 444.138 245.012 443.125 238.892 446.212Z" fill="white"/>
<path d="M263.709 429.861C264.756 435.938 268.847 445.939 268.847 445.939L264.595 446.18C260.472 446.405 256.881 449.074 255.48 452.949L255.383 453.223C254.659 455.232 252.468 456.326 250.423 455.683C249.36 455.345 248.475 454.589 247.991 453.592L240.648 438.318L263.709 429.861Z" fill="#FFA8A7"/>
<path d="M275.079 493.66C286.224 498.403 303.278 499.336 310.348 487.984V491.055C303.262 502.407 286.207 501.474 275.079 496.731C263.935 491.988 266.383 484.222 256.398 480.041C250.02 477.614 246.655 473.899 246.655 473.899C246.622 472.999 246.461 471.858 246.3 470.555C248.088 472.179 251.84 475.234 256.398 476.97C266.383 481.151 263.951 488.901 275.079 493.66Z" fill="black"/>
<path d="M246.317 460.474C246.832 457.13 246.59 455.088 246.252 453.914C245.978 452.917 246.172 451.856 246.751 451.004L247.975 453.56C248.459 454.557 249.328 455.329 250.407 455.65C252.452 456.294 254.643 455.2 255.367 453.19L255.464 452.917C256.865 449.042 260.456 446.373 264.579 446.148L268.895 445.907C270.216 445.826 271.44 446.598 271.939 447.82C276.384 458.528 287.56 470.41 296.176 475.861C302.505 475.716 310.332 480.958 310.332 487.325V487.952C303.246 499.304 286.192 498.371 275.063 493.628C263.919 488.885 266.367 481.119 256.382 476.938C251.84 475.202 248.072 472.147 246.284 470.523C245.995 467.918 245.689 464.526 246.317 460.474Z" fill="#224B77"/>
<path d="M267.881 469.253C267.398 469.848 266.512 469.912 265.916 469.43C265.32 468.948 265.207 468.079 265.69 467.484C270.184 461.921 275.627 460.715 280.233 461.101C280.829 461.841 281.441 462.564 282.053 463.272C276.786 462.982 272.1 464.108 267.881 469.253Z" fill="white"/>
<path d="M263.484 464.333C263.001 464.928 262.115 464.992 261.519 464.51C260.94 464.027 260.811 463.159 261.294 462.564C265.771 457.033 271.472 455.602 276.481 456.02C277.012 456.808 277.576 457.612 278.155 458.384C272.68 458.014 267.832 459.043 263.484 464.333Z" fill="white"/>
<path d="M272.438 474.044C271.955 474.639 271.069 474.703 270.474 474.221C269.878 473.739 269.765 472.871 270.248 472.276C274.612 466.857 279.879 465.571 284.42 465.876C285.145 466.632 285.87 467.356 286.594 468.079C281.344 467.79 276.658 468.915 272.438 474.044Z" fill="white"/>
<path d="M296.209 475.877C302.538 475.732 310.364 480.974 310.364 487.341V487.968C303.391 499.159 286.739 498.403 275.595 493.837C276.448 478.578 291.152 475.813 296.209 475.877Z" fill="white"/>
<path d="M277.141 478.627C276.658 479.222 275.772 479.286 275.176 478.804C274.58 478.321 274.468 477.453 274.951 476.858C279.331 471.424 284.613 470.153 289.155 470.459C290.041 471.247 290.926 471.986 291.812 472.694C286.353 472.308 281.489 473.337 277.141 478.627Z" fill="white"/>
<path d="M198.277 285.203L254.031 316.218C264.386 321.974 269.91 333.711 267.752 345.352L256.93 403.54L268.219 437.964C257.445 451.39 236.863 449.412 236.863 449.412C227.056 429.78 223.577 414.49 218.005 398.025C212.433 381.577 208.729 370.226 208.729 370.226L162.428 357.588C140.783 351.687 124.824 333.245 122.311 310.976C121.522 303.982 121.49 299.207 121.49 299.207L198.277 285.203Z" fill="#0C1E27"/>
<path opacity="0.1" d="M197.858 300.831C197.874 306.989 195.619 313.115 191.625 317.794L230.969 342.378C236.734 345.979 241.018 351.558 243.015 358.054L256.946 403.524L244.384 352.893C242.935 347.073 239.263 342.04 234.158 338.889L197.826 316.475C201.514 307.214 197.858 300.831 197.858 300.831Z" fill="white"/>
<path d="M232.579 232.128C226.894 247.322 207.585 243.447 207.585 243.447C206.586 222.979 232.579 232.128 232.579 232.128Z" fill="#263238"/>
<path d="M192.237 189.552L193.671 189.568C203.301 189.68 215.492 196.224 221.451 213.01L244.593 257.757L218.182 269.446L203.736 227.208L192.237 189.552Z" fill="#FFC4BC"/>
<path d="M210.79 219.249C212.642 224.538 212.754 230.23 213.044 235.825C213.334 241.421 213.978 248.158 216.555 253.142C219.357 251.213 222.788 250.2 226.186 250.328C229.584 250.457 232.934 251.695 235.591 253.833C237.491 255.361 238.908 257.483 239.875 259.847L218.182 269.446L203.736 227.207L196.634 203.926C203.108 206.9 208.422 212.496 210.79 219.249Z" fill="#ECB5AD"/>
<path d="M217.924 261.358C219.873 256.374 224.575 252.563 229.874 251.711C235.172 250.859 241.163 253.624 244.577 257.741C247.46 261.213 247.009 265.924 245.189 270.041C242.339 276.52 234.399 280.283 227.571 278.369C220.742 276.488 215.363 267.966 217.924 261.358Z" fill="#FFC4BC"/>
<path d="M192.237 189.552C203.752 188.281 218.246 193.571 232.579 232.127C213.914 232.594 207.585 243.447 207.585 243.447C199.146 221.998 189.661 192.269 189.661 192.269L192.237 189.552Z" fill="#455A64"/>
<path d="M192.237 189.552C203.752 188.281 218.246 193.571 232.579 232.127C213.914 232.594 207.585 243.447 207.585 243.447C199.146 221.998 189.661 192.269 189.661 192.269L192.237 189.552Z" fill="#19437F"/>
<path d="M120.572 303.564C130.46 313.051 177.969 314.787 202.206 291.747C199.887 275.491 200.66 258.062 202.206 240.826C203.752 223.59 213.833 193.459 194.572 189.954C168.853 184.937 155.841 189.552 134.841 195.002C116.497 225.535 119.01 271.23 120.572 303.564Z" fill="#BA68C8"/>
<path d="M120.572 303.564C130.46 313.051 177.969 314.787 202.206 291.747C199.887 275.491 200.66 258.062 202.206 240.826C203.752 223.59 213.833 193.459 194.572 189.954C168.853 184.937 155.841 189.552 134.841 195.002C116.497 225.535 119.01 271.23 120.572 303.564Z" fill="#4688E8"/>
<path d="M158.482 178.908C154.714 177.477 152.057 173.924 150.736 170.113C149.415 166.302 149.222 162.202 149.061 158.183C148.658 148.873 148.272 139.564 147.869 130.254C147.708 126.492 147.596 122.521 149.432 119.225C150.865 116.636 153.474 114.739 156.373 114.144C159.271 113.549 162.412 114.305 164.747 116.121C168.499 108.661 177.26 103.435 185.538 104.657C190.402 105.381 194.798 107.841 199.082 110.253C203.752 112.89 208.423 115.526 213.077 118.163C215.992 119.819 219.052 121.588 220.791 124.45C222.353 127.023 222.659 130.222 222.24 133.197C221.822 136.171 220.71 139.017 219.599 141.831C218.311 145.111 217.022 148.423 215.025 151.333C213.028 154.243 210.258 156.752 206.877 157.749C195.813 161.029 187.277 170.016 177.276 175.773C174.522 177.348 171.752 178.956 168.709 179.856C165.649 180.773 161.446 180.033 158.482 178.908Z" fill="#263238"/>
<path d="M183.364 181.175L182.365 192.317C182.285 193.185 182.559 194.021 182.994 194.777C184.25 196.964 183.863 200.453 182.011 202.06C180.658 203.234 178.806 203.62 177.035 203.749C170.158 204.247 163.137 201.289 158.595 196.642C157.613 195.629 157.097 194.246 157.13 192.831L157.854 164.582L183.364 181.175Z" fill="#FFC4BC"/>
<path d="M157.854 164.566L183.364 181.175L182.478 191.047C177.067 189.777 171.64 188.217 167.356 184.744C161.913 180.339 157.13 175.949 157.854 164.566Z" fill="#ECB5AD"/>
<path d="M212.352 140.85C211.804 153.825 208.68 166.688 203.205 178.474C202.013 181.062 200.676 183.619 198.808 185.757C196.94 187.912 194.476 189.632 191.674 190.163C188.227 190.806 184.733 189.6 181.447 188.394C175.424 186.207 169.24 183.94 164.409 179.728C159.577 175.515 156.324 168.875 157.951 162.685C154.488 163.939 150.43 163.714 147.531 161.447C144.632 159.18 143.022 155.369 143.408 151.719C143.779 148.166 146.517 144.596 150.092 144.5C152.282 144.452 154.343 145.674 155.809 147.314C157.258 148.954 158.208 150.963 159.143 152.941C159.593 153.89 160.044 154.854 160.833 155.546C161.623 156.221 162.83 156.543 163.732 156.012C164.715 155.433 164.956 154.147 165.101 153.022L166.132 144.998C166.293 143.728 167.195 142.715 168.419 142.345C170.19 141.799 171.688 140.496 172.719 138.872C173.604 137.458 174.152 135.882 174.571 134.258C174.909 132.956 176.407 132.345 177.55 133.052C187.503 139.226 200.821 141.751 212.352 140.85Z" fill="#FFC4BC"/>
<path d="M213.254 138.615C212.835 142.378 210.017 145.754 206.41 146.863C207.07 145.497 207.73 144.13 208.375 142.78C204.96 145.304 200.789 146.799 196.554 147.008C198.374 145.802 199.871 144.098 200.805 142.136C196.264 145.304 190.901 147.314 185.377 147.893C188.695 146.606 191.69 144.5 194.025 141.831C189.983 144.677 184.91 146.011 179.982 145.545C181.27 144.05 182.543 142.538 183.831 141.043C180.014 143.021 175.586 143.825 171.318 143.326C172.848 141.831 174.378 140.352 175.908 138.856C173.621 139.258 171.318 139.66 169.031 140.062C170.513 136.557 171.334 133.084 172.075 129.354C179.112 128.823 185.925 129.37 192.753 131.123C199.598 132.875 206.651 136.123 213.254 138.615Z" fill="#263238"/>
<path d="M104.806 53.1207C105.518 51.8431 106.565 50.7541 107.889 49.9992L158.146 20.7C161.854 18.5657 170.652 21.455 170.652 27.4222V81.8682C170.652 84.83 169.067 87.5741 166.478 89.0405L133.759 107.697L139.401 104.474L136.696 112.155C136.609 112.401 136.347 112.489 136.129 112.431L136.144 112.46C135.664 112.213 133.526 111.066 132.319 110.267C132.305 110.267 132.305 110.253 132.305 110.253C132.276 110.238 132.246 110.224 132.217 110.195V110.18C132.174 110.151 132.13 110.122 132.116 110.078L131.447 109.004L116.221 118.238C110.012 121.781 103.729 117.062 103.729 111.516V57.157C103.729 55.7196 104.122 54.3258 104.806 53.1207Z" fill="#003B92"/>
<path d="M137.454 89.8374L137.436 83.1791L143.059 79.6997L143.077 86.358L137.454 89.8374Z" fill="white"/>
<path d="M147.8 51.9076C149.906 52.6735 150.965 54.4926 150.974 57.364C150.985 60.9269 149.245 64.8285 145.759 69.063C144.243 70.9151 143.323 72.2196 143.003 72.9813C142.684 73.7404 142.528 74.9151 142.532 76.5076L136.468 79.6998L136.465 78.7654C136.456 75.7768 136.672 73.7755 137.118 72.7615C137.561 71.7464 138.737 69.9958 140.645 67.5114C141.645 66.2141 142.34 65.1263 142.729 64.2579C143.119 63.3862 143.313 62.4581 143.31 61.4739C143.306 60.2579 142.934 59.4962 142.197 59.1836C141.457 58.8748 140.562 58.9983 139.512 59.5506C136.739 61.0101 135.185 63.883 134.855 68.1668L128.41 70.5963C128.882 66.6329 130.171 63.1412 132.274 60.1291C134.376 57.1143 136.947 54.8067 139.987 53.2069C143.092 51.5726 145.696 51.1402 147.8 51.9076Z" fill="white"/>
<path opacity="0.2" d="M132.116 110.093C132.145 110.137 132.188 110.166 132.217 110.195V110.209C132.246 110.224 132.276 110.238 132.305 110.267C132.319 110.267 132.319 110.282 132.319 110.282C133.526 111.08 135.664 112.227 136.144 112.474L136.129 112.445C136.027 112.416 135.926 112.358 135.867 112.256L133.25 107.988L133.773 107.698L131.461 109.019L132.116 110.093Z" fill="white"/>
<g filter="url(#filter2_d_4160:978)">
<path d="M109.928 56.0209C111.621 56.9798 113.735 56.234 115.247 55.008C115.567 54.7612 115.901 54.5289 116.25 54.3256L166.507 25.0264C168.34 23.9665 170.637 25.3023 170.637 27.4221C170.637 21.4693 161.854 18.58 158.131 20.6998L107.888 49.999C105.753 51.217 106.532 54.0982 108.671 55.3092L109.928 56.0209Z" fill="#1B55A3"/>
</g>
<g filter="url(#filter3_d_4160:978)">
<path d="M112.105 115.842V61.4835C112.105 61.1496 112.135 60.8302 112.164 60.5107C112.382 58.9153 111.932 57.156 110.531 56.3625L108.481 55.2017C106.45 54.0521 103.729 54.8237 103.729 57.1569V111.516C103.729 117.062 110.011 121.781 116.221 118.238C114.389 119.283 112.105 117.962 112.105 115.842Z" fill="#1B55A3"/>
</g>
<path d="M190.675 302.503C190.675 302.535 190.675 302.583 190.691 302.615C190.707 302.663 190.723 302.712 190.755 302.744L193.123 305.461C193.09 305.413 193.09 305.332 193.09 305.284C193.171 305.702 193.799 305.686 194.814 305.107L214.687 293.949C216.184 293.113 217.875 291.489 218.504 290.331L235.8 258.19C236.09 257.66 236.074 257.338 235.88 257.193C235.896 257.209 235.945 257.193 235.961 257.209L233.593 254.492C233.529 254.412 233.432 254.38 233.288 254.364C233.239 254.364 233.191 254.364 233.143 254.364C233.11 254.364 233.062 254.38 233.03 254.38C233.014 254.38 233.014 254.38 232.998 254.38C232.982 254.38 232.949 254.396 232.917 254.396C232.885 254.412 232.853 254.412 232.804 254.428C232.772 254.444 232.74 254.444 232.692 254.46C232.659 254.476 232.627 254.476 232.595 254.492C232.563 254.508 232.531 254.524 232.482 254.54C232.45 254.556 232.418 254.573 232.386 254.589C232.353 254.605 232.321 254.621 232.273 254.637C232.241 254.653 232.208 254.669 232.16 254.685C232.128 254.701 232.08 254.717 232.047 254.749C232.015 254.765 231.967 254.798 231.935 254.814C231.919 254.83 231.903 254.83 231.886 254.846L212.013 266.004C211.997 266.02 211.965 266.037 211.949 266.037C211.917 266.053 211.868 266.085 211.836 266.101C211.804 266.117 211.772 266.149 211.723 266.165C211.691 266.181 211.659 266.213 211.627 266.229C211.595 266.246 211.562 266.278 211.53 266.294C211.498 266.31 211.482 266.326 211.45 266.342C211.417 266.358 211.401 266.374 211.369 266.406C211.353 266.422 211.321 266.438 211.305 266.455C211.289 266.471 211.273 266.487 211.24 266.503C211.224 266.519 211.208 266.535 211.176 266.551C211.16 266.567 211.144 266.583 211.112 266.599C211.095 266.615 211.079 266.615 211.063 266.631C211.047 266.647 211.031 266.647 211.015 266.664C210.999 266.68 210.983 266.68 210.967 266.696C210.95 266.712 210.934 266.712 210.918 266.728C210.902 266.744 210.886 266.744 210.87 266.76C210.854 266.776 210.838 266.776 210.838 266.792C210.822 266.808 210.822 266.808 210.806 266.824C210.789 266.84 210.789 266.84 210.773 266.857C210.757 266.873 210.757 266.873 210.741 266.889C210.725 266.905 210.725 266.905 210.709 266.921C210.693 266.937 210.693 266.937 210.677 266.953C210.661 266.969 210.661 266.969 210.644 266.985C210.628 267.001 210.612 267.001 210.612 267.017C210.596 267.033 210.596 267.033 210.58 267.049C210.564 267.066 210.564 267.066 210.548 267.082C210.532 267.098 210.532 267.098 210.516 267.114C210.5 267.13 210.483 267.13 210.483 267.146C210.467 267.162 210.467 267.162 210.451 267.178C210.435 267.194 210.419 267.21 210.403 267.226C210.387 267.242 210.371 267.258 210.355 267.275C210.338 267.291 210.322 267.307 210.306 267.323C210.29 267.339 210.274 267.355 210.258 267.371C210.177 267.451 210.097 267.516 210 267.596C209.984 267.612 209.952 267.644 209.936 267.66C209.92 267.677 209.888 267.709 209.871 267.725C209.855 267.741 209.839 267.757 209.807 267.773C209.791 267.789 209.775 267.789 209.775 267.805C209.759 267.821 209.743 267.821 209.743 267.837C209.727 267.853 209.727 267.853 209.71 267.869C209.694 267.886 209.694 267.886 209.678 267.902C209.662 267.918 209.662 267.918 209.646 267.934C209.63 267.95 209.63 267.95 209.614 267.966C209.598 267.982 209.598 267.982 209.582 267.998C209.565 268.014 209.565 268.014 209.549 268.03C209.533 268.046 209.533 268.046 209.517 268.062C209.501 268.078 209.501 268.078 209.485 268.095C209.469 268.111 209.469 268.111 209.453 268.127C209.437 268.143 209.437 268.143 209.421 268.159C209.404 268.175 209.388 268.191 209.388 268.191C209.372 268.207 209.372 268.223 209.356 268.223C209.34 268.239 209.34 268.255 209.324 268.255C209.308 268.271 209.308 268.287 209.292 268.287C209.276 268.304 209.259 268.32 209.259 268.336C209.243 268.352 209.227 268.368 209.211 268.384C209.195 268.4 209.179 268.416 209.163 268.432C209.147 268.448 209.131 268.464 209.115 268.48C209.098 268.497 209.082 268.513 209.066 268.545C209.05 268.577 209.018 268.593 209.002 268.625C208.986 268.657 208.954 268.673 208.937 268.706C208.921 268.738 208.889 268.77 208.873 268.786C208.841 268.818 208.825 268.85 208.792 268.882C208.76 268.915 208.744 268.947 208.712 268.979C208.68 269.011 208.664 269.043 208.631 269.091C208.599 269.124 208.583 269.156 208.551 269.188C208.535 269.22 208.503 269.252 208.486 269.284C208.47 269.317 208.438 269.349 208.422 269.381C208.406 269.413 208.374 269.445 208.358 269.477C208.342 269.509 208.325 269.542 208.293 269.574C208.277 269.606 208.261 269.638 208.245 269.67L190.949 301.811C190.932 301.843 190.916 301.875 190.9 301.908C190.884 301.94 190.868 301.972 190.852 301.988C190.836 302.02 190.82 302.052 190.82 302.068C190.804 302.101 190.804 302.133 190.788 302.149C190.771 302.181 190.771 302.213 190.755 302.229C190.739 302.261 190.739 302.293 190.739 302.326C190.739 302.342 190.739 302.358 190.739 302.374C190.739 302.374 190.739 302.374 190.739 302.39C190.739 302.406 190.739 302.406 190.739 302.422C190.675 302.438 190.675 302.47 190.675 302.503ZM235.284 257.129C235.301 257.129 235.333 257.097 235.349 257.097C235.413 257.081 235.429 257.129 235.494 257.113C235.429 257.129 235.365 257.113 235.284 257.129ZM212.158 270.41C212.335 270.249 212.529 270.104 212.706 269.944C212.529 270.088 212.335 270.233 212.158 270.41ZM211.224 271.407C211.289 271.326 211.385 271.23 211.466 271.149C211.385 271.23 211.289 271.31 211.224 271.407ZM193.042 305.075C193.042 305.075 193.058 305.075 193.042 305.075C193.058 304.914 193.139 304.705 193.268 304.48C193.123 304.753 193.074 304.946 193.058 305.123C193.058 305.107 193.042 305.107 193.042 305.075Z" fill="#EEEEEE"/>
<path d="M190.675 302.407C190.675 302.391 190.675 302.391 190.675 302.374C190.675 302.374 190.675 302.374 190.675 302.358C190.675 302.342 190.675 302.326 190.675 302.31C190.675 302.278 190.691 302.246 190.691 302.214C190.691 302.181 190.707 302.149 190.724 302.133C190.74 302.101 190.74 302.069 190.756 302.053C190.772 302.021 190.772 301.989 190.788 301.972C190.804 301.94 190.82 301.908 190.836 301.892C190.852 301.86 190.869 301.828 190.885 301.796L208.181 269.655L210.548 272.356L193.252 304.497C193.123 304.722 193.059 304.931 193.027 305.092C193.01 305.252 193.027 305.365 193.107 305.445L190.74 302.728C190.707 302.696 190.691 302.648 190.675 302.6C190.659 302.567 190.659 302.535 190.659 302.487C190.675 302.471 190.675 302.439 190.675 302.407Z" fill="#C7C7C7"/>
<path d="M208.245 269.558C208.261 269.526 208.278 269.494 208.31 269.462C208.326 269.43 208.358 269.398 208.374 269.365C208.39 269.333 208.422 269.301 208.439 269.269C208.455 269.237 208.487 269.205 208.503 269.173C208.519 269.14 208.551 269.108 208.584 269.076C208.616 269.044 208.632 269.012 208.664 268.964C208.696 268.931 208.712 268.899 208.745 268.867C208.777 268.835 208.793 268.803 208.825 268.771C208.841 268.738 208.873 268.706 208.89 268.69C208.906 268.658 208.938 268.642 208.954 268.61C208.97 268.578 209.002 268.562 209.018 268.529C209.034 268.513 209.051 268.497 209.067 268.465C209.083 268.449 209.099 268.433 209.115 268.417C209.131 268.401 209.147 268.385 209.163 268.369C209.179 268.353 209.195 268.336 209.212 268.32C209.228 268.304 209.244 268.288 209.244 268.272C209.26 268.256 209.26 268.24 209.276 268.24C209.292 268.224 209.292 268.208 209.308 268.208C209.324 268.192 209.34 268.176 209.34 268.176C209.357 268.16 209.357 268.143 209.373 268.143C209.389 268.127 209.389 268.127 209.405 268.111C209.421 268.095 209.421 268.095 209.437 268.079C209.453 268.063 209.453 268.063 209.469 268.047C209.485 268.031 209.485 268.031 209.501 268.015C209.518 267.999 209.518 267.999 209.534 267.983C209.55 267.967 209.55 267.967 209.566 267.951C209.582 267.934 209.582 267.934 209.598 267.918C209.614 267.902 209.614 267.902 209.63 267.886C209.646 267.87 209.646 267.87 209.663 267.854C209.679 267.838 209.679 267.838 209.695 267.822C209.711 267.806 209.727 267.806 209.727 267.79C209.743 267.774 209.759 267.774 209.759 267.758C209.775 267.742 209.791 267.725 209.824 267.709C209.84 267.693 209.872 267.661 209.888 267.645C209.904 267.629 209.936 267.597 209.952 267.581C210.033 267.5 210.113 267.436 210.21 267.356C210.226 267.34 210.242 267.323 210.258 267.307C210.274 267.291 210.291 267.275 210.307 267.259C210.323 267.243 210.339 267.227 210.355 267.211C210.371 267.195 210.387 267.179 210.403 267.163C210.419 267.147 210.419 267.147 210.436 267.131C210.452 267.114 210.452 267.114 210.468 267.098C210.484 267.082 210.484 267.082 210.5 267.066C210.516 267.05 210.516 267.05 210.532 267.034C210.548 267.018 210.548 267.018 210.564 267.002C210.58 266.986 210.597 266.986 210.597 266.97C210.613 266.954 210.613 266.954 210.629 266.938C210.645 266.922 210.645 266.922 210.661 266.905C210.677 266.889 210.677 266.889 210.693 266.873C210.709 266.857 210.709 266.857 210.725 266.841C210.742 266.825 210.742 266.825 210.758 266.809C210.774 266.793 210.774 266.793 210.79 266.777C210.806 266.761 210.822 266.761 210.822 266.745C210.838 266.729 210.854 266.729 210.87 266.713C210.886 266.696 210.903 266.696 210.919 266.68C210.935 266.664 210.951 266.664 210.967 266.648C210.983 266.632 210.999 266.632 211.015 266.616C211.031 266.6 211.048 266.6 211.064 266.584C211.08 266.568 211.096 266.552 211.128 266.536C211.144 266.52 211.16 266.503 211.192 266.487C211.209 266.471 211.225 266.455 211.257 266.439C211.273 266.423 211.305 266.407 211.321 266.391C211.353 266.375 211.37 266.359 211.402 266.327C211.434 266.311 211.45 266.294 211.482 266.278C211.515 266.262 211.547 266.23 211.579 266.214C211.611 266.198 211.643 266.166 211.676 266.15C211.708 266.134 211.74 266.102 211.788 266.085C211.821 266.069 211.869 266.037 211.901 266.021C211.917 266.005 211.949 265.989 211.965 265.989L231.839 254.831C231.855 254.814 231.871 254.814 231.887 254.798C231.919 254.782 231.967 254.75 232 254.734C232.032 254.718 232.08 254.702 232.112 254.67C232.144 254.654 232.193 254.638 232.225 254.621C232.257 254.605 232.289 254.589 232.338 254.573C232.37 254.557 232.402 254.541 232.434 254.525C232.467 254.509 232.499 254.493 232.547 254.477C232.579 254.461 232.612 254.445 232.644 254.445C232.676 254.429 232.724 254.412 232.756 254.412C232.789 254.396 232.837 254.396 232.869 254.38C232.901 254.38 232.918 254.364 232.95 254.364C232.966 254.364 232.966 254.364 232.982 254.364C233.03 254.364 233.062 254.348 233.095 254.348C233.143 254.348 233.191 254.348 233.24 254.348C233.368 254.348 233.481 254.396 233.546 254.477L235.913 257.194C235.816 257.081 235.607 257.049 235.317 257.098C235.027 257.162 234.657 257.307 234.222 257.548L214.349 268.706C213.979 268.915 213.592 269.173 213.222 269.462C212.851 269.751 212.481 270.073 212.127 270.394C211.788 270.716 211.466 271.054 211.192 271.391C210.919 271.729 210.693 272.051 210.532 272.34L208.165 269.639C208.213 269.607 208.229 269.591 208.245 269.558Z" fill="#C7C7C7"/>
<path d="M122.134 203.669C124.953 198.845 129.269 195.437 134.857 195.019L138.207 200.115C141.685 206.466 143.473 213.621 143.392 220.857L142.796 274.478H142.78C144.101 275.009 145.405 275.572 146.726 276.118C157.597 280.62 169.659 284.64 181.286 286.537C187.116 281.617 195.442 279.077 203.076 279.157L200.145 284.608C205.701 288.161 218.246 281.762 218.246 281.762C219.164 289.576 214.091 297.696 207.376 301.796C200.644 305.896 136.435 299.866 122.811 291.071C113.856 285.283 115.966 229.989 115.966 229.989C115.338 220.808 117.496 211.628 122.134 203.669Z" fill="#FFC4BC"/>
<path d="M231.806 265.587C232 267.275 232.724 270.298 232.531 272.002C231.951 277.083 229.906 282.051 226.331 285.717C225.558 286.505 224.704 287.245 223.674 287.598C222.643 287.952 221.387 287.856 220.581 287.1C219.728 286.312 219.567 285.026 219.502 283.868C219.406 282.132 219.374 280.363 219.792 278.675C220.211 276.987 221.097 275.363 222.53 274.366C223.577 273.642 224.817 273.288 226.009 272.838C227.2 272.372 228.167 271.6 229.117 270.603L231.806 265.587Z" fill="#FFC4BC"/>
<path d="M134.857 195.019C119.412 196.482 110.861 207.158 114.645 254.38C125.613 261.487 144.986 255.425 144.986 255.425C148.272 203.701 139.881 198.025 134.857 195.019Z" fill="#455A64"/>
<path d="M134.857 195.019C119.412 196.482 110.861 207.158 114.645 254.38C125.613 261.487 144.986 255.425 144.986 255.425C148.272 203.701 139.881 198.025 134.857 195.019Z" fill="#19437F"/>
<defs>
<filter id="filter0_f_4160:978" x="36.1926" y="315.094" width="311.81" height="213.927" filterUnits="userSpaceOnUse" color-interpolation-filters="sRGB">
<feFlood flood-opacity="0" result="BackgroundImageFix"/>
<feBlend mode="normal" in="SourceGraphic" in2="BackgroundImageFix" result="shape"/>
<feGaussianBlur stdDeviation="5" result="effect1_foregroundBlur_4160:978"/>
</filter>
<filter id="filter1_d_4160:978" x="0" y="185.242" width="314.666" height="299.136" filterUnits="userSpaceOnUse" color-interpolation-filters="sRGB">
<feFlood flood-opacity="0" result="BackgroundImageFix"/>
<feColorMatrix in="SourceAlpha" type="matrix" values="0 0 0 0 0 0 0 0 0 0 0 0 0 0 0 0 0 0 127 0" result="hardAlpha"/>
<feOffset dx="4" dy="14"/>
<feGaussianBlur stdDeviation="17"/>
<feComposite in2="hardAlpha" operator="out"/>
<feColorMatrix type="matrix" values="0 0 0 0 0.0470588 0 0 0 0 0.305883 0 0 0 0 0.72549 0 0 0 0.18 0"/>
<feBlend mode="normal" in2="BackgroundImageFix" result="effect1_dropShadow_4160:978"/>
<feBlend mode="normal" in="SourceGraphic" in2="effect1_dropShadow_4160:978" result="shape"/>
</filter>
<filter id="filter2_d_4160:978" x="76.6245" y="0.00732422" width="132.013" height="104.451" filterUnits="userSpaceOnUse" color-interpolation-filters="sRGB">
<feFlood flood-opacity="0" result="BackgroundImageFix"/>
<feColorMatrix in="SourceAlpha" type="matrix" values="0 0 0 0 0 0 0 0 0 0 0 0 0 0 0 0 0 0 127 0" result="hardAlpha"/>
<feOffset dx="4" dy="14"/>
<feGaussianBlur stdDeviation="17"/>
<feComposite in2="hardAlpha" operator="out"/>
<feColorMatrix type="matrix" values="0 0 0 0 0.0470588 0 0 0 0 0.305883 0 0 0 0 0.72549 0 0 0 0.18 0"/>
<feBlend mode="normal" in2="BackgroundImageFix" result="effect1_dropShadow_4160:978"/>
<feBlend mode="normal" in="SourceGraphic" in2="effect1_dropShadow_4160:978" result="shape"/>
</filter>
<filter id="filter3_d_4160:978" x="73.7292" y="34.6758" width="80.4917" height="132.788" filterUnits="userSpaceOnUse" color-interpolation-filters="sRGB">
<feFlood flood-opacity="0" result="BackgroundImageFix"/>
<feColorMatrix in="SourceAlpha" type="matrix" values="0 0 0 0 0 0 0 0 0 0 0 0 0 0 0 0 0 0 127 0" result="hardAlpha"/>
<feOffset dx="4" dy="14"/>
<feGaussianBlur stdDeviation="17"/>
<feComposite in2="hardAlpha" operator="out"/>
<feColorMatrix type="matrix" values="0 0 0 0 0.0470588 0 0 0 0 0.305883 0 0 0 0 0.72549 0 0 0 0.18 0"/>
<feBlend mode="normal" in2="BackgroundImageFix" result="effect1_dropShadow_4160:978"/>
<feBlend mode="normal" in="SourceGraphic" in2="effect1_dropShadow_4160:978" result="shape"/>
</filter>
</defs>
</svg>
