<svg width="470" height="382" viewBox="0 0 470 382" fill="none" xmlns="http://www.w3.org/2000/svg">
<path d="M465.107 242.101C464.836 242.297 464.549 242.47 464.248 242.65L352.535 306.985L332.512 318.512L226.167 379.741C223.627 381.199 220.679 381.621 217.912 380.981C216.804 380.733 215.718 380.32 214.708 379.733L107.663 317.76L106.622 317.151C106.336 316.985 106.064 316.805 105.8 316.624C102.544 314.376 100.93 310.834 100.93 307.3C100.93 303.428 102.853 299.563 106.705 297.375L107.715 296.796L153.944 270.486C154.261 270.313 154.562 270.118 154.856 269.9C161.551 265.253 161.347 255.057 154.133 250.778L92.562 214.175L90.2098 212.776C89.961 212.633 89.7198 212.475 89.4936 212.317C86.5007 210.242 84.8949 207.099 84.6612 203.851C84.6084 203.257 84.6084 202.655 84.6612 202.061C84.6687 201.918 84.6838 201.768 84.6989 201.633C85.0984 198.234 87.0058 194.993 90.4058 193.061L246.945 104.161C250.473 102.153 254.808 102.176 258.329 104.198L464.255 222.889C471.568 227.1 471.862 237.409 465.107 242.101Z" fill="#F2F2F2"/>
<path d="M127.071 252.949L99.0091 234.466L32.8265 227.601C34.8625 229.713 32.4806 227.84 32.2967 227.94L4.99958 242.632L4.41284 242.967C2.17538 244.232 1.05884 246.468 1.05884 248.708C1.05884 250.753 1.99586 252.801 3.88741 254.102C4.04066 254.206 4.19829 254.311 4.36468 254.406L4.96892 254.759L62.9049 288.496C63.4916 288.836 64.1222 289.075 64.7658 289.218C66.3728 289.588 68.0848 289.345 69.5604 288.501L127.071 252.949Z" fill="#F2F2F2"/>
<path d="M469.797 206.031L470 190.639L258.321 81.2572C254.801 79.227 250.466 79.2119 246.937 81.2196L92.5095 168.931L84.6539 159.976L84.6162 179.022L84.6615 178.985V178.992C84.292 183.12 86.124 187.421 90.2026 189.842L154.125 227.837C154.382 227.988 154.615 228.138 154.849 228.296C161.634 233.04 161.302 243.372 153.937 247.56L124.95 264.057L111.915 271.479L112.36 270.998L100.931 265.696L100.961 283.517C100.667 287.615 102.551 291.856 106.63 294.224L208.79 353.363L214.708 356.792C215.817 357.439 217.015 357.875 218.237 358.123C220.905 358.649 223.733 358.213 226.168 356.815L332.505 295.578L352.528 284.043L461.519 222.671C464.112 221.198 466.261 219.145 467.829 216.739C469.864 213.618 469.955 209.896 469.797 206.031Z" fill="#D6EDFF"/>
<path d="M332.505 276.908V295.578L352.536 284.051V265.381L332.505 276.908Z" fill="#EFF8FF"/>
<path d="M356.667 262.997V281.667L364.108 277.381V258.711L356.667 262.997Z" fill="#EFF8FF"/>
<path d="M218.237 339.678V358.13L208.791 353.371L106.623 294.224C102.544 291.856 100.659 287.615 100.953 283.517L100.923 265.696C100.923 261.824 102.846 257.959 106.698 255.771L107.708 255.192C113.159 258.064 119.462 261.343 124.95 264.05C131.094 267.087 136.221 269.433 137.977 269.757C143.255 270.697 212.583 334.482 217.905 339.377C218.124 339.58 218.237 339.678 218.237 339.678Z" fill="#BBE0FD"/>
<path d="M465.093 200.497C464.821 200.693 464.535 200.866 464.233 201.046L352.521 265.381L332.497 276.908L226.161 338.144C223.62 339.603 220.672 340.024 217.905 339.385C216.797 339.137 215.712 338.723 214.701 338.137L107.656 276.163L106.615 275.554C106.329 275.389 106.057 275.208 105.794 275.028C102.537 272.78 100.923 269.238 100.923 265.704C100.923 261.832 102.846 257.967 106.698 255.779L107.708 255.2L153.937 228.89C154.254 228.717 154.556 228.521 154.85 228.303C161.544 223.656 161.341 213.46 154.126 209.182L92.5552 172.578L90.203 171.18C89.9542 171.037 89.713 170.879 89.4868 170.721C86.4938 168.646 84.888 165.503 84.6543 162.254C84.6016 161.66 84.6016 161.059 84.6543 160.465C84.6619 160.322 84.6769 160.172 84.692 160.036C85.0916 156.638 86.9989 153.397 90.399 151.464L246.938 62.5644C250.466 60.5568 254.801 60.5794 258.322 62.602L464.256 181.308C471.553 185.504 471.847 195.805 465.093 200.497Z" fill="#EFF8FF"/>
<g clip-path="url(#clip0_3843:552)">
<path opacity="0.33" d="M105.008 157.634L139.551 137.46C140.516 136.896 141.7 136.888 142.673 137.437L178.264 157.649C180.36 158.837 180.367 161.845 178.279 163.048L143.246 183.222C142.281 183.778 141.089 183.778 140.124 183.222L105.023 163.01C102.95 161.815 102.942 158.837 105.008 157.634Z" fill="#6A99DC"/>
<path d="M169.413 144.535L141.972 160.333L141.677 176.304L169.119 160.747L169.413 144.535Z" fill="#A9D1EA"/>
<path d="M114.53 144.535L141.587 128.73L169.413 144.535L141.972 160.333L114.53 144.535Z" fill="#BBE0FD"/>
<path d="M126.404 144.535L141.466 135.738L156.951 144.535L141.677 153.333L126.404 144.535Z" fill="#15325C"/>
<path d="M114.53 160.747V144.535L141.972 160.333L141.678 176.304L114.53 160.747Z" fill="#77B8E0"/>
<path d="M144.731 120.541H137.177V143.52H144.731V120.541Z" fill="#15325C"/>
<path d="M140.954 131.85L154.17 117.91L155.685 120.541L141.708 135.617" fill="#15325C"/>
<path d="M168.524 116.21C168.524 117.391 168.343 118.526 168.011 119.601C166.564 124.293 162.176 127.7 156.997 127.7C150.634 127.7 145.477 122.557 145.477 116.21C145.477 112.571 147.173 109.33 149.819 107.225C151.787 105.653 154.283 104.713 156.997 104.713C163.367 104.721 168.524 109.864 168.524 116.21Z" fill="#77B8E0"/>
<path opacity="0.24" d="M168.019 119.602C167.4 121.602 166.247 123.376 164.724 124.745C162.681 126.587 159.974 127.7 157.004 127.7C150.641 127.7 145.485 122.557 145.485 116.21C145.485 115.827 145.507 115.451 145.545 115.075C145.862 111.902 147.467 109.105 149.835 107.225C149.571 119.361 159.575 120.459 168.019 119.602Z" fill="#77B8E0"/>
<path opacity="0.24" d="M164.724 124.745C162.681 126.587 159.974 127.7 157.004 127.7C150.641 127.7 145.485 122.557 145.485 116.21C145.485 115.827 145.507 115.451 145.545 115.075C147.694 123.105 156.559 125.722 164.724 124.745Z" fill="#77B8E0"/>
<path d="M159.463 104.909C159.463 106.781 159.184 108.593 158.648 110.3C156.341 117.759 149.375 123.181 141.143 123.181C131.026 123.181 122.823 115 122.823 104.909C122.823 99.1265 125.522 93.9683 129.729 90.6298C132.858 88.1259 136.823 86.6371 141.143 86.6371C151.253 86.6371 159.463 94.818 159.463 104.909Z" fill="#77B8E0"/>
<path opacity="0.24" d="M158.648 110.3C157.66 113.481 155.828 116.301 153.408 118.481C150.159 121.406 145.854 123.181 141.135 123.181C131.017 123.181 122.815 115 122.815 104.909C122.815 104.3 122.845 103.698 122.905 103.104C123.403 98.0588 125.959 93.615 129.721 90.6223C129.314 109.917 145.228 111.669 158.648 110.3Z" fill="#77B8E0"/>
<path opacity="0.24" d="M153.408 118.481C150.159 121.406 145.854 123.181 141.135 123.181C131.017 123.181 122.815 115 122.815 104.909C122.815 104.3 122.845 103.698 122.905 103.104C126.336 115.864 140.433 120.038 153.408 118.481Z" fill="#77B8E0"/>
</g>
<g clip-path="url(#clip1_3843:552)">
<path opacity="0.33" d="M439.06 192.827L394.959 167.341C394.092 166.842 393.018 166.836 392.15 167.336L297.11 221.543C295.236 222.609 295.236 225.29 297.105 226.361L338.609 250.137C341.329 251.697 344.681 251.697 347.4 250.137L439.049 197.634C440.135 197.012 440.588 195.852 440.415 194.775C440.291 194.004 439.844 193.277 439.06 192.827Z" fill="#6A99DC"/>
<path d="M440.213 185.812L393.555 161.391L297.989 212.974C296.707 213.668 295.89 214.978 295.84 216.426L295.789 217.936C295.761 218.691 295.946 219.423 296.299 220.061C296.657 220.711 297.194 221.266 297.865 221.654L340.013 245.797C341.866 246.857 344.149 246.857 346.001 245.797L438.512 192.799C439.06 192.483 439.502 192.039 439.81 191.512C440.129 190.968 440.297 190.335 440.286 189.686L440.213 185.812Z" fill="#A9D1EA"/>
<path d="M439.06 184.685L394.959 159.199C394.091 158.7 393.017 158.694 392.15 159.194L297.11 213.401C295.235 214.467 295.235 217.148 297.104 218.219L338.608 241.995C341.328 243.555 344.68 243.555 347.399 241.995L439.048 189.492C440.134 188.87 440.587 187.71 440.414 186.633C440.291 185.862 439.843 185.135 439.06 184.685Z" fill="#D6EFFB"/>
<path d="M432.076 189.097L390.057 164.816L304.922 213.379L347.305 237.661L432.076 189.097Z" fill="#77B8E0"/>
<path d="M404.192 190.185L394.494 195.719L387.158 191.534L396.856 186.006L404.192 190.185Z" fill="#D6EDFF"/>
<path d="M413.084 195.264L403.392 200.792L396.056 196.607L405.754 191.079L413.084 195.264Z" fill="#D6EDFF"/>
<path d="M392.939 196.607L383.241 202.135L375.905 197.95L385.603 192.422L392.939 196.607Z" fill="#D6EDFF"/>
<path d="M384.042 191.534L374.35 197.062L367.008 192.877L376.705 187.349L384.042 191.534Z" fill="#D6EDFF"/>
<path d="M351.037 222.287L360.735 216.754L368.071 220.938L358.374 226.472L351.037 222.287Z" fill="#D6EDFF"/>
<path d="M362.291 215.866L394.495 197.495L401.831 201.68L369.627 220.05L362.291 215.866Z" fill="#D6EDFF"/>
<path d="M398.417 185.113L407.998 179.646L415.289 183.858L405.754 189.297L398.417 185.113Z" fill="#D6EDFF"/>
<path d="M342.14 217.214L351.837 211.681L359.174 215.866L349.476 221.399L342.14 217.214Z" fill="#D6EDFF"/>
<path d="M389.52 180.04L399.162 174.54L406.447 178.752L396.856 184.225L389.52 180.04Z" fill="#D6EDFF"/>
<path d="M372.788 197.955L363.096 203.483L355.76 199.299L365.452 193.771L372.788 197.955Z" fill="#D6EDFF"/>
<path d="M381.68 203.028L371.988 208.556L364.652 204.371L374.344 198.844L381.68 203.028Z" fill="#D6EDFF"/>
<path d="M344.501 205.72L354.199 200.187L361.53 204.371L351.838 209.905L344.501 205.72Z" fill="#D6EDFF"/>
<path d="M353.399 210.793L363.091 205.265L370.427 209.45L360.735 214.978L353.399 210.793Z" fill="#D6EDFF"/>
<path d="M330.886 223.63L340.584 218.102L347.92 222.287L338.223 227.815L330.886 223.63Z" fill="#D6EDFF"/>
<path d="M339.784 228.708L349.476 223.175L356.812 227.36L347.12 232.888L339.784 228.708Z" fill="#D6EDFF"/>
<path d="M321.995 218.557L331.687 213.029L339.023 217.214L329.325 222.742L321.995 218.557Z" fill="#D6EDFF"/>
<path d="M313.097 213.484L322.789 207.951L330.126 212.136L320.434 217.669L313.097 213.484Z" fill="#D6EDFF"/>
<path d="M414.645 194.37L407.309 190.185L416.839 184.752L424.125 188.964L414.645 194.37Z" fill="#D6EDFF"/>
<path d="M387.959 179.152L380.623 174.967L390.32 169.434L390.908 169.772L397.612 173.646L387.959 179.152Z" fill="#D6EDFF"/>
<path d="M324.351 207.063L334.048 201.535L341.384 205.72L331.687 211.248L324.351 207.063Z" fill="#D6EDFF"/>
<path d="M352.638 199.299L342.94 204.826L335.604 200.642L345.302 195.114L352.638 199.299Z" fill="#D6EDFF"/>
<path d="M333.248 212.136L342.94 206.608L350.276 210.793L340.584 216.321L333.248 212.136Z" fill="#D6EDFF"/>
<path d="M363.891 192.877L354.199 198.411L346.863 194.226L356.555 188.692L363.891 192.877Z" fill="#D6EDFF"/>
<path d="M386.398 180.04L376.706 185.568L369.369 181.383L379.061 175.855L386.398 180.04Z" fill="#D6EDFF"/>
<path d="M375.144 186.461L365.452 191.989L358.116 187.804L367.808 182.276L375.144 186.461Z" fill="#D6EDFF"/>
<path d="M395.295 185.113L385.603 190.646L378.267 186.461L387.959 180.928L395.295 185.113Z" fill="#D6EDFF"/>
</g>
<g clip-path="url(#clip2_3843:552)">
<path d="M273.135 127.579L271.585 130.158L298.701 146.399L300.252 143.82L273.135 127.579Z" fill="#5B95D3"/>
<path opacity="0.33" d="M334.157 159.142L334.005 159.23L309.808 173.178L309.656 173.09L285.464 159.142L292.834 154.833L309.469 145.111L326.68 154.894L334.008 159.056L334.157 159.142Z" fill="#6A99DC"/>
<path d="M309.808 156.198L309.656 164.668L309.555 170.376L285.464 156.56V150.723L292.834 146.411L309.808 156.198Z" fill="#2051BD"/>
<path d="M334.008 150.637L334.005 150.811L333.904 156.559L309.555 170.376L309.657 164.667L309.808 156.198L326.68 146.472L334.008 150.637Z" fill="#143786"/>
<path d="M334.157 150.722L334.005 150.811L309.808 164.756L309.656 164.667L285.464 150.722L292.834 146.411L309.469 136.689L326.68 146.472L334.008 150.637L334.157 150.722Z" fill="#3C6A9E"/>
<path d="M293.165 150.697L309.496 141.152L326.374 150.745L309.81 160.292L293.165 150.697Z" fill="#FFD152"/>
<path d="M295.365 150.691L309.503 142.429L324.149 150.752L309.811 159.018L295.365 150.691Z" fill="#407BFF"/>
<path d="M306.487 150.716L309.699 148.838L313.027 150.729L309.769 152.607L306.487 150.716Z" fill="#BBE0FD"/>
<path d="M309.503 143.534L323.185 151.308L324.149 150.752L309.503 142.429L295.365 150.691L296.319 151.24L309.503 143.534Z" fill="#183561"/>
<path d="M209.134 38.5653L257.022 65.8814L304.287 38.5653L256.399 10.0085L209.134 38.5653Z" fill="#407BFF"/>
<path opacity="0.33" d="M210.642 129.166L254.093 155.409C255.245 156.105 256.687 156.114 257.85 155.434L302.627 129.164C303.83 128.459 304.432 127.241 304.436 126.021C304.441 124.8 303.845 123.578 302.65 122.864L258.269 96.3997C257.103 95.7059 255.65 95.7082 254.489 96.411L210.642 122.902C208.285 124.326 208.285 127.74 210.642 129.166Z" fill="#6A99DC"/>
<path d="M256.399 65.8816V150.314L304.287 121.754V37.9463L256.399 65.8816Z" fill="#143786"/>
<path d="M261.995 140.465V69.0882L298.689 47.6836V118.586L261.995 140.465ZM263.24 69.8V138.278L297.446 117.881V49.8462L263.24 69.8Z" fill="#052754"/>
<path d="M209.134 37.9463V121.754L256.399 150.314V65.8816L209.134 37.9463Z" fill="#6192FF"/>
<path d="M214.187 118.329V50.6302C214.187 49.6902 214.64 48.9083 215.301 48.4224C216.138 47.8055 217.316 47.6609 218.341 48.2665L249.995 66.9752C250.833 67.4701 251.344 68.3672 251.344 69.3389V137.453C251.344 139.593 249.001 140.91 247.168 139.803L215.514 120.679C214.692 120.182 214.187 119.289 214.187 118.329Z" fill="#23477C"/>
<path d="M219.79 118.817C218.966 118.319 218.463 117.427 218.463 116.466V48.7659C218.463 48.6393 218.472 48.5173 218.488 48.3975L218.264 48.2642C217.239 47.6586 216.064 47.8032 215.224 48.4201C214.561 48.9082 214.11 49.6901 214.11 50.6279V118.326C214.11 119.287 214.613 120.179 215.437 120.676L247.091 139.801C248.818 140.845 250.994 139.735 251.243 137.817L219.79 118.817Z" fill="#052754"/>
<path d="M251.424 72.4665L220.329 54.0854V64.6409L251.424 83.0196V72.4665Z" fill="#407BFF"/>
<path d="M251.424 85.503L220.329 67.1243V77.6774L251.424 96.0561V85.503Z" fill="#407BFF"/>
<path d="M251.424 98.5396L220.329 80.1609V90.714L251.424 109.093V98.5396Z" fill="#407BFF"/>
<path d="M251.424 111.576L220.329 93.1975V103.751L251.424 122.132V111.576Z" fill="#407BFF"/>
<path d="M251.424 124.615L220.329 106.234V116.79L251.424 135.169V124.615Z" fill="#407BFF"/>
<path d="M225.667 59.0524V65.9831L246.086 78.0525V71.1218L225.667 59.0524Z" fill="#D6EFFB"/>
<path d="M225.667 79.0197L246.086 91.0892V84.1607L225.667 72.089V79.0197Z" fill="#D6EFFB"/>
<path d="M225.667 92.0587L246.086 104.128V97.1974L225.667 85.1279V92.0587Z" fill="#D6EFFB"/>
<path d="M225.667 105.095L246.086 117.165V110.234L225.667 98.1646V105.095Z" fill="#D6EFFB"/>
<path d="M225.667 118.132L246.086 130.201V123.271L225.667 111.201V118.132Z" fill="#D6EFFB"/>
<path d="M245.364 191.611L245.024 191.412L208.018 169.756L208.704 168.586L245.37 190.043L269.909 175.91L270.589 177.083L245.364 191.611Z" fill="#5B95D3"/>
<path opacity="0.33" d="M239.61 174.658L239.456 174.747L215.261 188.692L215.109 188.603L190.914 174.658L198.287 170.347L214.921 160.625L232.133 170.408L239.46 174.573L239.61 174.658Z" fill="#6A99DC"/>
<path d="M215.261 172.313L215.109 180.785L215.005 186.49L190.914 172.674V166.837L198.287 162.528L215.261 172.313Z" fill="#2051BD"/>
<path d="M239.461 166.751L239.456 166.925L239.354 172.674L215.005 186.49L215.109 180.784L215.261 172.313L232.133 162.589L239.461 166.751Z" fill="#143786"/>
<path d="M239.61 166.837L239.456 166.925L215.261 180.873L215.109 180.785L190.914 166.837L198.287 162.528L214.921 152.806L232.133 162.589L239.46 166.751L239.61 166.837Z" fill="#3C6A9E"/>
<path d="M198.617 166.814L214.948 157.269L231.824 166.862L215.261 176.409L198.617 166.814Z" fill="#FFD152"/>
<path d="M200.818 166.808L214.955 158.544L229.602 166.869L215.261 175.133L200.818 166.808Z" fill="#407BFF"/>
<path d="M211.94 166.833L215.152 164.955L218.478 166.846L215.22 168.724L211.94 166.833Z" fill="#BBE0FD"/>
<path d="M214.955 159.649L228.635 167.425L229.602 166.869L214.955 158.544L200.818 166.808L201.769 167.355L214.955 159.649Z" fill="#183561"/>
<path opacity="0.33" d="M296.798 180.197L296.644 180.285L272.449 194.23L272.298 194.142L248.103 180.197L255.476 175.885L272.11 166.163L289.321 175.946L296.649 180.111L296.798 180.197Z" fill="#6A99DC"/>
<path d="M272.449 177.851L272.298 186.323L272.193 192.029L248.103 178.213V172.376L255.476 168.066L272.449 177.851Z" fill="#2051BD"/>
<path d="M296.649 172.29L296.644 172.464L296.543 178.213L272.194 192.029L272.298 186.323L272.449 177.851L289.321 168.127L296.649 172.29Z" fill="#143786"/>
<path d="M296.798 172.376L296.644 172.464L272.449 186.411L272.298 186.323L248.103 172.376L255.476 168.066L272.11 158.345L289.321 168.127L296.649 172.29L296.798 172.376Z" fill="#3C6A9E"/>
<path d="M255.806 172.353L272.137 162.808L289.013 172.4L272.449 181.948L255.806 172.353Z" fill="#FFD152"/>
<path d="M258.007 172.346L272.144 164.082L286.79 172.407L272.449 180.671L258.007 172.346Z" fill="#407BFF"/>
<path d="M269.128 172.371L272.34 170.493L275.666 172.385L272.408 174.262L269.128 172.371Z" fill="#BBE0FD"/>
<path d="M272.144 165.187L285.824 172.963L286.79 172.407L272.144 164.082L258.007 172.346L258.957 172.893L272.144 165.187Z" fill="#183561"/>
<g clip-path="url(#clip3_3843:552)">
<path opacity="0.33" d="M173.574 131.317L177.977 133.978L181.776 131.813C182.493 132.046 183.262 132.226 184.061 132.362V134.911H189.398V132.452C190.424 132.317 191.396 132.106 192.293 131.813L196.296 134.099L200.699 131.437L196.688 129.174C197.45 128.309 197.88 127.331 197.88 126.294C197.88 125.226 197.42 124.218 196.613 123.339L200.458 121.143L196.055 118.602L192.233 120.76C191.434 120.504 190.582 120.308 189.677 120.181V117.677H184.355V120.181C183.465 120.316 182.613 120.504 181.822 120.76L178.21 118.714L173.808 121.256L177.449 123.331C176.642 124.211 176.182 125.219 176.182 126.286C176.182 127.324 176.612 128.301 177.381 129.166L173.574 131.317ZM183.548 126.286C183.548 125.166 185.109 124.256 187.039 124.256C188.969 124.256 190.529 125.166 190.529 126.286C190.529 127.407 188.969 128.316 187.039 128.316C185.109 128.316 183.548 127.407 183.548 126.286Z" fill="#6A99DC"/>
<path d="M173.574 127.181L177.374 125.031C176.612 124.166 176.175 123.188 176.175 122.151C176.175 121.617 176.235 118.737 176.235 118.737C176.235 118.737 177.034 119.639 177.441 119.196L173.808 117.12L178.21 114.579L181.822 116.624C183.367 116.135 185.146 115.85 187.031 115.85C188.923 115.85 190.695 116.128 192.24 116.624L196.07 114.458L200.473 117L196.628 119.196C197.028 119.632 197.925 118.504 197.925 118.504C197.925 118.504 197.895 121.609 197.895 122.151C197.895 123.188 197.465 124.166 196.703 125.031L200.714 127.294L196.311 129.956L192.308 127.67C190.748 128.174 188.961 128.459 187.046 128.459C185.139 128.459 183.352 128.174 181.791 127.67L177.992 129.835L173.574 127.181Z" fill="#E3BB4D"/>
<path d="M189.338 127.181H184.008V130.647H189.338V127.181Z" fill="#F4C030"/>
<path d="M177.977 126.256V129.835L173.574 127.181V123.594L177.977 126.256Z" fill="#F4C030"/>
<path d="M173.808 113.534V117.12L176.477 118.624L177.977 115.383L173.808 113.534Z" fill="#F4C030"/>
<path d="M196.304 126.369V129.956L200.707 127.294V123.707L196.304 126.369Z" fill="#F4C030"/>
<path d="M200.473 113.413V117L197.638 118.624L196.417 115.616L200.473 113.413Z" fill="#F4C030"/>
<path d="M173.574 123.594L177.977 126.256L181.776 124.091C182.493 124.324 183.262 124.504 184.061 124.639V127.188H189.398V124.73C190.424 124.594 191.396 124.384 192.293 124.091L196.296 126.376L200.699 123.715L196.688 121.451C197.45 120.587 197.88 119.609 197.88 118.571C197.88 117.504 197.42 116.496 196.613 115.616L200.458 113.421L196.055 110.879L192.248 113.03C191.449 112.774 190.597 112.579 189.692 112.451V109.947H184.355V112.451C183.465 112.586 182.613 112.774 181.822 113.03L178.21 110.985L173.808 113.534L177.449 115.609C176.642 116.489 176.182 117.496 176.182 118.564C176.182 119.602 176.612 120.579 177.381 121.444L173.574 123.594ZM183.548 118.564C183.548 117.444 185.109 116.534 187.039 116.534C188.969 116.534 190.529 117.444 190.529 118.564C190.529 119.684 188.969 120.594 187.039 120.594C185.109 120.594 183.548 119.684 183.548 118.564Z" fill="#FFD152"/>
</g>
</g>
<path opacity="0.33" d="M181.052 272.681C191.319 272.681 199.641 267.847 199.641 261.885C199.641 255.922 191.319 251.089 181.052 251.089C170.786 251.089 162.464 255.922 162.464 261.885C162.464 267.847 170.786 272.681 181.052 272.681Z" fill="#6A99DC"/>
<path d="M168.76 257.887C168.76 257.887 168.12 260.265 168.196 261.649C168.271 263.021 168.597 263.36 169.023 263.813C169.437 264.279 169.925 264.077 169.925 264.077C169.925 264.077 170.113 266.921 171.455 268.066C172.796 269.211 175.228 269.324 176.344 268.909C177.459 268.494 176.732 266.455 175.629 264.467C174.539 262.479 173.147 260.328 172.796 258.529C170.126 258.151 168.76 257.887 168.76 257.887Z" fill="#14365B"/>
<path d="M188.754 239.366C189.493 235.025 190.346 235.315 190.321 231.288C190.308 229.313 189.606 224.783 188.177 215.372C187.438 210.49 186.284 209.672 184.742 206.59C184.579 206.275 179.653 208.804 177.409 209.999C177.208 210.113 175.24 215.309 176.105 219.386C176.431 220.946 181.533 231.502 183.288 233.453C178.913 237.793 179.979 241.795 181.308 252.578C182.423 254.087 184.454 253.949 186.485 252.754C186.485 250.527 188.252 242.285 188.754 239.366Z" fill="#004DAA"/>
<path d="M180.117 219.209C182.875 215.824 182.298 213.257 180.982 209.231C180.906 209.004 169.461 207.469 169.311 207.721C164.961 215.358 167.431 227.89 170.59 235.364C169.11 238.988 167.945 239.302 166.841 244.084C165.889 248.211 168.647 252.828 168.885 257.987C170.452 259.069 172.696 259.547 173.473 257.609C176.168 251.155 178.236 244.662 176.406 237.755C177.233 235.565 179.891 224.694 180.117 219.209Z" fill="#0053CC"/>
<path d="M182.072 178.14C182.398 177.574 182.962 177.461 183.526 177.524C185.658 177.788 186.372 177.612 188.052 179.587C189.556 181.362 190.647 182.758 190.734 184.771C195.586 191.226 195.874 193.289 195.561 195.504C195.46 196.209 191.186 197.278 190.371 196.775C189.519 196.259 187.688 190.937 186.986 190.232C186.41 189.641 183.213 186.331 182.9 184.746C182.636 183.425 182.361 182.116 182.122 180.795C181.959 180.028 181.621 178.908 182.072 178.14Z" fill="#19437F"/>
<path d="M182.385 179.009C179.602 177.839 176.293 179.349 176.418 179.21C176.506 179.122 172.557 181.412 172.557 181.425C169.749 182.482 166.854 183.237 165.199 187.036C164.397 188.886 167.292 192.837 168.508 198.197C169.047 200.613 169.11 204.047 168.22 205.645C167.593 206.765 166.227 208.439 170.251 209.709C171.417 210.074 176.845 212.188 180.016 211.597C181.483 211.32 188.515 207.407 186.372 205.91C185.808 205.507 185.331 204.727 185.745 203.997C186.083 203.393 186.71 202.286 186.447 201.078C185.808 198.121 186.322 196.964 186.76 194.649C188.804 192.51 186.998 189.276 185.745 185.828C184.88 183.501 185.231 180.204 182.385 179.009Z" fill="white"/>
<path d="M181.721 178.393C181.721 178.355 181.721 178.305 181.721 178.267C180.066 178.519 177.898 177.575 176.469 176.568C175.704 178.443 175.516 179.16 174.35 181.06C174.977 181.085 176.193 182.809 177.221 184.608C177.647 185.376 179.515 187.351 180.693 186.898C182.498 186.194 181.596 184.734 181.646 182.696C181.684 181.262 181.709 179.827 181.721 178.393Z" fill="#ECB5AD"/>
<path d="M183.025 193.189C182.724 191.541 182.248 190.006 181.91 189.024C181.834 188.81 182.461 186.898 182.461 186.898L180.681 186.193L179.641 187.451C179.641 187.451 180.23 188.848 180.919 189.213C180.882 191.037 180.819 194.384 180.781 197.416C180.719 202.261 180.781 205.733 180.781 205.733C180.781 205.733 181.922 207.344 183.063 208.099C183.865 206.664 184.178 204.827 184.178 204.827C184.178 204.827 183.539 195.969 183.025 193.189Z" fill="#4688E8"/>
<path d="M172.958 181.098C172.958 181.098 175.929 182.381 177.183 183.425C178.85 184.809 179.653 185.187 180.48 185.992C180.555 185.791 180.781 182.029 180.781 182.029C180.781 182.029 182.172 182.205 182.16 182.23C182.147 182.255 182.962 182.997 183.275 184.495C183.589 185.992 183.025 187.804 183.025 187.804L180.706 186.382L179.126 189.213C179.126 189.213 176.03 186.558 174.626 184.935C173.209 183.325 172.958 181.098 172.958 181.098Z" fill="white"/>
<path d="M181.91 178.996C181.91 178.996 184.605 178.82 185.884 181.764C187.162 184.708 188.14 188.533 188.178 193.088C188.215 196.41 187.488 200.751 188.04 203.116C188.516 205.154 191.211 212.641 191.211 212.641C191.211 212.641 191.011 215.698 190.02 216.919C188.742 218.479 187.35 218.353 187.35 218.353C187.35 218.353 185.683 209.067 185.52 207.608C185.357 206.148 184.805 198.41 184.956 196.12C185.106 193.83 183.803 186.18 183.276 184.482C182.762 182.783 179.653 179.31 179.653 179.31L181.91 178.996Z" fill="#77B3FC"/>
<path d="M181.383 181.412C181.383 181.412 182.298 182.583 183.038 184.357C183.778 186.131 184.003 190.031 184.216 192.309C184.429 194.586 184.918 196.876 184.918 196.876C184.918 196.876 185.771 194.397 185.934 192.724C186.097 191.038 186.31 189.742 186.31 189.742L185.144 188.823L186.222 186.194C186.222 186.194 183.364 179.94 182.148 179.575C180.932 179.223 181.383 181.412 181.383 181.412Z" fill="#19437F"/>
<path d="M174.213 180.317C174.213 180.317 177.622 184.822 178.625 191.037C179.628 197.253 178.989 203.67 178.625 208.111C178.161 213.723 177.748 221.7 177.748 221.7C177.748 221.7 172.194 222.619 169.085 221.964C165.764 221.26 164.585 217.988 164.585 217.988C164.585 217.988 164.585 211.169 167.406 202.902C168.333 200.185 167.744 194.284 166.641 190.899C165.989 188.886 166.942 184.847 168.622 183.01C169.787 181.752 172.595 181.211 174.213 180.317Z" fill="#77B3FC"/>
<path d="M175.266 179.424C175.266 179.424 173.323 179.55 172.583 181.034C172.934 181.802 173.749 182.821 174.113 184.746C174.476 186.671 174.351 188.81 174.351 188.81L176.545 189.792L175.266 192.069L179.077 197.014C179.077 197.014 179.641 190.496 178.149 185.803C176.632 181.072 175.266 179.424 175.266 179.424Z" fill="#19437F"/>
<path d="M185.056 171.397C183.539 169.522 180.23 169.094 178.124 170.377C177.623 170.528 177.159 170.755 176.783 171.082C175.416 172.302 175.567 174.479 175.98 176.09C176.595 178.518 180.042 184.105 183.213 182.016C184.906 180.909 186.009 178.153 186.272 176.215C186.523 174.504 186.159 172.755 185.056 171.397Z" fill="#FFC4BC"/>
<path d="M187.249 167.823C186.184 166.389 183.476 164.678 181.696 165.672C181.082 166.012 180.731 166.716 180.781 167.358C179.051 167.043 175.955 168.163 175.177 169.648C173.861 172.177 174.776 176.505 175.93 177.801C177.133 176.757 178.988 174.517 179.477 172.378C181.458 173.334 184.166 173.435 186.109 172.303C187.738 171.359 188.428 169.396 187.249 167.823Z" fill="#3F180D"/>
<path d="M178.913 174.895C178.913 174.895 177.948 173.285 177.058 174.467C175.704 176.254 177.685 177.122 177.685 177.122L178.913 174.895Z" fill="#FFC4BC"/>
<path d="M181.672 251.646C181.672 251.646 181.546 252.665 181.233 253.734C180.92 254.804 181.308 256.289 181.308 256.289C181.308 256.289 181.534 256.943 182.524 257.144C183.439 257.32 184.191 257.106 184.191 257.106C184.191 257.106 185.094 258.201 186.272 259.044C187.451 259.887 190.058 260.529 190.76 260.428C191.901 260.252 192.515 259.359 192.427 258.78C192.34 258.201 190.998 256.603 189.883 255.911C189.168 255.458 187.538 253.936 187.049 253.407C186.235 252.526 185.645 251.57 185.645 251.57L181.672 251.646Z" fill="#14365B"/>
<path d="M186.785 183.463C186.71 183.124 186.359 181.249 186.096 180.016C185.996 179.512 186.284 178.82 186.297 178.644C186.322 178.305 185.996 178.078 185.607 178.443C185.231 178.795 185.093 179.5 184.805 180.129C184.517 180.758 184.266 181.991 181.42 180.985C180.48 180.657 179.164 181.06 178.75 181.5C178.236 182.041 178.738 182.872 179.339 183.174C180.204 183.602 183.802 184.835 185.093 186.055C185.532 186.47 188.039 186.055 188.039 186.055C188.039 186.055 186.961 184.281 186.785 183.463Z" fill="#FFC4BC"/>
<path d="M185.269 179.462C185.269 179.462 185.156 181.11 184.354 181.4C183.551 181.689 181.884 180.783 180.656 180.783C180.367 180.783 179.089 181.072 178.75 181.5C178.75 181.5 178.938 180.657 180.631 180.481C182.01 180.33 183.476 181.123 184.128 180.871C184.78 180.619 185.269 179.462 185.269 179.462Z" fill="#DCA9A2"/>
<path d="M187.074 182.922C187.111 183.048 183.802 185.413 183.802 185.413C183.802 185.413 184.416 186.911 185.281 189.842C186.146 192.774 187.212 196.36 188.892 198.084C190.571 199.807 194.194 200.298 194.959 197.933C195.698 195.643 196.288 192.711 193.981 190.257C191.674 187.804 187.074 182.922 187.074 182.922Z" fill="#19437F"/>
<path d="M170.089 204.953C170.089 204.953 172.583 206.916 173.273 207.898C173.975 208.879 173.611 210.477 173.486 212.364C173.36 214.252 171.58 213.761 170.126 213.585C168.685 213.396 168.334 212.704 169.186 212.364C170.038 212.037 171.167 212.364 171.167 212.364C171.167 212.364 168.873 211.081 168.735 208.741C168.597 206.388 170.089 204.953 170.089 204.953Z" fill="#FFC4BC"/>
<path d="M158.041 199.543C158.919 197.555 159.307 196.938 160.762 194.548C162.216 192.157 162.592 191.314 164.397 188.986C165.024 184.872 166.979 182.368 169.624 182.255C171.229 183.488 172.42 192.396 170.853 195.139C169.599 197.328 168.947 197.945 167.669 198.687C167.33 199.543 166.54 200.247 166.027 200.965C166.942 201.619 168.007 202.386 168.847 203.016C170.69 204.4 171.868 206.224 171.868 206.224C171.868 206.224 171.329 207.243 170.502 208.111C169.674 208.979 168.922 209.709 168.922 209.709C168.922 209.709 163.018 207.985 161.288 206.564C160.411 205.847 159.408 204.676 158.994 203.443C158.681 202.512 157.59 200.587 158.041 199.543Z" fill="#19437F"/>
<path d="M123.692 217.772V233.382L123.609 233.322C123.375 234.698 122.576 235.999 121.189 236.788L68.6049 267.068C67.8208 267.519 66.9538 267.745 66.0793 267.738C65.2199 267.73 64.368 267.512 63.599 267.068L10.9695 236.661C9.30344 235.706 8.48169 234.014 8.48169 232.337V217.765L19.5187 223.118L63.5236 197.846C65.0691 196.959 66.9689 196.959 68.5144 197.854L102.515 217.404L111.336 222.472L123.692 217.772Z" fill="#BBE0FD"/>
<path d="M123.692 217.772V233.382L123.609 233.322C123.376 234.698 122.577 235.999 121.189 236.789L68.6051 267.069C67.8211 267.52 66.9541 267.745 66.0796 267.738V248.947L102.508 217.419L111.328 222.487L123.692 217.772Z" fill="#D6EDFF"/>
<path d="M63.5237 183.161L10.9772 213.336C7.63744 215.253 7.63744 220.051 10.9697 221.976L63.6066 252.368C65.1521 253.263 67.067 253.263 68.6125 252.368L121.197 222.088C124.529 220.171 124.529 215.366 121.197 213.449L68.522 183.161C66.969 182.274 65.0692 182.274 63.5237 183.161Z" fill="white"/>
<path d="M63.5237 182.695L10.9772 212.87C7.63744 214.787 7.63744 219.585 10.9697 221.51L63.6066 251.902C65.1521 252.797 67.067 252.797 68.6125 251.902L121.197 221.622C124.529 219.705 124.529 214.9 121.197 212.983L68.522 182.695C66.969 181.808 65.0692 181.808 63.5237 182.695Z" fill="#EFF8FF"/>
<path opacity="0.33" d="M25.9908 213.915L63.6932 191.899C64.7411 191.282 66.0453 191.275 67.1008 191.876L105.949 213.938C108.233 215.239 108.248 218.517 105.964 219.833L67.7265 241.849C66.671 242.458 65.3744 242.458 64.3189 241.849L26.0059 219.788C23.7442 218.487 23.7367 215.231 25.9908 213.915Z" fill="#6A99DC"/>
<path d="M96.2838 199.614L66.3316 216.863L66.0225 234.292L95.9748 217.314L96.2838 199.614Z" fill="#A9D1EA"/>
<path d="M36.3799 199.614L65.9175 182.372L96.2844 199.614L66.3322 216.863L36.3799 199.614Z" fill="#BBE0FD"/>
<path d="M49.3462 199.614L65.7886 190.019L82.691 199.614L66.0223 209.216L49.3462 199.614Z" fill="#15325C"/>
<path d="M36.3799 217.314V199.614L66.3322 216.863L66.023 234.292L36.3799 217.314Z" fill="#77B8E0"/>
<path d="M80.3097 192.094C78.8396 194.342 76.7814 196.538 73.9016 198.365C67.2296 203.711 55.22 202.403 51.8501 195.974C51.8501 195.974 46.2638 191.327 47.1534 183.327C48.6008 187.289 52.031 189.68 52.4532 189.959C46.9498 185.274 50.4554 171.567 50.4554 171.567C50.4554 171.567 51.8049 177.777 57.3686 182.424C57.3686 182.424 55.6573 173.236 57.8285 164.476C58.899 160.115 60.9497 155.829 64.6438 152.874C63.1133 166.867 70.2678 175.732 70.2678 175.732C74.9269 170.161 73.796 161.965 73.796 161.965C73.796 161.965 80.5057 174.807 77.4222 184.597C81.6365 183.033 84.0716 179.251 84.0716 179.251C84.0716 179.251 84.4636 185.861 80.3097 192.094Z" fill="#77B8E0"/>
<path opacity="0.33" d="M80.3092 192.094C78.8391 194.342 76.781 196.538 73.9011 198.365C72.2877 199.651 70.3502 200.553 68.2996 201.102C61.9141 202.794 54.4129 200.839 51.8496 195.974C51.8496 195.974 46.2633 191.327 47.1529 183.327C48.6004 187.289 52.0306 189.68 52.4527 189.959C46.9493 185.274 50.4549 171.567 50.4549 171.567C50.4549 171.567 51.0204 174.138 52.89 177.198C53.9153 178.905 55.3703 180.778 57.3606 182.424C57.3606 182.424 55.6493 173.236 57.8205 164.476C57.8129 184.131 67.9302 192.372 80.3092 192.094Z" fill="#77B8E0"/>
<path opacity="0.33" d="M68.2921 201.095C61.9066 202.787 54.4053 200.832 51.8421 195.967C51.8421 195.967 46.2557 191.32 47.1453 183.319C48.5928 187.282 52.023 189.673 52.4452 189.951C46.9418 185.267 50.4474 171.559 50.4474 171.559C50.4474 171.559 51.0128 174.131 52.8824 177.191C54.7747 191.267 62.6906 198.019 68.2921 201.095Z" fill="#77B8E0"/>
<path d="M61.1679 186.011C61.9293 187.177 62.9999 188.32 64.4926 189.267C67.953 192.042 74.1877 191.365 75.9367 188.026C75.9367 188.026 78.8317 185.62 78.3718 181.462C77.6179 183.515 75.8387 184.756 75.6201 184.906C78.4774 182.477 76.6529 175.364 76.6529 175.364C76.6529 175.364 75.9518 178.59 73.0644 180.996C73.0644 180.996 73.954 176.229 72.8231 171.68C72.2652 169.416 71.2022 167.198 69.2873 165.664C70.0789 172.92 66.3698 177.522 66.3698 177.522C63.9573 174.635 64.5378 170.379 64.5378 170.379C64.5378 170.379 61.0548 177.041 62.6531 182.124C60.4668 181.312 59.2002 179.349 59.2002 179.349C59.2002 179.349 59.0117 182.778 61.1679 186.011Z" fill="#77B8E0"/>
<path opacity="0.33" d="M61.168 186.011C61.9294 187.177 63 188.32 64.4927 189.267C65.3295 189.936 66.3322 190.402 67.4027 190.688C70.7198 191.568 74.6099 190.553 75.9368 188.026C75.9368 188.026 78.8317 185.62 78.3719 181.462C77.618 183.515 75.8388 184.755 75.6202 184.906C78.4774 182.477 76.653 175.364 76.653 175.364C76.653 175.364 76.359 176.702 75.3865 178.281C74.8512 179.169 74.0973 180.139 73.0645 180.996C73.0645 180.996 73.9541 176.229 72.8232 171.679C72.8383 181.883 67.5836 186.161 61.168 186.011Z" fill="#77B8E0"/>
<path opacity="0.33" d="M67.3955 190.688C70.7126 191.568 74.6028 190.553 75.9296 188.026C75.9296 188.026 78.8246 185.62 78.3647 181.462C77.6108 183.515 75.8316 184.755 75.613 184.906C78.4703 182.477 76.6458 175.364 76.6458 175.364C76.6458 175.364 76.3518 176.702 75.3793 178.281C74.4143 185.59 70.3055 189.094 67.3955 190.688Z" fill="#77B8E0"/>
<path opacity="0.33" d="M222.574 246.645L255.779 265.938L199.766 298.483L166.852 278.901L222.574 246.645Z" fill="#6A99DC"/>
<path d="M223.934 234.002L222.924 235.746L254.396 253.884L255.407 252.141L223.934 234.002Z" fill="#D7DFE9"/>
<path d="M254.624 267.118C255.26 267.118 255.779 266.6 255.779 265.966V229.394C255.779 228.759 255.26 228.242 254.624 228.242C253.988 228.242 253.469 228.759 253.469 229.394V265.966C253.469 266.6 253.988 267.118 254.624 267.118Z" fill="#D7DFE9"/>
<path d="M256.119 258.478V265.916C256.119 266.739 255.45 267.401 254.63 267.401C253.81 267.401 253.14 266.734 253.14 265.916V258.478H256.119Z" fill="#1C427E"/>
<path d="M168.006 280.075C168.642 280.075 169.161 279.557 169.161 278.923V242.35C169.161 241.716 168.642 241.199 168.006 241.199C167.371 241.199 166.852 241.716 166.852 242.35V278.923C166.852 279.557 167.371 280.075 168.006 280.075Z" fill="#D7DFE9"/>
<path d="M169.501 271.435V278.873C169.501 279.696 168.832 280.358 168.012 280.358C167.186 280.358 166.523 279.69 166.523 278.873V271.435H169.501Z" fill="#152D53"/>
<path d="M199.766 298.795C200.402 298.795 200.921 298.277 200.921 297.643V261.071C200.921 260.436 200.402 259.919 199.766 259.919C199.131 259.919 198.612 260.436 198.612 261.071V297.643C198.612 298.277 199.131 298.795 199.766 298.795Z" fill="#D7DFE9"/>
<path d="M222.574 211.825L255.779 227.953V231.118L199.766 263.663L166.852 244.08V240.909L222.574 211.825Z" fill="#A9D1EA"/>
<path d="M222.574 208.66L255.779 227.953L199.766 260.492L166.852 240.91L222.574 208.66Z" fill="#BBE0FD"/>
<path d="M201.261 290.155V297.593C201.261 298.416 200.592 299.078 199.772 299.078C198.946 299.078 198.283 298.411 198.283 297.593V290.155H201.261Z" fill="#152D53"/>
<path d="M168.497 266.826L167.487 268.57L198.959 286.708L199.97 284.965L168.497 266.826Z" fill="#D7DFE9"/>
<g clip-path="url(#clip4_3843:552)">
<path d="M210.97 225.774C211.282 225.463 211.282 224.96 210.97 224.649C210.658 224.338 210.152 224.338 209.841 224.649C209.529 224.96 209.529 225.463 209.841 225.774C210.152 226.085 210.658 226.085 210.97 225.774Z" fill="#D6EFFB"/>
<path d="M210.193 209.772L209.559 225.043L193.577 235.391L192.944 235.05C192.783 234.965 192.654 234.838 192.563 234.688C192.473 234.539 192.424 234.364 192.424 234.183V219.465C192.424 219.33 192.46 219.199 192.525 219.086C192.59 218.972 192.686 218.875 192.803 218.807L208.661 209.556C208.822 209.461 209.004 209.414 209.185 209.412C209.366 209.41 209.549 209.454 209.712 209.545L210.193 209.772Z" fill="#A9D1EA"/>
<path d="M210.361 210.174V225.544L193.225 235.274V219.965C193.225 219.832 193.261 219.704 193.324 219.591C193.389 219.477 193.484 219.379 193.602 219.31L209.807 209.858C209.93 209.787 210.069 209.796 210.176 209.856C210.283 209.918 210.361 210.033 210.361 210.174Z" fill="#D6EFFB"/>
<path d="M210.005 211.475V224.309L207.977 225.461L207.368 225.808L203.204 228.172L200.898 229.481L197.276 231.538L193.758 233.536V220.952L197.202 218.944L199.065 217.857L202.007 216.142L205.545 214.077L207.748 212.792L209.357 211.854L210.005 211.475Z" fill="#183561"/>
<path opacity="0.33" d="M193.788 239.087L205.993 246.154C206.228 246.29 206.518 246.29 206.753 246.154L223.443 236.499C223.691 236.356 223.817 236.106 223.82 235.855C223.823 235.6 223.698 235.343 223.446 235.197L218.014 232.025C217.849 231.929 217.654 231.898 217.467 231.939L195.713 236.746C195.641 236.761 195.572 236.788 195.507 236.824L193.798 237.777C193.286 238.062 193.281 238.794 193.788 239.087Z" fill="#15325C"/>
<path d="M193.744 236.986L206.448 244.254C206.585 244.332 206.734 244.378 206.885 244.391C207.104 244.411 207.327 244.364 207.523 244.251L223.169 235.205C223.285 235.138 223.379 235.043 223.444 234.933C223.514 234.813 223.551 234.674 223.546 234.53L223.525 233.81L210.182 226.695L193.225 235.274V236.094C193.225 236.263 193.267 236.427 193.343 236.572C193.434 236.742 193.571 236.887 193.744 236.986Z" fill="#A9D1EA"/>
<path d="M193.225 235.274L206.407 243.323C206.559 243.416 206.728 243.471 206.9 243.486C207.131 243.507 207.367 243.457 207.575 243.338L223.268 234.265C223.43 234.171 223.526 234.018 223.553 233.855C223.59 233.632 223.499 233.391 223.279 233.257L210.183 225.279L193.225 235.274Z" fill="#D6EFFB"/>
<path d="M220.741 232.46L205.249 241.591L194.883 235.276L210.375 226.145L220.741 232.46Z" fill="#77B8E0"/>
<path d="M193.464 235.956C193.899 235.885 194.195 235.476 194.124 235.043C194.053 234.609 193.643 234.314 193.208 234.385C192.772 234.455 192.477 234.864 192.547 235.298C192.618 235.731 193.028 236.026 193.464 235.956Z" fill="#A9D1EA"/>
<g opacity="0.71">
<path opacity="0.71" d="M202.963 233.543L205.068 232.302L206.649 233.234L204.544 234.475L202.963 233.543Z" fill="#D6EDFF"/>
<path opacity="0.71" d="M209.052 231.817L206.948 233.058L205.367 232.126L207.471 230.886L209.052 231.817Z" fill="#D6EDFF"/>
<path opacity="0.71" d="M202.664 233.366L201.152 232.475L203.256 231.235L204.767 232.126L202.664 233.366Z" fill="#D6EDFF"/>
<path opacity="0.71" d="M200.261 234.783L198.749 233.892L200.853 232.651L202.365 233.543L200.261 234.783Z" fill="#D6EDFF"/>
<path opacity="0.71" d="M215.215 232.617L213.112 233.857L211.531 232.926L213.635 231.685L215.215 232.617Z" fill="#D6EDFF"/>
<path opacity="0.71" d="M210.931 232.926L208.828 234.166L207.247 233.234L209.351 231.994L210.931 232.926Z" fill="#D6EDFF"/>
<path opacity="0.71" d="M213.336 231.509L211.232 232.749L209.651 231.817L211.755 230.577L213.336 231.509Z" fill="#D6EDFF"/>
<path opacity="0.71" d="M197.832 236.213L196.347 235.307L198.449 234.068L199.96 234.959L197.832 236.213Z" fill="#D6EDFF"/>
<path opacity="0.71" d="M213.934 231.509L215.978 230.305L217.533 231.252L215.515 232.441L213.934 231.509Z" fill="#D6EDFF"/>
<path opacity="0.71" d="M217.828 231.432L219.327 232.344L217.339 233.516L215.815 232.617L217.828 231.432Z" fill="#D6EDFF"/>
<path opacity="0.71" d="M212.054 230.401L214.129 229.178L215.684 230.125L213.635 231.333L212.054 230.401Z" fill="#D6EDFF"/>
<path opacity="0.71" d="M209.127 234.343L211.232 233.102L212.813 234.034L210.708 235.274L209.127 234.343Z" fill="#D6EDFF"/>
<path opacity="0.71" d="M205.068 231.95L203.555 231.058L205.659 229.819L207.171 230.709L205.068 231.95Z" fill="#D6EDFF"/>
<path opacity="0.71" d="M207.471 230.533L205.96 229.642L208.063 228.402L209.575 229.292L207.471 230.533Z" fill="#D6EDFF"/>
<path opacity="0.71" d="M210.174 229.292L212.28 228.052L213.835 228.998L211.755 230.224L210.174 229.292Z" fill="#D6EDFF"/>
<path opacity="0.71" d="M202.141 236.244L203.721 237.176L201.526 238.469L199.974 237.522L202.141 236.244Z" fill="#D6EDFF"/>
<path opacity="0.71" d="M201.821 238.649L204.021 237.353L205.601 238.284L203.373 239.597L201.821 238.649Z" fill="#D6EDFF"/>
<path opacity="0.71" d="M204.321 237.176L206.425 235.936L208.005 236.868L205.902 238.107L204.321 237.176Z" fill="#D6EDFF"/>
<path opacity="0.71" d="M209.875 229.116L208.363 228.225L210.499 226.966L211.985 227.872L209.875 229.116Z" fill="#D6EDFF"/>
<path opacity="0.71" d="M205.901 238.461L207.425 239.359L205.165 240.691L203.667 239.777L205.901 238.461Z" fill="#D6EDFF"/>
<path opacity="0.71" d="M206.201 238.284L208.305 237.044L209.828 237.942L207.725 239.182L206.201 238.284Z" fill="#D6EDFF"/>
<path opacity="0.71" d="M200.261 235.136L201.841 236.068L199.68 237.341L198.127 236.394L200.261 235.136Z" fill="#D6EDFF"/>
<path opacity="0.71" d="M204.844 234.651L206.948 233.411L208.528 234.343L206.425 235.583L204.844 234.651Z" fill="#D6EDFF"/>
<path opacity="0.71" d="M200.56 234.96L202.664 233.719L204.244 234.651L202.141 235.89L200.56 234.96Z" fill="#D6EDFF"/>
<path opacity="0.71" d="M202.44 236.068L204.544 234.828L206.125 235.759L204.021 236.999L202.44 236.068Z" fill="#D6EDFF"/>
<path opacity="0.71" d="M206.724 235.759L208.828 234.519L210.408 235.451L210.508 235.392L208.305 236.691L206.724 235.759Z" fill="#D6EDFF"/>
<path opacity="0.71" d="M211.456 230.401L209.351 231.641L207.771 230.709L209.875 229.469L211.456 230.401Z" fill="#D6EDFF"/>
<path opacity="0.71" d="M213.411 234.034L215.515 232.794L217.04 233.692L214.936 234.933L213.411 234.034Z" fill="#D6EDFF"/>
<path opacity="0.71" d="M208.604 236.867L213.112 234.21L214.635 235.109L210.129 237.765L208.604 236.867Z" fill="#D6EDFF"/>
</g>
<path d="M202.758 220.54L202.37 220.766L201.536 221.252L199.995 222.15V222.832L201.536 221.933L202.37 221.446L202.758 221.22V220.54Z" fill="white"/>
<path d="M198.557 219.597L198.168 219.823L197.334 220.31L195.793 221.209V221.889L197.334 220.99L198.168 220.503L198.557 220.277V219.597Z" fill="white"/>
<path d="M198.557 220.748L198.168 220.975L197.334 221.461L195.793 222.36V223.04L197.334 222.141L198.168 221.655L198.557 221.429V220.748Z" fill="#FEC400"/>
<path d="M206.976 219.753L206.256 220.173L205.27 220.748L203.686 221.673L202.496 222.367V223.047L203.686 222.353L205.27 221.428L206.256 220.853L206.976 220.433L207.266 220.264V219.584L206.976 219.753Z" fill="#F02098"/>
<path d="M202.286 222.489L201.536 222.927L199.995 223.825V224.505L201.536 223.607L202.286 223.17V222.489Z" fill="white"/>
<path d="M203.546 224.475L202.37 225.16L201.536 225.647L199.995 226.546V227.226L201.536 226.327L202.37 225.84L203.546 225.155V224.475Z" fill="#FEC400"/>
<path d="M206.976 222.475L206.256 222.895L205.27 223.469L203.757 224.353V225.033L205.27 224.149L206.256 223.575L206.976 223.155L207.266 222.985V222.305L206.976 222.475Z" fill="white"/>
<path d="M204.649 222.471L203.686 223.033L202.37 223.801L201.603 224.248V224.928L202.37 224.481L203.686 223.713L204.649 223.151V222.471Z" fill="white"/>
<path d="M201.393 224.371L199.995 225.185V225.866L201.393 225.051V224.371Z" fill="white"/>
<path d="M206.976 221.114L206.256 221.533L205.27 222.109L204.859 222.349V223.029L205.27 222.789L206.256 222.213L206.976 221.794L207.266 221.625V220.945L206.976 221.114Z" fill="white"/>
<path d="M191.401 226.288V233.967L191.619 234.14L198.194 230.107L198.412 222.601L198.194 222.428L191.401 226.288Z" fill="#183561"/>
<path d="M198.412 222.602V230.28L191.619 234.141V226.463L198.412 222.602Z" fill="#A9D1EA"/>
<path d="M198.412 222.602V224.208L191.619 228.068V226.463L198.412 222.602Z" fill="#3C6A9E"/>
<path d="M197.94 225.638L197.937 226.172L194.247 228.303L194.269 227.754L197.94 225.638Z" fill="#FEC400"/>
<path d="M196.094 230.088L196.09 230.622L192.4 232.752L192.423 232.203L196.094 230.088Z" fill="#FEC400"/>
<path d="M193.822 228.018V228.536L192.435 229.337V228.82L193.822 228.018Z" fill="#77B8E0"/>
<path d="M197.344 228.287V228.804L195.957 229.606V229.089L197.344 228.287Z" fill="#77B8E0"/>
<path d="M197.793 229.212V229.73L196.405 230.531V230.014L197.793 229.212Z" fill="white"/>
<path d="M195.66 228.018L192.438 229.87V230.407L195.666 228.536L195.66 228.018Z" fill="white"/>
<path d="M195.66 229.145L192.438 230.997V231.534L195.666 229.663L195.66 229.145Z" fill="white"/>
</g>
<g clip-path="url(#clip5_3843:552)">
<path opacity="0.33" d="M261.536 293.101L241.12 305.011L220.192 292.011L240.811 280.792L261.536 293.101Z" fill="#6A99DC"/>
<path d="M240.457 305.673C240.087 305.673 239.793 305.372 239.793 305.011V281.454C239.793 281.085 240.087 280.792 240.457 280.792C240.826 280.792 241.12 281.085 241.12 281.454V305.011C241.12 305.38 240.826 305.673 240.457 305.673Z" fill="#D7DFE9"/>
<path d="M239.598 301.199V305.485C239.598 305.959 239.982 306.342 240.457 306.342C240.932 306.342 241.317 305.959 241.317 305.485V301.199H239.598Z" fill="#152D53"/>
<path d="M262.199 293.762C261.83 293.762 261.536 293.469 261.536 293.101V269.535C261.536 269.167 261.83 268.874 262.199 268.874C262.569 268.874 262.863 269.175 262.863 269.535V293.101C262.87 293.462 262.569 293.762 262.199 293.762Z" fill="#D7DFE9"/>
<path d="M261.347 289.289V293.575C261.347 294.048 261.732 294.432 262.207 294.432C262.682 294.432 263.066 294.048 263.066 293.575V289.289H261.347Z" fill="#152D53"/>
<path d="M220.155 294.011C219.785 294.011 219.491 293.717 219.491 293.349V269.791C219.491 269.423 219.785 269.13 220.155 269.13C220.524 269.13 220.818 269.423 220.818 269.791V293.349C220.818 293.717 220.524 294.011 220.155 294.011Z" fill="#D7DFE9"/>
<path d="M241.709 281.89C241.618 282.379 241.301 282.755 240.894 282.935C240.487 283.123 239.997 283.123 239.568 282.867L219.386 271.032V269.009L241.709 281.89Z" fill="#A9D1EA"/>
<path d="M245.968 260.084L240.14 257.137L219.476 269.1L240.14 281.243L245.968 260.084Z" fill="#BBE0FD"/>
<path d="M219.295 289.537V293.823C219.295 294.297 219.68 294.68 220.155 294.68C220.63 294.68 221.014 294.297 221.014 293.823V289.537H219.295Z" fill="#152D53"/>
<path d="M239.959 281.063L246.971 252.354L268.555 238.737L270.311 239.932L261.363 268.731L241.709 282.07L239.959 281.063Z" fill="#A9D1EA"/>
<path d="M241.799 282.168L248.81 253.459L270.402 239.842L263.202 269.836L241.799 282.168Z" fill="#D7DFE9"/>
</g>
<path d="M134.223 27.6458C132.609 20.3446 128.87 14.9533 123.389 13.2239C117.478 11.3591 110.769 14.1563 104.926 20.0739C102.189 10.3591 96.7765 3.26845 89.1471 0.86981C72.6066 -4.34102 51.9348 14.3969 42.971 42.7143C42.4282 44.4287 41.9457 46.1356 41.5084 47.8349C32.6652 50.5118 23.6788 61.0538 19.178 75.2726C17.1501 81.6715 16.2982 87.9801 16.4866 93.6496L15.5443 94.191C8.54812 98.1913 4.23584 105.628 4.23584 113.666C4.23584 130.922 22.94 141.728 37.9501 133.141L149.798 69.1595C156.794 65.1593 161.114 57.7227 161.114 49.6847C161.106 34.9846 147.529 24.9765 134.223 27.6458Z" fill="#EFF8FF"/>
<defs>
<clipPath id="clip0_3843:552">
<rect width="76.3696" height="97.0056" fill="white" transform="translate(103.462 86.6371)"/>
</clipPath>
<clipPath id="clip1_3843:552">
<rect width="144.748" height="92.4866" fill="white" transform="translate(295.706 158.822)"/>
</clipPath>
<clipPath id="clip2_3843:552">
<rect width="186.212" height="184.221" fill="white" transform="translate(147.945 10.0085)"/>
</clipPath>
<clipPath id="clip3_3843:552">
<rect width="27.1327" height="24.9488" fill="white" transform="translate(173.574 109.947)"/>
</clipPath>
<clipPath id="clip4_3843:552">
<rect width="32.4175" height="36.8442" fill="white" transform="translate(191.401 209.412)"/>
</clipPath>
<clipPath id="clip5_3843:552">
<rect width="51.1066" height="67.6054" fill="white" transform="translate(219.295 238.737)"/>
</clipPath>
</defs>
</svg>
