<svg width="403" height="477" viewBox="0 0 403 477" fill="none" xmlns="http://www.w3.org/2000/svg">
<path d="M34.3596 282.575C34.1243 282.575 33.9037 282.516 33.683 282.413L1.91235 265.885C0.750366 265.281 0.0149341 264.073 0.000225414 262.762C-0.0144832 261.436 0.691532 260.229 1.85351 259.595L33.3741 242.316C33.6536 242.169 33.6977 241.918 33.6977 241.771C33.6977 241.638 33.6536 241.388 33.3741 241.226L2.23594 223.888C1.11808 223.269 0.426776 222.12 0.412067 220.839C0.397359 219.557 1.02983 218.394 2.13298 217.716L45.95 191.363C49.2301 189.389 53.3191 189.345 56.6432 191.23L80.986 205.048C81.692 205.445 81.9421 206.344 81.545 207.051C81.1478 207.758 80.2506 208.009 79.5446 207.611L55.2018 193.794C52.8043 192.424 49.8331 192.468 47.465 193.897L3.64797 220.235C3.38321 220.397 3.33909 220.647 3.3538 220.78C3.3538 220.913 3.39792 221.163 3.67739 221.31L34.8156 238.663C35.9482 239.296 36.6542 240.49 36.6395 241.786C36.6395 243.082 35.9334 244.275 34.7862 244.909L3.26554 262.173C2.98608 262.335 2.94195 262.585 2.94195 262.718C2.94195 262.851 2.98608 263.116 3.28025 263.263L35.0509 279.805C35.7716 280.174 36.0511 281.072 35.6834 281.794C35.4039 282.295 34.8891 282.575 34.3596 282.575Z" fill="#5793CE"/>
<path d="M37.8796 288.788L41.801 281.938L27.038 273.461L23.1166 280.311L37.8796 288.788Z" fill="#5793CE"/>
<path d="M22.2986 278.495C22.2986 276.712 23.5341 274.547 25.0785 273.648C26.6229 272.75 27.8732 273.472 27.8732 275.254C27.8732 277.036 26.6376 279.202 25.0932 280.1C23.5488 280.984 22.2986 280.277 22.2986 278.495Z" fill="#5793CE"/>
<path d="M57.2329 302.731L63.5906 291.626L40.4317 278.327L34.074 289.432L57.2329 302.731Z" fill="#5793CE"/>
<path d="M39.3754 280.528L34.3745 277.655C32.3006 279.143 30.6826 281.971 30.4473 284.505L35.4482 287.378C37.5221 285.89 39.1401 283.061 39.3754 280.528Z" fill="#396CAA"/>
<path d="M32.7564 286.494C32.7417 283.607 34.7568 280.101 37.2573 278.643C39.743 277.199 41.7728 278.363 41.7875 281.235C41.8023 284.122 39.7872 287.628 37.2867 289.087C34.7862 290.545 32.7564 289.381 32.7564 286.494Z" fill="#5793CE"/>
<path d="M28.2589 276.979C29.2825 276.976 30.1108 276.492 30.109 275.898C30.1072 275.304 29.276 274.825 28.2525 274.828C27.2289 274.831 26.4006 275.315 26.4024 275.909C26.4042 276.503 27.2354 276.982 28.2589 276.979Z" fill="#D4ECFF"/>
<path d="M90.2871 216.25L94.2085 209.4L79.4455 200.923L75.5241 207.772L90.2871 216.25Z" fill="#5793CE"/>
<path d="M74.6907 205.961C74.6907 204.179 75.9262 202.013 77.4706 201.115C79.015 200.216 80.2653 200.938 80.2653 202.72C80.2653 204.503 79.0297 206.668 77.4853 207.567C75.9556 208.465 74.7054 207.743 74.6907 205.961Z" fill="#5793CE"/>
<path d="M109.642 230.19L116 219.085L92.8406 205.787L86.4829 216.892L109.642 230.19Z" fill="#5793CE"/>
<path d="M91.7675 207.994L86.7666 205.121C84.6926 206.609 83.0747 209.437 82.8394 211.971L87.8403 214.843C89.9142 213.37 91.5322 210.527 91.7675 207.994Z" fill="#396CAA"/>
<path d="M85.1485 213.96C85.1338 211.073 87.1489 207.567 89.6494 206.109C92.1351 204.665 94.1649 205.829 94.1796 208.701C94.1943 211.574 92.1793 215.095 89.6788 216.553C87.1783 218.011 85.1632 216.847 85.1485 213.96Z" fill="#5793CE"/>
<path d="M79.3533 204.134C78.6326 203.722 78.6326 203.044 79.3533 202.617C80.074 202.19 81.2507 202.19 81.9714 202.602C82.6921 203.015 82.6921 203.693 81.9714 204.12C81.2507 204.547 80.074 204.547 79.3533 204.134Z" fill="#D4ECFF"/>
<path opacity="0.2" d="M260.108 353.724L89.2815 254.955C84.4424 252.156 85.0602 247.28 90.6347 244.054L206.951 176.824C212.525 173.598 220.968 173.244 225.807 176.043L396.633 274.812C401.472 277.611 400.855 282.487 395.28 285.713L278.964 352.943C273.39 356.169 264.947 356.523 260.108 353.724Z" fill="#B2D3EA"/>
<path d="M436.656 99.8269L265.815 1.0582C263.829 -0.0907903 261.814 -0.267563 260.02 0.351123L260.034 0.336389L259.725 0.454237C259.696 0.468967 259.681 0.468962 259.652 0.483693L253.474 2.85532L259.019 5.56576C258.99 5.66887 258.961 5.75725 258.946 5.86037L231.117 132.706C229.72 139.055 232.514 146.464 237.339 149.263L404.061 245.66L403.473 252.731L410.224 250.109C412.489 249.048 414.299 246.647 415.063 243.229L442.892 116.384C444.275 110.035 441.48 102.626 436.656 99.8269Z" fill="#173D7A"/>
<path d="M436.656 99.8269L265.815 1.0582C263.829 -0.0907904 261.814 -0.267563 260.02 0.351123L260.034 0.336389L259.725 0.454237C259.696 0.468967 259.681 0.468962 259.652 0.483693L253.474 2.85532L259.019 5.56576C258.99 5.66887 258.961 5.75725 258.946 5.86037L240.604 89.4566L324.193 154.669L442.054 106.647C440.907 103.701 439.039 101.212 436.656 99.8269Z" fill="#396CAA"/>
<path d="M397.545 252.053L226.719 153.284C221.88 150.485 219.1 143.076 220.497 136.727L248.326 9.88182C249.723 3.53293 254.769 0.645728 259.593 3.44454L430.419 102.213C435.258 105.012 438.038 112.422 436.641 118.77L408.812 245.616C407.415 251.979 402.37 254.852 397.545 252.053Z" fill="#D4ECFF"/>
<path d="M393.839 242.625L233.176 149.778C228.749 147.215 226.205 140.439 227.469 134.635L252.93 18.5583C254.21 12.7544 258.828 10.1176 263.241 12.666L423.903 105.513C428.331 108.076 430.875 114.852 429.61 120.656L404.15 236.733C402.87 242.552 398.252 245.174 393.839 242.625Z" fill="white"/>
<path d="M393.839 242.625L233.176 149.778C228.749 147.215 226.205 140.439 227.469 134.635L252.93 18.5583C254.21 12.7544 258.828 10.1176 263.241 12.666L423.903 105.513C428.331 108.076 430.875 114.852 429.61 120.656L404.15 236.733C402.87 242.552 398.252 245.174 393.839 242.625Z" fill="white"/>
<path d="M399.899 256.354L376.541 253.261L225.807 166.1C220.968 163.301 212.54 163.655 206.951 166.881L100.137 228.617L86.0164 226.746V234.774H86.0311C85.9428 236.63 86.9871 238.412 89.267 239.723L260.093 338.492C264.932 341.291 273.36 340.937 278.95 337.711L395.266 270.481C398.399 268.669 399.972 266.327 399.884 264.132V256.354H399.899Z" fill="#173D7A"/>
<path d="M286.642 201.291L275.934 195.104H158.192L100.151 228.646L86.031 226.775V234.803H86.0457C85.9575 236.66 87.0018 238.442 89.2816 239.753L260.108 338.522C262.667 339.995 266.227 340.584 269.845 340.348L286.642 201.291Z" fill="#396CAA"/>
<path d="M92.2969 227.6L86.031 226.775V234.804H86.0457C85.9575 236.66 87.0018 238.442 89.2816 239.753L92.2969 241.491V227.6Z" fill="#5793CE"/>
<path d="M261.829 339.332C266.403 341.07 272.963 340.687 277.847 338.33V320.432H261.829V339.332Z" fill="#274F89"/>
<path d="M260.108 330.508L89.2815 231.74C84.4424 228.941 85.0602 224.065 90.6347 220.839L206.951 153.609C212.525 150.383 220.968 150.029 225.807 152.828L396.633 251.597C401.472 254.395 400.855 259.271 395.28 262.497L278.964 329.728C273.39 332.954 264.947 333.307 260.108 330.508Z" fill="#D4ECFF"/>
<path d="M395.28 259.565L278.964 326.796C273.39 330.022 264.947 330.375 260.108 327.577L89.2817 228.808C87.6932 227.895 86.7077 226.746 86.2811 225.523C85.531 227.806 86.487 230.134 89.2817 231.739L260.108 330.508C264.947 333.307 273.375 332.953 278.964 329.727L395.28 262.497C399.031 260.331 400.517 257.415 399.634 254.881C399.09 256.546 397.634 258.195 395.28 259.565Z" fill="white"/>
<path d="M161.942 199.038L154.206 194.574C153.588 194.221 153.661 193.588 154.382 193.175L163.502 187.902C164.222 187.489 165.296 187.445 165.928 187.798L173.65 192.262C174.268 192.615 174.195 193.249 173.474 193.661L164.355 198.935C163.634 199.347 162.56 199.391 161.942 199.038Z" fill="#173D7A"/>
<path d="M173.871 205.931L166.149 201.468C165.531 201.115 165.605 200.481 166.326 200.069L175.445 194.795C176.166 194.383 177.239 194.338 177.872 194.692L185.594 199.155C186.212 199.509 186.138 200.142 185.417 200.555L176.298 205.828C175.577 206.256 174.489 206.3 173.871 205.931Z" fill="#173D7A"/>
<path d="M185.814 212.841L178.092 208.377C177.475 208.024 177.548 207.39 178.269 206.978L187.388 201.704C188.109 201.292 189.183 201.248 189.815 201.601L197.552 206.064C198.17 206.418 198.096 207.051 197.375 207.464L188.256 212.737C187.521 213.15 186.432 213.194 185.814 212.841Z" fill="#173D7A"/>
<path d="M202.318 207.14L194.596 202.676C193.978 202.323 194.051 201.689 194.772 201.277L202.435 196.843C203.156 196.43 204.23 196.386 204.862 196.74L212.584 201.203C213.202 201.557 213.128 202.19 212.408 202.603L204.745 207.036C204.024 207.449 202.935 207.493 202.318 207.14Z" fill="#173D7A"/>
<path d="M214.261 214.034L206.539 209.57C205.921 209.217 205.995 208.583 206.715 208.171L214.379 203.737C215.099 203.325 216.173 203.28 216.806 203.634L224.528 208.097C225.145 208.451 225.072 209.084 224.351 209.497L216.688 213.931C215.952 214.358 214.879 214.402 214.261 214.034Z" fill="#173D7A"/>
<path d="M226.19 220.942L218.468 216.479C217.85 216.125 217.924 215.492 218.644 215.08L226.308 210.646C227.028 210.233 228.102 210.189 228.734 210.543L236.456 215.006C237.074 215.359 237.001 215.993 236.28 216.405L228.617 220.839C227.896 221.252 226.808 221.296 226.19 220.942Z" fill="#173D7A"/>
<path d="M238.133 227.851L230.411 223.388C229.793 223.034 229.867 222.401 230.588 221.988L238.251 217.554C238.972 217.142 240.045 217.098 240.678 217.451L248.4 221.915C249.018 222.268 248.944 222.902 248.223 223.314L240.56 227.748C239.825 228.16 238.751 228.205 238.133 227.851Z" fill="#173D7A"/>
<path d="M250.062 234.745L242.325 230.281C241.708 229.928 241.781 229.294 242.502 228.882L250.165 224.448C250.886 224.035 251.959 223.991 252.592 224.345L260.329 228.808C260.946 229.162 260.873 229.795 260.152 230.208L252.489 234.641C251.768 235.054 250.68 235.098 250.062 234.745Z" fill="#173D7A"/>
<path d="M262.005 241.653L254.283 237.19C253.666 236.836 253.739 236.203 254.46 235.791L262.123 231.357C262.844 230.944 263.917 230.9 264.55 231.253L272.272 235.717C272.89 236.07 272.816 236.704 272.095 237.116L264.432 241.55C263.712 241.963 262.623 242.007 262.005 241.653Z" fill="#173D7A"/>
<path d="M273.934 248.547L266.197 244.084C265.58 243.73 265.653 243.097 266.374 242.685L274.037 238.251C274.758 237.838 275.832 237.794 276.464 238.148L284.201 242.611C284.819 242.964 284.745 243.598 284.024 244.01L276.361 248.444C275.64 248.857 274.552 248.916 273.934 248.547Z" fill="#173D7A"/>
<path d="M285.877 255.456L278.155 250.993C277.538 250.639 277.611 250.006 278.332 249.593L285.995 245.159C286.716 244.747 287.79 244.703 288.422 245.056L296.144 249.52C296.762 249.873 296.688 250.507 295.968 250.919L288.304 255.353C287.584 255.765 286.495 255.81 285.877 255.456Z" fill="#173D7A"/>
<path d="M297.806 262.35L290.069 257.887C289.452 257.533 289.525 256.9 290.246 256.487L297.909 252.053C298.63 251.641 299.704 251.597 300.336 251.95L308.073 256.414C308.691 256.767 308.617 257.401 307.896 257.813L300.233 262.247C299.512 262.674 298.424 262.718 297.806 262.35Z" fill="#173D7A"/>
<path d="M309.749 269.258L302.027 264.795C301.41 264.441 301.483 263.808 302.204 263.395L309.867 258.962C310.588 258.549 311.662 258.505 312.294 258.858L320.016 263.322C320.634 263.675 320.56 264.309 319.84 264.721L312.176 269.155C311.456 269.568 310.367 269.612 309.749 269.258Z" fill="#173D7A"/>
<path d="M219.909 203.87L212.172 199.406C211.555 199.053 211.628 198.419 212.349 198.007L220.012 193.573C220.733 193.16 221.807 193.116 222.439 193.47L230.176 197.933C230.794 198.287 230.72 198.92 229.999 199.333L222.336 203.766C221.615 204.179 220.527 204.223 219.909 203.87Z" fill="#396CAA"/>
<path d="M207.789 196.873L200.067 192.409C199.449 192.056 199.523 191.422 200.244 191.01L207.907 186.576C208.628 186.163 209.701 186.119 210.334 186.473L218.056 190.936C218.674 191.29 218.6 191.923 217.879 192.335L210.216 196.769C209.495 197.182 208.407 197.226 207.789 196.873Z" fill="#396CAA"/>
<path d="M195.655 189.846L179.004 180.227C178.387 179.873 178.46 179.24 179.181 178.828L186.844 174.394C187.565 173.981 188.639 173.937 189.271 174.291L205.921 183.91C206.539 184.263 206.466 184.897 205.745 185.309L198.082 189.743C197.361 190.17 196.272 190.214 195.655 189.846Z" fill="#173D7A"/>
<path d="M204.142 181.317L190.639 173.51C190.021 173.156 190.095 172.523 190.816 172.11L198.479 167.676C199.199 167.264 200.273 167.22 200.906 167.573L214.408 175.38C215.026 175.734 214.952 176.367 214.232 176.78L206.568 181.214C205.848 181.626 204.759 181.67 204.142 181.317Z" fill="#173D7A"/>
<path d="M231.838 210.778L224.116 206.315C223.498 205.961 223.572 205.328 224.292 204.916L231.956 200.482C232.676 200.069 233.75 200.025 234.382 200.378L242.104 204.842C242.722 205.195 242.649 205.829 241.928 206.241L234.265 210.675C233.544 211.088 232.456 211.132 231.838 210.778Z" fill="#396CAA"/>
<path d="M243.781 217.672L236.045 213.208C235.427 212.855 235.5 212.222 236.221 211.809L243.884 207.375C244.605 206.963 245.679 206.919 246.311 207.272L254.048 211.735C254.666 212.089 254.592 212.722 253.871 213.135L246.208 217.569C245.487 217.981 244.399 218.04 243.781 217.672Z" fill="#173D7A"/>
<path d="M255.71 224.581L247.988 220.117C247.37 219.764 247.444 219.13 248.164 218.718L255.828 214.284C256.548 213.871 257.622 213.827 258.255 214.181L265.977 218.644C266.594 218.998 266.521 219.631 265.8 220.044L258.137 224.477C257.416 224.89 256.342 224.934 255.71 224.581Z" fill="#173D7A"/>
<path d="M267.653 231.475L259.917 227.011C259.299 226.658 259.372 226.024 260.093 225.612L267.756 221.178C268.477 220.765 269.551 220.721 270.183 221.075L277.92 225.538C278.538 225.892 278.464 226.525 277.743 226.938L270.08 231.371C269.36 231.799 268.271 231.843 267.653 231.475Z" fill="#173D7A"/>
<path d="M279.582 238.383L271.86 233.92C271.242 233.566 271.316 232.933 272.036 232.52L279.7 228.087C280.42 227.674 281.494 227.63 282.127 227.983L289.849 232.447C290.466 232.8 290.393 233.434 289.672 233.846L282.009 238.28C281.288 238.693 280.214 238.737 279.582 238.383Z" fill="#173D7A"/>
<path d="M291.525 245.277L283.789 240.813C283.171 240.46 283.244 239.826 283.965 239.414L291.628 234.98C292.349 234.568 293.423 234.523 294.055 234.877L301.792 239.34C302.41 239.694 302.336 240.327 301.616 240.74L293.952 245.174C293.232 245.601 292.143 245.645 291.525 245.277Z" fill="#173D7A"/>
<path d="M303.454 252.186L295.717 247.723C295.1 247.369 295.173 246.736 295.894 246.323L303.557 241.889C304.278 241.477 305.352 241.433 305.984 241.786L313.721 246.25C314.338 246.603 314.265 247.237 313.544 247.649L305.881 252.083C305.16 252.495 304.087 252.54 303.454 252.186Z" fill="#173D7A"/>
<path d="M315.398 259.08L307.676 254.616C307.058 254.263 307.131 253.629 307.852 253.217L315.515 248.783C316.236 248.37 317.31 248.326 317.942 248.68L325.664 253.143C326.282 253.497 326.209 254.13 325.488 254.543L317.825 258.976C317.104 259.404 316.015 259.448 315.398 259.08Z" fill="#173D7A"/>
<path d="M327.326 265.988L319.59 261.525C318.972 261.171 319.045 260.538 319.766 260.125L327.429 255.692C328.15 255.279 329.224 255.235 329.856 255.588L337.593 260.052C338.211 260.405 338.137 261.039 337.417 261.451L329.753 265.885C329.033 266.298 327.959 266.342 327.326 265.988Z" fill="#173D7A"/>
<path d="M348.551 278.259L331.68 268.507C331.063 268.154 331.136 267.52 331.857 267.108L339.52 262.674C340.241 262.262 341.314 262.217 341.947 262.571L358.818 272.323C359.435 272.676 359.362 273.309 358.641 273.722L350.978 278.156C350.257 278.568 349.169 278.613 348.551 278.259Z" fill="#173D7A"/>
<path d="M371.791 264.825L357.553 256.59C356.935 256.237 357.008 255.603 357.729 255.191L365.392 250.757C366.113 250.345 367.187 250.3 367.819 250.654L382.057 258.888C382.675 259.242 382.601 259.875 381.881 260.288L374.217 264.722C373.497 265.134 372.408 265.178 371.791 264.825Z" fill="#173D7A"/>
<path d="M252.739 209.423L245.017 204.959C244.399 204.606 244.472 203.972 245.193 203.56L252.856 199.126C253.577 198.714 254.651 198.669 255.283 199.023L263.005 203.486C263.623 203.84 263.55 204.473 262.829 204.886L255.166 209.32C254.445 209.732 253.371 209.776 252.739 209.423Z" fill="#173D7A"/>
<path d="M240.516 202.352L232.779 197.889C232.161 197.535 232.235 196.902 232.956 196.489L240.619 192.055C241.34 191.643 242.413 191.599 243.046 191.952L250.783 196.416C251.4 196.769 251.327 197.403 250.606 197.815L242.943 202.249C242.222 202.661 241.134 202.706 240.516 202.352Z" fill="#173D7A"/>
<path d="M228.278 195.281L220.556 190.818C219.938 190.464 220.012 189.831 220.733 189.418L228.396 184.985C229.117 184.572 230.19 184.528 230.823 184.881L238.545 189.345C239.163 189.698 239.089 190.332 238.368 190.744L230.705 195.178C229.984 195.591 228.896 195.635 228.278 195.281Z" fill="#396CAA"/>
<path d="M216.041 188.196L208.319 183.732C207.701 183.379 207.774 182.745 208.495 182.333L216.158 177.899C216.879 177.487 217.953 177.442 218.585 177.796L226.307 182.259C226.925 182.613 226.852 183.246 226.131 183.659L218.468 188.093C217.747 188.52 216.658 188.564 216.041 188.196Z" fill="#173D7A"/>
<path d="M264.682 216.332L256.96 211.868C256.343 211.515 256.416 210.881 257.137 210.469L264.8 206.035C265.521 205.622 266.594 205.578 267.227 205.932L274.949 210.395C275.567 210.749 275.493 211.382 274.772 211.794L267.109 216.228C266.389 216.641 265.3 216.685 264.682 216.332Z" fill="#173D7A"/>
<path d="M276.611 223.226L268.889 218.762C268.271 218.409 268.345 217.775 269.066 217.363L276.729 212.929C277.449 212.516 278.523 212.472 279.156 212.826L286.878 217.289C287.495 217.643 287.422 218.276 286.701 218.689L279.038 223.122C278.317 223.535 277.244 223.579 276.611 223.226Z" fill="#173D7A"/>
<path d="M288.554 230.134L280.832 225.671C280.215 225.317 280.288 224.684 281.009 224.271L288.672 219.838C289.393 219.425 290.467 219.381 291.099 219.734L298.821 224.198C299.439 224.551 299.365 225.185 298.645 225.597L290.981 230.031C290.261 230.444 289.172 230.488 288.554 230.134Z" fill="#173D7A"/>
<path d="M300.498 237.028L292.776 232.564C292.158 232.211 292.232 231.577 292.952 231.165L300.616 226.731C301.336 226.319 302.41 226.274 303.043 226.628L310.765 231.091C311.382 231.445 311.309 232.078 310.588 232.491L302.925 236.925C302.189 237.337 301.116 237.381 300.498 237.028Z" fill="#173D7A"/>
<path d="M312.427 243.937L304.69 239.474C304.072 239.12 304.146 238.487 304.866 238.074L312.529 233.64C313.25 233.228 314.324 233.184 314.956 233.537L322.693 238.001C323.311 238.354 323.237 238.987 322.517 239.4L314.853 243.834C314.133 244.246 313.044 244.29 312.427 243.937Z" fill="#173D7A"/>
<path d="M324.37 250.831L316.648 246.367C316.03 246.014 316.104 245.38 316.824 244.968L324.488 240.534C325.208 240.121 326.282 240.077 326.914 240.431L334.636 244.894C335.254 245.248 335.181 245.881 334.46 246.294L326.797 250.727C326.061 251.14 324.988 251.199 324.37 250.831Z" fill="#173D7A"/>
<path d="M336.299 257.739L328.562 253.276C327.944 252.922 328.018 252.289 328.738 251.876L336.402 247.443C337.122 247.03 338.196 246.986 338.828 247.339L346.565 251.803C347.183 252.156 347.109 252.79 346.389 253.202L338.726 257.636C338.005 258.049 336.916 258.093 336.299 257.739Z" fill="#173D7A"/>
<path d="M348.242 264.633L340.52 260.17C339.902 259.816 339.976 259.183 340.697 258.77L348.36 254.337C349.081 253.924 350.154 253.88 350.787 254.233L358.509 258.697C359.127 259.05 359.053 259.684 358.332 260.096L350.669 264.53C349.948 264.957 348.86 265.002 348.242 264.633Z" fill="#173D7A"/>
<path d="M360.171 271.542L352.434 267.079C351.816 266.725 351.89 266.092 352.611 265.679L360.274 261.245C360.995 260.833 362.068 260.789 362.701 261.142L370.438 265.606C371.055 265.959 370.982 266.592 370.261 267.005L362.598 271.439C361.877 271.851 360.789 271.895 360.171 271.542Z" fill="#173D7A"/>
<path d="M246.458 192.35L238.722 187.887C238.104 187.533 238.177 186.9 238.898 186.487L246.561 182.053C247.282 181.641 248.356 181.597 248.988 181.95L256.725 186.414C257.343 186.767 257.269 187.401 256.548 187.813L248.885 192.247C248.164 192.659 247.076 192.704 246.458 192.35Z" fill="#173D7A"/>
<path d="M234.588 185.486L226.866 181.022C226.249 180.669 226.322 180.035 227.043 179.623L234.706 175.189C235.427 174.777 236.5 174.732 237.133 175.086L244.855 179.549C245.473 179.903 245.399 180.536 244.678 180.949L237.015 185.383C236.295 185.795 235.206 185.839 234.588 185.486Z" fill="#173D7A"/>
<path d="M222.704 178.621L214.967 174.158C214.349 173.804 214.423 173.171 215.144 172.758L222.807 168.324C223.528 167.912 224.601 167.868 225.234 168.221L232.971 172.685C233.588 173.038 233.515 173.672 232.794 174.084L225.131 178.518C224.41 178.93 223.322 178.975 222.704 178.621Z" fill="#173D7A"/>
<path d="M210.834 171.742L203.112 167.279C202.494 166.925 202.568 166.292 203.288 165.879L210.952 161.445C211.672 161.033 212.746 160.989 213.379 161.342L221.101 165.806C221.718 166.159 221.645 166.793 220.924 167.205L213.261 171.639C212.54 172.066 211.452 172.11 210.834 171.742Z" fill="#173D7A"/>
<path d="M223.042 164.686L215.305 160.223C214.688 159.869 214.761 159.236 215.482 158.823L218.012 157.365C218.732 156.952 219.806 156.908 220.439 157.262L228.161 161.725C228.778 162.079 228.705 162.712 227.984 163.125L225.454 164.583C224.748 164.995 223.66 165.04 223.042 164.686Z" fill="#173D7A"/>
<path d="M238.545 173.642L230.823 169.179C230.205 168.825 230.279 168.192 231 167.779L233.529 166.321C234.25 165.908 235.324 165.864 235.956 166.218L243.693 170.681C244.311 171.035 244.237 171.668 243.517 172.081L240.987 173.539C240.251 173.966 239.163 174.01 238.545 173.642Z" fill="#173D7A"/>
<path d="M250.371 180.492L242.649 176.028C242.031 175.675 242.105 175.041 242.825 174.629L245.355 173.171C246.076 172.758 247.15 172.714 247.782 173.067L255.519 177.531C256.137 177.884 256.063 178.518 255.342 178.93L252.812 180.389C252.077 180.801 250.989 180.845 250.371 180.492Z" fill="#173D7A"/>
<path d="M262.196 187.327L254.474 182.864C253.857 182.51 253.93 181.877 254.651 181.464L257.181 180.006C257.902 179.594 258.975 179.549 259.608 179.903L267.344 184.366C267.962 184.72 267.889 185.353 267.168 185.766L264.638 187.224C263.903 187.636 262.814 187.681 262.196 187.327Z" fill="#173D7A"/>
<path d="M274.022 194.162L266.285 189.699C265.668 189.345 265.741 188.712 266.462 188.299L268.992 186.841C269.713 186.429 270.786 186.384 271.419 186.738L279.141 191.201C279.759 191.555 279.685 192.188 278.964 192.601L276.434 194.059C275.728 194.486 274.64 194.53 274.022 194.162Z" fill="#173D7A"/>
<path d="M340.049 232.344L332.313 227.88C331.695 227.527 331.768 226.893 332.489 226.481L335.019 225.023C335.74 224.61 336.813 224.566 337.446 224.919L345.168 229.383C345.786 229.736 345.712 230.37 344.991 230.782L342.462 232.241C341.756 232.653 340.682 232.712 340.049 232.344Z" fill="#173D7A"/>
<path d="M351.89 239.179L344.168 234.715C343.55 234.362 343.624 233.728 344.344 233.316L346.874 231.858C347.595 231.445 348.669 231.401 349.301 231.754L357.038 236.218C357.656 236.571 357.582 237.205 356.861 237.617L354.331 239.076C353.581 239.503 352.508 239.547 351.89 239.179Z" fill="#173D7A"/>
<path d="M363.716 246.028L355.993 241.565C355.376 241.211 355.449 240.578 356.17 240.166L358.7 238.707C359.421 238.295 360.494 238.251 361.127 238.604L368.864 243.067C369.481 243.421 369.408 244.054 368.687 244.467L366.157 245.925C365.422 246.338 364.333 246.382 363.716 246.028Z" fill="#173D7A"/>
<path d="M375.541 252.863L367.819 248.4C367.202 248.046 367.275 247.413 367.996 247L370.526 245.542C371.247 245.13 372.32 245.085 372.953 245.439L380.675 249.902C381.293 250.256 381.219 250.889 380.498 251.302L377.968 252.76C377.248 253.173 376.159 253.217 375.541 252.863Z" fill="#173D7A"/>
<path d="M258.402 199.259L250.68 194.795C250.062 194.442 250.136 193.808 250.856 193.396L258.519 188.962C259.24 188.55 260.314 188.505 260.946 188.859L268.668 193.322C269.286 193.676 269.213 194.309 268.492 194.722L260.829 199.156C260.108 199.568 259.02 199.612 258.402 199.259Z" fill="#173D7A"/>
<path d="M270.33 206.152L262.594 201.689C261.976 201.335 262.049 200.702 262.77 200.29L270.433 195.856C271.154 195.443 272.228 195.399 272.86 195.752L280.597 200.216C281.215 200.569 281.141 201.203 280.42 201.615L272.757 206.049C272.037 206.462 270.948 206.521 270.33 206.152Z" fill="#173D7A"/>
<path d="M282.274 213.061L274.552 208.598C273.934 208.245 274.008 207.611 274.728 207.199L282.392 202.765C283.112 202.352 284.186 202.308 284.818 202.662L292.541 207.125C293.158 207.479 293.085 208.112 292.364 208.524L284.701 212.958C283.98 213.371 282.892 213.415 282.274 213.061Z" fill="#173D7A"/>
<path d="M294.203 219.955L286.466 215.492C285.848 215.138 285.922 214.505 286.642 214.092L294.306 209.658C295.026 209.246 296.1 209.202 296.733 209.555L304.469 214.019C305.087 214.372 305.013 215.006 304.293 215.418L296.63 219.852C295.909 220.279 294.82 220.323 294.203 219.955Z" fill="#173D7A"/>
<path d="M306.146 226.864L298.424 222.4C297.806 222.047 297.88 221.413 298.6 221.001L306.264 216.567C306.984 216.155 308.058 216.11 308.691 216.464L316.413 220.927C317.03 221.281 316.957 221.914 316.236 222.327L308.573 226.761C307.852 227.173 306.764 227.217 306.146 226.864Z" fill="#173D7A"/>
<path d="M318.075 233.758L310.338 229.294C309.72 228.941 309.794 228.307 310.514 227.895L318.178 223.461C318.898 223.049 319.972 223.004 320.605 223.358L328.341 227.821C328.959 228.175 328.886 228.808 328.165 229.221L320.502 233.655C319.781 234.082 318.692 234.126 318.075 233.758Z" fill="#173D7A"/>
<path d="M330.018 240.666L322.281 236.203C321.664 235.85 321.737 235.216 322.458 234.804L330.121 230.37C330.842 229.957 331.915 229.913 332.548 230.267L340.285 234.73C340.902 235.084 340.829 235.717 340.108 236.129L332.445 240.563C331.724 240.976 330.636 241.02 330.018 240.666Z" fill="#173D7A"/>
<path d="M341.947 247.56L334.21 243.097C333.592 242.744 333.666 242.11 334.387 241.698L342.05 237.264C342.77 236.851 343.844 236.807 344.477 237.161L352.213 241.624C352.831 241.978 352.758 242.611 352.037 243.023L344.374 247.457C343.653 247.885 342.565 247.929 341.947 247.56Z" fill="#173D7A"/>
<path d="M353.89 254.469L346.153 250.006C345.536 249.652 345.609 249.019 346.33 248.606L353.993 244.173C354.714 243.76 355.788 243.716 356.42 244.069L364.157 248.533C364.775 248.886 364.701 249.52 363.98 249.932L356.317 254.366C355.596 254.779 354.508 254.823 353.89 254.469Z" fill="#173D7A"/>
<path d="M190.154 200.098L167.385 186.929C166.767 186.576 166.84 185.942 167.561 185.53L175.224 181.096C175.945 180.683 177.019 180.639 177.651 180.993L200.42 194.162C201.038 194.515 200.964 195.149 200.244 195.561L192.58 199.995C191.86 200.422 190.771 200.467 190.154 200.098Z" fill="#173D7A"/>
<path d="M336.799 284.903L314.03 271.733C313.412 271.38 313.486 270.746 314.206 270.334L321.87 265.9C322.59 265.488 323.664 265.443 324.297 265.797L347.065 278.966C347.683 279.32 347.61 279.953 346.889 280.366L339.226 284.799C338.505 285.212 337.417 285.256 336.799 284.903Z" fill="#173D7A"/>
<path d="M289.054 272.543L281.332 268.08C280.715 267.726 280.788 267.093 281.509 266.68L290.628 261.407C291.349 260.994 292.423 260.95 293.055 261.304L300.792 265.767C301.41 266.121 301.336 266.754 300.615 267.167L291.496 272.44C290.761 272.853 289.687 272.897 289.054 272.543Z" fill="#173D7A"/>
<path d="M202.376 222.415L190.021 215.271C189.403 214.917 189.477 214.284 190.198 213.871L199.317 208.598C200.038 208.185 201.111 208.141 201.744 208.495L214.099 215.639C214.717 215.993 214.643 216.626 213.923 217.038L204.803 222.312C204.083 222.739 202.994 222.783 202.376 222.415Z" fill="#173D7A"/>
<path d="M277.552 265.885L265.197 258.741C264.579 258.387 264.653 257.754 265.374 257.342L274.493 252.068C275.214 251.656 276.287 251.611 276.92 251.965L289.275 259.109C289.893 259.463 289.819 260.096 289.099 260.509L279.979 265.782C279.259 266.209 278.185 266.254 277.552 265.885Z" fill="#173D7A"/>
<path d="M219.6 232.373L207.245 225.229C206.627 224.875 206.701 224.242 207.421 223.829L216.541 218.556C217.262 218.143 218.335 218.099 218.968 218.453L231.323 225.597C231.941 225.951 231.867 226.584 231.147 226.996L222.027 232.27C221.306 232.697 220.218 232.741 219.6 232.373Z" fill="#173D7A"/>
<path d="M219.041 218.497L272.787 249.578C273.449 249.961 273.449 250.595 272.787 250.978L263.476 256.354C262.814 256.737 261.726 256.737 261.064 256.354L207.319 225.273L219.041 218.497Z" fill="#173D7A"/>
<path d="M322.414 285.049L331.018 290.028C331.533 290.323 331.46 290.839 330.871 291.177L327.135 293.328C326.547 293.667 325.664 293.711 325.149 293.416L316.545 288.438C316.03 288.143 316.104 287.627 316.692 287.289L320.428 285.138C321.016 284.799 321.914 284.755 322.414 285.049Z" fill="#173D7A"/>
<path d="M310.382 278.097L318.987 283.076C319.501 283.37 319.428 283.886 318.839 284.225L315.103 286.376C314.515 286.714 313.633 286.759 313.118 286.464L304.513 281.485C303.998 281.19 304.072 280.675 304.66 280.336L308.396 278.185C308.985 277.832 309.882 277.802 310.382 278.097Z" fill="#173D7A"/>
<path d="M298.453 271.188L307.058 276.167C307.573 276.462 307.499 276.977 306.911 277.316L303.175 279.467C302.586 279.806 301.704 279.85 301.189 279.555L292.584 274.576C292.07 274.282 292.143 273.766 292.732 273.427L296.468 271.277C297.056 270.938 297.938 270.893 298.453 271.188Z" fill="#173D7A"/>
<path d="M316.972 274.282L325.576 279.261C326.091 279.555 326.017 280.071 325.429 280.41L321.693 282.56C321.105 282.899 320.222 282.943 319.707 282.649L311.103 277.67C310.588 277.375 310.662 276.86 311.25 276.521L314.986 274.37C315.574 274.031 316.471 273.987 316.972 274.282Z" fill="#173D7A"/>
<path d="M301.16 62.721L289.731 56.1217C288.672 55.503 288.054 53.9857 288.334 52.7336C288.628 51.4815 289.716 50.9512 290.775 51.5699L302.204 58.1692C303.263 58.7879 303.881 60.3052 303.601 61.5573C303.322 62.8094 302.219 63.3397 301.16 62.721Z" fill="#D4ECFF"/>
<path d="M328.371 78.4533L311.529 68.7164C310.47 68.0977 309.852 66.5805 310.132 65.3284C310.426 64.0763 311.514 63.546 312.573 64.1646L329.415 73.9016C330.474 74.5203 331.092 76.0375 330.812 77.2896C330.518 78.5417 329.43 79.072 328.371 78.4533Z" fill="#D4ECFF"/>
<path d="M281.244 116.119L269.816 109.52C268.756 108.901 268.139 107.384 268.418 106.132C268.712 104.88 269.801 104.35 270.86 104.968L282.288 111.568C283.347 112.186 283.965 113.704 283.686 114.956C283.406 116.208 282.318 116.738 281.244 116.119Z" fill="#D4ECFF"/>
<path d="M305.499 130.143L288.657 120.406C287.598 119.787 286.981 118.27 287.26 117.018C287.554 115.766 288.643 115.235 289.702 115.854L306.543 125.591C307.602 126.21 308.22 127.727 307.94 128.979C307.661 130.231 306.558 130.761 305.499 130.143Z" fill="#D4ECFF"/>
<path d="M267.462 54.0592L260.328 49.9347C259.269 49.316 258.652 47.7987 258.931 46.5466C259.225 45.2945 260.314 44.7642 261.373 45.3829L268.506 49.5075C269.566 50.1262 270.183 51.6434 269.904 52.8955C269.624 54.1476 268.521 54.6632 267.462 54.0592Z" fill="#D4ECFF"/>
<path d="M289.452 77.5987L267.653 64.9893C266.594 64.3707 265.977 62.8534 266.256 61.6013C266.55 60.3492 267.639 59.8189 268.698 60.4376L290.496 73.047C291.555 73.6657 292.173 75.1829 291.893 76.435C291.614 77.6871 290.511 78.2027 289.452 77.5987Z" fill="#D4ECFF"/>
<path d="M270.389 88.2047L263.255 84.0802C262.196 83.4615 261.579 81.9442 261.858 80.6921C262.152 79.44 263.241 78.9097 264.3 79.5284L271.433 83.653C272.492 84.2717 273.11 85.7889 272.831 87.041C272.551 88.2931 271.448 88.8234 270.389 88.2047Z" fill="#D4ECFF"/>
<path d="M309.176 153.903L290.113 142.885C289.054 142.266 288.437 140.749 288.716 139.497C289.01 138.245 290.099 137.714 291.158 138.333L310.22 149.352C311.279 149.97 311.897 151.488 311.617 152.74C311.323 153.992 310.235 154.522 309.176 153.903Z" fill="#D4ECFF"/>
<path d="M263.432 105.823L258.858 103.171C257.798 102.552 257.181 101.035 257.46 99.7829C257.754 98.5308 258.843 98.0006 259.902 98.6192L264.476 101.271C265.535 101.889 266.153 103.407 265.873 104.659C265.594 105.911 264.491 106.426 263.432 105.823Z" fill="#D4ECFF"/>
<path d="M260.137 125.547L254.445 122.262C253.386 121.643 252.768 120.126 253.048 118.874C253.342 117.622 254.43 117.091 255.489 117.71L261.181 120.995C262.241 121.614 262.858 123.131 262.579 124.383C262.299 125.635 261.196 126.165 260.137 125.547Z" fill="#D4ECFF"/>
<path d="M282.274 138.348L267.271 129.671C266.212 129.053 265.594 127.536 265.874 126.283C266.168 125.031 267.256 124.501 268.315 125.12L283.318 133.796C284.377 134.415 284.995 135.932 284.716 137.184C284.421 138.436 283.333 138.952 282.274 138.348Z" fill="#D4ECFF"/>
<path d="M263.035 138.038L252.253 131.807C251.194 131.189 250.577 129.671 250.856 128.419C251.15 127.167 252.239 126.637 253.298 127.255L264.079 133.487C265.138 134.105 265.756 135.622 265.477 136.875C265.197 138.127 264.094 138.657 263.035 138.038Z" fill="#D4ECFF"/>
<path d="M325.532 163.404L318.604 159.398C317.545 158.779 316.927 157.262 317.207 156.01C317.501 154.757 318.589 154.227 319.648 154.846L326.576 158.853C327.635 159.471 328.253 160.988 327.974 162.241C327.679 163.493 326.591 164.023 325.532 163.404Z" fill="#D4ECFF"/>
<path d="M296.938 103.554L277.876 92.5357C276.817 91.9171 276.199 90.3998 276.478 89.1477C276.773 87.8956 277.861 87.3653 278.92 87.984L297.982 99.0025C299.042 99.6212 299.659 101.138 299.38 102.391C299.086 103.643 297.997 104.158 296.938 103.554Z" fill="#D4ECFF"/>
<path d="M298.674 93.7434L265.462 74.5348C264.403 73.9161 263.785 72.3988 264.064 71.1467C264.359 69.8946 265.447 69.3643 266.506 69.983L299.718 89.1917C300.777 89.8104 301.395 91.3276 301.115 92.5797C300.821 93.8318 299.733 94.3474 298.674 93.7434Z" fill="#D4ECFF"/>
<path d="M280.112 104.644L261.049 93.6256C259.99 93.0069 259.372 91.4897 259.652 90.2376C259.946 88.9855 261.034 88.4551 262.093 89.0738L281.156 100.092C282.215 100.711 282.833 102.228 282.553 103.48C282.274 104.732 281.171 105.263 280.112 104.644Z" fill="#D4ECFF"/>
<path d="M311.382 111.906L304.454 107.9C303.395 107.281 302.778 105.764 303.057 104.511C303.351 103.259 304.44 102.729 305.499 103.348L312.427 107.354C313.486 107.973 314.103 109.49 313.824 110.743C313.544 111.995 312.456 112.525 311.382 111.906Z" fill="#D4ECFF"/>
<path d="M379.748 108.165L338.74 84.4483C337.681 83.8296 337.064 82.3124 337.343 81.0603C337.637 79.8082 338.726 79.2779 339.785 79.8966L380.792 103.613C381.851 104.232 382.469 105.749 382.19 107.001C381.895 108.253 380.807 108.769 379.748 108.165Z" fill="#D4ECFF"/>
<path d="M279.567 125.959L256.651 112.716C255.592 112.098 254.974 110.58 255.254 109.328C255.548 108.076 256.637 107.546 257.696 108.165L280.612 121.407C281.671 122.026 282.288 123.543 282.009 124.796C281.715 126.048 280.626 126.578 279.567 125.959Z" fill="#D4ECFF"/>
<path d="M279.376 50.1262L262.535 40.3893C261.476 39.7706 260.858 38.2533 261.137 37.0012C261.432 35.7491 262.52 35.2188 263.579 35.8375L280.42 45.5744C281.479 46.1931 282.097 47.7104 281.818 48.9625C281.524 50.2146 280.435 50.7301 279.376 50.1262Z" fill="#D4ECFF"/>
<path d="M260.034 147.127L240.531 135.843C239.472 135.225 238.854 133.707 239.133 132.455C239.427 131.203 240.516 130.673 241.575 131.292L261.079 142.575C262.138 143.194 262.755 144.711 262.476 145.963C262.196 147.215 261.093 147.731 260.034 147.127Z" fill="#D4ECFF"/>
<path d="M392.045 188.3L380.616 181.7C379.557 181.082 378.939 179.564 379.218 178.312C379.513 177.06 380.601 176.53 381.66 177.149L393.089 183.748C394.148 184.367 394.766 185.884 394.486 187.136C394.207 188.388 393.104 188.918 392.045 188.3Z" fill="#D4ECFF"/>
<path d="M400.251 149.779L378.453 137.17C377.394 136.551 376.776 135.034 377.055 133.782C377.35 132.529 378.438 131.999 379.497 132.618L401.295 145.227C402.354 145.846 402.972 147.363 402.693 148.615C402.413 149.867 401.31 150.383 400.251 149.779Z" fill="#D4ECFF"/>
<path d="M381.189 160.385L374.056 156.26C372.997 155.642 372.379 154.124 372.658 152.872C372.953 151.62 374.041 151.09 375.1 151.709L382.234 155.833C383.293 156.452 383.911 157.969 383.631 159.221C383.337 160.473 382.248 161.004 381.189 160.385Z" fill="#D4ECFF"/>
<path d="M374.232 178.003L369.658 175.351C368.599 174.732 367.981 173.215 368.26 171.963C368.555 170.711 369.643 170.181 370.702 170.799L375.277 173.451C376.336 174.07 376.953 175.587 376.674 176.839C376.38 178.091 375.291 178.607 374.232 178.003Z" fill="#D4ECFF"/>
<path d="M407.724 175.734L388.661 164.716C387.602 164.097 386.985 162.58 387.264 161.328C387.558 160.076 388.647 159.545 389.706 160.164L408.768 171.183C409.827 171.801 410.445 173.319 410.165 174.571C409.886 175.823 408.798 176.338 407.724 175.734Z" fill="#D4ECFF"/>
<path d="M409.474 165.924L376.262 146.715C375.203 146.096 374.585 144.579 374.865 143.327C375.159 142.075 376.247 141.545 377.306 142.163L410.519 161.372C411.578 161.991 412.195 163.508 411.916 164.76C411.622 166.012 410.533 166.528 409.474 165.924Z" fill="#D4ECFF"/>
<path d="M390.912 176.824L371.849 165.806C370.79 165.187 370.173 163.67 370.452 162.418C370.746 161.166 371.835 160.635 372.894 161.254L391.956 172.272C393.015 172.891 393.633 174.408 393.353 175.66C393.059 176.913 391.971 177.443 390.912 176.824Z" fill="#D4ECFF"/>
<path d="M390.368 198.139L367.452 184.897C366.392 184.278 365.775 182.761 366.054 181.509C366.348 180.256 367.437 179.726 368.496 180.345L391.412 193.588C392.471 194.206 393.089 195.724 392.809 196.976C392.515 198.228 391.427 198.758 390.368 198.139Z" fill="#D4ECFF"/>
<path opacity="0.2" d="M19.1215 330.14L75.7644 297.541C80.2359 294.978 88.0167 295.317 93.1648 298.307L209.319 365.802C214.467 368.793 215.011 373.3 210.554 375.864L153.911 408.462C149.44 411.025 141.644 410.687 136.511 407.696L20.357 340.201C15.209 337.21 14.65 332.703 19.1215 330.14Z" fill="#B2D3EA"/>
<path d="M156.177 397.679L214.173 364.3C216.717 362.841 217.982 360.897 218.056 358.835L218.1 348.833L216.232 352.044C215.335 350.998 214.129 349.996 212.599 349.113L95.7976 281.249C89.1787 277.404 79.1622 276.962 73.4111 280.276L15.4149 313.656C14.7971 314.01 14.2676 314.393 13.7969 314.805L11.5759 311.947L11.5318 321.345C11.4436 323.938 13.2969 326.693 16.9887 328.828L133.79 396.692C140.409 400.552 150.426 400.994 156.177 397.679Z" fill="#396CAA"/>
<path d="M15.4579 306.232L73.4688 272.852C79.2199 269.553 89.2365 269.98 95.8553 273.825L212.657 341.689C219.276 345.533 219.982 351.337 214.23 354.637L156.234 388.016C150.483 391.316 140.467 390.889 133.848 387.044L17.0464 319.18C10.4128 315.336 9.70683 309.546 15.4579 306.232Z" fill="#D4ECFF"/>
<path d="M214.232 354.652L156.235 388.031C150.484 391.331 140.468 390.904 133.849 387.059L17.0476 319.195C13.8411 317.339 12.0319 315.011 11.6642 312.743C11.2082 315.527 13.0321 318.576 17.0476 320.904L133.849 388.768C140.468 392.612 150.484 393.054 156.235 389.74L214.232 356.36C217.188 354.652 218.424 352.295 218.026 349.864C217.732 351.661 216.482 353.355 214.232 354.652Z" fill="white"/>
<path d="M19.1215 307.573L75.7644 274.974C80.2359 272.411 88.0167 272.75 93.1648 275.74L209.319 343.236C214.467 346.226 215.011 350.734 210.554 353.297L153.911 385.895C149.44 388.459 141.644 388.12 136.511 385.129L20.357 317.634C15.209 314.658 14.65 310.151 19.1215 307.573Z" fill="white"/>
<path d="M110.374 319.431L89.3993 307.307C88.6198 306.851 88.7227 306.07 89.62 305.554C90.5172 305.039 91.8704 304.98 92.6499 305.422L113.624 317.545C114.404 318.002 114.301 318.783 113.404 319.298C112.507 319.828 111.153 319.887 110.374 319.431Z" fill="#B2D3EA"/>
<path d="M90.5025 315.336L83.0158 311.005C82.2362 310.548 82.3392 309.768 83.2364 309.252C84.1336 308.736 85.4868 308.677 86.2664 309.119L93.7531 313.45C94.5327 313.907 94.4297 314.687 93.5325 315.203C92.6352 315.719 91.282 315.778 90.5025 315.336Z" fill="#B2D3EA"/>
<path d="M103.049 322.583L95.5624 318.252C94.7829 317.796 94.8858 317.015 95.783 316.499C96.6803 315.984 98.0335 315.925 98.813 316.367L106.3 320.697C107.079 321.154 106.976 321.935 106.079 322.45C105.182 322.981 103.829 323.04 103.049 322.583Z" fill="#396CAA"/>
<path d="M128.436 337.269L108.123 325.529C107.344 325.072 107.447 324.292 108.344 323.776C109.241 323.261 110.594 323.202 111.374 323.644L131.687 335.384C132.466 335.841 132.363 336.621 131.466 337.137C130.569 337.652 129.216 337.711 128.436 337.269Z" fill="#B2D3EA"/>
<path d="M102.828 329.845L76.6322 314.702C75.8527 314.245 75.9556 313.465 76.8529 312.949C77.7501 312.434 79.1033 312.375 79.8828 312.817L106.079 327.96C106.859 328.416 106.756 329.197 105.858 329.713C104.976 330.243 103.608 330.287 102.828 329.845Z" fill="#B2D3EA"/>
<path d="M134.334 355.447L70.234 318.385C69.4545 317.928 69.5574 317.147 70.4547 316.632C71.3519 316.116 72.7051 316.057 73.4846 316.499L137.57 353.562C138.35 354.018 138.247 354.799 137.35 355.314C136.482 355.845 135.114 355.904 134.334 355.447Z" fill="#396CAA"/>
<path d="M153.044 344.104L116.169 322.774C115.39 322.318 115.492 321.537 116.39 321.021C117.287 320.506 118.64 320.447 119.42 320.889L156.294 342.219C157.074 342.675 156.971 343.456 156.074 343.972C155.176 344.502 153.823 344.561 153.044 344.104Z" fill="#B2D3EA"/>
<path d="M107.873 378.928L102.475 375.805C101.946 375.495 101.505 374.656 101.505 373.949C101.505 373.227 101.946 372.903 102.475 373.212L107.873 376.335C108.403 376.644 108.844 377.484 108.844 378.191C108.844 378.913 108.403 379.237 107.873 378.928Z" fill="#D4ECFF"/>
<path d="M116.36 383.848L110.962 380.725C110.433 380.415 109.991 379.576 109.991 378.869C109.991 378.147 110.433 377.823 110.962 378.132L116.36 381.255C116.89 381.564 117.331 382.404 117.331 383.111C117.331 383.833 116.89 384.157 116.36 383.848Z" fill="#D4ECFF"/>
<path opacity="0.2" d="M400.906 475.365L322.965 430.849C320.111 429.2 320.479 426.327 323.759 424.412L368.605 398.486C371.9 396.586 376.872 396.38 379.725 398.03L457.666 442.545C460.52 444.195 460.152 447.068 456.872 448.983L412.025 474.909C408.745 476.809 403.759 477.015 400.906 475.365Z" fill="#B2D3EA"/>
<path d="M464.623 427.565V245.333L392.286 226.374L378.96 218.67C375.901 216.902 370.562 217.123 367.032 219.171L354.603 226.36L316.022 226.33L327.451 402.243C327.362 403.436 328.024 404.6 329.495 405.439L401.685 459.987C404.745 461.755 410.084 461.534 413.614 459.486L461.726 431.675C463.756 430.496 464.741 428.979 464.623 427.565Z" fill="#396CAA"/>
<path d="M373.43 217.477C371.194 217.535 368.87 218.095 367.032 219.156L354.603 226.344L316.022 226.33V409.048C315.934 410.241 316.596 411.405 318.066 412.245L401.685 459.986C403.156 460.841 405.156 461.224 407.216 461.165L408.083 277.298L373.43 217.477Z" fill="#89B7E2"/>
<path d="M402.45 460.37C405.083 461.504 408.907 461.445 411.981 460.267V275.147H402.45V460.37Z" fill="#5793CE"/>
<path d="M401.685 277.342L318.066 229.585C315.007 227.818 315.389 224.724 318.92 222.691L367.032 194.88C370.562 192.832 375.901 192.611 378.96 194.379L462.579 242.121C465.638 243.889 465.256 246.982 461.726 249.015L413.614 276.841C410.084 278.889 404.744 279.11 401.685 277.342Z" fill="#89B7E2"/>
<path d="M461.726 245.641L413.614 273.453C410.084 275.5 404.744 275.721 401.685 273.954L318.066 226.197C317.39 225.799 316.89 225.343 316.537 224.842C315.492 226.536 315.963 228.377 318.066 229.585L401.685 277.327C404.744 279.095 410.084 278.874 413.614 276.826L461.726 249.015C464.476 247.424 465.3 245.214 464.108 243.476C463.623 244.257 462.829 244.993 461.726 245.641Z" fill="#D4ECFF"/>
<path d="M404.053 257.986L348.381 225.667C346.954 224.842 347.131 223.399 348.778 222.441L371.297 209.419C372.944 208.462 375.445 208.359 376.886 209.184L432.559 241.502C433.985 242.327 433.809 243.771 432.161 244.728L409.642 257.75C407.98 258.708 405.48 258.811 404.053 257.986Z" fill="#173D7A"/>
<path d="M373.989 227.125L370.767 225.254C370.576 225.136 370.591 224.945 370.826 224.812L373.945 223.015C374.18 222.883 374.518 222.868 374.724 222.986L377.945 224.856C378.136 224.974 378.122 225.166 377.886 225.298L374.768 227.096C374.533 227.213 374.195 227.228 373.989 227.125Z" fill="#D4ECFF"/>
<path d="M384.77 233.327L381.549 231.456C381.358 231.338 381.372 231.147 381.608 231.014L384.726 229.217C384.961 229.084 385.3 229.069 385.506 229.187L388.727 231.058C388.918 231.176 388.903 231.367 388.668 231.5L385.55 233.297C385.314 233.43 384.976 233.444 384.77 233.327Z" fill="#D4ECFF"/>
<path d="M395.551 239.528L392.316 237.672C392.124 237.554 392.139 237.363 392.374 237.23L395.493 235.433C395.728 235.301 396.066 235.286 396.272 235.404L399.493 237.274C399.685 237.392 399.67 237.584 399.435 237.716L396.316 239.513C396.096 239.631 395.743 239.646 395.551 239.528Z" fill="#D4ECFF"/>
<path d="M406.318 245.745L403.097 243.874C402.906 243.756 402.921 243.564 403.156 243.432L406.274 241.635C406.509 241.502 406.848 241.487 407.054 241.605L410.275 243.476C410.466 243.594 410.451 243.785 410.216 243.918L407.098 245.715C406.862 245.833 406.524 245.848 406.318 245.745Z" fill="#D4ECFF"/>
<path d="M348.381 225.667L348.44 225.711C348.543 225.638 348.646 225.549 348.778 225.476L371.297 212.454C372.944 211.496 375.445 211.393 376.886 212.218L432.485 244.493C433.809 243.55 433.868 242.254 432.544 241.502L376.872 209.198C375.445 208.373 372.944 208.476 371.282 209.434L348.778 222.441C347.131 223.398 346.954 224.842 348.381 225.667Z" fill="#5793CE"/>
<path d="M395.596 301.839L322.567 259.621C320.935 258.678 319.611 256.145 319.611 253.964V240.015C319.611 237.834 320.935 236.833 322.567 237.775L395.596 279.993C397.228 280.936 398.552 283.47 398.552 285.65V299.6C398.552 301.78 397.228 302.782 395.596 301.839Z" fill="#5793CE"/>
<path opacity="0.4" d="M393.492 296.949L324.671 257.146C323.847 256.66 323.17 255.379 323.17 254.274V243.786C323.17 242.681 323.847 242.165 324.671 242.652L393.492 282.454C394.316 282.94 394.993 284.221 394.993 285.326V295.814C394.993 296.919 394.331 297.435 393.492 296.949Z" fill="#D4ECFF"/>
<path d="M339.012 260.151L328.745 254.215C327.936 253.743 327.289 252.506 327.289 251.431C327.289 250.355 327.936 249.855 328.745 250.326L339.012 256.262C339.821 256.734 340.468 257.971 340.468 259.046C340.468 260.122 339.821 260.608 339.012 260.151Z" fill="#D4ECFF"/>
<path d="M347.275 264.353C347.929 263.975 347.926 262.743 347.268 261.602C346.61 260.461 345.546 259.842 344.892 260.22C344.238 260.599 344.241 261.831 344.899 262.972C345.557 264.113 346.62 264.732 347.275 264.353Z" fill="#173D7A"/>
<path d="M353.706 266.691C353.706 267.767 352.955 268.209 352.029 267.664C351.102 267.133 350.352 265.822 350.352 264.747C350.352 263.672 351.102 263.23 352.029 263.775C352.955 264.305 353.706 265.616 353.706 266.691Z" fill="#173D7A"/>
<path d="M359.648 270.124C359.648 271.199 358.898 271.641 357.971 271.096C357.044 270.551 356.294 269.255 356.294 268.18C356.294 267.104 357.044 266.662 357.971 267.207C358.883 267.738 359.648 269.049 359.648 270.124Z" fill="#D4ECFF"/>
<path d="M365.575 273.556C365.575 274.632 364.825 275.073 363.898 274.528C362.972 273.998 362.222 272.687 362.222 271.612C362.222 270.536 362.972 270.095 363.898 270.64C364.825 271.185 365.575 272.481 365.575 273.556Z" fill="#173D7A"/>
<path d="M390.595 291.115L387.138 289.111C386.623 288.817 386.197 288.007 386.197 287.314V283.646C386.197 282.954 386.609 282.645 387.138 282.939L390.595 284.943C391.109 285.237 391.536 286.048 391.536 286.74V290.408C391.536 291.085 391.124 291.409 390.595 291.115Z" fill="#173D7A"/>
<path d="M395.596 326.424L322.567 284.206C320.935 283.264 319.611 280.73 319.611 278.55V264.6C319.611 262.42 320.935 261.418 322.567 262.361L395.596 304.579C397.228 305.522 398.552 308.055 398.552 310.235V324.185C398.552 326.365 397.228 327.367 395.596 326.424Z" fill="#5793CE"/>
<path opacity="0.4" d="M393.492 321.534L324.671 281.747C323.847 281.26 323.17 279.979 323.17 278.874V268.386C323.17 267.281 323.847 266.766 324.671 267.252L393.492 307.039C394.316 307.525 394.993 308.807 394.993 309.911V320.4C394.993 321.504 394.331 322.02 393.492 321.534Z" fill="#D4ECFF"/>
<path d="M339.012 284.737L328.745 278.8C327.936 278.329 327.289 277.092 327.289 276.016C327.289 274.941 327.936 274.44 328.745 274.911L339.012 280.848C339.821 281.319 340.468 282.557 340.468 283.632C340.468 284.707 339.821 285.193 339.012 284.737Z" fill="#D4ECFF"/>
<path d="M347.763 287.845C347.763 288.92 347.013 289.362 346.086 288.817C345.16 288.287 344.41 286.976 344.41 285.9C344.41 284.825 345.16 284.383 346.086 284.928C347.013 285.473 347.763 286.769 347.763 287.845Z" fill="white"/>
<path d="M353.706 291.277C353.706 292.353 352.955 292.795 352.029 292.25C351.102 291.719 350.352 290.408 350.352 289.333C350.352 288.258 351.102 287.816 352.029 288.361C352.955 288.906 353.706 290.202 353.706 291.277Z" fill="#173D7A"/>
<path d="M359.648 294.724C359.648 295.799 358.898 296.241 357.971 295.696C357.044 295.166 356.294 293.855 356.294 292.779C356.294 291.704 357.044 291.262 357.971 291.807C358.898 292.352 359.648 293.648 359.648 294.724Z" fill="#D4ECFF"/>
<path d="M365.088 299.254C365.743 298.876 365.74 297.644 365.082 296.502C364.424 295.361 363.36 294.742 362.706 295.121C362.051 295.499 362.054 296.731 362.712 297.872C363.37 299.014 364.434 299.632 365.088 299.254Z" fill="#173D7A"/>
<path d="M390.595 315.701L387.138 313.697C386.623 313.403 386.197 312.592 386.197 311.9V308.232C386.197 307.54 386.609 307.23 387.138 307.525L390.595 309.528C391.109 309.823 391.536 310.633 391.536 311.326V314.993C391.536 315.686 391.124 315.995 390.595 315.701Z" fill="#173D7A"/>
<path d="M395.596 351.025L322.567 308.792C320.935 307.849 319.611 305.315 319.611 303.135V289.185C319.611 287.005 320.935 286.004 322.567 286.946L395.596 329.164C397.228 330.107 398.552 332.641 398.552 334.821V348.771C398.552 350.966 397.228 351.967 395.596 351.025Z" fill="#5793CE"/>
<path opacity="0.4" d="M393.492 346.134L324.671 306.332C323.847 305.846 323.17 304.564 323.17 303.46V292.971C323.17 291.867 323.847 291.351 324.671 291.837L393.492 331.639C394.316 332.125 394.993 333.407 394.993 334.512V345C394.993 346.105 394.331 346.606 393.492 346.134Z" fill="#D4ECFF"/>
<path d="M339.012 309.322L328.745 303.386C327.936 302.914 327.289 301.677 327.289 300.602C327.289 299.526 327.936 299.026 328.745 299.497L339.012 305.433C339.821 305.905 340.468 307.142 340.468 308.217C340.468 309.293 339.821 309.794 339.012 309.322Z" fill="#D4ECFF"/>
<path d="M347.763 312.445C347.763 313.52 347.013 313.962 346.086 313.417C345.16 312.887 344.41 311.576 344.41 310.501C344.41 309.425 345.16 308.983 346.086 309.528C347.013 310.059 347.763 311.37 347.763 312.445Z" fill="white"/>
<path d="M353.706 315.877C353.706 316.953 352.955 317.395 352.029 316.849C351.102 316.319 350.352 315.008 350.352 313.933C350.352 312.857 351.102 312.416 352.029 312.961C352.955 313.491 353.706 314.802 353.706 315.877Z" fill="#173D7A"/>
<path d="M359.648 319.309C359.648 320.384 358.898 320.826 357.971 320.281C357.044 319.751 356.294 318.44 356.294 317.365C356.294 316.289 357.044 315.847 357.971 316.392C358.883 316.923 359.648 318.234 359.648 319.309Z" fill="#D4ECFF"/>
<path d="M365.575 322.742C365.575 323.817 364.825 324.259 363.898 323.714C362.972 323.169 362.222 321.872 362.222 320.797C362.222 319.722 362.972 319.28 363.898 319.825C364.825 320.355 365.575 321.666 365.575 322.742Z" fill="#173D7A"/>
<path d="M390.595 340.286L387.138 338.283C386.623 337.988 386.197 337.178 386.197 336.486V332.832C386.197 332.14 386.609 331.831 387.138 332.125L390.595 334.129C391.109 334.423 391.536 335.234 391.536 335.926V339.594C391.536 340.271 391.124 340.595 390.595 340.286Z" fill="#173D7A"/>
<path d="M395.596 375.61L322.567 333.392C320.935 332.449 319.611 329.915 319.611 327.735V313.785C319.611 311.605 320.935 310.603 322.567 311.546L395.596 353.764C397.228 354.707 398.552 357.241 398.552 359.421V373.371C398.552 375.551 397.228 376.552 395.596 375.61Z" fill="#5793CE"/>
<path opacity="0.4" d="M393.492 370.719L324.671 330.917C323.847 330.431 323.17 329.15 323.17 328.045V317.557C323.17 316.452 323.847 315.936 324.671 316.422L393.492 356.224C394.316 356.711 394.993 357.992 394.993 359.097V369.585C394.993 370.69 394.331 371.205 393.492 370.719Z" fill="#D4ECFF"/>
<path d="M339.012 333.922L328.745 327.986C327.936 327.514 327.289 326.277 327.289 325.202C327.289 324.126 327.936 323.625 328.745 324.097L339.012 330.033C339.821 330.505 340.468 331.742 340.468 332.817C340.468 333.893 339.821 334.379 339.012 333.922Z" fill="#D4ECFF"/>
<path d="M347.763 337.03C347.763 338.105 347.013 338.547 346.086 338.002C345.16 337.472 344.41 336.161 344.41 335.086C344.41 334.01 345.16 333.568 346.086 334.113C347.013 334.644 347.763 335.955 347.763 337.03Z" fill="#173D7A"/>
<path d="M353.2 341.563C353.854 341.184 353.851 339.952 353.193 338.811C352.535 337.67 351.472 337.051 350.817 337.43C350.163 337.808 350.166 339.04 350.824 340.181C351.482 341.322 352.546 341.941 353.2 341.563Z" fill="#173D7A"/>
<path d="M359.648 343.895C359.648 344.97 358.898 345.412 357.971 344.867C357.044 344.322 356.294 343.025 356.294 341.95C356.294 340.875 357.044 340.433 357.971 340.978C358.883 341.508 359.648 342.819 359.648 343.895Z" fill="#D4ECFF"/>
<path d="M365.575 347.327C365.575 348.402 364.825 348.844 363.898 348.299C362.972 347.754 362.222 346.458 362.222 345.383C362.222 344.307 362.972 343.865 363.898 344.41C364.825 344.955 365.575 346.252 365.575 347.327Z" fill="#173D7A"/>
<path d="M390.595 364.886L387.138 362.882C386.623 362.588 386.197 361.778 386.197 361.085V357.417C386.197 356.725 386.609 356.416 387.138 356.71L390.595 358.714C391.109 359.008 391.536 359.818 391.536 360.511V364.179C391.536 364.856 391.124 365.18 390.595 364.886Z" fill="#D4ECFF"/>
<path d="M395.596 400.195L322.567 357.977C320.935 357.034 319.611 354.501 319.611 352.321V338.371C319.611 336.191 320.935 335.189 322.567 336.132L395.596 378.35C397.228 379.292 398.552 381.826 398.552 384.006V397.956C398.552 400.136 397.228 401.138 395.596 400.195Z" fill="#5793CE"/>
<path opacity="0.4" d="M393.492 395.304L324.671 355.517C323.847 355.031 323.17 353.749 323.17 352.645V342.156C323.17 341.052 323.847 340.536 324.671 341.022L393.492 380.824C394.316 381.31 394.993 382.592 394.993 383.697V394.185C394.993 395.275 394.331 395.791 393.492 395.304Z" fill="#D4ECFF"/>
<path d="M339.012 358.507L328.745 352.571C327.936 352.1 327.289 350.862 327.289 349.787C327.289 348.712 327.936 348.211 328.745 348.682L339.012 354.619C339.821 355.09 340.468 356.327 340.468 357.403C340.468 358.478 339.821 358.964 339.012 358.507Z" fill="#D4ECFF"/>
<path d="M347.763 361.616C347.763 362.691 347.013 363.133 346.086 362.588C345.16 362.057 344.41 360.746 344.41 359.671C344.41 358.596 345.16 358.154 346.086 358.699C347.013 359.244 347.763 360.54 347.763 361.616Z" fill="#173D7A"/>
<path d="M353.706 365.048C353.706 366.123 352.955 366.565 352.029 366.02C351.102 365.475 350.352 364.179 350.352 363.103C350.352 362.028 351.102 361.586 352.029 362.131C352.955 362.676 353.706 363.973 353.706 365.048Z" fill="white"/>
<path d="M359.648 368.495C359.648 369.57 358.898 370.012 357.971 369.467C357.044 368.922 356.294 367.626 356.294 366.551C356.294 365.475 357.044 365.033 357.971 365.578C358.883 366.109 359.648 367.42 359.648 368.495Z" fill="#D4ECFF"/>
<path d="M365.575 371.927C365.575 373.003 364.825 373.445 363.898 372.9C362.972 372.369 362.222 371.058 362.222 369.983C362.222 368.908 362.972 368.466 363.898 369.011C364.825 369.541 365.575 370.852 365.575 371.927Z" fill="white"/>
<path d="M390.595 389.471L387.138 387.468C386.623 387.173 386.197 386.363 386.197 385.671V382.003C386.197 381.311 386.609 381.001 387.138 381.296L390.595 383.299C391.109 383.594 391.536 384.404 391.536 385.096V388.764C391.536 389.457 391.124 389.766 390.595 389.471Z" fill="#D4ECFF"/>
<path d="M395.596 424.795L322.567 382.577C320.935 381.635 319.611 379.101 319.611 376.921V362.971C319.611 360.791 320.935 359.789 322.567 360.732L395.596 402.95C397.228 403.892 398.552 406.426 398.552 408.606V422.556C398.552 424.736 397.228 425.738 395.596 424.795Z" fill="#5793CE"/>
<path opacity="0.4" d="M393.492 419.905L324.671 380.103C323.847 379.616 323.17 378.335 323.17 377.23V366.742C323.17 365.637 323.847 365.122 324.671 365.608L393.492 405.41C394.316 405.896 394.993 407.177 394.993 408.282V418.77C394.993 419.875 394.331 420.376 393.492 419.905Z" fill="#D4ECFF"/>
<path d="M339.012 383.093L328.745 377.156C327.936 376.685 327.289 375.448 327.289 374.372C327.289 373.297 327.936 372.796 328.745 373.267L339.012 379.204C339.821 379.675 340.468 380.913 340.468 381.988C340.468 383.063 339.821 383.564 339.012 383.093Z" fill="#D4ECFF"/>
<path d="M347.266 387.296C347.92 386.918 347.917 385.686 347.259 384.545C346.601 383.403 345.537 382.785 344.883 383.163C344.229 383.541 344.232 384.773 344.89 385.914C345.548 387.056 346.611 387.674 347.266 387.296Z" fill="#173D7A"/>
<path d="M353.706 389.648C353.706 390.723 352.955 391.165 352.029 390.62C351.102 390.09 350.352 388.779 350.352 387.704C350.352 386.628 351.102 386.186 352.029 386.731C352.955 387.262 353.706 388.573 353.706 389.648Z" fill="#173D7A"/>
<path d="M359.648 393.08C359.648 394.155 358.898 394.597 357.971 394.052C357.044 393.522 356.294 392.211 356.294 391.136C356.294 390.06 357.044 389.618 357.971 390.163C358.898 390.709 359.648 392.005 359.648 393.08Z" fill="#D4ECFF"/>
<path d="M365.575 396.513C365.575 397.588 364.825 398.03 363.898 397.485C362.972 396.954 362.222 395.643 362.222 394.568C362.222 393.493 362.972 393.051 363.898 393.596C364.825 394.126 365.575 395.437 365.575 396.513Z" fill="#173D7A"/>
<path d="M390.595 414.057L387.138 412.053C386.623 411.759 386.197 410.949 386.197 410.256V406.588C386.197 405.896 386.609 405.587 387.138 405.881L390.595 407.885C391.109 408.179 391.536 408.989 391.536 409.682V413.35C391.536 414.042 391.124 414.366 390.595 414.057Z" fill="#173D7A"/>
<path d="M395.596 449.38L322.567 407.163C320.935 406.22 319.611 403.686 319.611 401.506V387.556C319.611 385.376 320.935 384.374 322.567 385.317L395.596 427.535C397.228 428.478 398.552 431.011 398.552 433.191V447.141C398.552 449.322 397.228 450.323 395.596 449.38Z" fill="#5793CE"/>
<path opacity="0.4" d="M393.492 444.49L324.671 404.688C323.847 404.202 323.17 402.92 323.17 401.815V391.327C323.17 390.222 323.847 389.707 324.671 390.193L393.492 429.995C394.316 430.481 394.993 431.763 394.993 432.867V443.356C394.993 444.46 394.331 444.961 393.492 444.49Z" fill="#D4ECFF"/>
<path d="M339.012 407.678L328.745 401.741C327.936 401.27 327.289 400.033 327.289 398.957C327.289 397.882 327.936 397.381 328.745 397.853L339.012 403.789C339.821 404.26 340.468 405.498 340.468 406.573C340.468 407.663 339.821 408.149 339.012 407.678Z" fill="#D4ECFF"/>
<path d="M349.646 412.127C349.646 414.16 348.219 414.985 346.469 413.968C344.718 412.952 343.292 410.477 343.292 408.459C343.292 406.426 344.718 405.601 346.469 406.618C348.219 407.634 349.646 410.094 349.646 412.127Z" fill="white"/>
<path d="M361.942 419.345C361.942 420.42 361.192 420.862 360.266 420.317C359.339 419.787 358.589 418.476 358.589 417.4C358.589 416.325 359.339 415.883 360.266 416.428C361.192 416.958 361.942 418.269 361.942 419.345Z" fill="#173D7A"/>
<path d="M367.885 422.777C367.885 423.852 367.134 424.294 366.208 423.749C365.281 423.219 364.531 421.908 364.531 420.832C364.531 419.757 365.281 419.315 366.208 419.86C367.134 420.391 367.885 421.702 367.885 422.777Z" fill="#D4ECFF"/>
<path d="M373.827 426.209C373.827 427.285 373.077 427.727 372.15 427.182C371.224 426.651 370.473 425.34 370.473 424.265C370.473 423.19 371.224 422.748 372.15 423.293C373.062 423.823 373.827 425.134 373.827 426.209Z" fill="#173D7A"/>
<path d="M390.595 438.657L387.138 436.653C386.623 436.359 386.197 435.548 386.197 434.856V431.188C386.197 430.496 386.609 430.186 387.138 430.481L390.595 432.484C391.109 432.779 391.536 433.589 391.536 434.282V437.95C391.536 438.627 391.124 438.951 390.595 438.657Z" fill="#D4ECFF"/>
</svg>
