<svg width="308" height="499" viewBox="0 0 308 499" fill="none" xmlns="http://www.w3.org/2000/svg">
<g clip-path="url(#clip0_4160:978)">
<path opacity="0.33" d="M48.813 323.809C92.1021 298.855 162.044 298.855 205.06 323.809C243.066 345.852 247.286 380.003 217.895 404.86C241.601 403.397 266.176 407.899 284.278 418.415C316.052 436.857 315.891 466.747 283.908 485.189C251.924 503.631 200.228 503.631 168.454 485.189C143.17 470.525 138.129 448.61 153.235 430.972C116.79 436.23 76.6901 430.634 48.3138 414.17C5.28237 389.216 5.52394 348.763 48.813 323.809Z" fill="#6A99DC"/>
<path d="M184.703 237.258C199.471 247.5 216.091 254.575 228.427 268.29C251.457 293.919 251.988 335.16 233.903 364.471C215.817 393.782 182.191 411.404 147.937 415.424C112.007 419.652 74.3065 409.748 46.1074 387.094C17.9244 364.455 -0.0160937 329.082 1.08334e-05 292.954C0.0161154 256.826 18.5525 220.858 48.8452 201.13C76.4967 183.122 116.227 177.993 143.959 198.589C157.986 209.008 167.327 224.379 181.321 234.814C182.449 235.65 183.576 236.47 184.703 237.258Z" fill="#BA68C8"/>
<path opacity="0.2" d="M184.703 237.258C199.471 247.5 216.091 254.575 228.427 268.29C251.457 293.919 251.988 335.16 233.903 364.471C215.817 393.782 182.191 411.404 147.937 415.424C112.007 419.652 74.3065 409.748 46.1074 387.094C17.9244 364.455 -0.0160937 329.082 1.08334e-05 292.954C0.0161154 256.826 18.5525 220.858 48.8452 201.13C76.4967 183.122 116.227 177.993 143.959 198.589C157.986 209.008 167.327 224.379 181.321 234.814C182.449 235.65 183.576 236.47 184.703 237.258Z" fill="black"/>
<path d="M184.703 237.258C199.471 247.5 216.091 254.575 228.427 268.29C251.457 293.919 251.988 335.16 233.903 364.471C215.817 393.782 182.191 411.404 147.937 415.424C112.007 419.652 74.3065 409.748 46.1074 387.094C17.9244 364.455 -0.0160937 329.082 1.08334e-05 292.954C0.0161154 256.826 18.5525 220.858 48.8452 201.13C76.4967 183.122 116.227 177.993 143.959 198.589C157.986 209.008 167.327 224.379 181.321 234.814C182.449 235.65 183.576 236.47 184.703 237.258Z" fill="#066AFC"/>
<path opacity="0.1" d="M178.696 387.415C178.664 387.174 178.632 386.933 178.6 386.675C176.248 370.259 163.429 357.477 147.115 354.358C132.911 351.64 119.174 346.415 106.789 338.938C97.9802 333.616 89.6542 327.088 79.766 324.21C70.6347 321.541 59.281 321.959 50.6328 325.899C58.9428 317.184 73.1792 313.357 84.5651 317.297C76.69 305.254 69.7489 292.279 67.0434 278.162C64.3217 264.029 66.2542 248.529 74.7897 236.953C82.0367 227.113 93.8253 220.745 106.049 220.102C118.272 219.443 130.673 224.524 138.918 233.528C147.373 242.757 152.124 255.748 157.68 266.955C161.658 275.01 165.78 283.242 172.351 289.384C182.272 298.646 196.524 301.974 206.799 310.833C218.459 320.866 223.483 336.929 223.531 352.3C223.564 362.67 221.615 372.88 219.022 382.961C207.218 394.425 192.627 403.075 176.877 408.687C179.228 401.966 179.663 394.506 178.696 387.415Z" fill="black"/>
<path d="M19.2933 288.002C19.9053 257.26 34.5283 227.354 58.4436 207.979C73.0665 196.13 90.846 188.492 109.382 185.646C112.813 185.984 116.227 186.547 119.56 187.351C98.0608 188.605 76.996 196.516 60.1989 210.134C36.9117 228.994 22.6592 258.128 22.0794 288.05C21.4191 321.67 37.8941 355.934 66.1415 379.714C88.2853 398.349 117.692 410.697 150.014 415.151C149.322 415.247 148.629 415.344 147.953 415.424C145.054 415.762 142.123 416.003 139.208 416.164C110.494 410.6 84.4846 398.783 64.3539 381.836C35.4462 357.525 18.6169 322.442 19.2933 288.002Z" fill="white"/>
<path d="M216.333 376.176C214.835 382.158 214.529 392.946 214.529 392.946L210.551 391.451C206.686 390.004 202.322 390.985 199.471 393.975L199.278 394.184C197.796 395.728 195.348 395.84 193.738 394.441C192.901 393.702 192.401 392.657 192.369 391.547L191.838 374.617L216.333 376.176Z" fill="#FFA8A7"/>
<path d="M200.937 439.14C209.215 447.967 224.433 455.7 235.497 448.16L234.257 450.973C223.193 458.514 207.958 450.78 199.697 441.953C191.419 433.126 196.798 427 189.341 419.17C184.494 414.379 182.9 409.62 182.9 409.62C183.238 408.783 183.544 407.674 183.93 406.42C184.913 408.623 187.103 412.948 190.565 416.356C198.038 424.187 192.675 430.296 200.937 439.14Z" fill="white"/>
<path d="M188.021 397.175C189.841 394.313 190.453 392.351 190.614 391.145C190.759 390.116 191.37 389.232 192.256 388.685L192.353 391.531C192.385 392.641 192.884 393.686 193.722 394.425C195.332 395.84 197.78 395.728 199.262 394.168L199.455 393.959C202.305 390.985 206.67 389.988 210.535 391.435L214.593 392.962C215.833 393.428 216.639 394.618 216.606 395.937C216.349 407.513 221.76 422.9 227.445 431.358C233.291 433.769 238.331 441.728 235.755 447.549L235.497 448.127C224.433 455.668 209.198 447.935 200.937 439.107C192.659 430.28 198.038 424.154 190.581 416.324C187.119 412.9 184.929 408.59 183.946 406.388C184.735 403.863 185.814 400.632 188.021 397.175Z" fill="#14365B"/>
<path d="M204.206 413.897C203.513 414.25 202.676 413.945 202.338 413.27C202 412.594 202.241 411.742 202.918 411.388C209.279 408.108 214.738 409.202 218.813 411.421C219.054 412.337 219.328 413.237 219.602 414.138C214.899 411.758 210.149 410.906 204.206 413.897Z" fill="white"/>
<path d="M202.177 407.626C201.484 407.98 200.647 407.674 200.309 406.999C199.971 406.324 200.212 405.471 200.889 405.118C207.218 401.854 213.015 402.851 217.428 405.246C217.589 406.195 217.782 407.144 218.008 408.092C213.144 405.568 208.297 404.539 202.177 407.626Z" fill="white"/>
<path d="M206.444 420.135C205.752 420.489 204.915 420.183 204.576 419.508C204.238 418.833 204.48 417.98 205.156 417.627C211.34 414.427 216.671 415.376 220.713 417.466C221.067 418.447 221.438 419.411 221.824 420.36C217.122 417.996 212.371 417.128 206.444 420.135Z" fill="white"/>
<path d="M227.445 431.374C233.291 433.786 238.332 441.744 235.755 447.565L235.497 448.144C224.595 455.572 209.666 448.176 201.307 439.51C208.281 425.891 222.839 429.284 227.445 431.374Z" fill="white"/>
<path d="M208.892 426.212C208.2 426.566 207.363 426.261 207.024 425.585C206.686 424.91 206.928 424.058 207.604 423.704C213.804 420.505 219.151 421.453 223.177 423.559C223.676 424.637 224.176 425.682 224.707 426.679C219.876 424.138 215.012 423.125 208.892 426.212Z" fill="white"/>
<path d="M233.709 409.861C234.756 415.938 238.847 425.939 238.847 425.939L234.595 426.18C230.472 426.405 226.881 429.074 225.48 432.949L225.383 433.223C224.659 435.232 222.468 436.326 220.423 435.683C219.36 435.345 218.475 434.589 217.991 433.592L210.648 418.318L233.709 409.861Z" fill="#FFA8A7"/>
<path d="M245.079 473.66C256.224 478.403 273.278 479.336 280.348 467.984V471.055C273.262 482.407 256.207 481.474 245.079 476.731C233.935 471.988 236.383 464.222 226.398 460.041C220.02 457.614 216.655 453.899 216.655 453.899C216.622 452.999 216.461 451.858 216.3 450.555C218.088 452.179 221.84 455.234 226.398 456.97C236.383 461.151 233.951 468.901 245.079 473.66Z" fill="white"/>
<path d="M216.317 440.474C216.832 437.13 216.59 435.088 216.252 433.914C215.978 432.917 216.172 431.856 216.751 431.004L217.975 433.56C218.459 434.557 219.328 435.329 220.407 435.65C222.452 436.294 224.643 435.2 225.367 433.19L225.464 432.917C226.865 429.042 230.456 426.373 234.579 426.148L238.895 425.907C240.216 425.826 241.44 426.598 241.939 427.82C246.384 438.528 257.56 450.41 266.176 455.861C272.505 455.716 280.332 460.958 280.332 467.325V467.952C273.246 479.304 256.192 478.371 245.063 473.628C233.919 468.885 236.367 461.119 226.382 456.938C221.84 455.202 218.072 452.147 216.284 450.523C215.995 447.918 215.689 444.526 216.317 440.474Z" fill="#14365B"/>
<path d="M237.881 449.253C237.398 449.848 236.512 449.912 235.916 449.43C235.32 448.948 235.207 448.079 235.69 447.484C240.184 441.921 245.627 440.715 250.233 441.101C250.829 441.841 251.441 442.564 252.053 443.272C246.786 442.982 242.1 444.108 237.881 449.253Z" fill="white"/>
<path d="M233.484 444.333C233.001 444.928 232.115 444.992 231.519 444.51C230.94 444.027 230.811 443.159 231.294 442.564C235.771 437.033 241.472 435.602 246.481 436.02C247.012 436.808 247.576 437.612 248.155 438.384C242.68 438.014 237.832 439.043 233.484 444.333Z" fill="white"/>
<path d="M242.438 454.044C241.955 454.639 241.069 454.703 240.474 454.221C239.878 453.739 239.765 452.871 240.248 452.276C244.612 446.857 249.879 445.571 254.42 445.876C255.145 446.632 255.87 447.356 256.594 448.079C251.344 447.79 246.658 448.915 242.438 454.044Z" fill="white"/>
<path d="M266.209 455.877C272.538 455.732 280.364 460.974 280.364 467.341V467.968C273.391 479.159 256.739 478.403 245.595 473.837C246.448 458.578 261.152 455.813 266.209 455.877Z" fill="white"/>
<path d="M247.141 458.627C246.658 459.222 245.772 459.286 245.176 458.804C244.58 458.321 244.468 457.453 244.951 456.858C249.331 451.424 254.613 450.153 259.155 450.459C260.041 451.247 260.926 451.986 261.812 452.694C256.353 452.308 251.489 453.337 247.141 458.627Z" fill="white"/>
<path d="M168.277 265.203L224.031 296.218C234.386 301.974 239.91 313.711 237.752 325.352L226.93 383.54L238.219 417.964C227.445 431.39 206.863 429.412 206.863 429.412C197.056 409.78 193.577 394.49 188.005 378.025C182.433 361.577 178.729 350.226 178.729 350.226L132.428 337.588C110.783 331.687 94.8236 313.245 92.3113 290.976C91.5222 283.982 91.49 279.207 91.49 279.207L168.277 265.203Z" fill="#0C1E27"/>
<path opacity="0.1" d="M167.858 280.831C167.874 286.989 165.619 293.115 161.625 297.794L200.969 322.378C206.734 325.979 211.018 331.558 213.015 338.054L226.946 383.524L214.384 332.893C212.935 327.073 209.263 322.04 204.158 318.889L167.826 296.475C171.514 287.214 167.858 280.831 167.858 280.831Z" fill="white"/>
<path d="M202.579 212.128C196.894 227.322 177.585 223.447 177.585 223.447C176.586 202.979 202.579 212.128 202.579 212.128Z" fill="#263238"/>
<path d="M162.237 169.552L163.671 169.568C173.301 169.68 185.492 176.224 191.451 193.01L214.593 237.757L188.182 249.446L173.736 207.208L162.237 169.552Z" fill="#FFC4BC"/>
<path d="M180.79 199.249C182.642 204.538 182.754 210.23 183.044 215.825C183.334 221.421 183.978 228.158 186.555 233.142C189.357 231.213 192.788 230.2 196.186 230.328C199.584 230.457 202.934 231.695 205.591 233.833C207.491 235.361 208.908 237.483 209.875 239.847L188.182 249.446L173.736 207.207L166.634 183.926C173.108 186.9 178.422 192.496 180.79 199.249Z" fill="#ECB5AD"/>
<path d="M187.924 241.358C189.873 236.374 194.575 232.563 199.874 231.711C205.172 230.859 211.163 233.624 214.577 237.741C217.46 241.213 217.009 245.924 215.189 250.041C212.339 256.52 204.399 260.283 197.571 258.369C190.742 256.488 185.363 247.966 187.924 241.358Z" fill="#FFC4BC"/>
<path d="M162.237 169.552C173.752 168.281 188.246 173.571 202.579 212.127C183.914 212.594 177.585 223.447 177.585 223.447C169.146 201.998 159.661 172.269 159.661 172.269L162.237 169.552Z" fill="#455A64"/>
<path d="M162.237 169.552C173.752 168.281 188.246 173.571 202.579 212.127C183.914 212.594 177.585 223.447 177.585 223.447C169.146 201.998 159.661 172.269 159.661 172.269L162.237 169.552Z" fill="#4688E8"/>
<path d="M90.5719 283.564C100.46 293.051 147.969 294.787 172.206 271.747C169.887 255.491 170.66 238.062 172.206 220.826C173.752 203.59 183.833 173.459 164.572 169.954C138.853 164.937 125.841 169.552 104.841 175.002C86.4974 205.535 89.0098 251.23 90.5719 283.564Z" fill="#BA68C8"/>
<path d="M90.5719 283.564C100.46 293.051 147.969 294.787 172.206 271.747C169.887 255.491 170.66 238.062 172.206 220.826C173.752 203.59 183.833 173.459 164.572 169.954C138.853 164.937 125.841 169.552 104.841 175.002C86.4974 205.535 89.0098 251.23 90.5719 283.564Z" fill="#77B3FC"/>
<path d="M128.482 158.908C124.714 157.477 122.057 153.924 120.736 150.113C119.415 146.302 119.222 142.202 119.061 138.183C118.658 128.873 118.272 119.564 117.869 110.254C117.708 106.492 117.596 102.521 119.432 99.2245C120.865 96.6359 123.474 94.7386 126.373 94.1437C129.271 93.5488 132.412 94.3045 134.747 96.1214C138.499 88.661 147.26 83.4355 155.538 84.6574C160.402 85.381 164.798 87.841 169.082 90.2527C173.752 92.8896 178.423 95.5265 183.077 98.1634C185.992 99.8194 189.052 101.588 190.791 104.45C192.353 107.023 192.659 110.222 192.24 113.197C191.822 116.171 190.71 119.017 189.599 121.831C188.311 125.111 187.022 128.423 185.025 131.333C183.028 134.243 180.258 136.752 176.877 137.749C165.813 141.029 157.277 150.016 147.276 155.773C144.522 157.348 141.752 158.956 138.709 159.856C135.649 160.773 131.446 160.033 128.482 158.908Z" fill="#263238"/>
<path d="M153.364 161.175L152.365 172.317C152.285 173.185 152.559 174.021 152.994 174.777C154.25 176.964 153.863 180.453 152.011 182.06C150.658 183.234 148.806 183.62 147.035 183.749C140.158 184.247 133.137 181.289 128.595 176.642C127.613 175.629 127.097 174.246 127.13 172.831L127.854 144.582L153.364 161.175Z" fill="#FFC4BC"/>
<path d="M127.854 144.566L153.364 161.175L152.478 171.047C147.067 169.777 141.64 168.217 137.356 164.744C131.913 160.339 127.13 155.949 127.854 144.566Z" fill="#ECB5AD"/>
<path d="M182.352 120.85C181.804 133.825 178.68 146.688 173.205 158.474C172.013 161.062 170.676 163.619 168.808 165.757C166.94 167.912 164.476 169.632 161.674 170.163C158.227 170.806 154.733 169.6 151.447 168.394C145.424 166.207 139.24 163.94 134.409 159.728C129.577 155.515 126.324 148.875 127.951 142.685C124.488 143.939 120.43 143.714 117.531 141.447C114.632 139.18 113.022 135.369 113.408 131.719C113.779 128.166 116.517 124.596 120.092 124.5C122.282 124.452 124.343 125.674 125.809 127.314C127.258 128.954 128.208 130.963 129.143 132.941C129.593 133.89 130.044 134.854 130.833 135.546C131.623 136.221 132.83 136.543 133.732 136.012C134.715 135.433 134.956 134.147 135.101 133.022L136.132 124.998C136.293 123.728 137.195 122.715 138.419 122.345C140.19 121.799 141.688 120.496 142.719 118.872C143.604 117.458 144.152 115.882 144.571 114.258C144.909 112.956 146.407 112.345 147.55 113.052C157.503 119.226 170.821 121.751 182.352 120.85Z" fill="#FFC4BC"/>
<path d="M183.254 118.615C182.835 122.378 180.017 125.754 176.41 126.863C177.07 125.497 177.73 124.13 178.375 122.78C174.96 125.304 170.789 126.799 166.554 127.008C168.374 125.802 169.871 124.098 170.805 122.136C166.264 125.304 160.901 127.314 155.377 127.893C158.695 126.606 161.69 124.5 164.025 121.831C159.983 124.677 154.91 126.011 149.982 125.545C151.27 124.05 152.543 122.538 153.831 121.043C150.014 123.021 145.586 123.825 141.318 123.326C142.848 121.831 144.378 120.352 145.908 118.856C143.621 119.258 141.318 119.66 139.031 120.062C140.513 116.557 141.334 113.084 142.075 109.354C149.112 108.823 155.925 109.37 162.753 111.123C169.598 112.875 176.651 116.123 183.254 118.615Z" fill="#263238"/>
<path d="M74.8056 33.1207C75.5182 31.8431 76.5652 30.7541 77.8885 29.9992L128.146 0.699976C131.854 -1.43431 140.652 1.45496 140.652 7.42224V61.8682C140.652 64.83 139.067 67.5741 136.478 69.0405L103.759 87.6973L109.401 84.4741L106.696 92.1547C106.609 92.4015 106.347 92.4886 106.129 92.4305L106.144 92.4595C105.664 92.2127 103.526 91.0657 102.319 90.2672C102.305 90.2672 102.305 90.2527 102.305 90.2527C102.276 90.2382 102.246 90.2236 102.217 90.1946V90.1801C102.174 90.151 102.13 90.122 102.116 90.0785L101.447 89.0041L86.2211 98.2381C80.0117 101.781 73.7295 97.062 73.7295 91.5158V37.157C73.7295 35.7196 74.1221 34.3258 74.8056 33.1207Z" fill="#0354CC"/>
<path d="M107.454 69.8374L107.436 63.1791L113.059 59.6997L113.077 66.358L107.454 69.8374Z" fill="white"/>
<path d="M117.8 31.9076C119.906 32.6735 120.965 34.4926 120.974 37.364C120.985 40.9269 119.245 44.8285 115.759 49.063C114.243 50.9151 113.323 52.2196 113.003 52.9813C112.684 53.7404 112.528 54.9151 112.532 56.5076L106.468 59.6998L106.465 58.7654C106.456 55.7768 106.672 53.7755 107.118 52.7615C107.561 51.7464 108.737 49.9958 110.645 47.5114C111.645 46.2141 112.34 45.1263 112.729 44.2579C113.119 43.3862 113.313 42.4581 113.31 41.4739C113.306 40.2579 112.934 39.4962 112.197 39.1836C111.457 38.8748 110.562 38.9983 109.512 39.5506C106.739 41.0101 105.185 43.883 104.855 48.1668L98.4102 50.5963C98.8822 46.6329 100.171 43.1412 102.274 40.1291C104.376 37.1143 106.947 34.8067 109.987 33.2069C113.092 31.5726 115.696 31.1402 117.8 31.9076Z" fill="white"/>
<path opacity="0.2" d="M102.116 90.0931C102.145 90.1367 102.188 90.1657 102.217 90.1948V90.2093C102.246 90.2238 102.276 90.2383 102.305 90.2674C102.319 90.2674 102.319 90.2819 102.319 90.2819C103.526 91.0804 105.664 92.2274 106.144 92.4742L106.129 92.4452C106.027 92.4162 105.926 92.3581 105.867 92.2564L103.25 87.9879L103.773 87.6975L101.461 89.0187L102.116 90.0931Z" fill="white"/>
<path d="M83.0362 37.7811C83.5743 36.7212 84.3159 35.763 85.2466 35.008C85.5665 34.7612 85.901 34.5289 86.25 34.3256L136.507 5.02643C138.34 3.96655 140.637 5.30229 140.637 7.42205C140.637 1.46929 131.854 -1.41997 128.131 0.699789L77.8883 29.999C76.565 30.754 75.518 31.8429 74.8054 33.1205L83.0362 37.7811Z" fill="#066AFC"/>
<path d="M82.1055 95.8424V41.4835C82.1055 41.1496 82.1346 40.8302 82.1636 40.5107C82.2945 39.5525 82.5999 38.6378 83.0362 37.7812L74.8054 33.1206C74.1219 34.3257 73.7292 35.7195 73.7292 37.1569V91.5157C73.7292 97.0619 80.0114 101.781 86.2209 98.238C84.3886 99.2833 82.1055 97.9621 82.1055 95.8424Z" fill="#066AFC"/>
<path d="M160.675 282.503C160.675 282.535 160.675 282.583 160.691 282.615C160.707 282.663 160.723 282.712 160.755 282.744L163.123 285.461C163.09 285.413 163.09 285.332 163.09 285.284C163.171 285.702 163.799 285.686 164.814 285.107L184.687 273.949C186.184 273.113 187.875 271.489 188.504 270.331L205.8 238.19C206.09 237.66 206.074 237.338 205.88 237.193C205.896 237.209 205.945 237.193 205.961 237.209L203.593 234.492C203.529 234.412 203.432 234.38 203.288 234.364C203.239 234.364 203.191 234.364 203.143 234.364C203.11 234.364 203.062 234.38 203.03 234.38C203.014 234.38 203.014 234.38 202.998 234.38C202.982 234.38 202.949 234.396 202.917 234.396C202.885 234.412 202.853 234.412 202.804 234.428C202.772 234.444 202.74 234.444 202.692 234.46C202.659 234.476 202.627 234.476 202.595 234.492C202.563 234.508 202.531 234.524 202.482 234.54C202.45 234.556 202.418 234.573 202.386 234.589C202.353 234.605 202.321 234.621 202.273 234.637C202.241 234.653 202.208 234.669 202.16 234.685C202.128 234.701 202.08 234.717 202.047 234.749C202.015 234.765 201.967 234.798 201.935 234.814C201.919 234.83 201.903 234.83 201.886 234.846L182.013 246.004C181.997 246.02 181.965 246.037 181.949 246.037C181.917 246.053 181.868 246.085 181.836 246.101C181.804 246.117 181.772 246.149 181.723 246.165C181.691 246.181 181.659 246.213 181.627 246.229C181.595 246.246 181.562 246.278 181.53 246.294C181.498 246.31 181.482 246.326 181.45 246.342C181.417 246.358 181.401 246.374 181.369 246.406C181.353 246.422 181.321 246.438 181.305 246.455C181.289 246.471 181.273 246.487 181.24 246.503C181.224 246.519 181.208 246.535 181.176 246.551C181.16 246.567 181.144 246.583 181.112 246.599C181.095 246.615 181.079 246.615 181.063 246.631C181.047 246.647 181.031 246.647 181.015 246.664C180.999 246.68 180.983 246.68 180.967 246.696C180.95 246.712 180.934 246.712 180.918 246.728C180.902 246.744 180.886 246.744 180.87 246.76C180.854 246.776 180.838 246.776 180.838 246.792C180.822 246.808 180.822 246.808 180.806 246.824C180.789 246.84 180.789 246.84 180.773 246.857C180.757 246.873 180.757 246.873 180.741 246.889C180.725 246.905 180.725 246.905 180.709 246.921C180.693 246.937 180.693 246.937 180.677 246.953C180.661 246.969 180.661 246.969 180.644 246.985C180.628 247.001 180.612 247.001 180.612 247.017C180.596 247.033 180.596 247.033 180.58 247.049C180.564 247.066 180.564 247.066 180.548 247.082C180.532 247.098 180.532 247.098 180.516 247.114C180.5 247.13 180.483 247.13 180.483 247.146C180.467 247.162 180.467 247.162 180.451 247.178C180.435 247.194 180.419 247.21 180.403 247.226C180.387 247.242 180.371 247.258 180.355 247.275C180.338 247.291 180.322 247.307 180.306 247.323C180.29 247.339 180.274 247.355 180.258 247.371C180.177 247.451 180.097 247.516 180 247.596C179.984 247.612 179.952 247.644 179.936 247.66C179.92 247.677 179.888 247.709 179.871 247.725C179.855 247.741 179.839 247.757 179.807 247.773C179.791 247.789 179.775 247.789 179.775 247.805C179.759 247.821 179.743 247.821 179.743 247.837C179.727 247.853 179.727 247.853 179.71 247.869C179.694 247.886 179.694 247.886 179.678 247.902C179.662 247.918 179.662 247.918 179.646 247.934C179.63 247.95 179.63 247.95 179.614 247.966C179.598 247.982 179.598 247.982 179.582 247.998C179.565 248.014 179.565 248.014 179.549 248.03C179.533 248.046 179.533 248.046 179.517 248.062C179.501 248.078 179.501 248.078 179.485 248.095C179.469 248.111 179.469 248.111 179.453 248.127C179.437 248.143 179.437 248.143 179.421 248.159C179.404 248.175 179.388 248.191 179.388 248.191C179.372 248.207 179.372 248.223 179.356 248.223C179.34 248.239 179.34 248.255 179.324 248.255C179.308 248.271 179.308 248.287 179.292 248.287C179.276 248.304 179.259 248.32 179.259 248.336C179.243 248.352 179.227 248.368 179.211 248.384C179.195 248.4 179.179 248.416 179.163 248.432C179.147 248.448 179.131 248.464 179.115 248.48C179.098 248.497 179.082 248.513 179.066 248.545C179.05 248.577 179.018 248.593 179.002 248.625C178.986 248.657 178.954 248.673 178.937 248.706C178.921 248.738 178.889 248.77 178.873 248.786C178.841 248.818 178.825 248.85 178.792 248.882C178.76 248.915 178.744 248.947 178.712 248.979C178.68 249.011 178.664 249.043 178.631 249.091C178.599 249.124 178.583 249.156 178.551 249.188C178.535 249.22 178.503 249.252 178.486 249.284C178.47 249.317 178.438 249.349 178.422 249.381C178.406 249.413 178.374 249.445 178.358 249.477C178.342 249.509 178.325 249.542 178.293 249.574C178.277 249.606 178.261 249.638 178.245 249.67L160.949 281.811C160.932 281.843 160.916 281.875 160.9 281.908C160.884 281.94 160.868 281.972 160.852 281.988C160.836 282.02 160.82 282.052 160.82 282.068C160.804 282.101 160.804 282.133 160.788 282.149C160.771 282.181 160.771 282.213 160.755 282.229C160.739 282.261 160.739 282.293 160.739 282.326C160.739 282.342 160.739 282.358 160.739 282.374C160.739 282.374 160.739 282.374 160.739 282.39C160.739 282.406 160.739 282.406 160.739 282.422C160.675 282.438 160.675 282.47 160.675 282.503ZM205.284 237.129C205.301 237.129 205.333 237.097 205.349 237.097C205.413 237.081 205.429 237.129 205.494 237.113C205.429 237.129 205.365 237.113 205.284 237.129ZM182.158 250.41C182.335 250.249 182.529 250.104 182.706 249.944C182.529 250.088 182.335 250.233 182.158 250.41ZM181.224 251.407C181.289 251.326 181.385 251.23 181.466 251.149C181.385 251.23 181.289 251.31 181.224 251.407ZM163.042 285.075C163.042 285.075 163.058 285.075 163.042 285.075C163.058 284.914 163.139 284.705 163.268 284.48C163.123 284.753 163.074 284.946 163.058 285.123C163.058 285.107 163.042 285.107 163.042 285.075Z" fill="#EEEEEE"/>
<path d="M160.675 282.407C160.675 282.391 160.675 282.391 160.675 282.374C160.675 282.374 160.675 282.374 160.675 282.358C160.675 282.342 160.675 282.326 160.675 282.31C160.675 282.278 160.691 282.246 160.691 282.214C160.691 282.181 160.707 282.149 160.724 282.133C160.74 282.101 160.74 282.069 160.756 282.053C160.772 282.021 160.772 281.989 160.788 281.972C160.804 281.94 160.82 281.908 160.836 281.892C160.852 281.86 160.869 281.828 160.885 281.796L178.181 249.655L180.548 252.356L163.252 284.497C163.123 284.722 163.059 284.931 163.027 285.092C163.01 285.252 163.027 285.365 163.107 285.445L160.74 282.728C160.707 282.696 160.691 282.648 160.675 282.6C160.659 282.567 160.659 282.535 160.659 282.487C160.675 282.471 160.675 282.439 160.675 282.407Z" fill="#C7C7C7"/>
<path d="M178.245 249.558C178.261 249.526 178.278 249.494 178.31 249.462C178.326 249.43 178.358 249.398 178.374 249.365C178.39 249.333 178.422 249.301 178.439 249.269C178.455 249.237 178.487 249.205 178.503 249.173C178.519 249.14 178.551 249.108 178.584 249.076C178.616 249.044 178.632 249.012 178.664 248.964C178.696 248.931 178.712 248.899 178.745 248.867C178.777 248.835 178.793 248.803 178.825 248.771C178.841 248.738 178.873 248.706 178.89 248.69C178.906 248.658 178.938 248.642 178.954 248.61C178.97 248.578 179.002 248.562 179.018 248.529C179.034 248.513 179.051 248.497 179.067 248.465C179.083 248.449 179.099 248.433 179.115 248.417C179.131 248.401 179.147 248.385 179.163 248.369C179.179 248.353 179.195 248.336 179.212 248.32C179.228 248.304 179.244 248.288 179.244 248.272C179.26 248.256 179.26 248.24 179.276 248.24C179.292 248.224 179.292 248.208 179.308 248.208C179.324 248.192 179.34 248.176 179.34 248.176C179.357 248.16 179.357 248.143 179.373 248.143C179.389 248.127 179.389 248.127 179.405 248.111C179.421 248.095 179.421 248.095 179.437 248.079C179.453 248.063 179.453 248.063 179.469 248.047C179.485 248.031 179.485 248.031 179.501 248.015C179.518 247.999 179.518 247.999 179.534 247.983C179.55 247.967 179.55 247.967 179.566 247.951C179.582 247.934 179.582 247.934 179.598 247.918C179.614 247.902 179.614 247.902 179.63 247.886C179.646 247.87 179.646 247.87 179.663 247.854C179.679 247.838 179.679 247.838 179.695 247.822C179.711 247.806 179.727 247.806 179.727 247.79C179.743 247.774 179.759 247.774 179.759 247.758C179.775 247.742 179.791 247.725 179.824 247.709C179.84 247.693 179.872 247.661 179.888 247.645C179.904 247.629 179.936 247.597 179.952 247.581C180.033 247.5 180.113 247.436 180.21 247.356C180.226 247.34 180.242 247.323 180.258 247.307C180.274 247.291 180.291 247.275 180.307 247.259C180.323 247.243 180.339 247.227 180.355 247.211C180.371 247.195 180.387 247.179 180.403 247.163C180.419 247.147 180.419 247.147 180.436 247.131C180.452 247.114 180.452 247.114 180.468 247.098C180.484 247.082 180.484 247.082 180.5 247.066C180.516 247.05 180.516 247.05 180.532 247.034C180.548 247.018 180.548 247.018 180.564 247.002C180.58 246.986 180.597 246.986 180.597 246.97C180.613 246.954 180.613 246.954 180.629 246.938C180.645 246.922 180.645 246.922 180.661 246.905C180.677 246.889 180.677 246.889 180.693 246.873C180.709 246.857 180.709 246.857 180.725 246.841C180.742 246.825 180.742 246.825 180.758 246.809C180.774 246.793 180.774 246.793 180.79 246.777C180.806 246.761 180.822 246.761 180.822 246.745C180.838 246.729 180.854 246.729 180.87 246.713C180.886 246.696 180.903 246.696 180.919 246.68C180.935 246.664 180.951 246.664 180.967 246.648C180.983 246.632 180.999 246.632 181.015 246.616C181.031 246.6 181.048 246.6 181.064 246.584C181.08 246.568 181.096 246.552 181.128 246.536C181.144 246.52 181.16 246.503 181.192 246.487C181.209 246.471 181.225 246.455 181.257 246.439C181.273 246.423 181.305 246.407 181.321 246.391C181.353 246.375 181.37 246.359 181.402 246.327C181.434 246.311 181.45 246.294 181.482 246.278C181.515 246.262 181.547 246.23 181.579 246.214C181.611 246.198 181.643 246.166 181.676 246.15C181.708 246.134 181.74 246.102 181.788 246.085C181.821 246.069 181.869 246.037 181.901 246.021C181.917 246.005 181.949 245.989 181.965 245.989L201.839 234.831C201.855 234.814 201.871 234.814 201.887 234.798C201.919 234.782 201.967 234.75 202 234.734C202.032 234.718 202.08 234.702 202.112 234.67C202.144 234.654 202.193 234.638 202.225 234.621C202.257 234.605 202.289 234.589 202.338 234.573C202.37 234.557 202.402 234.541 202.434 234.525C202.467 234.509 202.499 234.493 202.547 234.477C202.579 234.461 202.612 234.445 202.644 234.445C202.676 234.429 202.724 234.412 202.756 234.412C202.789 234.396 202.837 234.396 202.869 234.38C202.901 234.38 202.918 234.364 202.95 234.364C202.966 234.364 202.966 234.364 202.982 234.364C203.03 234.364 203.062 234.348 203.095 234.348C203.143 234.348 203.191 234.348 203.24 234.348C203.368 234.348 203.481 234.396 203.546 234.477L205.913 237.194C205.816 237.081 205.607 237.049 205.317 237.098C205.027 237.162 204.657 237.307 204.222 237.548L184.349 248.706C183.979 248.915 183.592 249.173 183.222 249.462C182.851 249.751 182.481 250.073 182.127 250.394C181.788 250.716 181.466 251.054 181.192 251.391C180.919 251.729 180.693 252.051 180.532 252.34L178.165 249.639C178.213 249.607 178.229 249.591 178.245 249.558Z" fill="#C7C7C7"/>
<path d="M92.1342 183.669C94.9525 178.845 99.2686 175.437 104.857 175.019L108.207 180.115C111.685 186.466 113.473 193.621 113.392 200.857L112.796 254.478H112.78C114.101 255.009 115.405 255.572 116.726 256.118C127.597 260.62 139.659 264.64 151.286 266.537C157.116 261.617 165.442 259.077 173.076 259.157L170.145 264.608C175.701 268.161 188.246 261.762 188.246 261.762C189.164 269.576 184.091 277.696 177.376 281.796C170.644 285.896 106.435 279.866 92.8106 271.071C83.8565 265.283 85.9662 209.989 85.9662 209.989C85.3381 200.808 87.4961 191.628 92.1342 183.669Z" fill="#FFC4BC"/>
<path d="M201.806 245.587C202 247.275 202.724 250.298 202.531 252.002C201.951 257.083 199.906 262.051 196.331 265.717C195.558 266.505 194.704 267.245 193.674 267.598C192.643 267.952 191.387 267.856 190.581 267.1C189.728 266.312 189.567 265.026 189.502 263.868C189.406 262.132 189.374 260.363 189.792 258.675C190.211 256.987 191.097 255.363 192.53 254.366C193.577 253.642 194.817 253.288 196.009 252.838C197.2 252.372 198.167 251.6 199.117 250.603L201.806 245.587Z" fill="#FFC4BC"/>
<path d="M104.857 175.019C89.4124 176.482 80.8608 187.158 84.6454 234.38C95.6126 241.487 114.986 235.425 114.986 235.425C118.272 183.701 109.881 178.025 104.857 175.019Z" fill="#455A64"/>
<path d="M104.857 175.019C89.4124 176.482 80.8608 187.158 84.6454 234.38C95.6126 241.487 114.986 235.425 114.986 235.425C118.272 183.701 109.881 178.025 104.857 175.019Z" fill="#4688E8"/>
</g>
<defs>
<clipPath id="clip0_4160:978">
<rect width="308" height="499" fill="white"/>
</clipPath>
</defs>
</svg>
