<svg xmlns="http://www.w3.org/2000/svg" viewBox="0 0 476.09 161.59"><defs><style>.cls-1{fill:#fff;}</style></defs><g id="Layer_2" data-name="Layer 2"><g id="Layer_1-2" data-name="Layer 1"><path class="cls-1" d="M94.26,116.7h0a22.35,22.35,0,0,0-13,4.17L63.84,103.36a35.76,35.76,0,0,0,8-22.56h0a35.72,35.72,0,0,0-7.6-22.08L81.86,41.14a22.32,22.32,0,0,0,12.4,3.75h0A22.45,22.45,0,0,0,94.26,0h0A22.44,22.44,0,0,0,75.52,34.78L57.86,52.38a35.78,35.78,0,0,0-22-7.49h0A35.91,35.91,0,0,0,0,80.8H0a35.9,35.9,0,0,0,35.91,35.9h0a35.74,35.74,0,0,0,21.46-7.11l17.77,17.84a22.39,22.39,0,0,0-3.32,11.72h0a22.44,22.44,0,0,0,22.44,22.44h0a22.44,22.44,0,0,0,22.44-22.44h0A22.44,22.44,0,0,0,94.26,116.7Z"/><rect class="cls-1" x="134.57" y="14.16" width="4.65" height="34.47"/><path class="cls-1" d="M140.34,3.21A3.3,3.3,0,0,0,136.93,0a3.35,3.35,0,0,0-3.4,3.28,3.41,3.41,0,0,0,6.81-.07Z"/><path class="cls-1" d="M150.3,30.54c0-7.86,4.65-12.45,12.06-12.45,6.56,0,10.36,3.73,10.36,11V48.63h4.65v-20c0-9.9-5.77-14.75-14.16-14.75-6,0-10.61,2.43-13.1,6.62V14.16h-4.46V48.63h4.65Z"/><path class="cls-1" d="M184.24,38.93c0,6.36,3.61,10,10.09,10a11.09,11.09,0,0,0,7.28-2.43L200,43.19A7.69,7.69,0,0,1,194.86,45c-3.87,0-6-2.23-6-6.29V18.09h10.48V14.16H188.9V6.62h-4.66v7.54h-6.16v3.93h6.16Z"/><path class="cls-1" d="M216.87,49c5.44,0,10.23-2,13.31-5.64l-2.62-3A13.6,13.6,0,0,1,217,44.83c-7.54,0-13-4.79-13.57-12h28.84c0-.53.06-1.05.06-1.45,0-10.35-7-17.5-16.71-17.5s-16.85,7.28-16.85,17.5S206.13,49,216.87,49Zm-1.24-31.07c6.75,0,11.67,4.72,12.26,11.47H203.44C204,22.61,208.94,17.89,215.63,17.89Z"/><path class="cls-1" d="M239.94,31.06c0-8.12,4.39-12.71,11.6-12.71.33,0,.72.07,1.11.07V13.89c-6.36,0-10.75,2.43-12.91,7V14.16h-4.46V48.63h4.66Z"/><path class="cls-1" d="M268.44,49c5.84,0,10.75-2.36,13.5-6.82l-3.47-2.36a11.65,11.65,0,0,1-10,5c-7.53,0-13-5.31-13-13.44S260.91,18,268.44,18a11.73,11.73,0,0,1,10,5.11l3.47-2.36c-2.75-4.52-7.66-6.82-13.5-6.82-10.29,0-17.76,7.21-17.76,17.5S258.15,49,268.44,49Z"/><path class="cls-1" d="M298,49c10.1,0,17.5-7.34,17.5-17.57s-7.4-17.5-17.5-17.5-17.56,7.28-17.56,17.5S287.9,49,298,49Zm0-31c7.34,0,12.78,5.37,12.78,13.43S305.33,44.83,298,44.83s-12.84-5.38-12.84-13.44S290.65,18,298,18Z"/><path class="cls-1" d="M323.09,30.54c0-7.86,4.65-12.45,12.05-12.45,6.56,0,10.36,3.73,10.36,11V48.63h4.66v-20c0-9.9-5.77-14.75-14.16-14.75-6,0-10.62,2.43-13.11,6.62V14.16h-4.46V48.63h4.66Z"/><path class="cls-1" d="M360.89,30.54c0-7.86,4.66-12.45,12.06-12.45,6.56,0,10.36,3.73,10.36,11V48.63H388v-20c0-9.9-5.77-14.75-14.16-14.75-6,0-10.61,2.43-13.1,6.62V14.16h-4.46V48.63h4.65Z"/><path class="cls-1" d="M408.79,49c5.44,0,10.23-2,13.31-5.64l-2.62-3a13.62,13.62,0,0,1-10.56,4.52c-7.53,0-13-4.79-13.56-12h28.43c.67,9.51,7.9,16.12,17.7,16.12,5.83,0,10.75-2.36,13.5-6.82l-3.47-2.36a11.65,11.65,0,0,1-10,5c-7.54,0-13-5.31-13-13.44S434,18,441.49,18a11.73,11.73,0,0,1,10,5.11L455,20.71a12.94,12.94,0,0,0-2.12-2.62h5.85V38.93c0,6.36,3.6,10,10.09,10a11.09,11.09,0,0,0,7.28-2.43l-1.64-3.34A7.71,7.71,0,0,1,469.34,45c-3.87,0-6-2.23-6-6.29V18.09h10.49V14.16H463.37V6.62h-4.65v7.54h-6.16v3.6a16.12,16.12,0,0,0-11.07-3.87c-9.17,0-16.09,5.74-17.49,14.27-1.3-8.58-7.8-14.27-16.45-14.27-9.7,0-16.85,7.28-16.85,17.5S398.05,49,408.79,49Zm-1.24-31.07c6.75,0,11.66,4.72,12.25,11.47H395.36C396,22.61,400.86,17.89,407.55,17.89Z"/><path class="cls-1" d="M177.62,66.83H134.57v94.76h43.05c31,0,52.26-18.68,52.26-47.38S208.62,66.83,177.62,66.83Zm-1.08,76.76h-20V84.83h20c18.82,0,31.14,11.24,31.14,29.38S195.36,143.59,176.54,143.59Z"/><path class="cls-1" d="M261.27,66.83,219,161.59H241.5l8.4-20.31h44l8.4,20.31h23L282.93,66.83Zm-4.33,57.8,15-36.28,15,36.28Z"/><polygon class="cls-1" points="388.78 66.83 306.2 66.83 306.2 84.7 336.52 84.7 336.52 161.59 358.45 161.59 358.45 84.7 388.78 84.7 388.78 66.83"/><path class="cls-1" d="M412.05,66.83l-42.23,94.76h22.47l8.39-20.31h44l8.39,20.31h23L433.71,66.83Zm-4.33,57.8,15-36.28,15,36.28Z"/></g></g></svg>