<svg width="24" height="21" viewBox="0 0 24 21" fill="none" xmlns="http://www.w3.org/2000/svg">
<path fill-rule="evenodd" clip-rule="evenodd" d="M22.9155 0C23.5145 0 24 0.485536 24 1.08447C24 1.68341 23.5145 2.16895 22.9155 2.16895H1.75114C1.1522 2.16895 0.666666 1.68341 0.666666 1.08447C0.666666 0.485536 1.1522 0 1.75114 0H22.9155ZM22.915 9.00016C23.5142 9.00016 24 9.48593 24 10.0852C24 10.6844 23.5142 11.1702 22.915 11.1702H12.3577C11.7585 11.1702 11.2727 10.6844 11.2727 10.0852C11.2727 9.48593 11.7585 9.00016 12.3577 9.00016H22.915ZM22.915 17.9998C23.5142 17.9998 24 18.4856 24 19.0848C24 19.6841 23.5142 20.1698 22.915 20.1698H9.70621C9.10698 20.1698 8.62121 19.6841 8.62121 19.0848C8.62121 18.4856 9.10698 17.9998 9.70621 17.9998H22.915ZM7.0304 19.35C7.0304 18.7507 6.54462 18.265 5.9454 18.265H5.68873C5.0895 18.265 4.60373 18.7507 4.60373 19.35C4.60373 19.9492 5.0895 20.435 5.68873 20.435H5.9454C6.54462 20.435 7.0304 19.9492 7.0304 19.35Z" fill="#07409B"/>
</svg>
