<svg width="444" height="361" viewBox="0 0 444 361" fill="none" xmlns="http://www.w3.org/2000/svg">
<path d="M439.227 229.229C438.971 229.414 438.7 229.578 438.415 229.749L332.919 290.663L314.01 301.577L213.583 359.551C211.183 360.932 208.4 361.331 205.787 360.726C204.74 360.491 203.715 360.099 202.761 359.544L101.672 300.865L100.689 300.289C100.419 300.132 100.163 299.961 99.9134 299.79C96.8378 297.662 95.3143 294.308 95.3143 290.962C95.3143 287.296 97.1297 283.636 100.768 281.564L101.722 281.016L145.378 256.105C145.677 255.942 145.962 255.756 146.24 255.55C152.562 251.15 152.37 241.496 145.556 237.445L87.4117 202.788L85.1904 201.463C84.9554 201.328 84.7276 201.179 84.514 201.029C81.6876 199.064 80.1712 196.088 79.9505 193.013C79.9006 192.45 79.9006 191.881 79.9505 191.318C79.9576 191.183 79.9718 191.04 79.9861 190.912C80.3634 187.694 82.1646 184.626 85.3755 182.796L233.204 98.6228C236.536 96.7219 240.63 96.7432 243.954 98.6584L438.422 211.039C445.328 215.026 445.606 224.787 439.227 229.229Z" fill="#F2F2F2"/>
<path d="M120 239.5L93.5 222L31 215.5C32.9227 217.5 30.6733 215.727 30.4997 215.821L4.72146 229.732L4.16737 230.049C2.05441 231.247 1 233.364 1 235.485C1 237.421 1.88488 239.361 3.67118 240.592C3.8159 240.691 3.96476 240.79 4.12189 240.88L4.69252 241.214L59.4047 273.158C59.9588 273.479 60.5543 273.706 61.1621 273.842C62.6796 274.192 64.2964 273.961 65.6899 273.162L120 239.5Z" fill="#F2F2F2"/>
<path d="M443.656 195.077L443.848 180.504L243.948 76.9369C240.623 75.0146 236.529 75.0004 233.198 76.9013L87.3625 159.95L79.944 151.471L79.9084 169.504L79.9511 169.469V169.476C79.6023 173.384 81.3323 177.457 85.1839 179.749L145.55 215.724C145.792 215.866 146.013 216.008 146.233 216.158C152.641 220.65 152.328 230.432 145.372 234.398L117.998 250.018L105.688 257.045L106.108 256.589L95.3149 251.57L95.3434 268.443C95.0657 272.323 96.8456 276.339 100.697 278.581L197.173 334.576L202.762 337.822C203.808 338.435 204.94 338.848 206.094 339.083C208.614 339.581 211.284 339.168 213.583 337.844L314.003 279.863L332.913 268.942L435.839 210.833C438.288 209.437 440.317 207.494 441.798 205.215C443.72 202.261 443.805 198.737 443.656 195.077Z" fill="#D6EDFF"/>
<path d="M314.003 262.185V279.863L332.919 268.949V251.271L314.003 262.185Z" fill="#EFF8FF"/>
<path d="M336.82 249.014V266.692L343.847 262.634V244.956L336.82 249.014Z" fill="#EFF8FF"/>
<path d="M206.094 321.619V339.09L197.173 334.583L100.69 278.581C96.8383 276.339 95.0584 272.323 95.3361 268.443L95.3076 251.57C95.3076 247.904 97.1231 244.244 100.761 242.172L101.715 241.624C106.863 244.344 112.814 247.448 117.997 250.011C123.8 252.887 128.641 255.109 130.3 255.415C135.283 256.305 200.754 316.699 205.78 321.334C205.987 321.526 206.094 321.619 206.094 321.619Z" fill="#BBE0FD"/>
<path d="M439.213 189.837C438.957 190.023 438.686 190.186 438.401 190.357L332.905 251.271L313.996 262.185L213.576 320.166C211.177 321.547 208.393 321.946 205.78 321.341C204.734 321.106 203.708 320.714 202.754 320.159L101.665 261.481L100.683 260.904C100.412 260.747 100.156 260.576 99.9066 260.406C96.831 258.277 95.3074 254.924 95.3074 251.577C95.3074 247.911 97.1229 244.251 100.761 242.18L101.715 241.632L145.371 216.72C145.67 216.557 145.955 216.372 146.233 216.165C152.555 211.765 152.363 202.111 145.549 198.06L87.4048 163.403L85.1836 162.079C84.9486 161.943 84.7208 161.794 84.5072 161.644C81.6808 159.679 80.1643 156.703 79.9436 153.628C79.8938 153.065 79.8938 152.496 79.9436 151.933C79.9507 151.798 79.965 151.656 79.9792 151.528C80.3566 148.31 82.1578 145.241 85.3687 143.411L233.197 59.238C236.529 57.3371 240.623 57.3585 243.948 59.2736L438.423 171.669C445.314 175.641 445.592 185.395 439.213 189.837Z" fill="#EFF8FF"/>
<g clip-path="url(#clip0)">
<path opacity="0.33" d="M99.1647 149.253L131.786 130.151C132.697 129.618 133.815 129.61 134.733 130.13L168.344 149.267C170.324 150.392 170.331 153.24 168.359 154.379L135.275 173.481C134.363 174.007 133.238 174.007 132.327 173.481L99.1789 154.343C97.2211 153.211 97.2139 150.392 99.1647 149.253Z" fill="#6A99DC"/>
<path d="M159.986 136.851L134.072 151.809L133.794 166.931L159.709 152.201L159.986 136.851Z" fill="#A9D1EA"/>
<path d="M108.156 136.851L133.708 121.886L159.986 136.851L134.071 151.809L108.156 136.851Z" fill="#BBE0FD"/>
<path d="M119.37 136.851L133.595 128.521L148.218 136.851L133.794 145.181L119.37 136.851Z" fill="#15325C"/>
<path d="M108.156 152.201V136.851L134.071 151.809L133.793 166.931L108.156 152.201Z" fill="#77B8E0"/>
<path d="M136.677 114.132H129.543V135.889H136.677V114.132Z" fill="#15325C"/>
<path d="M133.11 124.84L145.591 111.641L147.022 114.132L133.822 128.407" fill="#15325C"/>
<path d="M159.146 110.032C159.146 111.149 158.975 112.224 158.662 113.243C157.295 117.685 153.151 120.91 148.26 120.91C142.252 120.91 137.382 116.04 137.382 110.032C137.382 106.586 138.984 103.517 141.483 101.524C143.341 100.036 145.697 99.146 148.26 99.146C154.276 99.1531 159.146 104.023 159.146 110.032Z" fill="#77B8E0"/>
<path opacity="0.24" d="M158.669 113.243C158.085 115.136 156.996 116.817 155.558 118.112C153.628 119.857 151.072 120.91 148.267 120.91C142.258 120.91 137.389 116.041 137.389 110.032C137.389 109.669 137.41 109.313 137.446 108.957C137.745 105.952 139.261 103.304 141.497 101.524C141.247 113.015 150.695 114.054 158.669 113.243Z" fill="#77B8E0"/>
<path opacity="0.24" d="M155.558 118.112C153.628 119.856 151.072 120.91 148.267 120.91C142.258 120.91 137.389 116.04 137.389 110.032C137.389 109.668 137.41 109.313 137.446 108.957C139.475 116.56 147.847 119.038 155.558 118.112Z" fill="#77B8E0"/>
<path d="M150.588 99.3311C150.588 101.104 150.324 102.82 149.819 104.436C147.64 111.498 141.062 116.631 133.288 116.631C123.733 116.631 115.987 108.885 115.987 99.3311C115.987 93.8562 118.536 88.9722 122.509 85.8112C125.463 83.4404 129.208 82.0308 133.288 82.0308C142.835 82.0308 150.588 89.7767 150.588 99.3311Z" fill="#77B8E0"/>
<path opacity="0.24" d="M149.819 104.436C148.887 107.447 147.157 110.117 144.871 112.182C141.803 114.951 137.738 116.631 133.281 116.631C123.726 116.631 115.98 108.885 115.98 99.3312C115.98 98.7545 116.009 98.1849 116.066 97.6225C116.536 92.8453 118.949 88.6377 122.502 85.8042C122.117 104.073 137.147 105.732 149.819 104.436Z" fill="#77B8E0"/>
<path opacity="0.24" d="M144.871 112.182C141.803 114.951 137.738 116.632 133.281 116.632C123.726 116.632 115.98 108.886 115.98 99.3312C115.98 98.7546 116.009 98.185 116.066 97.6226C119.305 109.704 132.619 113.656 144.871 112.182Z" fill="#77B8E0"/>
</g>
<g clip-path="url(#clip1)">
<path opacity="0.33" d="M414.629 182.575L372.982 158.444C372.163 157.971 371.148 157.966 370.329 158.439L280.577 209.764C278.807 210.773 278.807 213.311 280.572 214.325L319.767 236.838C322.335 238.315 325.501 238.315 328.069 236.838L414.618 187.126C415.643 186.537 416.071 185.439 415.908 184.419C415.791 183.689 415.369 183 414.629 182.575Z" fill="#6A99DC"/>
<path d="M415.717 175.933L371.655 152.811L281.407 201.651C280.196 202.307 279.425 203.548 279.377 204.919L279.33 206.349C279.303 207.063 279.478 207.757 279.811 208.361C280.149 208.976 280.656 209.502 281.29 209.869L321.093 232.729C322.842 233.732 324.998 233.732 326.747 232.729L414.11 182.549C414.628 182.249 415.046 181.829 415.336 181.329C415.638 180.814 415.796 180.215 415.786 179.601L415.717 175.933Z" fill="#A9D1EA"/>
<path d="M414.628 174.866L372.981 150.735C372.162 150.262 371.147 150.257 370.328 150.73L280.576 202.055C278.806 203.064 278.806 205.602 280.571 206.616L319.766 229.129C322.334 230.606 325.5 230.606 328.068 229.129L414.617 179.417C415.642 178.828 416.07 177.73 415.907 176.71C415.79 175.98 415.368 175.291 414.628 174.866Z" fill="#D6EFFB"/>
<path d="M408.033 179.043L368.352 156.053L287.954 202.034L327.979 225.025L408.033 179.043Z" fill="#77B8E0"/>
<path d="M381.701 180.073L372.543 185.312L365.615 181.35L374.773 176.116L381.701 180.073Z" fill="#D6EDFF"/>
<path d="M390.098 184.882L380.946 190.116L374.018 186.153L383.176 180.919L390.098 184.882Z" fill="#D6EDFF"/>
<path d="M371.073 186.153L361.915 191.387L354.987 187.425L364.145 182.191L371.073 186.153Z" fill="#D6EDFF"/>
<path d="M362.672 181.35L353.519 186.584L346.586 182.622L355.744 177.388L362.672 181.35Z" fill="#D6EDFF"/>
<path d="M331.504 210.468L340.662 205.229L347.59 209.191L338.432 214.431L331.504 210.468Z" fill="#D6EDFF"/>
<path d="M342.131 204.388L372.543 186.994L379.471 190.956L349.059 208.35L342.131 204.388Z" fill="#D6EDFF"/>
<path d="M376.247 175.27L385.294 170.094L392.18 174.083L383.175 179.233L376.247 175.27Z" fill="#D6EDFF"/>
<path d="M323.102 205.665L332.26 200.426L339.188 204.388L330.03 209.627L323.102 205.665Z" fill="#D6EDFF"/>
<path d="M367.845 170.467L376.95 165.259L383.83 169.248L374.773 174.429L367.845 170.467Z" fill="#D6EDFF"/>
<path d="M352.045 187.43L342.892 192.664L335.964 188.702L345.117 183.468L352.045 187.43Z" fill="#D6EDFF"/>
<path d="M360.442 192.233L351.289 197.467L344.361 193.505L353.514 188.271L360.442 192.233Z" fill="#D6EDFF"/>
<path d="M325.331 194.782L334.489 189.543L341.412 193.505L332.259 198.744L325.331 194.782Z" fill="#D6EDFF"/>
<path d="M333.733 199.585L342.886 194.351L349.814 198.313L340.661 203.547L333.733 199.585Z" fill="#D6EDFF"/>
<path d="M312.474 211.74L321.632 206.506L328.56 210.468L319.402 215.702L312.474 211.74Z" fill="#D6EDFF"/>
<path d="M320.876 216.548L330.029 211.309L336.957 215.271L327.804 220.505L320.876 216.548Z" fill="#D6EDFF"/>
<path d="M304.077 206.937L313.23 201.703L320.158 205.665L311 210.899L304.077 206.937Z" fill="#D6EDFF"/>
<path d="M295.675 202.134L304.828 196.895L311.755 200.857L302.603 206.096L295.675 202.134Z" fill="#D6EDFF"/>
<path d="M391.572 184.036L384.645 180.073L393.644 174.929L400.524 178.917L391.572 184.036Z" fill="#D6EDFF"/>
<path d="M366.37 169.626L359.442 165.664L368.6 160.425L369.155 160.745L375.486 164.413L366.37 169.626Z" fill="#D6EDFF"/>
<path d="M306.302 196.054L315.46 190.82L322.388 194.782L313.23 200.016L306.302 196.054Z" fill="#D6EDFF"/>
<path d="M333.015 188.702L323.857 193.936L316.929 189.974L326.087 184.74L333.015 188.702Z" fill="#D6EDFF"/>
<path d="M314.704 200.857L323.857 195.623L330.785 199.585L321.632 204.819L314.704 200.857Z" fill="#D6EDFF"/>
<path d="M343.642 182.622L334.489 187.861L327.562 183.899L336.714 178.66L343.642 182.622Z" fill="#D6EDFF"/>
<path d="M364.896 170.467L355.743 175.701L348.815 171.739L357.968 166.505L364.896 170.467Z" fill="#D6EDFF"/>
<path d="M354.269 176.547L345.116 181.781L338.188 177.819L347.341 172.585L354.269 176.547Z" fill="#D6EDFF"/>
<path d="M373.298 175.27L364.146 180.51L357.218 176.547L366.37 171.308L373.298 175.27Z" fill="#D6EDFF"/>
</g>
<g clip-path="url(#clip2)">
<path d="M257.938 120.796L256.474 123.238L282.081 138.616L283.545 136.174L257.938 120.796Z" fill="#5B95D3"/>
<path opacity="0.33" d="M315.563 150.681L315.42 150.765L292.569 163.971L292.426 163.887L269.579 150.681L276.54 146.601L292.248 137.396L308.502 146.659L315.422 150.6L315.563 150.681Z" fill="#6A99DC"/>
<path d="M292.569 147.893L292.426 155.913L292.33 161.317L269.579 148.236V142.709L276.54 138.626L292.569 147.893Z" fill="#2051BD"/>
<path d="M315.422 142.628L315.419 142.793L315.323 148.236L292.329 161.318L292.425 155.913L292.569 147.894L308.502 138.685L315.422 142.628Z" fill="#143786"/>
<path d="M315.563 142.709L315.42 142.792L292.569 155.996L292.426 155.913L269.579 142.709L276.54 138.627L292.248 129.422L308.502 138.684L315.422 142.628L315.563 142.709Z" fill="#3C6A9E"/>
<path d="M276.852 142.685L292.274 133.647L308.213 142.73L292.571 151.77L276.852 142.685Z" fill="#FFD152"/>
<path d="M278.93 142.679L292.28 134.856L306.112 142.737L292.571 150.563L278.93 142.679Z" fill="#407BFF"/>
<path d="M289.433 142.702L292.466 140.924L295.609 142.715L292.532 144.493L289.433 142.702Z" fill="#BBE0FD"/>
<path d="M292.28 135.903L305.201 143.263L306.112 142.737L292.28 134.856L278.93 142.679L279.83 143.199L292.28 135.903Z" fill="#183561"/>
<path d="M197.497 36.5151L242.72 62.3789L287.355 36.5151L242.132 9.47656L197.497 36.5151Z" fill="#407BFF"/>
<path opacity="0.33" d="M198.921 122.299L239.954 147.147C241.042 147.806 242.404 147.814 243.503 147.17L285.788 122.297C286.923 121.63 287.492 120.476 287.496 119.321C287.501 118.166 286.938 117.008 285.81 116.332L243.898 91.2747C242.797 90.6178 241.425 90.62 240.328 91.2854L198.921 116.368C196.696 117.716 196.696 120.949 198.921 122.299Z" fill="#6A99DC"/>
<path d="M242.132 62.3788V142.322L287.355 115.281V35.9287L242.132 62.3788Z" fill="#143786"/>
<path d="M247.417 132.997V65.415L282.069 45.1484V112.281L247.417 132.997ZM248.593 66.089V130.926L280.895 111.614V47.1961L248.593 66.089Z" fill="#052754"/>
<path d="M197.497 35.9287V115.281L242.132 142.322V62.3788L197.497 35.9287Z" fill="#6192FF"/>
<path d="M202.269 112.037V47.9383C202.269 47.0482 202.696 46.3079 203.32 45.8479C204.111 45.2638 205.223 45.1268 206.191 45.7003L236.084 63.4142C236.875 63.8828 237.358 64.7322 237.358 65.6523V130.145C237.358 132.171 235.146 133.419 233.414 132.37L203.521 114.263C202.745 113.792 202.269 112.947 202.269 112.037Z" fill="#23477C"/>
<path d="M207.56 112.5C206.782 112.029 206.307 111.184 206.307 110.274V46.1733C206.307 46.0535 206.316 45.9379 206.331 45.8245L206.119 45.6983C205.151 45.1249 204.041 45.2618 203.248 45.8459C202.622 46.3081 202.196 47.0484 202.196 47.9364V112.035C202.196 112.945 202.671 113.79 203.449 114.261L233.342 132.368C234.973 133.357 237.027 132.306 237.263 130.49L207.56 112.5Z" fill="#052754"/>
<path d="M237.433 68.6137L208.068 51.21V61.2042L237.433 78.6058V68.6137Z" fill="#407BFF"/>
<path d="M237.433 80.9573L208.068 63.5557V73.5477L237.433 90.9493V80.9573Z" fill="#407BFF"/>
<path d="M237.433 93.301L208.068 75.8994V85.8915L237.433 103.293V93.301Z" fill="#407BFF"/>
<path d="M237.433 105.644L208.068 88.2427V98.2347L237.433 115.638V105.644Z" fill="#407BFF"/>
<path d="M237.433 117.99L208.068 100.586V110.581L237.433 127.982V117.99Z" fill="#407BFF"/>
<path d="M213.109 55.9131V62.4753L232.392 73.9031V67.3408L213.109 55.9131Z" fill="#D6EFFB"/>
<path d="M213.109 74.8191L232.392 86.2468V79.6867L213.109 68.2568V74.8191Z" fill="#D6EFFB"/>
<path d="M213.109 87.1643L232.392 98.5921V92.0298L213.109 80.6021V87.1643Z" fill="#D6EFFB"/>
<path d="M213.109 99.508L232.392 110.936V104.374L213.109 92.9458V99.508Z" fill="#D6EFFB"/>
<path d="M213.109 111.852L232.392 123.28V116.717L213.109 105.29V111.852Z" fill="#D6EFFB"/>
<path d="M231.711 181.424L231.39 181.235L196.443 160.731L197.091 159.623L231.717 179.939L254.891 166.558L255.532 167.668L231.711 181.424Z" fill="#5B95D3"/>
<path opacity="0.33" d="M226.277 165.373L226.132 165.456L203.283 178.66L203.14 178.576L180.291 165.373L187.254 161.29L202.962 152.085L219.216 161.348L226.136 165.291L226.277 165.373Z" fill="#6A99DC"/>
<path d="M203.283 163.151L203.14 171.173L203.041 176.575L180.291 163.494V157.967L187.254 153.887L203.283 163.151Z" fill="#2051BD"/>
<path d="M226.136 157.886L226.131 158.051L226.035 163.494L203.041 176.576L203.139 171.173L203.283 163.152L219.216 153.945L226.136 157.886Z" fill="#143786"/>
<path d="M226.277 157.967L226.132 158.051L203.283 171.256L203.14 171.173L180.291 157.967L187.254 153.887L202.962 144.682L219.216 153.945L226.136 157.886L226.277 157.967Z" fill="#3C6A9E"/>
<path d="M187.565 157.946L202.987 148.908L218.925 157.99L203.282 167.03L187.565 157.946Z" fill="#FFD152"/>
<path d="M189.644 157.939L202.994 150.115L216.826 157.997L203.283 165.822L189.644 157.939Z" fill="#407BFF"/>
<path d="M200.146 157.963L203.18 156.185L206.32 157.975L203.244 159.753L200.146 157.963Z" fill="#BBE0FD"/>
<path d="M202.994 151.161L215.913 158.523L216.826 157.997L202.994 150.115L189.644 157.939L190.541 158.457L202.994 151.161Z" fill="#183561"/>
<path opacity="0.33" d="M280.284 170.617L280.139 170.7L257.29 183.904L257.147 183.82L234.298 170.617L241.261 166.534L256.969 157.33L273.223 166.592L280.143 170.535L280.284 170.617Z" fill="#6A99DC"/>
<path d="M257.29 168.395L257.147 176.417L257.048 181.819L234.298 168.738V163.211L241.261 159.131L257.29 168.395Z" fill="#2051BD"/>
<path d="M280.142 163.13L280.138 163.295L280.042 168.738L257.048 181.82L257.146 176.417L257.289 168.396L273.222 159.189L280.142 163.13Z" fill="#143786"/>
<path d="M280.284 163.211L280.139 163.295L257.29 176.5L257.147 176.417L234.298 163.211L241.261 159.131L256.969 149.926L273.223 159.189L280.143 163.13L280.284 163.211Z" fill="#3C6A9E"/>
<path d="M241.572 163.19L256.994 154.152L272.932 163.235L257.289 172.275L241.572 163.19Z" fill="#FFD152"/>
<path d="M243.65 163.184L257.001 155.359L270.832 163.241L257.29 171.066L243.65 163.184Z" fill="#407BFF"/>
<path d="M254.153 163.207L257.187 161.429L260.327 163.22L257.251 164.998L254.153 163.207Z" fill="#BBE0FD"/>
<path d="M257.001 156.405L269.92 163.768L270.832 163.241L257.001 155.359L243.65 163.184L244.548 163.701L257.001 156.405Z" fill="#183561"/>
<g clip-path="url(#clip3)">
<path opacity="0.33" d="M163.916 124.335L168.074 126.855L171.662 124.805C172.338 125.026 173.065 125.197 173.819 125.325V127.738H178.86V125.41C179.828 125.282 180.746 125.083 181.594 124.805L185.374 126.969L189.532 124.449L185.744 122.306C186.463 121.487 186.869 120.562 186.869 119.579C186.869 118.568 186.435 117.614 185.673 116.781L189.304 114.702L185.146 112.296L181.537 114.339C180.782 114.097 179.978 113.912 179.123 113.791V111.42H174.097V113.791C173.257 113.919 172.452 114.097 171.705 114.339L168.294 112.403L164.137 114.809L167.575 116.774C166.814 117.607 166.379 118.561 166.379 119.572C166.379 120.555 166.785 121.48 167.511 122.299L163.916 124.335ZM173.335 119.572C173.335 118.511 174.809 117.65 176.631 117.65C178.454 117.65 179.928 118.511 179.928 119.572C179.928 120.633 178.454 121.494 176.631 121.494C174.809 121.494 173.335 120.633 173.335 119.572Z" fill="#6A99DC"/>
<path d="M163.916 120.419L167.504 118.383C166.785 117.564 166.372 116.639 166.372 115.656C166.372 115.151 166.429 112.424 166.429 112.424C166.429 112.424 167.184 113.278 167.568 112.858L164.137 110.893L168.294 108.487L171.705 110.423C173.164 109.961 174.844 109.69 176.624 109.69C178.411 109.69 180.084 109.954 181.544 110.423L185.16 108.373L189.318 110.779L185.687 112.858C186.065 113.271 186.912 112.203 186.912 112.203C186.912 112.203 186.883 115.144 186.883 115.656C186.883 116.639 186.478 117.564 185.759 118.383L189.546 120.526L185.388 123.046L181.608 120.882C180.134 121.359 178.447 121.629 176.638 121.629C174.837 121.629 173.15 121.359 171.676 120.882L168.088 122.932L163.916 120.419Z" fill="#E3BB4D"/>
<path d="M178.803 120.419H173.77V123.702H178.803V120.419Z" fill="#F4C030"/>
<path d="M168.074 119.544V122.933L163.916 120.419V117.023L168.074 119.544Z" fill="#F4C030"/>
<path d="M164.137 107.498V110.894L166.657 112.317L168.074 109.249L164.137 107.498Z" fill="#F4C030"/>
<path d="M185.381 119.651V123.047L189.539 120.526V117.13L185.381 119.651Z" fill="#F4C030"/>
<path d="M189.319 107.384V110.78L186.642 112.318L185.488 109.47L189.319 107.384Z" fill="#F4C030"/>
<path d="M163.916 117.023L168.074 119.544L171.662 117.493C172.338 117.714 173.065 117.885 173.819 118.013V120.426H178.86V118.098C179.828 117.97 180.746 117.771 181.594 117.493L185.374 119.658L189.532 117.137L185.744 114.994C186.463 114.176 186.869 113.25 186.869 112.268C186.869 111.257 186.435 110.303 185.673 109.47L189.304 107.391L185.146 104.984L181.551 107.021C180.796 106.778 179.992 106.593 179.137 106.472V104.102H174.097V106.472C173.257 106.6 172.452 106.778 171.705 107.021L168.294 105.084L164.137 107.498L167.575 109.463C166.814 110.295 166.379 111.249 166.379 112.26C166.379 113.243 166.785 114.168 167.511 114.987L163.916 117.023ZM173.335 112.26C173.335 111.2 174.809 110.338 176.631 110.338C178.454 110.338 179.928 111.2 179.928 112.26C179.928 113.321 178.454 114.183 176.631 114.183C174.809 114.183 173.335 113.321 173.335 112.26Z" fill="#FFD152"/>
</g>
</g>
<path opacity="0.33" d="M170.978 258.183C180.673 258.183 188.532 253.607 188.532 247.962C188.532 242.316 180.673 237.74 170.978 237.74C161.283 237.74 153.424 242.316 153.424 247.962C153.424 253.607 161.283 258.183 170.978 258.183Z" fill="#6A99DC"/>
<path d="M159.369 244.176C159.369 244.176 158.766 246.428 158.837 247.738C158.908 249.037 159.215 249.358 159.618 249.787C160.009 250.228 160.47 250.037 160.47 250.037C160.47 250.037 160.648 252.73 161.915 253.814C163.181 254.898 165.478 255.005 166.531 254.612C167.585 254.219 166.898 252.289 165.857 250.407C164.827 248.524 163.513 246.487 163.181 244.784C160.66 244.426 159.369 244.176 159.369 244.176Z" fill="#14365B"/>
<path d="M178.251 226.64C178.95 222.53 179.755 222.804 179.731 218.992C179.719 217.121 179.056 212.833 177.707 203.921C177.008 199.299 175.919 198.525 174.463 195.606C174.309 195.308 169.657 197.703 167.538 198.834C167.348 198.942 165.49 203.862 166.306 207.722C166.614 209.199 171.432 219.194 173.09 221.041C168.958 225.151 169.964 228.939 171.219 239.149C172.273 240.578 174.191 240.447 176.108 239.316C176.108 237.207 177.778 229.404 178.251 226.64Z" fill="#004DAA"/>
<path d="M170.094 207.554C172.699 204.349 172.154 201.919 170.911 198.107C170.84 197.892 160.032 196.439 159.89 196.677C155.782 203.909 158.114 215.774 161.097 222.851C159.7 226.282 158.599 226.579 157.558 231.106C156.658 235.014 159.262 239.386 159.487 244.271C160.967 245.295 163.086 245.748 163.82 243.913C166.365 237.802 168.319 231.654 166.59 225.114C167.371 223.041 169.881 212.748 170.094 207.554Z" fill="#0053CC"/>
<path d="M171.942 168.669C172.249 168.133 172.782 168.026 173.315 168.086C175.327 168.336 176.002 168.169 177.588 170.039C179.009 171.719 180.039 173.041 180.122 174.948C184.703 181.059 184.975 183.013 184.679 185.11C184.585 185.777 180.548 186.789 179.778 186.313C178.973 185.824 177.245 180.785 176.582 180.118C176.038 179.558 173.019 176.425 172.723 174.924C172.474 173.673 172.214 172.434 171.989 171.183C171.835 170.456 171.515 169.396 171.942 168.669Z" fill="#19437F"/>
<path d="M172.237 169.492C169.609 168.384 166.484 169.813 166.602 169.682C166.685 169.599 162.956 171.767 162.956 171.779C160.304 172.78 157.57 173.495 156.007 177.092C155.25 178.844 157.984 182.584 159.132 187.659C159.642 189.947 159.701 193.199 158.86 194.712C158.268 195.772 156.978 197.357 160.778 198.56C161.879 198.906 167.005 200.907 170 200.347C171.385 200.085 178.026 196.38 176.002 194.962C175.469 194.581 175.019 193.842 175.41 193.151C175.73 192.58 176.321 191.531 176.073 190.388C175.469 187.588 175.954 186.492 176.369 184.3C178.298 182.275 176.594 179.213 175.41 175.949C174.593 173.745 174.925 170.623 172.237 169.492Z" fill="white"/>
<path d="M171.609 168.908C171.609 168.872 171.609 168.825 171.609 168.789C170.047 169.027 167.999 168.134 166.649 167.181C165.927 168.956 165.749 169.635 164.648 171.434C165.24 171.458 166.389 173.09 167.359 174.793C167.762 175.52 169.526 177.39 170.638 176.961C172.343 176.294 171.491 174.912 171.538 172.982C171.574 171.624 171.597 170.266 171.609 168.908Z" fill="#ECB5AD"/>
<path d="M172.841 182.918C172.556 181.357 172.107 179.904 171.787 178.974C171.716 178.772 172.308 176.961 172.308 176.961L170.627 176.294L169.644 177.485C169.644 177.485 170.201 178.808 170.852 179.153C170.816 180.881 170.757 184.049 170.722 186.921C170.662 191.507 170.722 194.795 170.722 194.795C170.722 194.795 171.799 196.32 172.876 197.035C173.634 195.677 173.93 193.937 173.93 193.937C173.93 193.937 173.326 185.551 172.841 182.918Z" fill="#4688E8"/>
<path d="M163.335 171.469C163.335 171.469 166.14 172.684 167.324 173.673C168.899 174.984 169.656 175.341 170.438 176.103C170.509 175.913 170.722 172.351 170.722 172.351C170.722 172.351 172.036 172.518 172.024 172.541C172.012 172.565 172.782 173.268 173.077 174.686C173.373 176.103 172.841 177.819 172.841 177.819L170.651 176.473L169.159 179.153C169.159 179.153 166.235 176.64 164.909 175.103C163.571 173.578 163.335 171.469 163.335 171.469Z" fill="white"/>
<path d="M171.787 169.479C171.787 169.479 174.333 169.313 175.54 172.1C176.748 174.888 177.671 178.51 177.706 182.822C177.742 185.967 177.055 190.077 177.576 192.317C178.026 194.247 180.571 201.335 180.571 201.335C180.571 201.335 180.382 204.23 179.447 205.386C178.239 206.863 176.925 206.744 176.925 206.744C176.925 206.744 175.351 197.952 175.197 196.57C175.043 195.188 174.522 187.862 174.664 185.693C174.806 183.525 173.575 176.282 173.078 174.674C172.592 173.065 169.657 169.777 169.657 169.777L171.787 169.479Z" fill="#77B3FC"/>
<path d="M171.29 171.767C171.29 171.767 172.154 172.875 172.853 174.555C173.551 176.235 173.764 179.928 173.965 182.084C174.167 184.241 174.628 186.409 174.628 186.409C174.628 186.409 175.433 184.062 175.587 182.477C175.741 180.881 175.942 179.654 175.942 179.654L174.841 178.784L175.86 176.294C175.86 176.294 173.16 170.374 172.012 170.028C170.864 169.694 171.29 171.767 171.29 171.767Z" fill="#19437F"/>
<path d="M164.519 170.73C164.519 170.73 167.739 174.995 168.686 180.881C169.633 186.766 169.03 192.841 168.686 197.047C168.248 202.36 167.858 209.913 167.858 209.913C167.858 209.913 162.613 210.783 159.677 210.163C156.54 209.496 155.428 206.399 155.428 206.399C155.428 206.399 155.428 199.942 158.091 192.115C158.967 189.541 158.411 183.954 157.369 180.75C156.753 178.843 157.653 175.019 159.239 173.28C160.34 172.089 162.992 171.576 164.519 170.73Z" fill="#77B3FC"/>
<path d="M165.513 169.885C165.513 169.885 163.678 170.004 162.98 171.41C163.311 172.136 164.081 173.101 164.424 174.924C164.768 176.747 164.649 178.772 164.649 178.772L166.721 179.701L165.513 181.858L169.112 186.539C169.112 186.539 169.645 180.368 168.236 175.925C166.804 171.445 165.513 169.885 165.513 169.885Z" fill="#19437F"/>
<path d="M174.759 162.284C173.326 160.509 170.201 160.104 168.212 161.319C167.739 161.462 167.301 161.676 166.946 161.986C165.655 163.142 165.797 165.203 166.188 166.728C166.768 169.027 170.023 174.316 173.019 172.339C174.617 171.29 175.658 168.681 175.907 166.847C176.144 165.226 175.8 163.571 174.759 162.284Z" fill="#FFC4BC"/>
<path d="M176.83 158.901C175.824 157.543 173.267 155.923 171.586 156.864C171.005 157.185 170.674 157.853 170.721 158.46C169.088 158.162 166.164 159.223 165.43 160.628C164.187 163.023 165.051 167.121 166.14 168.348C167.276 167.359 169.028 165.239 169.49 163.214C171.361 164.119 173.918 164.214 175.753 163.142C177.292 162.249 177.943 160.39 176.83 158.901Z" fill="#3F180D"/>
<path d="M168.958 165.597C168.958 165.597 168.046 164.072 167.206 165.192C165.927 166.883 167.798 167.705 167.798 167.705L168.958 165.597Z" fill="#FFC4BC"/>
<path d="M171.563 238.267C171.563 238.267 171.444 239.232 171.148 240.244C170.852 241.257 171.219 242.663 171.219 242.663C171.219 242.663 171.432 243.282 172.368 243.473C173.232 243.639 173.942 243.437 173.942 243.437C173.942 243.437 174.794 244.473 175.907 245.272C177.02 246.07 179.482 246.677 180.145 246.582C181.223 246.415 181.803 245.569 181.72 245.021C181.637 244.473 180.37 242.96 179.317 242.305C178.642 241.876 177.103 240.435 176.641 239.934C175.872 239.1 175.315 238.195 175.315 238.195L171.563 238.267Z" fill="#14365B"/>
<path d="M176.392 173.709C176.321 173.388 175.99 171.612 175.741 170.445C175.647 169.968 175.919 169.313 175.931 169.146C175.954 168.825 175.647 168.61 175.28 168.956C174.924 169.289 174.794 169.957 174.522 170.552C174.25 171.148 174.013 172.315 171.326 171.362C170.438 171.053 169.195 171.434 168.804 171.851C168.319 172.363 168.792 173.149 169.36 173.435C170.177 173.84 173.575 175.008 174.794 176.163C175.209 176.556 177.576 176.163 177.576 176.163C177.576 176.163 176.558 174.484 176.392 173.709Z" fill="#FFC4BC"/>
<path d="M174.96 169.921C174.96 169.921 174.853 171.482 174.096 171.756C173.338 172.03 171.764 171.172 170.604 171.172C170.331 171.172 169.124 171.446 168.804 171.851C168.804 171.851 168.982 171.053 170.58 170.886C171.882 170.743 173.267 171.493 173.883 171.255C174.498 171.017 174.96 169.921 174.96 169.921Z" fill="#DCA9A2"/>
<path d="M176.665 173.197C176.7 173.316 173.575 175.556 173.575 175.556C173.575 175.556 174.155 176.973 174.972 179.749C175.789 182.525 176.795 185.92 178.381 187.552C179.968 189.184 183.389 189.649 184.111 187.409C184.809 185.241 185.366 182.465 183.188 180.142C181.009 177.819 176.665 173.197 176.665 173.197Z" fill="#19437F"/>
<path d="M160.625 194.057C160.625 194.057 162.98 195.915 163.631 196.844C164.294 197.774 163.951 199.287 163.833 201.074C163.714 202.861 162.033 202.396 160.66 202.229C159.299 202.05 158.967 201.395 159.772 201.074C160.577 200.764 161.643 201.074 161.643 201.074C161.643 201.074 159.476 199.858 159.346 197.643C159.216 195.415 160.625 194.057 160.625 194.057Z" fill="#FFC4BC"/>
<path d="M149.247 188.934C150.076 187.051 150.443 186.468 151.816 184.204C153.189 181.941 153.544 181.142 155.249 178.939C155.841 175.043 157.688 172.672 160.186 172.565C161.701 173.732 162.826 182.167 161.346 184.764C160.162 186.837 159.546 187.421 158.339 188.124C158.019 188.934 157.273 189.601 156.788 190.28C157.652 190.899 158.659 191.626 159.452 192.222C161.192 193.532 162.305 195.26 162.305 195.26C162.305 195.26 161.796 196.225 161.014 197.047C160.233 197.869 159.523 198.56 159.523 198.56C159.523 198.56 153.947 196.928 152.313 195.581C151.485 194.902 150.538 193.794 150.147 192.627C149.851 191.745 148.821 189.923 149.247 188.934Z" fill="#19437F"/>
<path d="M116.809 206.194V220.974L116.731 220.918C116.51 222.22 115.756 223.452 114.446 224.2L64.7875 252.87C64.047 253.297 63.2283 253.51 62.4025 253.503C61.5908 253.496 60.7863 253.29 60.0601 252.87L10.3592 224.079C8.78579 223.174 8.00977 221.573 8.00977 219.985V206.187L18.4327 211.256L59.9889 187.328C61.4484 186.488 63.2425 186.488 64.702 187.335L96.8108 205.846L105.141 210.644L116.809 206.194Z" fill="#BBE0FD"/>
<path d="M116.809 206.194V220.974L116.731 220.918C116.51 222.22 115.756 223.452 114.446 224.2L64.7874 252.87C64.0469 253.297 63.2282 253.51 62.4023 253.503V235.712L96.8036 205.86L105.133 210.658L116.809 206.194Z" fill="#D6EDFF"/>
<path d="M59.989 173.424L10.3663 201.994C7.21241 203.809 7.21241 208.352 10.3592 210.174L60.0673 238.951C61.5268 239.798 63.3351 239.798 64.7946 238.951L114.453 210.281C117.6 208.466 117.6 203.916 114.453 202.101L64.7092 173.424C63.2426 172.583 61.4485 172.583 59.989 173.424Z" fill="white"/>
<path d="M59.989 172.982L10.3663 201.553C7.21241 203.368 7.21241 207.91 10.3592 209.733L60.0673 238.51C61.5268 239.357 63.3351 239.357 64.7946 238.51L114.453 209.84C117.6 208.024 117.6 203.475 114.453 201.659L64.7092 172.982C63.2426 172.142 61.4485 172.142 59.989 172.982Z" fill="#EFF8FF"/>
<path opacity="0.33" d="M24.5443 202.542L60.1487 181.696C61.1383 181.112 62.37 181.105 63.3667 181.675L100.053 202.563C102.21 203.795 102.225 206.899 100.068 208.145L63.9576 228.991C62.9609 229.567 61.7363 229.567 60.7396 228.991L24.5585 208.102C22.4226 206.871 22.4155 203.788 24.5443 202.542Z" fill="#6A99DC"/>
<path d="M90.9262 189L62.6406 205.333L62.3486 221.835L90.6343 205.76L90.9262 189Z" fill="#A9D1EA"/>
<path d="M34.3555 189.001L62.2495 172.676L90.9267 189.001L62.6411 205.333L34.3555 189.001Z" fill="#BBE0FD"/>
<path d="M46.5996 189L62.1271 179.916L78.089 189L62.3478 198.092L46.5996 189Z" fill="#15325C"/>
<path d="M34.3555 205.76V189L62.6411 205.333L62.3492 221.835L34.3555 205.76Z" fill="#77B8E0"/>
<path d="M75.8395 181.881C74.4512 184.01 72.5076 186.089 69.788 187.819C63.4873 192.881 52.146 191.642 48.9636 185.555C48.9636 185.555 43.6881 181.155 44.5282 173.58C45.8951 177.332 49.1344 179.596 49.5331 179.859C44.3359 175.424 47.6465 162.445 47.6465 162.445C47.6465 162.445 48.9209 168.326 54.175 172.726C54.175 172.726 52.5589 164.026 54.6093 155.731C55.6203 151.602 57.5568 147.544 61.0453 144.746C59.6001 157.995 66.3564 166.389 66.3564 166.389C70.7562 161.114 69.6883 153.354 69.6883 153.354C69.6883 153.354 76.0246 165.514 73.1128 174.783C77.0925 173.302 79.3921 169.721 79.3921 169.721C79.3921 169.721 79.7624 175.979 75.8395 181.881Z" fill="#77B8E0"/>
<path opacity="0.33" d="M75.8395 181.881C74.4512 184.01 72.5076 186.089 69.788 187.819C68.2644 189.036 66.4347 189.891 64.4982 190.41C58.468 192.012 51.3842 190.161 48.9636 185.555C48.9636 185.555 43.6881 181.155 44.5282 173.58C45.8951 177.332 49.1344 179.596 49.5331 179.859C44.3359 175.424 47.6465 162.445 47.6465 162.445C47.6465 162.445 48.1804 164.88 49.9461 167.778C50.9143 169.394 52.2883 171.166 54.1679 172.726C54.1679 172.726 52.5518 164.026 54.6022 155.731C54.595 174.342 64.1494 182.145 75.8395 181.881Z" fill="#77B8E0"/>
<path opacity="0.33" d="M64.4914 190.403C58.4612 192.005 51.3773 190.154 48.9567 185.548C48.9567 185.548 43.6812 181.148 44.5213 173.573C45.8883 177.325 49.1276 179.589 49.5263 179.852C44.3291 175.417 47.6396 162.438 47.6396 162.438C47.6396 162.438 48.1736 164.873 49.9392 167.77C51.7262 181.098 59.2016 187.491 64.4914 190.403Z" fill="#77B8E0"/>
<path d="M57.7635 176.122C58.4825 177.225 59.4935 178.307 60.9032 179.204C64.171 181.832 70.0588 181.191 71.7105 178.03C71.7105 178.03 74.4444 175.752 74.0101 171.814C73.2981 173.758 71.618 174.933 71.4115 175.075C74.1098 172.776 72.3869 166.041 72.3869 166.041C72.3869 166.041 71.7248 169.095 68.998 171.373C68.998 171.373 69.8381 166.859 68.7702 162.552C68.2433 160.409 67.2395 158.309 65.4312 156.856C66.1787 163.727 62.6759 168.084 62.6759 168.084C60.3977 165.35 60.9459 161.32 60.9459 161.32C60.9459 161.32 57.6567 167.628 59.166 172.441C57.1014 171.672 55.9053 169.814 55.9053 169.814C55.9053 169.814 55.7273 173.06 57.7635 176.122Z" fill="#77B8E0"/>
<path opacity="0.33" d="M57.7637 176.122C58.4827 177.225 59.4937 178.308 60.9034 179.205C61.6936 179.838 62.6405 180.28 63.6515 180.55C66.784 181.383 70.4577 180.422 71.7107 178.03C71.7107 178.03 74.4446 175.752 74.0103 171.815C73.2983 173.758 71.6182 174.933 71.4117 175.075C74.11 172.776 72.3871 166.041 72.3871 166.041C72.3871 166.041 72.1094 167.308 71.191 168.803C70.6855 169.643 69.9736 170.562 68.9982 171.373C68.9982 171.373 69.8383 166.86 68.7704 162.552C68.7846 172.213 63.8223 176.264 57.7637 176.122Z" fill="#77B8E0"/>
<path opacity="0.33" d="M63.6445 180.55C66.7771 181.383 70.4507 180.422 71.7038 178.03C71.7038 178.03 74.4376 175.751 74.0033 171.814C73.2914 173.758 71.6112 174.933 71.4048 175.075C74.103 172.776 72.3801 166.041 72.3801 166.041C72.3801 166.041 72.1025 167.308 71.1841 168.803C70.2728 175.723 66.3926 179.041 63.6445 180.55Z" fill="#77B8E0"/>
<path d="M403.618 52.4396V98.3103L402.322 99.3497L363.186 75.2432L361.891 30.412L363.186 29.3726L403.618 52.4396Z" fill="#143786"/>
<path d="M361.891 30.4121V76.2828L402.322 99.3499V53.472L361.891 30.4121Z" fill="#D6EFFB"/>
<path d="M361.891 30.4121V39.9949L402.322 63.062V53.472L361.891 30.4121Z" fill="#407BFF"/>
<path d="M364.696 48.5522L364.718 51.7418L386.681 64.4642L386.546 61.1893L364.696 48.5522Z" fill="#FFD152"/>
<path d="M375.689 75.1362L375.711 78.3257L397.674 91.0553L397.539 87.7733L375.689 75.1362Z" fill="#FFD152"/>
<path d="M389.209 62.7695V65.8594L397.46 70.6508V67.5538L389.209 62.7695Z" fill="#77B8E0"/>
<path d="M368.249 64.3789V67.4687L376.5 72.253V69.1632L368.249 64.3789Z" fill="#77B8E0"/>
<path d="M365.572 69.9033V72.9932L373.831 77.7846V74.6947L365.572 69.9033Z" fill="white"/>
<path d="M378.273 62.7695L397.446 73.8403V77.0369L378.237 65.8594L378.273 62.7695Z" fill="white"/>
<path d="M378.273 69.4976L397.446 80.5683V83.7721L378.237 72.5945L378.273 69.4976Z" fill="white"/>
<path opacity="0.33" d="M210.189 233.532L241.546 251.799L188.65 282.614L157.567 264.073L210.189 233.532Z" fill="#6A99DC"/>
<path d="M211.474 221.561L210.52 223.212L240.241 240.386L241.195 238.735L211.474 221.561Z" fill="#D7DFE9"/>
<path d="M240.456 252.916C241.056 252.916 241.546 252.426 241.546 251.826V217.198C241.546 216.597 241.056 216.107 240.456 216.107C239.855 216.107 239.365 216.597 239.365 217.198V251.826C239.365 252.426 239.855 252.916 240.456 252.916Z" fill="#D7DFE9"/>
<path d="M241.867 244.736V251.778C241.867 252.558 241.235 253.185 240.461 253.185C239.687 253.185 239.055 252.552 239.055 251.778V244.736H241.867Z" fill="#1C427E"/>
<path d="M158.658 265.184C159.258 265.184 159.748 264.694 159.748 264.094V229.466C159.748 228.865 159.258 228.375 158.658 228.375C158.057 228.375 157.567 228.865 157.567 229.466V264.094C157.567 264.694 158.057 265.184 158.658 265.184Z" fill="#D7DFE9"/>
<path d="M160.07 257.003V264.046C160.07 264.826 159.438 265.452 158.663 265.452C157.884 265.452 157.257 264.82 157.257 264.046V257.003H160.07Z" fill="#152D53"/>
<path d="M188.651 282.909C189.251 282.909 189.741 282.419 189.741 281.819V247.19C189.741 246.59 189.251 246.1 188.651 246.1C188.05 246.1 187.561 246.59 187.561 247.19V281.819C187.561 282.419 188.05 282.909 188.651 282.909Z" fill="#D7DFE9"/>
<path d="M210.189 200.563L241.546 215.833V218.83L188.65 249.645L157.567 231.104V228.101L210.189 200.563Z" fill="#A9D1EA"/>
<path d="M210.189 197.566L241.546 215.833L188.65 246.643L157.567 228.101L210.189 197.566Z" fill="#BBE0FD"/>
<path d="M190.063 274.729V281.771C190.063 282.551 189.431 283.177 188.656 283.177C187.877 283.177 187.25 282.545 187.25 281.771V274.729H190.063Z" fill="#152D53"/>
<path d="M159.122 252.64L158.168 254.291L187.889 271.465L188.843 269.814L159.122 252.64Z" fill="#D7DFE9"/>
<g clip-path="url(#clip4)">
<path d="M199.231 213.77C199.525 213.476 199.525 212.999 199.231 212.705C198.936 212.411 198.459 212.411 198.164 212.705C197.87 212.999 197.87 213.476 198.164 213.77C198.459 214.065 198.936 214.065 199.231 213.77Z" fill="#D6EFFB"/>
<path d="M198.497 198.619L197.899 213.078L182.806 222.876L182.208 222.554C182.056 222.472 181.934 222.352 181.849 222.211C181.764 222.069 181.717 221.904 181.717 221.732V207.797C181.717 207.669 181.751 207.545 181.813 207.438C181.874 207.33 181.964 207.238 182.075 207.174L197.051 198.415C197.203 198.325 197.374 198.28 197.545 198.278C197.717 198.276 197.889 198.318 198.043 198.404L198.497 198.619Z" fill="#A9D1EA"/>
<path d="M198.655 199V213.553L182.474 222.765V208.27C182.474 208.144 182.507 208.023 182.567 207.916C182.628 207.808 182.718 207.715 182.83 207.649L198.133 198.701C198.249 198.633 198.38 198.641 198.481 198.699C198.582 198.757 198.655 198.866 198.655 199Z" fill="#D6EFFB"/>
<path d="M198.32 200.232V212.383L196.405 213.474L195.83 213.802L191.897 216.041L189.719 217.28L186.299 219.228L182.977 221.119V209.205L186.229 207.304L187.989 206.274L190.767 204.65L194.108 202.695L196.189 201.479L197.708 200.591L198.32 200.232Z" fill="#183561"/>
<path opacity="0.33" d="M183.005 226.376L194.531 233.067C194.753 233.195 195.027 233.195 195.249 233.067L211.01 223.925C211.245 223.789 211.363 223.553 211.366 223.316C211.369 223.074 211.251 222.831 211.013 222.692L205.883 219.689C205.728 219.598 205.543 219.569 205.367 219.608L184.824 224.159C184.755 224.173 184.691 224.199 184.629 224.233L183.015 225.135C182.532 225.406 182.527 226.098 183.005 226.376Z" fill="#15325C"/>
<path d="M182.964 224.387L194.961 231.268C195.09 231.342 195.231 231.385 195.374 231.398C195.58 231.416 195.79 231.372 195.975 231.265L210.751 222.7C210.861 222.637 210.949 222.547 211.011 222.442C211.077 222.329 211.111 222.197 211.107 222.061L211.087 221.379L198.487 214.643L182.474 222.766V223.541C182.474 223.702 182.513 223.857 182.585 223.995C182.67 224.155 182.8 224.293 182.964 224.387Z" fill="#A9D1EA"/>
<path d="M182.474 222.765L194.922 230.386C195.066 230.474 195.225 230.526 195.387 230.541C195.606 230.56 195.829 230.513 196.025 230.4L210.844 221.81C210.998 221.721 211.088 221.576 211.113 221.422C211.149 221.211 211.063 220.982 210.855 220.855L198.488 213.302L182.474 222.765Z" fill="#D6EFFB"/>
<path d="M208.458 220.101L193.828 228.746L184.038 222.767L198.669 214.122L208.458 220.101Z" fill="#77B8E0"/>
<path d="M182.698 223.41C183.109 223.344 183.388 222.957 183.322 222.546C183.255 222.135 182.867 221.857 182.456 221.923C182.045 221.99 181.766 222.377 181.833 222.788C181.899 223.198 182.287 223.477 182.698 223.41Z" fill="#A9D1EA"/>
<g opacity="0.71">
<path opacity="0.71" d="M191.669 221.126L193.657 219.952L195.149 220.834L193.162 222.008L191.669 221.126Z" fill="#D6EDFF"/>
<path opacity="0.71" d="M197.419 219.493L195.432 220.667L193.939 219.785L195.926 218.61L197.419 219.493Z" fill="#D6EDFF"/>
<path opacity="0.71" d="M191.387 220.959L189.96 220.115L191.947 218.941L193.374 219.785L191.387 220.959Z" fill="#D6EDFF"/>
<path opacity="0.71" d="M189.118 222.3L187.689 221.456L189.677 220.282L191.104 221.126L189.118 222.3Z" fill="#D6EDFF"/>
<path opacity="0.71" d="M203.24 220.25L201.253 221.424L199.761 220.542L201.747 219.368L203.24 220.25Z" fill="#D6EDFF"/>
<path opacity="0.71" d="M199.194 220.542L197.208 221.716L195.715 220.834L197.702 219.66L199.194 220.542Z" fill="#D6EDFF"/>
<path opacity="0.71" d="M201.465 219.2L199.478 220.375L197.985 219.492L199.972 218.318L201.465 219.2Z" fill="#D6EDFF"/>
<path opacity="0.71" d="M186.824 223.655L185.422 222.797L187.407 221.624L188.834 222.468L186.824 223.655Z" fill="#D6EDFF"/>
<path opacity="0.71" d="M202.03 219.2L203.96 218.06L205.428 218.957L203.523 220.083L202.03 219.2Z" fill="#D6EDFF"/>
<path opacity="0.71" d="M205.707 219.127L207.123 219.991L205.246 221.101L203.807 220.25L205.707 219.127Z" fill="#D6EDFF"/>
<path opacity="0.71" d="M200.255 218.151L202.214 216.993L203.682 217.89L201.748 219.033L200.255 218.151Z" fill="#D6EDFF"/>
<path opacity="0.71" d="M197.49 221.883L199.478 220.709L200.971 221.591L198.983 222.766L197.49 221.883Z" fill="#D6EDFF"/>
<path opacity="0.71" d="M193.657 219.618L192.229 218.774L194.215 217.6L195.643 218.443L193.657 219.618Z" fill="#D6EDFF"/>
<path opacity="0.71" d="M195.926 218.276L194.499 217.433L196.486 216.258L197.913 217.101L195.926 218.276Z" fill="#D6EDFF"/>
<path opacity="0.71" d="M198.479 217.102L200.468 215.927L201.936 216.823L199.972 217.984L198.479 217.102Z" fill="#D6EDFF"/>
<path opacity="0.71" d="M190.893 223.684L192.386 224.566L190.313 225.791L188.847 224.894L190.893 223.684Z" fill="#D6EDFF"/>
<path opacity="0.71" d="M190.591 225.961L192.668 224.733L194.161 225.616L192.057 226.858L190.591 225.961Z" fill="#D6EDFF"/>
<path opacity="0.71" d="M192.952 224.566L194.939 223.392L196.431 224.274L194.445 225.448L192.952 224.566Z" fill="#D6EDFF"/>
<path opacity="0.71" d="M198.197 216.935L196.769 216.091L198.786 214.899L200.189 215.757L198.197 216.935Z" fill="#D6EDFF"/>
<path opacity="0.71" d="M194.445 225.783L195.884 226.633L193.749 227.894L192.335 227.028L194.445 225.783Z" fill="#D6EDFF"/>
<path opacity="0.71" d="M194.728 225.616L196.714 224.441L198.153 225.291L196.166 226.466L194.728 225.616Z" fill="#D6EDFF"/>
<path opacity="0.71" d="M189.118 222.635L190.61 223.517L188.569 224.723L187.103 223.826L189.118 222.635Z" fill="#D6EDFF"/>
<path opacity="0.71" d="M193.445 222.175L195.432 221.001L196.925 221.883L194.938 223.058L193.445 222.175Z" fill="#D6EDFF"/>
<path opacity="0.71" d="M189.4 222.467L191.387 221.293L192.88 222.175L190.893 223.349L189.4 222.467Z" fill="#D6EDFF"/>
<path opacity="0.71" d="M191.176 223.517L193.162 222.343L194.655 223.225L192.668 224.398L191.176 223.517Z" fill="#D6EDFF"/>
<path opacity="0.71" d="M195.222 223.225L197.208 222.05L198.701 222.933L198.795 222.877L196.714 224.107L195.222 223.225Z" fill="#D6EDFF"/>
<path opacity="0.71" d="M199.689 218.151L197.702 219.325L196.209 218.443L198.197 217.269L199.689 218.151Z" fill="#D6EDFF"/>
<path opacity="0.71" d="M201.536 221.591L203.523 220.417L204.963 221.268L202.976 222.442L201.536 221.591Z" fill="#D6EDFF"/>
<path opacity="0.71" d="M196.996 224.274L201.253 221.758L202.692 222.609L198.436 225.124L196.996 224.274Z" fill="#D6EDFF"/>
</g>
<path d="M191.476 208.814L191.11 209.028L190.322 209.489L188.867 210.34V210.984L190.322 210.133L191.11 209.672L191.476 209.458V208.814Z" fill="white"/>
<path d="M187.508 207.922L187.141 208.136L186.354 208.598L184.898 209.449V210.092L186.354 209.241L187.141 208.78L187.508 208.566V207.922Z" fill="white"/>
<path d="M187.508 209.012L187.141 209.227L186.354 209.687L184.898 210.538V211.182L186.354 210.331L187.141 209.871L187.508 209.657V209.012Z" fill="#FEC400"/>
<path d="M195.459 208.07L194.779 208.468L193.848 209.012L192.352 209.887L191.229 210.545V211.189L192.352 210.531L193.848 209.656L194.779 209.111L195.459 208.714L195.733 208.554V207.91L195.459 208.07Z" fill="#F02098"/>
<path d="M191.03 210.66L190.322 211.074L188.867 211.925V212.569L190.322 211.718L191.03 211.305V210.66Z" fill="white"/>
<path d="M192.22 212.541L191.11 213.19L190.322 213.651L188.867 214.502V215.146L190.322 214.295L191.11 213.834L192.22 213.185V212.541Z" fill="#FEC400"/>
<path d="M195.459 210.647L194.779 211.044L193.848 211.588L192.419 212.425V213.069L193.848 212.232L194.779 211.688L195.459 211.29L195.733 211.13V210.486L195.459 210.647Z" fill="white"/>
<path d="M193.262 210.643L192.352 211.175L191.11 211.901L190.385 212.326V212.969L191.11 212.545L192.352 211.818L193.262 211.287V210.643Z" fill="white"/>
<path d="M190.187 212.442L188.867 213.213V213.858L190.187 213.086V212.442Z" fill="white"/>
<path d="M195.459 209.358L194.78 209.755L193.848 210.3L193.46 210.527V211.171L193.848 210.944L194.78 210.399L195.459 210.002L195.733 209.842V209.198L195.459 209.358Z" fill="white"/>
<path d="M180.751 214.257V221.527L180.956 221.692L187.166 217.872L187.371 210.766L187.166 210.602L180.751 214.257Z" fill="#183561"/>
<path d="M187.371 210.766V218.036L180.956 221.691V214.422L187.371 210.766Z" fill="#A9D1EA"/>
<path d="M187.371 210.766V212.286L180.956 215.942V214.422L187.371 210.766Z" fill="#3C6A9E"/>
<path d="M186.927 213.642L186.924 214.147L183.438 216.164L183.46 215.645L186.927 213.642Z" fill="#FEC400"/>
<path d="M185.182 217.854L185.18 218.361L181.694 220.377L181.716 219.857L185.182 217.854Z" fill="#FEC400"/>
<path d="M183.037 215.895V216.385L181.728 217.143V216.654L183.037 215.895Z" fill="#77B8E0"/>
<path d="M186.363 216.149V216.639L185.054 217.398V216.909L186.363 216.149Z" fill="#77B8E0"/>
<path d="M186.787 217.025V217.515L185.477 218.274V217.784L186.787 217.025Z" fill="white"/>
<path d="M184.773 215.895L181.73 217.648V218.156L184.778 216.385L184.773 215.895Z" fill="white"/>
<path d="M184.773 216.961L181.73 218.715V219.223L184.778 217.452L184.773 216.961Z" fill="white"/>
</g>
<g clip-path="url(#clip5)">
<path opacity="0.33" d="M246.983 277.518L227.703 288.795L207.939 276.485L227.411 265.863L246.983 277.518Z" fill="#6A99DC"/>
<path d="M227.077 289.421C226.728 289.421 226.45 289.137 226.45 288.795V266.49C226.45 266.141 226.728 265.863 227.077 265.863C227.426 265.863 227.703 266.141 227.703 266.49V288.795C227.703 289.144 227.426 289.421 227.077 289.421Z" fill="#D7DFE9"/>
<path d="M226.266 285.185V289.243C226.266 289.692 226.629 290.055 227.077 290.055C227.526 290.055 227.889 289.692 227.889 289.243V285.185H226.266Z" fill="#152D53"/>
<path d="M247.61 278.144C247.261 278.144 246.983 277.866 246.983 277.518V255.205C246.983 254.856 247.261 254.579 247.61 254.579C247.959 254.579 248.236 254.863 248.236 255.205V277.518C248.244 277.859 247.959 278.144 247.61 278.144Z" fill="#D7DFE9"/>
<path d="M246.805 273.908V277.966C246.805 278.415 247.168 278.778 247.616 278.778C248.065 278.778 248.428 278.415 248.428 277.966V273.908H246.805Z" fill="#152D53"/>
<path d="M207.905 278.379C207.556 278.379 207.278 278.101 207.278 277.753V255.447C207.278 255.098 207.556 254.821 207.905 254.821C208.254 254.821 208.531 255.098 208.531 255.447V277.753C208.531 278.101 208.254 278.379 207.905 278.379Z" fill="#D7DFE9"/>
<path d="M228.258 266.902C228.173 267.365 227.874 267.721 227.49 267.892C227.105 268.07 226.642 268.07 226.237 267.828L207.178 256.622V254.707L228.258 266.902Z" fill="#A9D1EA"/>
<path d="M232.281 246.256L226.778 243.465L207.264 254.792L226.778 266.29L232.281 246.256Z" fill="#BBE0FD"/>
<path d="M207.093 274.143V278.201C207.093 278.65 207.456 279.013 207.904 279.013C208.353 279.013 208.716 278.65 208.716 278.201V274.143H207.093Z" fill="#152D53"/>
<path d="M226.607 266.119L233.229 238.937L253.612 226.044L255.27 227.176L246.82 254.443L228.259 267.073L226.607 266.119Z" fill="#A9D1EA"/>
<path d="M228.345 267.166L234.966 239.984L255.356 227.09L248.557 255.49L228.345 267.166Z" fill="#D7DFE9"/>
</g>
<path d="M126.754 26.176C125.23 19.263 121.699 14.1583 116.523 12.5208C110.941 10.7552 104.605 13.4037 99.0875 19.0067C96.5032 9.80833 91.3914 3.09467 84.1865 0.823565C68.5664 -4.11022 49.0448 13.6315 40.5798 40.4434C40.0672 42.0666 39.6115 43.6827 39.1986 45.2917C30.8475 47.8262 22.3611 57.8077 18.1108 71.2706C16.1956 77.3293 15.3911 83.3025 15.5691 88.6706L14.6792 89.1832C8.07233 92.9707 4 100.012 4 107.623C4 123.962 21.6634 134.192 35.8382 126.062L141.463 65.4825C148.069 61.695 152.149 54.6538 152.149 47.0431C152.142 33.1246 139.32 23.6486 126.754 26.176Z" fill="#EFF8FF"/>
<path fill-rule="evenodd" clip-rule="evenodd" d="M109.146 59.3394L105.732 61.4034L110.336 37.6671L114.306 36L119.386 53.5442L116.132 55.3701L115.179 51.7184L109.781 55.0526L109.146 59.3394ZM114.544 48.8603L110.495 51.5594L112.559 42.1125L114.544 48.8603ZM87.5532 71.5649L84.1396 73.6289L88.7439 49.8926L92.7132 48.2255L97.7939 65.7697L94.5391 67.5956L93.5865 63.9439L88.1882 67.2781L87.5532 71.5649ZM92.9518 61.0857L88.9032 63.7848L90.9672 54.3379L92.9518 61.0857ZM103.192 62.4355L99.6193 64.4201L99.9368 47.8285L95.3325 50.4483V46.1614L107.002 39.8106V43.6211L103.192 46.1614V62.4355ZM41.5889 97.9999L44.1292 96.4122V84.6631L49.6068 93.4749L51.909 92.1254V71.5645L49.6068 73.1522V84.6631L44.1292 76.4864L41.5889 78.2329V97.9999ZM61.3567 65.6104C59.9012 66.0338 56.6253 67.8332 55.1646 71.6437C53.3387 76.4069 54.3707 85.6156 55.7203 87.3621C57.0698 89.1086 60.9597 88.3941 62.865 85.695C64.7702 82.9959 66.1198 80.2174 66.3579 76.8832C66.5961 73.549 66.6755 68.6271 64.7702 66.7218C63.246 65.1976 61.8594 65.3458 61.3567 65.6104ZM60.9856 69.6096C60.0462 69.883 57.9317 71.0446 56.9888 73.5046C55.8103 76.5796 56.4764 82.5246 57.3475 83.652C58.2186 84.7795 60.7294 84.3183 61.9592 82.5758C63.1889 80.8333 64.06 79.0396 64.2137 76.8871C64.3675 74.7346 64.4187 71.5571 63.1889 70.3271C62.2051 69.3432 61.3101 69.4388 60.9856 69.6096ZM72.1524 79.8999V60.4504C72.4795 60.2205 72.7636 59.9067 73.1011 59.5338C73.7735 58.7909 74.658 57.8136 76.5186 56.7987C80.0115 54.8934 81.6786 56.243 82.5519 57.9101C83.4251 59.5772 83.4251 64.8166 82.9488 67.9127C82.9203 68.0981 82.8926 68.2806 82.8654 68.4605C82.4374 71.2839 82.1107 73.4393 80.1703 75.4543C78.5191 77.1691 74.137 79.1325 72.1524 79.8999ZM74.2964 75.2165V63.3947C74.4974 63.2549 74.6718 63.0642 74.8791 62.8375C75.2921 62.3859 75.8354 61.7919 76.9782 61.175C79.1237 60.017 80.1476 60.8373 80.684 61.8506C81.2204 62.8639 81.2204 66.0485 80.9278 67.9304C80.9159 68.0069 80.9043 68.0826 80.8928 68.1575L80.8766 68.2633C80.6137 69.9795 80.4131 71.2896 79.2212 72.5144C78.207 73.5566 75.5154 74.7501 74.2964 75.2165Z" fill="#98AEC6"/>
<defs>
<clipPath id="clip0">
<rect width="72.1201" height="91.8482" fill="white" transform="translate(97.7051 82.0308)"/>
</clipPath>
<clipPath id="clip1">
<rect width="136.694" height="87.5694" fill="white" transform="translate(279.251 150.377)"/>
</clipPath>
<clipPath id="clip2">
<rect width="175.851" height="174.427" fill="white" transform="translate(139.713 9.47656)"/>
</clipPath>
<clipPath id="clip3">
<rect width="25.6229" height="23.6224" fill="white" transform="translate(163.916 104.102)"/>
</clipPath>
<clipPath id="clip4">
<rect width="30.6137" height="34.8854" fill="white" transform="translate(180.751 198.278)"/>
</clipPath>
<clipPath id="clip5">
<rect width="48.2628" height="64.0111" fill="white" transform="translate(207.093 226.044)"/>
</clipPath>
</defs>
</svg>
